M48
; DRILL file {KiCad (6.0.5)} date jeu. 02 juin 2022 12:02:45
; FORMAT={-:-/ absolute / inch / decimal}
; #@! TF.CreationDate,2022-06-02T12:02:45+02:00
; #@! TF.GenerationSoftware,Kicad,Pcbnew,(6.0.5)
; #@! TF.FileFunction,Plated,1,2,PTH
FMAT,2
INCH
; #@! TA.AperFunction,Plated,PTH,ViaDrill
T1C0.0157
; #@! TA.AperFunction,Plated,PTH,ComponentDrill
T2C0.0315
; #@! TA.AperFunction,Plated,PTH,ComponentDrill
T3C0.0394
; #@! TA.AperFunction,Plated,PTH,ComponentDrill
T4C0.0472
; #@! TA.AperFunction,Plated,PTH,ComponentDrill
T5C0.0591
%
G90
G05
T1
X3.8568Y-1.678
X3.9232Y-2.0387
X4.9567Y-2.6214
X4.9744Y-2.6903
X4.9882Y-2.5702
X4.9882Y-2.7474
X5.1535Y-4.5407
X5.2146Y-2.7454
X5.311Y-4.8602
X5.3209Y-2.9363
X5.3228Y-2.8694
X5.3622Y-4.6922
X5.376Y-1.7356
X5.4094Y-2.9481
X5.5492Y-2.6135
X5.6654Y-2.2198
X5.6831Y-2.0584
X5.7343Y-2.9501
X5.8563Y-2.4511
X6.1339Y-2.7887
X6.1358Y-2.4304
X6.1437Y-2.4875
X6.1791Y-4.0505
X6.2008Y-2.9068
X6.2067Y-2.8537
X6.2441Y-2.4285
X6.3091Y-2.9895
X6.3371Y-3.4152
X6.3622Y-2.4029
X6.4154Y-3.2848
X6.4439Y-4.0141
X6.4547Y-3.0269
X6.5197Y-2.5052
X6.5888Y-3.9127
X6.627Y-2.4482
X6.6339Y-2.9915
X6.6713Y-3.9462
X6.6803Y-3.4194
X6.7362Y-2.5741
X6.748Y-2.7218
X6.7559Y-3.769
X6.7953Y-4.935
X6.8701Y-4.8537
X6.8799Y-4.9422
X7.0443Y-3.7218
X7.0531Y-2.9836
X7.061Y-3.9383
X7.061Y-4.5879
X7.061Y-4.7237
X7.0748Y-3.6765
X7.0822Y-3.0421
X7.0866Y-3.773
X7.1043Y-2.9107
X7.1535Y-2.7375
X7.1535Y-2.8015
X7.1535Y-4.5643
X7.1535Y-4.7257
X7.1555Y-3.7434
X7.1969Y-3.6509
X7.2067Y-4.3438
X7.2146Y-4.5682
X7.2264Y-2.8025
X7.248Y-4.1489
X7.2539Y-3.9836
X7.2874Y-2.8064
X7.2972Y-2.6637
X7.3012Y-4.0643
X7.3268Y-2.9048
X7.3465Y-2.8025
X7.3524Y-2.6529
X7.9862Y-2.8438
T2
X4.3492Y-1.7155
X4.3689Y-2.5537
X4.7492Y-1.7155
X4.7689Y-2.5537
X5.0382Y-1.8316
X5.0382Y-2.0285
X5.0382Y-2.1911
X5.0382Y-2.3879
X5.2126Y-2.1891
X5.2126Y-2.5891
X5.2177Y-1.6304
X5.2177Y-2.0304
X5.3969Y-3.6568
X5.3969Y-3.8537
X5.4271Y-2.6005
X5.5098Y-4.811
X5.5504Y-3.6568
X5.5504Y-3.8537
X5.5986Y-4.9263
X5.7067Y-4.811
X5.8106Y-4.8169
X5.8271Y-2.6005
X5.8386Y-3.7434
X5.8386Y-3.893
X5.8433Y-3.6017
X5.9717Y-3.0198
X5.9717Y-3.4198
X5.9984Y-1.8064
X5.9984Y-2.0033
X5.9984Y-2.1481
X5.9984Y-2.5481
X5.9986Y-4.9263
X6.0189Y-4.0167
X6.0189Y-4.4167
X6.0937Y-3.0198
X6.0937Y-3.4198
X6.1026Y-4.9263
X6.185Y-1.9017
X6.185Y-2.3017
X6.2106Y-4.8169
X6.2386Y-3.7434
X6.2386Y-3.893
X6.2433Y-3.6017
X6.3071Y-4.815
X6.3346Y-1.9017
X6.3346Y-2.3017
X6.4843Y-1.9017
X6.4843Y-2.3017
X6.5026Y-4.9263
X6.5039Y-4.815
X6.5346Y-3.645
X6.5346Y-3.8419
X6.6803Y-3.645
X6.6803Y-3.8419
X7.1575Y-3.8686
X7.2303Y-3.0553
X7.2303Y-3.4553
X7.3657Y-3.7328
X7.5575Y-3.8686
X7.5626Y-3.7328
X7.7299Y-3.7328
X7.7354Y-3.8686
X7.9268Y-3.7328
X8.0217Y-3.0521
X8.0217Y-3.4521
X8.1354Y-3.8686
T3
X2.6953Y-4.7001
X2.7953Y-4.7001
X2.8953Y-4.7001
X2.9953Y-4.7001
X3.0953Y-4.7001
X3.1953Y-4.7001
X3.2953Y-4.7001
X3.3953Y-4.7001
X3.4953Y-4.7001
X3.5043Y-1.6966
X3.5043Y-1.7966
X3.5953Y-4.7001
X3.6043Y-1.6966
X3.6043Y-1.7966
X3.6953Y-4.7001
X3.7043Y-1.6966
X3.7043Y-1.7966
X3.7953Y-4.7001
X3.8953Y-4.7001
X3.9953Y-4.7001
X4.0953Y-4.7001
X4.1031Y-1.933
X4.1031Y-2.033
X4.1031Y-2.133
X4.1031Y-2.233
X4.1031Y-2.333
X4.1953Y-4.7001
X4.2953Y-4.7001
X4.3953Y-4.7001
X4.4953Y-4.7001
X4.5953Y-4.7001
X4.8597Y-2.0293
X4.8597Y-2.1277
X4.8597Y-2.2261
X5.4163Y-2.7693
X5.5163Y-2.7693
X5.5189Y-3.487
X5.6163Y-2.7693
X5.6173Y-3.487
X5.7157Y-3.487
X5.7163Y-2.7693
X5.8163Y-2.7693
X6.2687Y-2.7749
X6.3614Y-3.4831
X6.3687Y-2.7749
X6.4598Y-3.4831
X6.4687Y-2.7749
X6.5583Y-3.4831
X6.5687Y-2.7749
X6.6687Y-2.7749
X6.8583Y-2.7257
X6.8583Y-2.8257
X6.8583Y-2.9257
X6.8583Y-3.0257
X6.8583Y-3.1257
X6.8583Y-3.2257
X6.8583Y-3.3257
X6.8583Y-3.4257
X6.8583Y-3.5257
X6.8583Y-3.6257
X6.8583Y-3.7257
X6.8583Y-3.8257
X6.8583Y-3.9257
X6.8583Y-4.0257
X6.8583Y-4.1257
X6.8583Y-4.2257
X6.8583Y-4.3257
X6.8583Y-4.4257
X6.8583Y-4.5257
X6.8583Y-4.6257
X6.9583Y-2.7257
X6.9583Y-2.8257
X6.9583Y-2.9257
X6.9583Y-3.0257
X6.9583Y-3.1257
X6.9583Y-3.2257
X6.9583Y-3.3257
X6.9583Y-3.4257
X6.9583Y-3.5257
X6.9583Y-3.6257
X6.9583Y-3.7257
X6.9583Y-3.8257
X6.9583Y-3.9257
X6.9583Y-4.0257
X6.9583Y-4.1257
X6.9583Y-4.2257
X6.9583Y-4.3257
X6.9583Y-4.4257
X6.9583Y-4.5257
X6.9583Y-4.6257
X7.4293Y-2.8379
X7.5287Y-4.7857
X7.5293Y-2.8379
X7.5402Y-3.5414
X7.6287Y-4.7857
X7.6293Y-2.8379
X7.6386Y-3.5414
X7.6831Y-4.1696
X7.6831Y-4.2696
X7.6831Y-4.3696
X7.7287Y-4.7857
X7.7293Y-2.8379
X7.737Y-3.5414
X7.7831Y-4.1696
X7.7831Y-4.2696
X7.7831Y-4.3696
X7.8287Y-4.7857
X7.8293Y-2.8379
X7.9748Y-4.1694
X7.9748Y-4.2694
X7.9748Y-4.3694
X8.0067Y-2.5293
X8.0067Y-2.6293
X8.0748Y-4.1694
X8.0748Y-4.2694
X8.0748Y-4.3694
X8.1067Y-2.5293
X8.1067Y-2.6293
X8.2067Y-2.5293
X8.2067Y-2.6293
T4
X5.5299Y-1.8737
X5.5299Y-2.3659
X5.5484Y-4.0879
X5.5484Y-4.58
X5.7267Y-1.8737
X5.7267Y-2.3659
X5.7453Y-4.0879
X5.7453Y-4.58
X6.3634Y-4.0997
X6.3634Y-4.5919
X6.5602Y-4.0997
X6.5602Y-4.5919
T5
G00X4.5153Y-1.9033
M15
G01X4.6137Y-1.9033
M16
G05
G00X4.5153Y-2.3521
M15
G01X4.6137Y-2.3521
M16
G05
G00X5.3929Y-3.1425
M15
G01X5.3929Y-3.241
M16
G05
G00X5.8417Y-3.1425
M15
G01X5.8417Y-3.241
M16
G05
G00X6.2354Y-3.1386
M15
G01X6.2354Y-3.237
M16
G05
G00X6.6843Y-3.1386
M15
G01X6.6843Y-3.237
M16
G05
G00X7.4142Y-3.1969
M15
G01X7.4142Y-3.2953
M16
G05
G00X7.863Y-3.1969
M15
G01X7.863Y-3.2953
M16
G05
T0
M30
