%TF.GenerationSoftware,KiCad,Pcbnew,(6.0.5)*%
%TF.CreationDate,2022-06-02T12:02:42+02:00*%
%TF.ProjectId,norns_fork,6e6f726e-735f-4666-9f72-6b2e6b696361,rev?*%
%TF.SameCoordinates,Original*%
%TF.FileFunction,Legend,Top*%
%TF.FilePolarity,Positive*%
%FSLAX46Y46*%
G04 Gerber Fmt 4.6, Leading zero omitted, Abs format (unit mm)*
G04 Created by KiCad (PCBNEW (6.0.5)) date 2022-06-02 12:02:42*
%MOMM*%
%LPD*%
G01*
G04 APERTURE LIST*
%ADD10C,0.150000*%
%ADD11C,0.120000*%
%ADD12C,0.250000*%
G04 APERTURE END LIST*
D10*
X150378571Y-55435714D02*
X150426190Y-55292857D01*
X150473809Y-55245238D01*
X150569047Y-55197619D01*
X150711904Y-55197619D01*
X150807142Y-55245238D01*
X150854761Y-55292857D01*
X150902380Y-55388095D01*
X150902380Y-55769047D01*
X149902380Y-55769047D01*
X149902380Y-55435714D01*
X149950000Y-55340476D01*
X149997619Y-55292857D01*
X150092857Y-55245238D01*
X150188095Y-55245238D01*
X150283333Y-55292857D01*
X150330952Y-55340476D01*
X150378571Y-55435714D01*
X150378571Y-55769047D01*
X150902380Y-54769047D02*
X149902380Y-54769047D01*
X149902380Y-54388095D01*
X149950000Y-54292857D01*
X149997619Y-54245238D01*
X150092857Y-54197619D01*
X150235714Y-54197619D01*
X150330952Y-54245238D01*
X150378571Y-54292857D01*
X150426190Y-54388095D01*
X150426190Y-54769047D01*
X150997619Y-54007142D02*
X150997619Y-53245238D01*
X150902380Y-52483333D02*
X150902380Y-53054761D01*
X150902380Y-52769047D02*
X149902380Y-52769047D01*
X150045238Y-52864285D01*
X150140476Y-52959523D01*
X150188095Y-53054761D01*
X162214285Y-119778571D02*
X162357142Y-119826190D01*
X162404761Y-119873809D01*
X162452380Y-119969047D01*
X162452380Y-120111904D01*
X162404761Y-120207142D01*
X162357142Y-120254761D01*
X162261904Y-120302380D01*
X161880952Y-120302380D01*
X161880952Y-119302380D01*
X162214285Y-119302380D01*
X162309523Y-119350000D01*
X162357142Y-119397619D01*
X162404761Y-119492857D01*
X162404761Y-119588095D01*
X162357142Y-119683333D01*
X162309523Y-119730952D01*
X162214285Y-119778571D01*
X161880952Y-119778571D01*
X162880952Y-120302380D02*
X162880952Y-119302380D01*
X163261904Y-119302380D01*
X163357142Y-119350000D01*
X163404761Y-119397619D01*
X163452380Y-119492857D01*
X163452380Y-119635714D01*
X163404761Y-119730952D01*
X163357142Y-119778571D01*
X163261904Y-119826190D01*
X162880952Y-119826190D01*
X163642857Y-120397619D02*
X164404761Y-120397619D01*
X164595238Y-119397619D02*
X164642857Y-119350000D01*
X164738095Y-119302380D01*
X164976190Y-119302380D01*
X165071428Y-119350000D01*
X165119047Y-119397619D01*
X165166666Y-119492857D01*
X165166666Y-119588095D01*
X165119047Y-119730952D01*
X164547619Y-120302380D01*
X165166666Y-120302380D01*
X142114285Y-119728571D02*
X142257142Y-119776190D01*
X142304761Y-119823809D01*
X142352380Y-119919047D01*
X142352380Y-120061904D01*
X142304761Y-120157142D01*
X142257142Y-120204761D01*
X142161904Y-120252380D01*
X141780952Y-120252380D01*
X141780952Y-119252380D01*
X142114285Y-119252380D01*
X142209523Y-119300000D01*
X142257142Y-119347619D01*
X142304761Y-119442857D01*
X142304761Y-119538095D01*
X142257142Y-119633333D01*
X142209523Y-119680952D01*
X142114285Y-119728571D01*
X141780952Y-119728571D01*
X142780952Y-120252380D02*
X142780952Y-119252380D01*
X143161904Y-119252380D01*
X143257142Y-119300000D01*
X143304761Y-119347619D01*
X143352380Y-119442857D01*
X143352380Y-119585714D01*
X143304761Y-119680952D01*
X143257142Y-119728571D01*
X143161904Y-119776190D01*
X142780952Y-119776190D01*
X143542857Y-120347619D02*
X144304761Y-120347619D01*
X144447619Y-119252380D02*
X145066666Y-119252380D01*
X144733333Y-119633333D01*
X144876190Y-119633333D01*
X144971428Y-119680952D01*
X145019047Y-119728571D01*
X145066666Y-119823809D01*
X145066666Y-120061904D01*
X145019047Y-120157142D01*
X144971428Y-120204761D01*
X144876190Y-120252380D01*
X144590476Y-120252380D01*
X144495238Y-120204761D01*
X144447619Y-120157142D01*
X59116666Y-43097380D02*
X59116666Y-42097380D01*
X59688095Y-43097380D01*
X59688095Y-42097380D01*
X60307142Y-43097380D02*
X60211904Y-43049761D01*
X60164285Y-43002142D01*
X60116666Y-42906904D01*
X60116666Y-42621190D01*
X60164285Y-42525952D01*
X60211904Y-42478333D01*
X60307142Y-42430714D01*
X60450000Y-42430714D01*
X60545238Y-42478333D01*
X60592857Y-42525952D01*
X60640476Y-42621190D01*
X60640476Y-42906904D01*
X60592857Y-43002142D01*
X60545238Y-43049761D01*
X60450000Y-43097380D01*
X60307142Y-43097380D01*
X61069047Y-43097380D02*
X61069047Y-42430714D01*
X61069047Y-42621190D02*
X61116666Y-42525952D01*
X61164285Y-42478333D01*
X61259523Y-42430714D01*
X61354761Y-42430714D01*
X61688095Y-42430714D02*
X61688095Y-43097380D01*
X61688095Y-42525952D02*
X61735714Y-42478333D01*
X61830952Y-42430714D01*
X61973809Y-42430714D01*
X62069047Y-42478333D01*
X62116666Y-42573571D01*
X62116666Y-43097380D01*
X62545238Y-43049761D02*
X62640476Y-43097380D01*
X62830952Y-43097380D01*
X62926190Y-43049761D01*
X62973809Y-42954523D01*
X62973809Y-42906904D01*
X62926190Y-42811666D01*
X62830952Y-42764047D01*
X62688095Y-42764047D01*
X62592857Y-42716428D01*
X62545238Y-42621190D01*
X62545238Y-42573571D01*
X62592857Y-42478333D01*
X62688095Y-42430714D01*
X62830952Y-42430714D01*
X62926190Y-42478333D01*
X64116666Y-43049761D02*
X64259523Y-43097380D01*
X64497619Y-43097380D01*
X64592857Y-43049761D01*
X64640476Y-43002142D01*
X64688095Y-42906904D01*
X64688095Y-42811666D01*
X64640476Y-42716428D01*
X64592857Y-42668809D01*
X64497619Y-42621190D01*
X64307142Y-42573571D01*
X64211904Y-42525952D01*
X64164285Y-42478333D01*
X64116666Y-42383095D01*
X64116666Y-42287857D01*
X64164285Y-42192619D01*
X64211904Y-42145000D01*
X64307142Y-42097380D01*
X64545238Y-42097380D01*
X64688095Y-42145000D01*
X65307142Y-42621190D02*
X65307142Y-43097380D01*
X64973809Y-42097380D02*
X65307142Y-42621190D01*
X65640476Y-42097380D01*
X65926190Y-43049761D02*
X66069047Y-43097380D01*
X66307142Y-43097380D01*
X66402380Y-43049761D01*
X66450000Y-43002142D01*
X66497619Y-42906904D01*
X66497619Y-42811666D01*
X66450000Y-42716428D01*
X66402380Y-42668809D01*
X66307142Y-42621190D01*
X66116666Y-42573571D01*
X66021428Y-42525952D01*
X65973809Y-42478333D01*
X65926190Y-42383095D01*
X65926190Y-42287857D01*
X65973809Y-42192619D01*
X66021428Y-42145000D01*
X66116666Y-42097380D01*
X66354761Y-42097380D01*
X66497619Y-42145000D01*
X66783333Y-42097380D02*
X67354761Y-42097380D01*
X67069047Y-43097380D02*
X67069047Y-42097380D01*
X68307142Y-42097380D02*
X68640476Y-43097380D01*
X68973809Y-42097380D01*
X69830952Y-43097380D02*
X69259523Y-43097380D01*
X69545238Y-43097380D02*
X69545238Y-42097380D01*
X69450000Y-42240238D01*
X69354761Y-42335476D01*
X69259523Y-42383095D01*
X53616666Y-44707380D02*
X53616666Y-43707380D01*
X53854761Y-43707380D01*
X53997619Y-43755000D01*
X54092857Y-43850238D01*
X54140476Y-43945476D01*
X54188095Y-44135952D01*
X54188095Y-44278809D01*
X54140476Y-44469285D01*
X54092857Y-44564523D01*
X53997619Y-44659761D01*
X53854761Y-44707380D01*
X53616666Y-44707380D01*
X55045238Y-44707380D02*
X55045238Y-44183571D01*
X54997619Y-44088333D01*
X54902380Y-44040714D01*
X54711904Y-44040714D01*
X54616666Y-44088333D01*
X55045238Y-44659761D02*
X54950000Y-44707380D01*
X54711904Y-44707380D01*
X54616666Y-44659761D01*
X54569047Y-44564523D01*
X54569047Y-44469285D01*
X54616666Y-44374047D01*
X54711904Y-44326428D01*
X54950000Y-44326428D01*
X55045238Y-44278809D01*
X55521428Y-44707380D02*
X55521428Y-44040714D01*
X55521428Y-44135952D02*
X55569047Y-44088333D01*
X55664285Y-44040714D01*
X55807142Y-44040714D01*
X55902380Y-44088333D01*
X55950000Y-44183571D01*
X55950000Y-44707380D01*
X55950000Y-44183571D02*
X55997619Y-44088333D01*
X56092857Y-44040714D01*
X56235714Y-44040714D01*
X56330952Y-44088333D01*
X56378571Y-44183571D01*
X56378571Y-44707380D01*
X56854761Y-44707380D02*
X56854761Y-44040714D01*
X56854761Y-43707380D02*
X56807142Y-43755000D01*
X56854761Y-43802619D01*
X56902380Y-43755000D01*
X56854761Y-43707380D01*
X56854761Y-43802619D01*
X57711904Y-44659761D02*
X57616666Y-44707380D01*
X57426190Y-44707380D01*
X57330952Y-44659761D01*
X57283333Y-44564523D01*
X57283333Y-44183571D01*
X57330952Y-44088333D01*
X57426190Y-44040714D01*
X57616666Y-44040714D01*
X57711904Y-44088333D01*
X57759523Y-44183571D01*
X57759523Y-44278809D01*
X57283333Y-44374047D01*
X58188095Y-44040714D02*
X58188095Y-44707380D01*
X58188095Y-44135952D02*
X58235714Y-44088333D01*
X58330952Y-44040714D01*
X58473809Y-44040714D01*
X58569047Y-44088333D01*
X58616666Y-44183571D01*
X58616666Y-44707380D01*
X59807142Y-44659761D02*
X59950000Y-44707380D01*
X60188095Y-44707380D01*
X60283333Y-44659761D01*
X60330952Y-44612142D01*
X60378571Y-44516904D01*
X60378571Y-44421666D01*
X60330952Y-44326428D01*
X60283333Y-44278809D01*
X60188095Y-44231190D01*
X59997619Y-44183571D01*
X59902380Y-44135952D01*
X59854761Y-44088333D01*
X59807142Y-43993095D01*
X59807142Y-43897857D01*
X59854761Y-43802619D01*
X59902380Y-43755000D01*
X59997619Y-43707380D01*
X60235714Y-43707380D01*
X60378571Y-43755000D01*
X60807142Y-44707380D02*
X60807142Y-43707380D01*
X60902380Y-44326428D02*
X61188095Y-44707380D01*
X61188095Y-44040714D02*
X60807142Y-44421666D01*
X61759523Y-44707380D02*
X61664285Y-44659761D01*
X61616666Y-44612142D01*
X61569047Y-44516904D01*
X61569047Y-44231190D01*
X61616666Y-44135952D01*
X61664285Y-44088333D01*
X61759523Y-44040714D01*
X61902380Y-44040714D01*
X61997619Y-44088333D01*
X62045238Y-44135952D01*
X62092857Y-44231190D01*
X62092857Y-44516904D01*
X62045238Y-44612142D01*
X61997619Y-44659761D01*
X61902380Y-44707380D01*
X61759523Y-44707380D01*
X62521428Y-44707380D02*
X62521428Y-44040714D01*
X62521428Y-44231190D02*
X62569047Y-44135952D01*
X62616666Y-44088333D01*
X62711904Y-44040714D01*
X62807142Y-44040714D01*
X63569047Y-44707380D02*
X63569047Y-44183571D01*
X63521428Y-44088333D01*
X63426190Y-44040714D01*
X63235714Y-44040714D01*
X63140476Y-44088333D01*
X63569047Y-44659761D02*
X63473809Y-44707380D01*
X63235714Y-44707380D01*
X63140476Y-44659761D01*
X63092857Y-44564523D01*
X63092857Y-44469285D01*
X63140476Y-44374047D01*
X63235714Y-44326428D01*
X63473809Y-44326428D01*
X63569047Y-44278809D01*
X64045238Y-44707380D02*
X64045238Y-43707380D01*
X64140476Y-44326428D02*
X64426190Y-44707380D01*
X64426190Y-44040714D02*
X64045238Y-44421666D01*
X64854761Y-44707380D02*
X64854761Y-44040714D01*
X64854761Y-43707380D02*
X64807142Y-43755000D01*
X64854761Y-43802619D01*
X64902380Y-43755000D01*
X64854761Y-43707380D01*
X64854761Y-43802619D01*
X65854761Y-44802619D02*
X66616666Y-44802619D01*
X68092857Y-44707380D02*
X67616666Y-44707380D01*
X67616666Y-43707380D01*
X68807142Y-44659761D02*
X68711904Y-44707380D01*
X68521428Y-44707380D01*
X68426190Y-44659761D01*
X68378571Y-44564523D01*
X68378571Y-44183571D01*
X68426190Y-44088333D01*
X68521428Y-44040714D01*
X68711904Y-44040714D01*
X68807142Y-44088333D01*
X68854761Y-44183571D01*
X68854761Y-44278809D01*
X68378571Y-44374047D01*
X69235714Y-44659761D02*
X69330952Y-44707380D01*
X69521428Y-44707380D01*
X69616666Y-44659761D01*
X69664285Y-44564523D01*
X69664285Y-44516904D01*
X69616666Y-44421666D01*
X69521428Y-44374047D01*
X69378571Y-44374047D01*
X69283333Y-44326428D01*
X69235714Y-44231190D01*
X69235714Y-44183571D01*
X69283333Y-44088333D01*
X69378571Y-44040714D01*
X69521428Y-44040714D01*
X69616666Y-44088333D01*
X70854761Y-43707380D02*
X70854761Y-44516904D01*
X70902380Y-44612142D01*
X70950000Y-44659761D01*
X71045238Y-44707380D01*
X71235714Y-44707380D01*
X71330952Y-44659761D01*
X71378571Y-44612142D01*
X71426190Y-44516904D01*
X71426190Y-43707380D01*
X71854761Y-44659761D02*
X71950000Y-44707380D01*
X72140476Y-44707380D01*
X72235714Y-44659761D01*
X72283333Y-44564523D01*
X72283333Y-44516904D01*
X72235714Y-44421666D01*
X72140476Y-44374047D01*
X71997619Y-44374047D01*
X71902380Y-44326428D01*
X71854761Y-44231190D01*
X71854761Y-44183571D01*
X71902380Y-44088333D01*
X71997619Y-44040714D01*
X72140476Y-44040714D01*
X72235714Y-44088333D01*
X72711904Y-44707380D02*
X72711904Y-44040714D01*
X72711904Y-43707380D02*
X72664285Y-43755000D01*
X72711904Y-43802619D01*
X72759523Y-43755000D01*
X72711904Y-43707380D01*
X72711904Y-43802619D01*
X73188095Y-44040714D02*
X73188095Y-44707380D01*
X73188095Y-44135952D02*
X73235714Y-44088333D01*
X73330952Y-44040714D01*
X73473809Y-44040714D01*
X73569047Y-44088333D01*
X73616666Y-44183571D01*
X73616666Y-44707380D01*
X74473809Y-44659761D02*
X74378571Y-44707380D01*
X74188095Y-44707380D01*
X74092857Y-44659761D01*
X74045238Y-44564523D01*
X74045238Y-44183571D01*
X74092857Y-44088333D01*
X74188095Y-44040714D01*
X74378571Y-44040714D01*
X74473809Y-44088333D01*
X74521428Y-44183571D01*
X74521428Y-44278809D01*
X74045238Y-44374047D01*
X74902380Y-44659761D02*
X74997619Y-44707380D01*
X75188095Y-44707380D01*
X75283333Y-44659761D01*
X75330952Y-44564523D01*
X75330952Y-44516904D01*
X75283333Y-44421666D01*
X75188095Y-44374047D01*
X75045238Y-44374047D01*
X74950000Y-44326428D01*
X74902380Y-44231190D01*
X74902380Y-44183571D01*
X74950000Y-44088333D01*
X75045238Y-44040714D01*
X75188095Y-44040714D01*
X75283333Y-44088333D01*
X192616666Y-110976190D02*
X192616666Y-110500000D01*
X192902380Y-111071428D02*
X191902380Y-110738095D01*
X192902380Y-110404761D01*
X192235714Y-109642857D02*
X192902380Y-109642857D01*
X192235714Y-110071428D02*
X192759523Y-110071428D01*
X192854761Y-110023809D01*
X192902380Y-109928571D01*
X192902380Y-109785714D01*
X192854761Y-109690476D01*
X192807142Y-109642857D01*
X192902380Y-108738095D02*
X191902380Y-108738095D01*
X192854761Y-108738095D02*
X192902380Y-108833333D01*
X192902380Y-109023809D01*
X192854761Y-109119047D01*
X192807142Y-109166666D01*
X192711904Y-109214285D01*
X192426190Y-109214285D01*
X192330952Y-109166666D01*
X192283333Y-109119047D01*
X192235714Y-109023809D01*
X192235714Y-108833333D01*
X192283333Y-108738095D01*
X192902380Y-108261904D02*
X192235714Y-108261904D01*
X191902380Y-108261904D02*
X191950000Y-108309523D01*
X191997619Y-108261904D01*
X191950000Y-108214285D01*
X191902380Y-108261904D01*
X191997619Y-108261904D01*
X192902380Y-107642857D02*
X192854761Y-107738095D01*
X192807142Y-107785714D01*
X192711904Y-107833333D01*
X192426190Y-107833333D01*
X192330952Y-107785714D01*
X192283333Y-107738095D01*
X192235714Y-107642857D01*
X192235714Y-107500000D01*
X192283333Y-107404761D01*
X192330952Y-107357142D01*
X192426190Y-107309523D01*
X192711904Y-107309523D01*
X192807142Y-107357142D01*
X192854761Y-107404761D01*
X192902380Y-107500000D01*
X192902380Y-107642857D01*
X192902380Y-106119047D02*
X191902380Y-106119047D01*
X192902380Y-105642857D02*
X191902380Y-105642857D01*
X192902380Y-105071428D01*
X191902380Y-105071428D01*
X189554761Y-123828571D02*
X189888095Y-123828571D01*
X190030952Y-124352380D02*
X189554761Y-124352380D01*
X189554761Y-123352380D01*
X190030952Y-123352380D01*
X190888095Y-124304761D02*
X190792857Y-124352380D01*
X190602380Y-124352380D01*
X190507142Y-124304761D01*
X190459523Y-124257142D01*
X190411904Y-124161904D01*
X190411904Y-123876190D01*
X190459523Y-123780952D01*
X190507142Y-123733333D01*
X190602380Y-123685714D01*
X190792857Y-123685714D01*
X190888095Y-123733333D01*
X191316666Y-124352380D02*
X191316666Y-123685714D01*
X191316666Y-123876190D02*
X191364285Y-123780952D01*
X191411904Y-123733333D01*
X191507142Y-123685714D01*
X191602380Y-123685714D01*
X192364285Y-124352380D02*
X192364285Y-123828571D01*
X192316666Y-123733333D01*
X192221428Y-123685714D01*
X192030952Y-123685714D01*
X191935714Y-123733333D01*
X192364285Y-124304761D02*
X192269047Y-124352380D01*
X192030952Y-124352380D01*
X191935714Y-124304761D01*
X191888095Y-124209523D01*
X191888095Y-124114285D01*
X191935714Y-124019047D01*
X192030952Y-123971428D01*
X192269047Y-123971428D01*
X192364285Y-123923809D01*
X192840476Y-123685714D02*
X192840476Y-124352380D01*
X192840476Y-123780952D02*
X192888095Y-123733333D01*
X192983333Y-123685714D01*
X193126190Y-123685714D01*
X193221428Y-123733333D01*
X193269047Y-123828571D01*
X193269047Y-124352380D01*
X194459523Y-124304761D02*
X194602380Y-124352380D01*
X194840476Y-124352380D01*
X194935714Y-124304761D01*
X194983333Y-124257142D01*
X195030952Y-124161904D01*
X195030952Y-124066666D01*
X194983333Y-123971428D01*
X194935714Y-123923809D01*
X194840476Y-123876190D01*
X194650000Y-123828571D01*
X194554761Y-123780952D01*
X194507142Y-123733333D01*
X194459523Y-123638095D01*
X194459523Y-123542857D01*
X194507142Y-123447619D01*
X194554761Y-123400000D01*
X194650000Y-123352380D01*
X194888095Y-123352380D01*
X195030952Y-123400000D01*
X195411904Y-124304761D02*
X195554761Y-124352380D01*
X195792857Y-124352380D01*
X195888095Y-124304761D01*
X195935714Y-124257142D01*
X195983333Y-124161904D01*
X195983333Y-124066666D01*
X195935714Y-123971428D01*
X195888095Y-123923809D01*
X195792857Y-123876190D01*
X195602380Y-123828571D01*
X195507142Y-123780952D01*
X195459523Y-123733333D01*
X195411904Y-123638095D01*
X195411904Y-123542857D01*
X195459523Y-123447619D01*
X195507142Y-123400000D01*
X195602380Y-123352380D01*
X195840476Y-123352380D01*
X195983333Y-123400000D01*
X196411904Y-124352380D02*
X196411904Y-123352380D01*
X196650000Y-123352380D01*
X196792857Y-123400000D01*
X196888095Y-123495238D01*
X196935714Y-123590476D01*
X196983333Y-123780952D01*
X196983333Y-123923809D01*
X196935714Y-124114285D01*
X196888095Y-124209523D01*
X196792857Y-124304761D01*
X196650000Y-124352380D01*
X196411904Y-124352380D01*
X197935714Y-124352380D02*
X197364285Y-124352380D01*
X197650000Y-124352380D02*
X197650000Y-123352380D01*
X197554761Y-123495238D01*
X197459523Y-123590476D01*
X197364285Y-123638095D01*
X198269047Y-123352380D02*
X198888095Y-123352380D01*
X198554761Y-123733333D01*
X198697619Y-123733333D01*
X198792857Y-123780952D01*
X198840476Y-123828571D01*
X198888095Y-123923809D01*
X198888095Y-124161904D01*
X198840476Y-124257142D01*
X198792857Y-124304761D01*
X198697619Y-124352380D01*
X198411904Y-124352380D01*
X198316666Y-124304761D01*
X198269047Y-124257142D01*
X199507142Y-123352380D02*
X199602380Y-123352380D01*
X199697619Y-123400000D01*
X199745238Y-123447619D01*
X199792857Y-123542857D01*
X199840476Y-123733333D01*
X199840476Y-123971428D01*
X199792857Y-124161904D01*
X199745238Y-124257142D01*
X199697619Y-124304761D01*
X199602380Y-124352380D01*
X199507142Y-124352380D01*
X199411904Y-124304761D01*
X199364285Y-124257142D01*
X199316666Y-124161904D01*
X199269047Y-123971428D01*
X199269047Y-123733333D01*
X199316666Y-123542857D01*
X199364285Y-123447619D01*
X199411904Y-123400000D01*
X199507142Y-123352380D01*
X200697619Y-123352380D02*
X200507142Y-123352380D01*
X200411904Y-123400000D01*
X200364285Y-123447619D01*
X200269047Y-123590476D01*
X200221428Y-123780952D01*
X200221428Y-124161904D01*
X200269047Y-124257142D01*
X200316666Y-124304761D01*
X200411904Y-124352380D01*
X200602380Y-124352380D01*
X200697619Y-124304761D01*
X200745238Y-124257142D01*
X200792857Y-124161904D01*
X200792857Y-123923809D01*
X200745238Y-123828571D01*
X200697619Y-123780952D01*
X200602380Y-123733333D01*
X200411904Y-123733333D01*
X200316666Y-123780952D01*
X200269047Y-123828571D01*
X200221428Y-123923809D01*
X198250000Y-119211904D02*
X198202380Y-119307142D01*
X198202380Y-119450000D01*
X198250000Y-119592857D01*
X198345238Y-119688095D01*
X198440476Y-119735714D01*
X198630952Y-119783333D01*
X198773809Y-119783333D01*
X198964285Y-119735714D01*
X199059523Y-119688095D01*
X199154761Y-119592857D01*
X199202380Y-119450000D01*
X199202380Y-119354761D01*
X199154761Y-119211904D01*
X199107142Y-119164285D01*
X198773809Y-119164285D01*
X198773809Y-119354761D01*
X199202380Y-118735714D02*
X198202380Y-118735714D01*
X199202380Y-118164285D01*
X198202380Y-118164285D01*
X199202380Y-117688095D02*
X198202380Y-117688095D01*
X198202380Y-117450000D01*
X198250000Y-117307142D01*
X198345238Y-117211904D01*
X198440476Y-117164285D01*
X198630952Y-117116666D01*
X198773809Y-117116666D01*
X198964285Y-117164285D01*
X199059523Y-117211904D01*
X199154761Y-117307142D01*
X199202380Y-117450000D01*
X199202380Y-117688095D01*
X195652380Y-119640476D02*
X195652380Y-119021428D01*
X196033333Y-119354761D01*
X196033333Y-119211904D01*
X196080952Y-119116666D01*
X196128571Y-119069047D01*
X196223809Y-119021428D01*
X196461904Y-119021428D01*
X196557142Y-119069047D01*
X196604761Y-119116666D01*
X196652380Y-119211904D01*
X196652380Y-119497619D01*
X196604761Y-119592857D01*
X196557142Y-119640476D01*
X195985714Y-118688095D02*
X196652380Y-118450000D01*
X195985714Y-118211904D01*
X195652380Y-117926190D02*
X195652380Y-117307142D01*
X196033333Y-117640476D01*
X196033333Y-117497619D01*
X196080952Y-117402380D01*
X196128571Y-117354761D01*
X196223809Y-117307142D01*
X196461904Y-117307142D01*
X196557142Y-117354761D01*
X196604761Y-117402380D01*
X196652380Y-117497619D01*
X196652380Y-117783333D01*
X196604761Y-117878571D01*
X196557142Y-117926190D01*
X194054761Y-119640476D02*
X194102380Y-119497619D01*
X194102380Y-119259523D01*
X194054761Y-119164285D01*
X194007142Y-119116666D01*
X193911904Y-119069047D01*
X193816666Y-119069047D01*
X193721428Y-119116666D01*
X193673809Y-119164285D01*
X193626190Y-119259523D01*
X193578571Y-119450000D01*
X193530952Y-119545238D01*
X193483333Y-119592857D01*
X193388095Y-119640476D01*
X193292857Y-119640476D01*
X193197619Y-119592857D01*
X193150000Y-119545238D01*
X193102380Y-119450000D01*
X193102380Y-119211904D01*
X193150000Y-119069047D01*
X194007142Y-118069047D02*
X194054761Y-118116666D01*
X194102380Y-118259523D01*
X194102380Y-118354761D01*
X194054761Y-118497619D01*
X193959523Y-118592857D01*
X193864285Y-118640476D01*
X193673809Y-118688095D01*
X193530952Y-118688095D01*
X193340476Y-118640476D01*
X193245238Y-118592857D01*
X193150000Y-118497619D01*
X193102380Y-118354761D01*
X193102380Y-118259523D01*
X193150000Y-118116666D01*
X193197619Y-118069047D01*
X194102380Y-117164285D02*
X194102380Y-117640476D01*
X193102380Y-117640476D01*
X191654761Y-119714285D02*
X191702380Y-119571428D01*
X191702380Y-119333333D01*
X191654761Y-119238095D01*
X191607142Y-119190476D01*
X191511904Y-119142857D01*
X191416666Y-119142857D01*
X191321428Y-119190476D01*
X191273809Y-119238095D01*
X191226190Y-119333333D01*
X191178571Y-119523809D01*
X191130952Y-119619047D01*
X191083333Y-119666666D01*
X190988095Y-119714285D01*
X190892857Y-119714285D01*
X190797619Y-119666666D01*
X190750000Y-119619047D01*
X190702380Y-119523809D01*
X190702380Y-119285714D01*
X190750000Y-119142857D01*
X191702380Y-118714285D02*
X190702380Y-118714285D01*
X190702380Y-118476190D01*
X190750000Y-118333333D01*
X190845238Y-118238095D01*
X190940476Y-118190476D01*
X191130952Y-118142857D01*
X191273809Y-118142857D01*
X191464285Y-118190476D01*
X191559523Y-118238095D01*
X191654761Y-118333333D01*
X191702380Y-118476190D01*
X191702380Y-118714285D01*
X191416666Y-117761904D02*
X191416666Y-117285714D01*
X191702380Y-117857142D02*
X190702380Y-117523809D01*
X191702380Y-117190476D01*
X203685714Y-62102380D02*
X203352380Y-61626190D01*
X203114285Y-62102380D02*
X203114285Y-61102380D01*
X203495238Y-61102380D01*
X203590476Y-61150000D01*
X203638095Y-61197619D01*
X203685714Y-61292857D01*
X203685714Y-61435714D01*
X203638095Y-61530952D01*
X203590476Y-61578571D01*
X203495238Y-61626190D01*
X203114285Y-61626190D01*
X205304761Y-61435714D02*
X205304761Y-62245238D01*
X205257142Y-62340476D01*
X205209523Y-62388095D01*
X205114285Y-62435714D01*
X204971428Y-62435714D01*
X204876190Y-62388095D01*
X205304761Y-62054761D02*
X205209523Y-62102380D01*
X205019047Y-62102380D01*
X204923809Y-62054761D01*
X204876190Y-62007142D01*
X204828571Y-61911904D01*
X204828571Y-61626190D01*
X204876190Y-61530952D01*
X204923809Y-61483333D01*
X205019047Y-61435714D01*
X205209523Y-61435714D01*
X205304761Y-61483333D01*
X205780952Y-61435714D02*
X205780952Y-62102380D01*
X205780952Y-61530952D02*
X205828571Y-61483333D01*
X205923809Y-61435714D01*
X206066666Y-61435714D01*
X206161904Y-61483333D01*
X206209523Y-61578571D01*
X206209523Y-62102380D01*
X207114285Y-62102380D02*
X207114285Y-61102380D01*
X207114285Y-62054761D02*
X207019047Y-62102380D01*
X206828571Y-62102380D01*
X206733333Y-62054761D01*
X206685714Y-62007142D01*
X206638095Y-61911904D01*
X206638095Y-61626190D01*
X206685714Y-61530952D01*
X206733333Y-61483333D01*
X206828571Y-61435714D01*
X207019047Y-61435714D01*
X207114285Y-61483333D01*
X208828571Y-62102380D02*
X208352380Y-62102380D01*
X208352380Y-61102380D01*
X202507142Y-69466666D02*
X202983333Y-69466666D01*
X202411904Y-69752380D02*
X202745238Y-68752380D01*
X203078571Y-69752380D01*
X203840476Y-69085714D02*
X203840476Y-69752380D01*
X203411904Y-69085714D02*
X203411904Y-69609523D01*
X203459523Y-69704761D01*
X203554761Y-69752380D01*
X203697619Y-69752380D01*
X203792857Y-69704761D01*
X203840476Y-69657142D01*
X204745238Y-69752380D02*
X204745238Y-68752380D01*
X204745238Y-69704761D02*
X204650000Y-69752380D01*
X204459523Y-69752380D01*
X204364285Y-69704761D01*
X204316666Y-69657142D01*
X204269047Y-69561904D01*
X204269047Y-69276190D01*
X204316666Y-69180952D01*
X204364285Y-69133333D01*
X204459523Y-69085714D01*
X204650000Y-69085714D01*
X204745238Y-69133333D01*
X205221428Y-69752380D02*
X205221428Y-69085714D01*
X205221428Y-68752380D02*
X205173809Y-68800000D01*
X205221428Y-68847619D01*
X205269047Y-68800000D01*
X205221428Y-68752380D01*
X205221428Y-68847619D01*
X205840476Y-69752380D02*
X205745238Y-69704761D01*
X205697619Y-69657142D01*
X205650000Y-69561904D01*
X205650000Y-69276190D01*
X205697619Y-69180952D01*
X205745238Y-69133333D01*
X205840476Y-69085714D01*
X205983333Y-69085714D01*
X206078571Y-69133333D01*
X206126190Y-69180952D01*
X206173809Y-69276190D01*
X206173809Y-69561904D01*
X206126190Y-69657142D01*
X206078571Y-69704761D01*
X205983333Y-69752380D01*
X205840476Y-69752380D01*
X207554761Y-68752380D02*
X207745238Y-68752380D01*
X207840476Y-68800000D01*
X207935714Y-68895238D01*
X207983333Y-69085714D01*
X207983333Y-69419047D01*
X207935714Y-69609523D01*
X207840476Y-69704761D01*
X207745238Y-69752380D01*
X207554761Y-69752380D01*
X207459523Y-69704761D01*
X207364285Y-69609523D01*
X207316666Y-69419047D01*
X207316666Y-69085714D01*
X207364285Y-68895238D01*
X207459523Y-68800000D01*
X207554761Y-68752380D01*
X208411904Y-68752380D02*
X208411904Y-69561904D01*
X208459523Y-69657142D01*
X208507142Y-69704761D01*
X208602380Y-69752380D01*
X208792857Y-69752380D01*
X208888095Y-69704761D01*
X208935714Y-69657142D01*
X208983333Y-69561904D01*
X208983333Y-68752380D01*
X209316666Y-68752380D02*
X209888095Y-68752380D01*
X209602380Y-69752380D02*
X209602380Y-68752380D01*
X191383333Y-64002380D02*
X191383333Y-64478571D01*
X191097619Y-63907142D02*
X192097619Y-64240476D01*
X191097619Y-64573809D01*
X191764285Y-65335714D02*
X191097619Y-65335714D01*
X192145238Y-65097619D02*
X191430952Y-64859523D01*
X191430952Y-65478571D01*
X191002380Y-65621428D02*
X191002380Y-66383333D01*
X191621428Y-66621428D02*
X191621428Y-66954761D01*
X191097619Y-67097619D02*
X191097619Y-66621428D01*
X192097619Y-66621428D01*
X192097619Y-67097619D01*
X191097619Y-67526190D02*
X192097619Y-67526190D01*
X191097619Y-68097619D01*
X192097619Y-68097619D01*
X191192857Y-69145238D02*
X191145238Y-69097619D01*
X191097619Y-68954761D01*
X191097619Y-68859523D01*
X191145238Y-68716666D01*
X191240476Y-68621428D01*
X191335714Y-68573809D01*
X191526190Y-68526190D01*
X191669047Y-68526190D01*
X191859523Y-68573809D01*
X191954761Y-68621428D01*
X192050000Y-68716666D01*
X192097619Y-68859523D01*
X192097619Y-68954761D01*
X192050000Y-69097619D01*
X192002380Y-69145238D01*
X191764285Y-70002380D02*
X191097619Y-70002380D01*
X192145238Y-69764285D02*
X191430952Y-69526190D01*
X191430952Y-70145238D01*
X188971428Y-64061904D02*
X188923809Y-64204761D01*
X188876190Y-64252380D01*
X188780952Y-64300000D01*
X188638095Y-64300000D01*
X188542857Y-64252380D01*
X188495238Y-64204761D01*
X188447619Y-64109523D01*
X188447619Y-63728571D01*
X189447619Y-63728571D01*
X189447619Y-64061904D01*
X189400000Y-64157142D01*
X189352380Y-64204761D01*
X189257142Y-64252380D01*
X189161904Y-64252380D01*
X189066666Y-64204761D01*
X189019047Y-64157142D01*
X188971428Y-64061904D01*
X188971428Y-63728571D01*
X189114285Y-65157142D02*
X188447619Y-65157142D01*
X189495238Y-64919047D02*
X188780952Y-64680952D01*
X188780952Y-65300000D01*
X188352380Y-65442857D02*
X188352380Y-66204761D01*
X188971428Y-66442857D02*
X188971428Y-66776190D01*
X188447619Y-66919047D02*
X188447619Y-66442857D01*
X189447619Y-66442857D01*
X189447619Y-66919047D01*
X188447619Y-67347619D02*
X189447619Y-67347619D01*
X188447619Y-67919047D01*
X189447619Y-67919047D01*
X188542857Y-68966666D02*
X188495238Y-68919047D01*
X188447619Y-68776190D01*
X188447619Y-68680952D01*
X188495238Y-68538095D01*
X188590476Y-68442857D01*
X188685714Y-68395238D01*
X188876190Y-68347619D01*
X189019047Y-68347619D01*
X189209523Y-68395238D01*
X189304761Y-68442857D01*
X189400000Y-68538095D01*
X189447619Y-68680952D01*
X189447619Y-68776190D01*
X189400000Y-68919047D01*
X189352380Y-68966666D01*
X189114285Y-69823809D02*
X188447619Y-69823809D01*
X189495238Y-69585714D02*
X188780952Y-69347619D01*
X188780952Y-69966666D01*
X199750000Y-67588095D02*
X199797619Y-67492857D01*
X199797619Y-67350000D01*
X199750000Y-67207142D01*
X199654761Y-67111904D01*
X199559523Y-67064285D01*
X199369047Y-67016666D01*
X199226190Y-67016666D01*
X199035714Y-67064285D01*
X198940476Y-67111904D01*
X198845238Y-67207142D01*
X198797619Y-67350000D01*
X198797619Y-67445238D01*
X198845238Y-67588095D01*
X198892857Y-67635714D01*
X199226190Y-67635714D01*
X199226190Y-67445238D01*
X198797619Y-68064285D02*
X199797619Y-68064285D01*
X198797619Y-68635714D01*
X199797619Y-68635714D01*
X198797619Y-69111904D02*
X199797619Y-69111904D01*
X199797619Y-69350000D01*
X199750000Y-69492857D01*
X199654761Y-69588095D01*
X199559523Y-69635714D01*
X199369047Y-69683333D01*
X199226190Y-69683333D01*
X199035714Y-69635714D01*
X198940476Y-69588095D01*
X198845238Y-69492857D01*
X198797619Y-69350000D01*
X198797619Y-69111904D01*
X197297619Y-67109523D02*
X197297619Y-67728571D01*
X196916666Y-67395238D01*
X196916666Y-67538095D01*
X196869047Y-67633333D01*
X196821428Y-67680952D01*
X196726190Y-67728571D01*
X196488095Y-67728571D01*
X196392857Y-67680952D01*
X196345238Y-67633333D01*
X196297619Y-67538095D01*
X196297619Y-67252380D01*
X196345238Y-67157142D01*
X196392857Y-67109523D01*
X196964285Y-68061904D02*
X196297619Y-68300000D01*
X196964285Y-68538095D01*
X197297619Y-68823809D02*
X197297619Y-69442857D01*
X196916666Y-69109523D01*
X196916666Y-69252380D01*
X196869047Y-69347619D01*
X196821428Y-69395238D01*
X196726190Y-69442857D01*
X196488095Y-69442857D01*
X196392857Y-69395238D01*
X196345238Y-69347619D01*
X196297619Y-69252380D01*
X196297619Y-68966666D01*
X196345238Y-68871428D01*
X196392857Y-68823809D01*
X194750000Y-67438095D02*
X194797619Y-67342857D01*
X194797619Y-67200000D01*
X194750000Y-67057142D01*
X194654761Y-66961904D01*
X194559523Y-66914285D01*
X194369047Y-66866666D01*
X194226190Y-66866666D01*
X194035714Y-66914285D01*
X193940476Y-66961904D01*
X193845238Y-67057142D01*
X193797619Y-67200000D01*
X193797619Y-67295238D01*
X193845238Y-67438095D01*
X193892857Y-67485714D01*
X194226190Y-67485714D01*
X194226190Y-67295238D01*
X193797619Y-67914285D02*
X194797619Y-67914285D01*
X193797619Y-68485714D01*
X194797619Y-68485714D01*
X193797619Y-68961904D02*
X194797619Y-68961904D01*
X194797619Y-69200000D01*
X194750000Y-69342857D01*
X194654761Y-69438095D01*
X194559523Y-69485714D01*
X194369047Y-69533333D01*
X194226190Y-69533333D01*
X194035714Y-69485714D01*
X193940476Y-69438095D01*
X193845238Y-69342857D01*
X193797619Y-69200000D01*
X193797619Y-68961904D01*
X139833333Y-63302380D02*
X139833333Y-63778571D01*
X139547619Y-63207142D02*
X140547619Y-63540476D01*
X139547619Y-63873809D01*
X140547619Y-64111904D02*
X140547619Y-64730952D01*
X140166666Y-64397619D01*
X140166666Y-64540476D01*
X140119047Y-64635714D01*
X140071428Y-64683333D01*
X139976190Y-64730952D01*
X139738095Y-64730952D01*
X139642857Y-64683333D01*
X139595238Y-64635714D01*
X139547619Y-64540476D01*
X139547619Y-64254761D01*
X139595238Y-64159523D01*
X139642857Y-64111904D01*
X139452380Y-64921428D02*
X139452380Y-65683333D01*
X140071428Y-65921428D02*
X140071428Y-66254761D01*
X139547619Y-66397619D02*
X139547619Y-65921428D01*
X140547619Y-65921428D01*
X140547619Y-66397619D01*
X139547619Y-66826190D02*
X140547619Y-66826190D01*
X139547619Y-67397619D01*
X140547619Y-67397619D01*
X139642857Y-68445238D02*
X139595238Y-68397619D01*
X139547619Y-68254761D01*
X139547619Y-68159523D01*
X139595238Y-68016666D01*
X139690476Y-67921428D01*
X139785714Y-67873809D01*
X139976190Y-67826190D01*
X140119047Y-67826190D01*
X140309523Y-67873809D01*
X140404761Y-67921428D01*
X140500000Y-68016666D01*
X140547619Y-68159523D01*
X140547619Y-68254761D01*
X140500000Y-68397619D01*
X140452380Y-68445238D01*
X140547619Y-68778571D02*
X140547619Y-69397619D01*
X140166666Y-69064285D01*
X140166666Y-69207142D01*
X140119047Y-69302380D01*
X140071428Y-69350000D01*
X139976190Y-69397619D01*
X139738095Y-69397619D01*
X139642857Y-69350000D01*
X139595238Y-69302380D01*
X139547619Y-69207142D01*
X139547619Y-68921428D01*
X139595238Y-68826190D01*
X139642857Y-68778571D01*
X148200000Y-66888095D02*
X148247619Y-66792857D01*
X148247619Y-66650000D01*
X148200000Y-66507142D01*
X148104761Y-66411904D01*
X148009523Y-66364285D01*
X147819047Y-66316666D01*
X147676190Y-66316666D01*
X147485714Y-66364285D01*
X147390476Y-66411904D01*
X147295238Y-66507142D01*
X147247619Y-66650000D01*
X147247619Y-66745238D01*
X147295238Y-66888095D01*
X147342857Y-66935714D01*
X147676190Y-66935714D01*
X147676190Y-66745238D01*
X147247619Y-67364285D02*
X148247619Y-67364285D01*
X147247619Y-67935714D01*
X148247619Y-67935714D01*
X147247619Y-68411904D02*
X148247619Y-68411904D01*
X148247619Y-68650000D01*
X148200000Y-68792857D01*
X148104761Y-68888095D01*
X148009523Y-68935714D01*
X147819047Y-68983333D01*
X147676190Y-68983333D01*
X147485714Y-68935714D01*
X147390476Y-68888095D01*
X147295238Y-68792857D01*
X147247619Y-68650000D01*
X147247619Y-68411904D01*
X137421428Y-63361904D02*
X137373809Y-63504761D01*
X137326190Y-63552380D01*
X137230952Y-63600000D01*
X137088095Y-63600000D01*
X136992857Y-63552380D01*
X136945238Y-63504761D01*
X136897619Y-63409523D01*
X136897619Y-63028571D01*
X137897619Y-63028571D01*
X137897619Y-63361904D01*
X137850000Y-63457142D01*
X137802380Y-63504761D01*
X137707142Y-63552380D01*
X137611904Y-63552380D01*
X137516666Y-63504761D01*
X137469047Y-63457142D01*
X137421428Y-63361904D01*
X137421428Y-63028571D01*
X137897619Y-63933333D02*
X137897619Y-64552380D01*
X137516666Y-64219047D01*
X137516666Y-64361904D01*
X137469047Y-64457142D01*
X137421428Y-64504761D01*
X137326190Y-64552380D01*
X137088095Y-64552380D01*
X136992857Y-64504761D01*
X136945238Y-64457142D01*
X136897619Y-64361904D01*
X136897619Y-64076190D01*
X136945238Y-63980952D01*
X136992857Y-63933333D01*
X136802380Y-64742857D02*
X136802380Y-65504761D01*
X137421428Y-65742857D02*
X137421428Y-66076190D01*
X136897619Y-66219047D02*
X136897619Y-65742857D01*
X137897619Y-65742857D01*
X137897619Y-66219047D01*
X136897619Y-66647619D02*
X137897619Y-66647619D01*
X136897619Y-67219047D01*
X137897619Y-67219047D01*
X136992857Y-68266666D02*
X136945238Y-68219047D01*
X136897619Y-68076190D01*
X136897619Y-67980952D01*
X136945238Y-67838095D01*
X137040476Y-67742857D01*
X137135714Y-67695238D01*
X137326190Y-67647619D01*
X137469047Y-67647619D01*
X137659523Y-67695238D01*
X137754761Y-67742857D01*
X137850000Y-67838095D01*
X137897619Y-67980952D01*
X137897619Y-68076190D01*
X137850000Y-68219047D01*
X137802380Y-68266666D01*
X137897619Y-68600000D02*
X137897619Y-69219047D01*
X137516666Y-68885714D01*
X137516666Y-69028571D01*
X137469047Y-69123809D01*
X137421428Y-69171428D01*
X137326190Y-69219047D01*
X137088095Y-69219047D01*
X136992857Y-69171428D01*
X136945238Y-69123809D01*
X136897619Y-69028571D01*
X136897619Y-68742857D01*
X136945238Y-68647619D01*
X136992857Y-68600000D01*
X145747619Y-66409523D02*
X145747619Y-67028571D01*
X145366666Y-66695238D01*
X145366666Y-66838095D01*
X145319047Y-66933333D01*
X145271428Y-66980952D01*
X145176190Y-67028571D01*
X144938095Y-67028571D01*
X144842857Y-66980952D01*
X144795238Y-66933333D01*
X144747619Y-66838095D01*
X144747619Y-66552380D01*
X144795238Y-66457142D01*
X144842857Y-66409523D01*
X145414285Y-67361904D02*
X144747619Y-67600000D01*
X145414285Y-67838095D01*
X145747619Y-68123809D02*
X145747619Y-68742857D01*
X145366666Y-68409523D01*
X145366666Y-68552380D01*
X145319047Y-68647619D01*
X145271428Y-68695238D01*
X145176190Y-68742857D01*
X144938095Y-68742857D01*
X144842857Y-68695238D01*
X144795238Y-68647619D01*
X144747619Y-68552380D01*
X144747619Y-68266666D01*
X144795238Y-68171428D01*
X144842857Y-68123809D01*
X142771428Y-66214285D02*
X142723809Y-66357142D01*
X142676190Y-66404761D01*
X142580952Y-66452380D01*
X142438095Y-66452380D01*
X142342857Y-66404761D01*
X142295238Y-66357142D01*
X142247619Y-66261904D01*
X142247619Y-65880952D01*
X143247619Y-65880952D01*
X143247619Y-66214285D01*
X143200000Y-66309523D01*
X143152380Y-66357142D01*
X143057142Y-66404761D01*
X142961904Y-66404761D01*
X142866666Y-66357142D01*
X142819047Y-66309523D01*
X142771428Y-66214285D01*
X142771428Y-65880952D01*
X142247619Y-66880952D02*
X143247619Y-66880952D01*
X143247619Y-67261904D01*
X143200000Y-67357142D01*
X143152380Y-67404761D01*
X143057142Y-67452380D01*
X142914285Y-67452380D01*
X142819047Y-67404761D01*
X142771428Y-67357142D01*
X142723809Y-67261904D01*
X142723809Y-66880952D01*
X142152380Y-67642857D02*
X142152380Y-68404761D01*
X143247619Y-68547619D02*
X143247619Y-69166666D01*
X142866666Y-68833333D01*
X142866666Y-68976190D01*
X142819047Y-69071428D01*
X142771428Y-69119047D01*
X142676190Y-69166666D01*
X142438095Y-69166666D01*
X142342857Y-69119047D01*
X142295238Y-69071428D01*
X142247619Y-68976190D01*
X142247619Y-68690476D01*
X142295238Y-68595238D01*
X142342857Y-68547619D01*
X161533333Y-62952380D02*
X161533333Y-63428571D01*
X161247619Y-62857142D02*
X162247619Y-63190476D01*
X161247619Y-63523809D01*
X162152380Y-63809523D02*
X162200000Y-63857142D01*
X162247619Y-63952380D01*
X162247619Y-64190476D01*
X162200000Y-64285714D01*
X162152380Y-64333333D01*
X162057142Y-64380952D01*
X161961904Y-64380952D01*
X161819047Y-64333333D01*
X161247619Y-63761904D01*
X161247619Y-64380952D01*
X161152380Y-64571428D02*
X161152380Y-65333333D01*
X161771428Y-65571428D02*
X161771428Y-65904761D01*
X161247619Y-66047619D02*
X161247619Y-65571428D01*
X162247619Y-65571428D01*
X162247619Y-66047619D01*
X161247619Y-66476190D02*
X162247619Y-66476190D01*
X161247619Y-67047619D01*
X162247619Y-67047619D01*
X161342857Y-68095238D02*
X161295238Y-68047619D01*
X161247619Y-67904761D01*
X161247619Y-67809523D01*
X161295238Y-67666666D01*
X161390476Y-67571428D01*
X161485714Y-67523809D01*
X161676190Y-67476190D01*
X161819047Y-67476190D01*
X162009523Y-67523809D01*
X162104761Y-67571428D01*
X162200000Y-67666666D01*
X162247619Y-67809523D01*
X162247619Y-67904761D01*
X162200000Y-68047619D01*
X162152380Y-68095238D01*
X162152380Y-68476190D02*
X162200000Y-68523809D01*
X162247619Y-68619047D01*
X162247619Y-68857142D01*
X162200000Y-68952380D01*
X162152380Y-69000000D01*
X162057142Y-69047619D01*
X161961904Y-69047619D01*
X161819047Y-69000000D01*
X161247619Y-68428571D01*
X161247619Y-69047619D01*
X169900000Y-66538095D02*
X169947619Y-66442857D01*
X169947619Y-66300000D01*
X169900000Y-66157142D01*
X169804761Y-66061904D01*
X169709523Y-66014285D01*
X169519047Y-65966666D01*
X169376190Y-65966666D01*
X169185714Y-66014285D01*
X169090476Y-66061904D01*
X168995238Y-66157142D01*
X168947619Y-66300000D01*
X168947619Y-66395238D01*
X168995238Y-66538095D01*
X169042857Y-66585714D01*
X169376190Y-66585714D01*
X169376190Y-66395238D01*
X168947619Y-67014285D02*
X169947619Y-67014285D01*
X168947619Y-67585714D01*
X169947619Y-67585714D01*
X168947619Y-68061904D02*
X169947619Y-68061904D01*
X169947619Y-68300000D01*
X169900000Y-68442857D01*
X169804761Y-68538095D01*
X169709523Y-68585714D01*
X169519047Y-68633333D01*
X169376190Y-68633333D01*
X169185714Y-68585714D01*
X169090476Y-68538095D01*
X168995238Y-68442857D01*
X168947619Y-68300000D01*
X168947619Y-68061904D01*
X159121428Y-63011904D02*
X159073809Y-63154761D01*
X159026190Y-63202380D01*
X158930952Y-63250000D01*
X158788095Y-63250000D01*
X158692857Y-63202380D01*
X158645238Y-63154761D01*
X158597619Y-63059523D01*
X158597619Y-62678571D01*
X159597619Y-62678571D01*
X159597619Y-63011904D01*
X159550000Y-63107142D01*
X159502380Y-63154761D01*
X159407142Y-63202380D01*
X159311904Y-63202380D01*
X159216666Y-63154761D01*
X159169047Y-63107142D01*
X159121428Y-63011904D01*
X159121428Y-62678571D01*
X159502380Y-63630952D02*
X159550000Y-63678571D01*
X159597619Y-63773809D01*
X159597619Y-64011904D01*
X159550000Y-64107142D01*
X159502380Y-64154761D01*
X159407142Y-64202380D01*
X159311904Y-64202380D01*
X159169047Y-64154761D01*
X158597619Y-63583333D01*
X158597619Y-64202380D01*
X158502380Y-64392857D02*
X158502380Y-65154761D01*
X159121428Y-65392857D02*
X159121428Y-65726190D01*
X158597619Y-65869047D02*
X158597619Y-65392857D01*
X159597619Y-65392857D01*
X159597619Y-65869047D01*
X158597619Y-66297619D02*
X159597619Y-66297619D01*
X158597619Y-66869047D01*
X159597619Y-66869047D01*
X158692857Y-67916666D02*
X158645238Y-67869047D01*
X158597619Y-67726190D01*
X158597619Y-67630952D01*
X158645238Y-67488095D01*
X158740476Y-67392857D01*
X158835714Y-67345238D01*
X159026190Y-67297619D01*
X159169047Y-67297619D01*
X159359523Y-67345238D01*
X159454761Y-67392857D01*
X159550000Y-67488095D01*
X159597619Y-67630952D01*
X159597619Y-67726190D01*
X159550000Y-67869047D01*
X159502380Y-67916666D01*
X159502380Y-68297619D02*
X159550000Y-68345238D01*
X159597619Y-68440476D01*
X159597619Y-68678571D01*
X159550000Y-68773809D01*
X159502380Y-68821428D01*
X159407142Y-68869047D01*
X159311904Y-68869047D01*
X159169047Y-68821428D01*
X158597619Y-68250000D01*
X158597619Y-68869047D01*
X167447619Y-66059523D02*
X167447619Y-66678571D01*
X167066666Y-66345238D01*
X167066666Y-66488095D01*
X167019047Y-66583333D01*
X166971428Y-66630952D01*
X166876190Y-66678571D01*
X166638095Y-66678571D01*
X166542857Y-66630952D01*
X166495238Y-66583333D01*
X166447619Y-66488095D01*
X166447619Y-66202380D01*
X166495238Y-66107142D01*
X166542857Y-66059523D01*
X167114285Y-67011904D02*
X166447619Y-67250000D01*
X167114285Y-67488095D01*
X167447619Y-67773809D02*
X167447619Y-68392857D01*
X167066666Y-68059523D01*
X167066666Y-68202380D01*
X167019047Y-68297619D01*
X166971428Y-68345238D01*
X166876190Y-68392857D01*
X166638095Y-68392857D01*
X166542857Y-68345238D01*
X166495238Y-68297619D01*
X166447619Y-68202380D01*
X166447619Y-67916666D01*
X166495238Y-67821428D01*
X166542857Y-67773809D01*
X164471428Y-65864285D02*
X164423809Y-66007142D01*
X164376190Y-66054761D01*
X164280952Y-66102380D01*
X164138095Y-66102380D01*
X164042857Y-66054761D01*
X163995238Y-66007142D01*
X163947619Y-65911904D01*
X163947619Y-65530952D01*
X164947619Y-65530952D01*
X164947619Y-65864285D01*
X164900000Y-65959523D01*
X164852380Y-66007142D01*
X164757142Y-66054761D01*
X164661904Y-66054761D01*
X164566666Y-66007142D01*
X164519047Y-65959523D01*
X164471428Y-65864285D01*
X164471428Y-65530952D01*
X163947619Y-66530952D02*
X164947619Y-66530952D01*
X164947619Y-66911904D01*
X164900000Y-67007142D01*
X164852380Y-67054761D01*
X164757142Y-67102380D01*
X164614285Y-67102380D01*
X164519047Y-67054761D01*
X164471428Y-67007142D01*
X164423809Y-66911904D01*
X164423809Y-66530952D01*
X163852380Y-67292857D02*
X163852380Y-68054761D01*
X164852380Y-68245238D02*
X164900000Y-68292857D01*
X164947619Y-68388095D01*
X164947619Y-68626190D01*
X164900000Y-68721428D01*
X164852380Y-68769047D01*
X164757142Y-68816666D01*
X164661904Y-68816666D01*
X164519047Y-68769047D01*
X163947619Y-68197619D01*
X163947619Y-68816666D01*
X96811904Y-59378571D02*
X96954761Y-59426190D01*
X97002380Y-59473809D01*
X97050000Y-59569047D01*
X97050000Y-59711904D01*
X97002380Y-59807142D01*
X96954761Y-59854761D01*
X96859523Y-59902380D01*
X96478571Y-59902380D01*
X96478571Y-58902380D01*
X96811904Y-58902380D01*
X96907142Y-58950000D01*
X96954761Y-58997619D01*
X97002380Y-59092857D01*
X97002380Y-59188095D01*
X96954761Y-59283333D01*
X96907142Y-59330952D01*
X96811904Y-59378571D01*
X96478571Y-59378571D01*
X98002380Y-59902380D02*
X97430952Y-59902380D01*
X97716666Y-59902380D02*
X97716666Y-58902380D01*
X97621428Y-59045238D01*
X97526190Y-59140476D01*
X97430952Y-59188095D01*
X98192857Y-59997619D02*
X98954761Y-59997619D01*
X99192857Y-59378571D02*
X99526190Y-59378571D01*
X99669047Y-59902380D02*
X99192857Y-59902380D01*
X99192857Y-58902380D01*
X99669047Y-58902380D01*
X100097619Y-59902380D02*
X100097619Y-58902380D01*
X100669047Y-59902380D01*
X100669047Y-58902380D01*
X101716666Y-59807142D02*
X101669047Y-59854761D01*
X101526190Y-59902380D01*
X101430952Y-59902380D01*
X101288095Y-59854761D01*
X101192857Y-59759523D01*
X101145238Y-59664285D01*
X101097619Y-59473809D01*
X101097619Y-59330952D01*
X101145238Y-59140476D01*
X101192857Y-59045238D01*
X101288095Y-58950000D01*
X101430952Y-58902380D01*
X101526190Y-58902380D01*
X101669047Y-58950000D01*
X101716666Y-58997619D01*
X102669047Y-59902380D02*
X102097619Y-59902380D01*
X102383333Y-59902380D02*
X102383333Y-58902380D01*
X102288095Y-59045238D01*
X102192857Y-59140476D01*
X102097619Y-59188095D01*
X96752380Y-56966666D02*
X97228571Y-56966666D01*
X96657142Y-57252380D02*
X96990476Y-56252380D01*
X97323809Y-57252380D01*
X98180952Y-57252380D02*
X97609523Y-57252380D01*
X97895238Y-57252380D02*
X97895238Y-56252380D01*
X97800000Y-56395238D01*
X97704761Y-56490476D01*
X97609523Y-56538095D01*
X98371428Y-57347619D02*
X99133333Y-57347619D01*
X99371428Y-56728571D02*
X99704761Y-56728571D01*
X99847619Y-57252380D02*
X99371428Y-57252380D01*
X99371428Y-56252380D01*
X99847619Y-56252380D01*
X100276190Y-57252380D02*
X100276190Y-56252380D01*
X100847619Y-57252380D01*
X100847619Y-56252380D01*
X101895238Y-57157142D02*
X101847619Y-57204761D01*
X101704761Y-57252380D01*
X101609523Y-57252380D01*
X101466666Y-57204761D01*
X101371428Y-57109523D01*
X101323809Y-57014285D01*
X101276190Y-56823809D01*
X101276190Y-56680952D01*
X101323809Y-56490476D01*
X101371428Y-56395238D01*
X101466666Y-56300000D01*
X101609523Y-56252380D01*
X101704761Y-56252380D01*
X101847619Y-56300000D01*
X101895238Y-56347619D01*
X102847619Y-57252380D02*
X102276190Y-57252380D01*
X102561904Y-57252380D02*
X102561904Y-56252380D01*
X102466666Y-56395238D01*
X102371428Y-56490476D01*
X102276190Y-56538095D01*
X99664285Y-54028571D02*
X99807142Y-54076190D01*
X99854761Y-54123809D01*
X99902380Y-54219047D01*
X99902380Y-54361904D01*
X99854761Y-54457142D01*
X99807142Y-54504761D01*
X99711904Y-54552380D01*
X99330952Y-54552380D01*
X99330952Y-53552380D01*
X99664285Y-53552380D01*
X99759523Y-53600000D01*
X99807142Y-53647619D01*
X99854761Y-53742857D01*
X99854761Y-53838095D01*
X99807142Y-53933333D01*
X99759523Y-53980952D01*
X99664285Y-54028571D01*
X99330952Y-54028571D01*
X100330952Y-54552380D02*
X100330952Y-53552380D01*
X100711904Y-53552380D01*
X100807142Y-53600000D01*
X100854761Y-53647619D01*
X100902380Y-53742857D01*
X100902380Y-53885714D01*
X100854761Y-53980952D01*
X100807142Y-54028571D01*
X100711904Y-54076190D01*
X100330952Y-54076190D01*
X101092857Y-54647619D02*
X101854761Y-54647619D01*
X102616666Y-54552380D02*
X102045238Y-54552380D01*
X102330952Y-54552380D02*
X102330952Y-53552380D01*
X102235714Y-53695238D01*
X102140476Y-53790476D01*
X102045238Y-53838095D01*
X99859523Y-51052380D02*
X100478571Y-51052380D01*
X100145238Y-51433333D01*
X100288095Y-51433333D01*
X100383333Y-51480952D01*
X100430952Y-51528571D01*
X100478571Y-51623809D01*
X100478571Y-51861904D01*
X100430952Y-51957142D01*
X100383333Y-52004761D01*
X100288095Y-52052380D01*
X100002380Y-52052380D01*
X99907142Y-52004761D01*
X99859523Y-51957142D01*
X100811904Y-51385714D02*
X101050000Y-52052380D01*
X101288095Y-51385714D01*
X101573809Y-51052380D02*
X102192857Y-51052380D01*
X101859523Y-51433333D01*
X102002380Y-51433333D01*
X102097619Y-51480952D01*
X102145238Y-51528571D01*
X102192857Y-51623809D01*
X102192857Y-51861904D01*
X102145238Y-51957142D01*
X102097619Y-52004761D01*
X102002380Y-52052380D01*
X101716666Y-52052380D01*
X101621428Y-52004761D01*
X101573809Y-51957142D01*
X100338095Y-48600000D02*
X100242857Y-48552380D01*
X100100000Y-48552380D01*
X99957142Y-48600000D01*
X99861904Y-48695238D01*
X99814285Y-48790476D01*
X99766666Y-48980952D01*
X99766666Y-49123809D01*
X99814285Y-49314285D01*
X99861904Y-49409523D01*
X99957142Y-49504761D01*
X100100000Y-49552380D01*
X100195238Y-49552380D01*
X100338095Y-49504761D01*
X100385714Y-49457142D01*
X100385714Y-49123809D01*
X100195238Y-49123809D01*
X100814285Y-49552380D02*
X100814285Y-48552380D01*
X101385714Y-49552380D01*
X101385714Y-48552380D01*
X101861904Y-49552380D02*
X101861904Y-48552380D01*
X102100000Y-48552380D01*
X102242857Y-48600000D01*
X102338095Y-48695238D01*
X102385714Y-48790476D01*
X102433333Y-48980952D01*
X102433333Y-49123809D01*
X102385714Y-49314285D01*
X102338095Y-49409523D01*
X102242857Y-49504761D01*
X102100000Y-49552380D01*
X101861904Y-49552380D01*
%TO.C,R13*%
X133002380Y-47342857D02*
X132526190Y-47676190D01*
X133002380Y-47914285D02*
X132002380Y-47914285D01*
X132002380Y-47533333D01*
X132050000Y-47438095D01*
X132097619Y-47390476D01*
X132192857Y-47342857D01*
X132335714Y-47342857D01*
X132430952Y-47390476D01*
X132478571Y-47438095D01*
X132526190Y-47533333D01*
X132526190Y-47914285D01*
X133002380Y-46390476D02*
X133002380Y-46961904D01*
X133002380Y-46676190D02*
X132002380Y-46676190D01*
X132145238Y-46771428D01*
X132240476Y-46866666D01*
X132288095Y-46961904D01*
X132002380Y-46057142D02*
X132002380Y-45438095D01*
X132383333Y-45771428D01*
X132383333Y-45628571D01*
X132430952Y-45533333D01*
X132478571Y-45485714D01*
X132573809Y-45438095D01*
X132811904Y-45438095D01*
X132907142Y-45485714D01*
X132954761Y-45533333D01*
X133002380Y-45628571D01*
X133002380Y-45914285D01*
X132954761Y-46009523D01*
X132907142Y-46057142D01*
%TO.C,R12*%
X152957142Y-91852380D02*
X152623809Y-91376190D01*
X152385714Y-91852380D02*
X152385714Y-90852380D01*
X152766666Y-90852380D01*
X152861904Y-90900000D01*
X152909523Y-90947619D01*
X152957142Y-91042857D01*
X152957142Y-91185714D01*
X152909523Y-91280952D01*
X152861904Y-91328571D01*
X152766666Y-91376190D01*
X152385714Y-91376190D01*
X153909523Y-91852380D02*
X153338095Y-91852380D01*
X153623809Y-91852380D02*
X153623809Y-90852380D01*
X153528571Y-90995238D01*
X153433333Y-91090476D01*
X153338095Y-91138095D01*
X154290476Y-90947619D02*
X154338095Y-90900000D01*
X154433333Y-90852380D01*
X154671428Y-90852380D01*
X154766666Y-90900000D01*
X154814285Y-90947619D01*
X154861904Y-91042857D01*
X154861904Y-91138095D01*
X154814285Y-91280952D01*
X154242857Y-91852380D01*
X154861904Y-91852380D01*
%TO.C,J1*%
X103886664Y-61040377D02*
X103886664Y-61754663D01*
X103839045Y-61897520D01*
X103743807Y-61992758D01*
X103600950Y-62040377D01*
X103505712Y-62040377D01*
X104886664Y-62040377D02*
X104315236Y-62040377D01*
X104600950Y-62040377D02*
X104600950Y-61040377D01*
X104505712Y-61183235D01*
X104410474Y-61278473D01*
X104315236Y-61326092D01*
%TO.C,R17*%
X153402380Y-107592857D02*
X152926190Y-107926190D01*
X153402380Y-108164285D02*
X152402380Y-108164285D01*
X152402380Y-107783333D01*
X152450000Y-107688095D01*
X152497619Y-107640476D01*
X152592857Y-107592857D01*
X152735714Y-107592857D01*
X152830952Y-107640476D01*
X152878571Y-107688095D01*
X152926190Y-107783333D01*
X152926190Y-108164285D01*
X153402380Y-106640476D02*
X153402380Y-107211904D01*
X153402380Y-106926190D02*
X152402380Y-106926190D01*
X152545238Y-107021428D01*
X152640476Y-107116666D01*
X152688095Y-107211904D01*
X152402380Y-106307142D02*
X152402380Y-105640476D01*
X153402380Y-106069047D01*
%TO.C,R18*%
X159357142Y-125602380D02*
X159023809Y-125126190D01*
X158785714Y-125602380D02*
X158785714Y-124602380D01*
X159166666Y-124602380D01*
X159261904Y-124650000D01*
X159309523Y-124697619D01*
X159357142Y-124792857D01*
X159357142Y-124935714D01*
X159309523Y-125030952D01*
X159261904Y-125078571D01*
X159166666Y-125126190D01*
X158785714Y-125126190D01*
X160309523Y-125602380D02*
X159738095Y-125602380D01*
X160023809Y-125602380D02*
X160023809Y-124602380D01*
X159928571Y-124745238D01*
X159833333Y-124840476D01*
X159738095Y-124888095D01*
X160880952Y-125030952D02*
X160785714Y-124983333D01*
X160738095Y-124935714D01*
X160690476Y-124840476D01*
X160690476Y-124792857D01*
X160738095Y-124697619D01*
X160785714Y-124650000D01*
X160880952Y-124602380D01*
X161071428Y-124602380D01*
X161166666Y-124650000D01*
X161214285Y-124697619D01*
X161261904Y-124792857D01*
X161261904Y-124840476D01*
X161214285Y-124935714D01*
X161166666Y-124983333D01*
X161071428Y-125030952D01*
X160880952Y-125030952D01*
X160785714Y-125078571D01*
X160738095Y-125126190D01*
X160690476Y-125221428D01*
X160690476Y-125411904D01*
X160738095Y-125507142D01*
X160785714Y-125554761D01*
X160880952Y-125602380D01*
X161071428Y-125602380D01*
X161166666Y-125554761D01*
X161214285Y-125507142D01*
X161261904Y-125411904D01*
X161261904Y-125221428D01*
X161214285Y-125126190D01*
X161166666Y-125078571D01*
X161071428Y-125030952D01*
%TO.C,J4*%
X185827378Y-72415080D02*
X186541664Y-72415080D01*
X186684521Y-72462699D01*
X186779759Y-72557937D01*
X186827378Y-72700794D01*
X186827378Y-72796032D01*
X186160712Y-71510318D02*
X186827378Y-71510318D01*
X185779759Y-71748413D02*
X186494045Y-71986508D01*
X186494045Y-71367461D01*
%TO.C,R8*%
X153383333Y-95552380D02*
X153050000Y-95076190D01*
X152811904Y-95552380D02*
X152811904Y-94552380D01*
X153192857Y-94552380D01*
X153288095Y-94600000D01*
X153335714Y-94647619D01*
X153383333Y-94742857D01*
X153383333Y-94885714D01*
X153335714Y-94980952D01*
X153288095Y-95028571D01*
X153192857Y-95076190D01*
X152811904Y-95076190D01*
X153954761Y-94980952D02*
X153859523Y-94933333D01*
X153811904Y-94885714D01*
X153764285Y-94790476D01*
X153764285Y-94742857D01*
X153811904Y-94647619D01*
X153859523Y-94600000D01*
X153954761Y-94552380D01*
X154145238Y-94552380D01*
X154240476Y-94600000D01*
X154288095Y-94647619D01*
X154335714Y-94742857D01*
X154335714Y-94790476D01*
X154288095Y-94885714D01*
X154240476Y-94933333D01*
X154145238Y-94980952D01*
X153954761Y-94980952D01*
X153859523Y-95028571D01*
X153811904Y-95076190D01*
X153764285Y-95171428D01*
X153764285Y-95361904D01*
X153811904Y-95457142D01*
X153859523Y-95504761D01*
X153954761Y-95552380D01*
X154145238Y-95552380D01*
X154240476Y-95504761D01*
X154288095Y-95457142D01*
X154335714Y-95361904D01*
X154335714Y-95171428D01*
X154288095Y-95076190D01*
X154240476Y-95028571D01*
X154145238Y-94980952D01*
%TO.C,R14*%
X152957142Y-99402380D02*
X152623809Y-98926190D01*
X152385714Y-99402380D02*
X152385714Y-98402380D01*
X152766666Y-98402380D01*
X152861904Y-98450000D01*
X152909523Y-98497619D01*
X152957142Y-98592857D01*
X152957142Y-98735714D01*
X152909523Y-98830952D01*
X152861904Y-98878571D01*
X152766666Y-98926190D01*
X152385714Y-98926190D01*
X153909523Y-99402380D02*
X153338095Y-99402380D01*
X153623809Y-99402380D02*
X153623809Y-98402380D01*
X153528571Y-98545238D01*
X153433333Y-98640476D01*
X153338095Y-98688095D01*
X154766666Y-98735714D02*
X154766666Y-99402380D01*
X154528571Y-98354761D02*
X154290476Y-99069047D01*
X154909523Y-99069047D01*
%TO.C,R22*%
X201107142Y-98902380D02*
X200773809Y-98426190D01*
X200535714Y-98902380D02*
X200535714Y-97902380D01*
X200916666Y-97902380D01*
X201011904Y-97950000D01*
X201059523Y-97997619D01*
X201107142Y-98092857D01*
X201107142Y-98235714D01*
X201059523Y-98330952D01*
X201011904Y-98378571D01*
X200916666Y-98426190D01*
X200535714Y-98426190D01*
X201488095Y-97997619D02*
X201535714Y-97950000D01*
X201630952Y-97902380D01*
X201869047Y-97902380D01*
X201964285Y-97950000D01*
X202011904Y-97997619D01*
X202059523Y-98092857D01*
X202059523Y-98188095D01*
X202011904Y-98330952D01*
X201440476Y-98902380D01*
X202059523Y-98902380D01*
X202440476Y-97997619D02*
X202488095Y-97950000D01*
X202583333Y-97902380D01*
X202821428Y-97902380D01*
X202916666Y-97950000D01*
X202964285Y-97997619D01*
X203011904Y-98092857D01*
X203011904Y-98188095D01*
X202964285Y-98330952D01*
X202392857Y-98902380D01*
X203011904Y-98902380D01*
%TO.C,C8*%
X152707142Y-48616666D02*
X152754761Y-48664285D01*
X152802380Y-48807142D01*
X152802380Y-48902380D01*
X152754761Y-49045238D01*
X152659523Y-49140476D01*
X152564285Y-49188095D01*
X152373809Y-49235714D01*
X152230952Y-49235714D01*
X152040476Y-49188095D01*
X151945238Y-49140476D01*
X151850000Y-49045238D01*
X151802380Y-48902380D01*
X151802380Y-48807142D01*
X151850000Y-48664285D01*
X151897619Y-48616666D01*
X152230952Y-48045238D02*
X152183333Y-48140476D01*
X152135714Y-48188095D01*
X152040476Y-48235714D01*
X151992857Y-48235714D01*
X151897619Y-48188095D01*
X151850000Y-48140476D01*
X151802380Y-48045238D01*
X151802380Y-47854761D01*
X151850000Y-47759523D01*
X151897619Y-47711904D01*
X151992857Y-47664285D01*
X152040476Y-47664285D01*
X152135714Y-47711904D01*
X152183333Y-47759523D01*
X152230952Y-47854761D01*
X152230952Y-48045238D01*
X152278571Y-48140476D01*
X152326190Y-48188095D01*
X152421428Y-48235714D01*
X152611904Y-48235714D01*
X152707142Y-48188095D01*
X152754761Y-48140476D01*
X152802380Y-48045238D01*
X152802380Y-47854761D01*
X152754761Y-47759523D01*
X152707142Y-47711904D01*
X152611904Y-47664285D01*
X152421428Y-47664285D01*
X152326190Y-47711904D01*
X152278571Y-47759523D01*
X152230952Y-47854761D01*
%TO.C,J10*%
X174660474Y-119275377D02*
X174660474Y-119989663D01*
X174612855Y-120132520D01*
X174517617Y-120227758D01*
X174374759Y-120275377D01*
X174279521Y-120275377D01*
X175660474Y-120275377D02*
X175089045Y-120275377D01*
X175374759Y-120275377D02*
X175374759Y-119275377D01*
X175279521Y-119418235D01*
X175184283Y-119513473D01*
X175089045Y-119561092D01*
X176279521Y-119275377D02*
X176374759Y-119275377D01*
X176469998Y-119322997D01*
X176517617Y-119370616D01*
X176565236Y-119465854D01*
X176612855Y-119656330D01*
X176612855Y-119894425D01*
X176565236Y-120084901D01*
X176517617Y-120180139D01*
X176469998Y-120227758D01*
X176374759Y-120275377D01*
X176279521Y-120275377D01*
X176184283Y-120227758D01*
X176136664Y-120180139D01*
X176089045Y-120084901D01*
X176041426Y-119894425D01*
X176041426Y-119656330D01*
X176089045Y-119465854D01*
X176136664Y-119370616D01*
X176184283Y-119322997D01*
X176279521Y-119275377D01*
%TO.C,K2*%
X164502380Y-111538095D02*
X163502380Y-111538095D01*
X164502380Y-110966666D02*
X163930952Y-111395238D01*
X163502380Y-110966666D02*
X164073809Y-111538095D01*
X163597619Y-110585714D02*
X163550000Y-110538095D01*
X163502380Y-110442857D01*
X163502380Y-110204761D01*
X163550000Y-110109523D01*
X163597619Y-110061904D01*
X163692857Y-110014285D01*
X163788095Y-110014285D01*
X163930952Y-110061904D01*
X164502380Y-110633333D01*
X164502380Y-110014285D01*
%TO.C,R3*%
X164952380Y-53466666D02*
X164476190Y-53800000D01*
X164952380Y-54038095D02*
X163952380Y-54038095D01*
X163952380Y-53657142D01*
X164000000Y-53561904D01*
X164047619Y-53514285D01*
X164142857Y-53466666D01*
X164285714Y-53466666D01*
X164380952Y-53514285D01*
X164428571Y-53561904D01*
X164476190Y-53657142D01*
X164476190Y-54038095D01*
X163952380Y-53133333D02*
X163952380Y-52514285D01*
X164333333Y-52847619D01*
X164333333Y-52704761D01*
X164380952Y-52609523D01*
X164428571Y-52561904D01*
X164523809Y-52514285D01*
X164761904Y-52514285D01*
X164857142Y-52561904D01*
X164904761Y-52609523D01*
X164952380Y-52704761D01*
X164952380Y-52990476D01*
X164904761Y-53085714D01*
X164857142Y-53133333D01*
%TO.C,C6*%
X141407142Y-95566666D02*
X141454761Y-95614285D01*
X141502380Y-95757142D01*
X141502380Y-95852380D01*
X141454761Y-95995238D01*
X141359523Y-96090476D01*
X141264285Y-96138095D01*
X141073809Y-96185714D01*
X140930952Y-96185714D01*
X140740476Y-96138095D01*
X140645238Y-96090476D01*
X140550000Y-95995238D01*
X140502380Y-95852380D01*
X140502380Y-95757142D01*
X140550000Y-95614285D01*
X140597619Y-95566666D01*
X140502380Y-94709523D02*
X140502380Y-94900000D01*
X140550000Y-94995238D01*
X140597619Y-95042857D01*
X140740476Y-95138095D01*
X140930952Y-95185714D01*
X141311904Y-95185714D01*
X141407142Y-95138095D01*
X141454761Y-95090476D01*
X141502380Y-94995238D01*
X141502380Y-94804761D01*
X141454761Y-94709523D01*
X141407142Y-94661904D01*
X141311904Y-94614285D01*
X141073809Y-94614285D01*
X140978571Y-94661904D01*
X140930952Y-94709523D01*
X140883333Y-94804761D01*
X140883333Y-94995238D01*
X140930952Y-95090476D01*
X140978571Y-95138095D01*
X141073809Y-95185714D01*
%TO.C,J5*%
X200552380Y-65833333D02*
X201266666Y-65833333D01*
X201409523Y-65880952D01*
X201504761Y-65976190D01*
X201552380Y-66119047D01*
X201552380Y-66214285D01*
X200552380Y-64880952D02*
X200552380Y-65357142D01*
X201028571Y-65404761D01*
X200980952Y-65357142D01*
X200933333Y-65261904D01*
X200933333Y-65023809D01*
X200980952Y-64928571D01*
X201028571Y-64880952D01*
X201123809Y-64833333D01*
X201361904Y-64833333D01*
X201457142Y-64880952D01*
X201504761Y-64928571D01*
X201552380Y-65023809D01*
X201552380Y-65261904D01*
X201504761Y-65357142D01*
X201457142Y-65404761D01*
%TO.C,ENC1*%
X108116069Y-60207401D02*
X108116069Y-59874068D01*
X108639878Y-59731211D02*
X108639878Y-60207401D01*
X107639878Y-60207401D01*
X107639878Y-59731211D01*
X108639878Y-59302639D02*
X107639878Y-59302639D01*
X108639878Y-58731211D01*
X107639878Y-58731211D01*
X108544640Y-57683592D02*
X108592259Y-57731211D01*
X108639878Y-57874068D01*
X108639878Y-57969306D01*
X108592259Y-58112163D01*
X108497021Y-58207401D01*
X108401783Y-58255020D01*
X108211307Y-58302639D01*
X108068450Y-58302639D01*
X107877974Y-58255020D01*
X107782736Y-58207401D01*
X107687498Y-58112163D01*
X107639878Y-57969306D01*
X107639878Y-57874068D01*
X107687498Y-57731211D01*
X107735117Y-57683592D01*
X108639878Y-56731211D02*
X108639878Y-57302639D01*
X108639878Y-57016925D02*
X107639878Y-57016925D01*
X107782736Y-57112163D01*
X107877974Y-57207401D01*
X107925593Y-57302639D01*
X115846783Y-56220139D02*
X115846783Y-55796806D01*
X116512021Y-55615377D02*
X116512021Y-56220139D01*
X115242021Y-56220139D01*
X115242021Y-55615377D01*
X116512021Y-55071092D02*
X115242021Y-55071092D01*
X116512021Y-54345377D01*
X115242021Y-54345377D01*
X116391069Y-53014901D02*
X116451545Y-53075377D01*
X116512021Y-53256806D01*
X116512021Y-53377758D01*
X116451545Y-53559187D01*
X116330593Y-53680139D01*
X116209640Y-53740616D01*
X115967736Y-53801092D01*
X115786307Y-53801092D01*
X115544402Y-53740616D01*
X115423450Y-53680139D01*
X115302498Y-53559187D01*
X115242021Y-53377758D01*
X115242021Y-53256806D01*
X115302498Y-53075377D01*
X115362974Y-53014901D01*
X116512021Y-51805377D02*
X116512021Y-52531092D01*
X116512021Y-52168235D02*
X115242021Y-52168235D01*
X115423450Y-52289187D01*
X115544402Y-52410139D01*
X115604878Y-52531092D01*
%TO.C,K3*%
X143852380Y-110988095D02*
X142852380Y-110988095D01*
X143852380Y-110416666D02*
X143280952Y-110845238D01*
X142852380Y-110416666D02*
X143423809Y-110988095D01*
X142852380Y-110083333D02*
X142852380Y-109464285D01*
X143233333Y-109797619D01*
X143233333Y-109654761D01*
X143280952Y-109559523D01*
X143328571Y-109511904D01*
X143423809Y-109464285D01*
X143661904Y-109464285D01*
X143757142Y-109511904D01*
X143804761Y-109559523D01*
X143852380Y-109654761D01*
X143852380Y-109940476D01*
X143804761Y-110035714D01*
X143757142Y-110083333D01*
%TO.C,R11*%
X152102380Y-82542857D02*
X151626190Y-82876190D01*
X152102380Y-83114285D02*
X151102380Y-83114285D01*
X151102380Y-82733333D01*
X151150000Y-82638095D01*
X151197619Y-82590476D01*
X151292857Y-82542857D01*
X151435714Y-82542857D01*
X151530952Y-82590476D01*
X151578571Y-82638095D01*
X151626190Y-82733333D01*
X151626190Y-83114285D01*
X152102380Y-81590476D02*
X152102380Y-82161904D01*
X152102380Y-81876190D02*
X151102380Y-81876190D01*
X151245238Y-81971428D01*
X151340476Y-82066666D01*
X151388095Y-82161904D01*
X152102380Y-80638095D02*
X152102380Y-81209523D01*
X152102380Y-80923809D02*
X151102380Y-80923809D01*
X151245238Y-81019047D01*
X151340476Y-81114285D01*
X151388095Y-81209523D01*
%TO.C,R21*%
X186457142Y-98702380D02*
X186123809Y-98226190D01*
X185885714Y-98702380D02*
X185885714Y-97702380D01*
X186266666Y-97702380D01*
X186361904Y-97750000D01*
X186409523Y-97797619D01*
X186457142Y-97892857D01*
X186457142Y-98035714D01*
X186409523Y-98130952D01*
X186361904Y-98178571D01*
X186266666Y-98226190D01*
X185885714Y-98226190D01*
X186838095Y-97797619D02*
X186885714Y-97750000D01*
X186980952Y-97702380D01*
X187219047Y-97702380D01*
X187314285Y-97750000D01*
X187361904Y-97797619D01*
X187409523Y-97892857D01*
X187409523Y-97988095D01*
X187361904Y-98130952D01*
X186790476Y-98702380D01*
X187409523Y-98702380D01*
X188361904Y-98702380D02*
X187790476Y-98702380D01*
X188076190Y-98702380D02*
X188076190Y-97702380D01*
X187980952Y-97845238D01*
X187885714Y-97940476D01*
X187790476Y-97988095D01*
%TO.C,R19*%
X184002380Y-83542857D02*
X183526190Y-83876190D01*
X184002380Y-84114285D02*
X183002380Y-84114285D01*
X183002380Y-83733333D01*
X183050000Y-83638095D01*
X183097619Y-83590476D01*
X183192857Y-83542857D01*
X183335714Y-83542857D01*
X183430952Y-83590476D01*
X183478571Y-83638095D01*
X183526190Y-83733333D01*
X183526190Y-84114285D01*
X184002380Y-82590476D02*
X184002380Y-83161904D01*
X184002380Y-82876190D02*
X183002380Y-82876190D01*
X183145238Y-82971428D01*
X183240476Y-83066666D01*
X183288095Y-83161904D01*
X184002380Y-82114285D02*
X184002380Y-81923809D01*
X183954761Y-81828571D01*
X183907142Y-81780952D01*
X183764285Y-81685714D01*
X183573809Y-81638095D01*
X183192857Y-81638095D01*
X183097619Y-81685714D01*
X183050000Y-81733333D01*
X183002380Y-81828571D01*
X183002380Y-82019047D01*
X183050000Y-82114285D01*
X183097619Y-82161904D01*
X183192857Y-82209523D01*
X183430952Y-82209523D01*
X183526190Y-82161904D01*
X183573809Y-82114285D01*
X183621428Y-82019047D01*
X183621428Y-81828571D01*
X183573809Y-81733333D01*
X183526190Y-81685714D01*
X183430952Y-81638095D01*
%TO.C,J9*%
X65582378Y-119716330D02*
X66296664Y-119716330D01*
X66439521Y-119763949D01*
X66534759Y-119859187D01*
X66582378Y-120002044D01*
X66582378Y-120097282D01*
X66582378Y-119192520D02*
X66582378Y-119002044D01*
X66534759Y-118906806D01*
X66487140Y-118859187D01*
X66344283Y-118763949D01*
X66153807Y-118716330D01*
X65772855Y-118716330D01*
X65677617Y-118763949D01*
X65629998Y-118811568D01*
X65582378Y-118906806D01*
X65582378Y-119097282D01*
X65629998Y-119192520D01*
X65677617Y-119240139D01*
X65772855Y-119287758D01*
X66010950Y-119287758D01*
X66106188Y-119240139D01*
X66153807Y-119192520D01*
X66201426Y-119097282D01*
X66201426Y-118906806D01*
X66153807Y-118811568D01*
X66106188Y-118763949D01*
X66010950Y-118716330D01*
%TO.C,R20*%
X204302380Y-83342857D02*
X203826190Y-83676190D01*
X204302380Y-83914285D02*
X203302380Y-83914285D01*
X203302380Y-83533333D01*
X203350000Y-83438095D01*
X203397619Y-83390476D01*
X203492857Y-83342857D01*
X203635714Y-83342857D01*
X203730952Y-83390476D01*
X203778571Y-83438095D01*
X203826190Y-83533333D01*
X203826190Y-83914285D01*
X203397619Y-82961904D02*
X203350000Y-82914285D01*
X203302380Y-82819047D01*
X203302380Y-82580952D01*
X203350000Y-82485714D01*
X203397619Y-82438095D01*
X203492857Y-82390476D01*
X203588095Y-82390476D01*
X203730952Y-82438095D01*
X204302380Y-83009523D01*
X204302380Y-82390476D01*
X203302380Y-81771428D02*
X203302380Y-81676190D01*
X203350000Y-81580952D01*
X203397619Y-81533333D01*
X203492857Y-81485714D01*
X203683333Y-81438095D01*
X203921428Y-81438095D01*
X204111904Y-81485714D01*
X204207142Y-81533333D01*
X204254761Y-81580952D01*
X204302380Y-81676190D01*
X204302380Y-81771428D01*
X204254761Y-81866666D01*
X204207142Y-81914285D01*
X204111904Y-81961904D01*
X203921428Y-82009523D01*
X203683333Y-82009523D01*
X203492857Y-81961904D01*
X203397619Y-81914285D01*
X203350000Y-81866666D01*
X203302380Y-81771428D01*
%TO.C,R15*%
X145457142Y-125452380D02*
X145123809Y-124976190D01*
X144885714Y-125452380D02*
X144885714Y-124452380D01*
X145266666Y-124452380D01*
X145361904Y-124500000D01*
X145409523Y-124547619D01*
X145457142Y-124642857D01*
X145457142Y-124785714D01*
X145409523Y-124880952D01*
X145361904Y-124928571D01*
X145266666Y-124976190D01*
X144885714Y-124976190D01*
X146409523Y-125452380D02*
X145838095Y-125452380D01*
X146123809Y-125452380D02*
X146123809Y-124452380D01*
X146028571Y-124595238D01*
X145933333Y-124690476D01*
X145838095Y-124738095D01*
X147314285Y-124452380D02*
X146838095Y-124452380D01*
X146790476Y-124928571D01*
X146838095Y-124880952D01*
X146933333Y-124833333D01*
X147171428Y-124833333D01*
X147266666Y-124880952D01*
X147314285Y-124928571D01*
X147361904Y-125023809D01*
X147361904Y-125261904D01*
X147314285Y-125357142D01*
X147266666Y-125404761D01*
X147171428Y-125452380D01*
X146933333Y-125452380D01*
X146838095Y-125404761D01*
X146790476Y-125357142D01*
%TO.C,ENC2*%
X157915593Y-73149068D02*
X158248926Y-73149068D01*
X158391783Y-73672877D02*
X157915593Y-73672877D01*
X157915593Y-72672877D01*
X158391783Y-72672877D01*
X158820355Y-73672877D02*
X158820355Y-72672877D01*
X159391783Y-73672877D01*
X159391783Y-72672877D01*
X160439402Y-73577639D02*
X160391783Y-73625258D01*
X160248926Y-73672877D01*
X160153688Y-73672877D01*
X160010831Y-73625258D01*
X159915593Y-73530020D01*
X159867974Y-73434782D01*
X159820355Y-73244306D01*
X159820355Y-73101449D01*
X159867974Y-72910973D01*
X159915593Y-72815735D01*
X160010831Y-72720497D01*
X160153688Y-72672877D01*
X160248926Y-72672877D01*
X160391783Y-72720497D01*
X160439402Y-72768116D01*
X160820355Y-72768116D02*
X160867974Y-72720497D01*
X160963212Y-72672877D01*
X161201307Y-72672877D01*
X161296545Y-72720497D01*
X161344164Y-72768116D01*
X161391783Y-72863354D01*
X161391783Y-72958592D01*
X161344164Y-73101449D01*
X160772736Y-73672877D01*
X161391783Y-73672877D01*
X161902855Y-80879782D02*
X162326188Y-80879782D01*
X162507617Y-81545020D02*
X161902855Y-81545020D01*
X161902855Y-80275020D01*
X162507617Y-80275020D01*
X163051902Y-81545020D02*
X163051902Y-80275020D01*
X163777617Y-81545020D01*
X163777617Y-80275020D01*
X165108093Y-81424068D02*
X165047617Y-81484544D01*
X164866188Y-81545020D01*
X164745236Y-81545020D01*
X164563807Y-81484544D01*
X164442855Y-81363592D01*
X164382378Y-81242639D01*
X164321902Y-81000735D01*
X164321902Y-80819306D01*
X164382378Y-80577401D01*
X164442855Y-80456449D01*
X164563807Y-80335497D01*
X164745236Y-80275020D01*
X164866188Y-80275020D01*
X165047617Y-80335497D01*
X165108093Y-80395973D01*
X165591902Y-80395973D02*
X165652378Y-80335497D01*
X165773331Y-80275020D01*
X166075712Y-80275020D01*
X166196664Y-80335497D01*
X166257140Y-80395973D01*
X166317617Y-80516925D01*
X166317617Y-80637877D01*
X166257140Y-80819306D01*
X165531426Y-81545020D01*
X166317617Y-81545020D01*
%TO.C,R10*%
X132752380Y-61242857D02*
X132276190Y-61576190D01*
X132752380Y-61814285D02*
X131752380Y-61814285D01*
X131752380Y-61433333D01*
X131800000Y-61338095D01*
X131847619Y-61290476D01*
X131942857Y-61242857D01*
X132085714Y-61242857D01*
X132180952Y-61290476D01*
X132228571Y-61338095D01*
X132276190Y-61433333D01*
X132276190Y-61814285D01*
X132752380Y-60290476D02*
X132752380Y-60861904D01*
X132752380Y-60576190D02*
X131752380Y-60576190D01*
X131895238Y-60671428D01*
X131990476Y-60766666D01*
X132038095Y-60861904D01*
X131752380Y-59671428D02*
X131752380Y-59576190D01*
X131800000Y-59480952D01*
X131847619Y-59433333D01*
X131942857Y-59385714D01*
X132133333Y-59338095D01*
X132371428Y-59338095D01*
X132561904Y-59385714D01*
X132657142Y-59433333D01*
X132704761Y-59480952D01*
X132752380Y-59576190D01*
X132752380Y-59671428D01*
X132704761Y-59766666D01*
X132657142Y-59814285D01*
X132561904Y-59861904D01*
X132371428Y-59909523D01*
X132133333Y-59909523D01*
X131942857Y-59861904D01*
X131847619Y-59814285D01*
X131800000Y-59766666D01*
X131752380Y-59671428D01*
%TO.C,C10*%
X188807142Y-95057142D02*
X188759523Y-95104761D01*
X188616666Y-95152380D01*
X188521428Y-95152380D01*
X188378571Y-95104761D01*
X188283333Y-95009523D01*
X188235714Y-94914285D01*
X188188095Y-94723809D01*
X188188095Y-94580952D01*
X188235714Y-94390476D01*
X188283333Y-94295238D01*
X188378571Y-94200000D01*
X188521428Y-94152380D01*
X188616666Y-94152380D01*
X188759523Y-94200000D01*
X188807142Y-94247619D01*
X189759523Y-95152380D02*
X189188095Y-95152380D01*
X189473809Y-95152380D02*
X189473809Y-94152380D01*
X189378571Y-94295238D01*
X189283333Y-94390476D01*
X189188095Y-94438095D01*
X190378571Y-94152380D02*
X190473809Y-94152380D01*
X190569047Y-94200000D01*
X190616666Y-94247619D01*
X190664285Y-94342857D01*
X190711904Y-94533333D01*
X190711904Y-94771428D01*
X190664285Y-94961904D01*
X190616666Y-95057142D01*
X190569047Y-95104761D01*
X190473809Y-95152380D01*
X190378571Y-95152380D01*
X190283333Y-95104761D01*
X190235714Y-95057142D01*
X190188095Y-94961904D01*
X190140476Y-94771428D01*
X190140476Y-94533333D01*
X190188095Y-94342857D01*
X190235714Y-94247619D01*
X190283333Y-94200000D01*
X190378571Y-94152380D01*
%TO.C,C9*%
X162483333Y-122607142D02*
X162435714Y-122654761D01*
X162292857Y-122702380D01*
X162197619Y-122702380D01*
X162054761Y-122654761D01*
X161959523Y-122559523D01*
X161911904Y-122464285D01*
X161864285Y-122273809D01*
X161864285Y-122130952D01*
X161911904Y-121940476D01*
X161959523Y-121845238D01*
X162054761Y-121750000D01*
X162197619Y-121702380D01*
X162292857Y-121702380D01*
X162435714Y-121750000D01*
X162483333Y-121797619D01*
X162959523Y-122702380D02*
X163150000Y-122702380D01*
X163245238Y-122654761D01*
X163292857Y-122607142D01*
X163388095Y-122464285D01*
X163435714Y-122273809D01*
X163435714Y-121892857D01*
X163388095Y-121797619D01*
X163340476Y-121750000D01*
X163245238Y-121702380D01*
X163054761Y-121702380D01*
X162959523Y-121750000D01*
X162911904Y-121797619D01*
X162864285Y-121892857D01*
X162864285Y-122130952D01*
X162911904Y-122226190D01*
X162959523Y-122273809D01*
X163054761Y-122321428D01*
X163245238Y-122321428D01*
X163340476Y-122273809D01*
X163388095Y-122226190D01*
X163435714Y-122130952D01*
%TO.C,R1*%
X152902380Y-59766666D02*
X152426190Y-60100000D01*
X152902380Y-60338095D02*
X151902380Y-60338095D01*
X151902380Y-59957142D01*
X151950000Y-59861904D01*
X151997619Y-59814285D01*
X152092857Y-59766666D01*
X152235714Y-59766666D01*
X152330952Y-59814285D01*
X152378571Y-59861904D01*
X152426190Y-59957142D01*
X152426190Y-60338095D01*
X152902380Y-58814285D02*
X152902380Y-59385714D01*
X152902380Y-59100000D02*
X151902380Y-59100000D01*
X152045238Y-59195238D01*
X152140476Y-59290476D01*
X152188095Y-59385714D01*
%TO.C,J11*%
X201072378Y-122367520D02*
X201786664Y-122367520D01*
X201929521Y-122415139D01*
X202024759Y-122510377D01*
X202072378Y-122653235D01*
X202072378Y-122748473D01*
X202072378Y-121367520D02*
X202072378Y-121938949D01*
X202072378Y-121653235D02*
X201072378Y-121653235D01*
X201215236Y-121748473D01*
X201310474Y-121843711D01*
X201358093Y-121938949D01*
X202072378Y-120415139D02*
X202072378Y-120986568D01*
X202072378Y-120700854D02*
X201072378Y-120700854D01*
X201215236Y-120796092D01*
X201310474Y-120891330D01*
X201358093Y-120986568D01*
%TO.C,C5*%
X128307142Y-49266666D02*
X128354761Y-49314285D01*
X128402380Y-49457142D01*
X128402380Y-49552380D01*
X128354761Y-49695238D01*
X128259523Y-49790476D01*
X128164285Y-49838095D01*
X127973809Y-49885714D01*
X127830952Y-49885714D01*
X127640476Y-49838095D01*
X127545238Y-49790476D01*
X127450000Y-49695238D01*
X127402380Y-49552380D01*
X127402380Y-49457142D01*
X127450000Y-49314285D01*
X127497619Y-49266666D01*
X127402380Y-48361904D02*
X127402380Y-48838095D01*
X127878571Y-48885714D01*
X127830952Y-48838095D01*
X127783333Y-48742857D01*
X127783333Y-48504761D01*
X127830952Y-48409523D01*
X127878571Y-48361904D01*
X127973809Y-48314285D01*
X128211904Y-48314285D01*
X128307142Y-48361904D01*
X128354761Y-48409523D01*
X128402380Y-48504761D01*
X128402380Y-48742857D01*
X128354761Y-48838095D01*
X128307142Y-48885714D01*
%TO.C,C7*%
X142383333Y-122557142D02*
X142335714Y-122604761D01*
X142192857Y-122652380D01*
X142097619Y-122652380D01*
X141954761Y-122604761D01*
X141859523Y-122509523D01*
X141811904Y-122414285D01*
X141764285Y-122223809D01*
X141764285Y-122080952D01*
X141811904Y-121890476D01*
X141859523Y-121795238D01*
X141954761Y-121700000D01*
X142097619Y-121652380D01*
X142192857Y-121652380D01*
X142335714Y-121700000D01*
X142383333Y-121747619D01*
X142716666Y-121652380D02*
X143383333Y-121652380D01*
X142954761Y-122652380D01*
%TO.C,K1*%
X142602380Y-55088095D02*
X141602380Y-55088095D01*
X142602380Y-54516666D02*
X142030952Y-54945238D01*
X141602380Y-54516666D02*
X142173809Y-55088095D01*
X142602380Y-53564285D02*
X142602380Y-54135714D01*
X142602380Y-53850000D02*
X141602380Y-53850000D01*
X141745238Y-53945238D01*
X141840476Y-54040476D01*
X141888095Y-54135714D01*
%TO.C,C4*%
X166357142Y-95266666D02*
X166404761Y-95314285D01*
X166452380Y-95457142D01*
X166452380Y-95552380D01*
X166404761Y-95695238D01*
X166309523Y-95790476D01*
X166214285Y-95838095D01*
X166023809Y-95885714D01*
X165880952Y-95885714D01*
X165690476Y-95838095D01*
X165595238Y-95790476D01*
X165500000Y-95695238D01*
X165452380Y-95552380D01*
X165452380Y-95457142D01*
X165500000Y-95314285D01*
X165547619Y-95266666D01*
X165785714Y-94409523D02*
X166452380Y-94409523D01*
X165404761Y-94647619D02*
X166119047Y-94885714D01*
X166119047Y-94266666D01*
%TO.C,R6*%
X155152380Y-81966666D02*
X154676190Y-82300000D01*
X155152380Y-82538095D02*
X154152380Y-82538095D01*
X154152380Y-82157142D01*
X154200000Y-82061904D01*
X154247619Y-82014285D01*
X154342857Y-81966666D01*
X154485714Y-81966666D01*
X154580952Y-82014285D01*
X154628571Y-82061904D01*
X154676190Y-82157142D01*
X154676190Y-82538095D01*
X154152380Y-81109523D02*
X154152380Y-81300000D01*
X154200000Y-81395238D01*
X154247619Y-81442857D01*
X154390476Y-81538095D01*
X154580952Y-81585714D01*
X154961904Y-81585714D01*
X155057142Y-81538095D01*
X155104761Y-81490476D01*
X155152380Y-81395238D01*
X155152380Y-81204761D01*
X155104761Y-81109523D01*
X155057142Y-81061904D01*
X154961904Y-81014285D01*
X154723809Y-81014285D01*
X154628571Y-81061904D01*
X154580952Y-81109523D01*
X154533333Y-81204761D01*
X154533333Y-81395238D01*
X154580952Y-81490476D01*
X154628571Y-81538095D01*
X154723809Y-81585714D01*
%TO.C,J7*%
X203496664Y-102585377D02*
X203496664Y-103299663D01*
X203449045Y-103442520D01*
X203353807Y-103537758D01*
X203210950Y-103585377D01*
X203115712Y-103585377D01*
X203877617Y-102585377D02*
X204544283Y-102585377D01*
X204115712Y-103585377D01*
%TO.C,C11*%
X198307142Y-95007142D02*
X198259523Y-95054761D01*
X198116666Y-95102380D01*
X198021428Y-95102380D01*
X197878571Y-95054761D01*
X197783333Y-94959523D01*
X197735714Y-94864285D01*
X197688095Y-94673809D01*
X197688095Y-94530952D01*
X197735714Y-94340476D01*
X197783333Y-94245238D01*
X197878571Y-94150000D01*
X198021428Y-94102380D01*
X198116666Y-94102380D01*
X198259523Y-94150000D01*
X198307142Y-94197619D01*
X199259523Y-95102380D02*
X198688095Y-95102380D01*
X198973809Y-95102380D02*
X198973809Y-94102380D01*
X198878571Y-94245238D01*
X198783333Y-94340476D01*
X198688095Y-94388095D01*
X200211904Y-95102380D02*
X199640476Y-95102380D01*
X199926190Y-95102380D02*
X199926190Y-94102380D01*
X199830952Y-94245238D01*
X199735714Y-94340476D01*
X199640476Y-94388095D01*
%TO.C,C1*%
X170057142Y-95116666D02*
X170104761Y-95164285D01*
X170152380Y-95307142D01*
X170152380Y-95402380D01*
X170104761Y-95545238D01*
X170009523Y-95640476D01*
X169914285Y-95688095D01*
X169723809Y-95735714D01*
X169580952Y-95735714D01*
X169390476Y-95688095D01*
X169295238Y-95640476D01*
X169200000Y-95545238D01*
X169152380Y-95402380D01*
X169152380Y-95307142D01*
X169200000Y-95164285D01*
X169247619Y-95116666D01*
X170152380Y-94164285D02*
X170152380Y-94735714D01*
X170152380Y-94450000D02*
X169152380Y-94450000D01*
X169295238Y-94545238D01*
X169390476Y-94640476D01*
X169438095Y-94735714D01*
%TO.C,R2*%
X142933333Y-66302380D02*
X142600000Y-65826190D01*
X142361904Y-66302380D02*
X142361904Y-65302380D01*
X142742857Y-65302380D01*
X142838095Y-65350000D01*
X142885714Y-65397619D01*
X142933333Y-65492857D01*
X142933333Y-65635714D01*
X142885714Y-65730952D01*
X142838095Y-65778571D01*
X142742857Y-65826190D01*
X142361904Y-65826190D01*
X143314285Y-65397619D02*
X143361904Y-65350000D01*
X143457142Y-65302380D01*
X143695238Y-65302380D01*
X143790476Y-65350000D01*
X143838095Y-65397619D01*
X143885714Y-65492857D01*
X143885714Y-65588095D01*
X143838095Y-65730952D01*
X143266666Y-66302380D01*
X143885714Y-66302380D01*
%TO.C,ENC3*%
X134278571Y-82664404D02*
X134278571Y-82331071D01*
X134802380Y-82188214D02*
X134802380Y-82664404D01*
X133802380Y-82664404D01*
X133802380Y-82188214D01*
X134802380Y-81759642D02*
X133802380Y-81759642D01*
X134802380Y-81188214D01*
X133802380Y-81188214D01*
X134707142Y-80140595D02*
X134754761Y-80188214D01*
X134802380Y-80331071D01*
X134802380Y-80426309D01*
X134754761Y-80569166D01*
X134659523Y-80664404D01*
X134564285Y-80712023D01*
X134373809Y-80759642D01*
X134230952Y-80759642D01*
X134040476Y-80712023D01*
X133945238Y-80664404D01*
X133850000Y-80569166D01*
X133802380Y-80426309D01*
X133802380Y-80331071D01*
X133850000Y-80188214D01*
X133897619Y-80140595D01*
X133802380Y-79807261D02*
X133802380Y-79188214D01*
X134183333Y-79521547D01*
X134183333Y-79378690D01*
X134230952Y-79283452D01*
X134278571Y-79235833D01*
X134373809Y-79188214D01*
X134611904Y-79188214D01*
X134707142Y-79235833D01*
X134754761Y-79283452D01*
X134802380Y-79378690D01*
X134802380Y-79664404D01*
X134754761Y-79759642D01*
X134707142Y-79807261D01*
X140502855Y-80979782D02*
X140926188Y-80979782D01*
X141107617Y-81645020D02*
X140502855Y-81645020D01*
X140502855Y-80375020D01*
X141107617Y-80375020D01*
X141651902Y-81645020D02*
X141651902Y-80375020D01*
X142377617Y-81645020D01*
X142377617Y-80375020D01*
X143708093Y-81524068D02*
X143647617Y-81584544D01*
X143466188Y-81645020D01*
X143345236Y-81645020D01*
X143163807Y-81584544D01*
X143042855Y-81463592D01*
X142982378Y-81342639D01*
X142921902Y-81100735D01*
X142921902Y-80919306D01*
X142982378Y-80677401D01*
X143042855Y-80556449D01*
X143163807Y-80435497D01*
X143345236Y-80375020D01*
X143466188Y-80375020D01*
X143647617Y-80435497D01*
X143708093Y-80495973D01*
X144131426Y-80375020D02*
X144917617Y-80375020D01*
X144494283Y-80858830D01*
X144675712Y-80858830D01*
X144796664Y-80919306D01*
X144857140Y-80979782D01*
X144917617Y-81100735D01*
X144917617Y-81403116D01*
X144857140Y-81524068D01*
X144796664Y-81584544D01*
X144675712Y-81645020D01*
X144312855Y-81645020D01*
X144191902Y-81584544D01*
X144131426Y-81524068D01*
%TO.C,C3*%
X137557142Y-95466666D02*
X137604761Y-95514285D01*
X137652380Y-95657142D01*
X137652380Y-95752380D01*
X137604761Y-95895238D01*
X137509523Y-95990476D01*
X137414285Y-96038095D01*
X137223809Y-96085714D01*
X137080952Y-96085714D01*
X136890476Y-96038095D01*
X136795238Y-95990476D01*
X136700000Y-95895238D01*
X136652380Y-95752380D01*
X136652380Y-95657142D01*
X136700000Y-95514285D01*
X136747619Y-95466666D01*
X136652380Y-95133333D02*
X136652380Y-94514285D01*
X137033333Y-94847619D01*
X137033333Y-94704761D01*
X137080952Y-94609523D01*
X137128571Y-94561904D01*
X137223809Y-94514285D01*
X137461904Y-94514285D01*
X137557142Y-94561904D01*
X137604761Y-94609523D01*
X137652380Y-94704761D01*
X137652380Y-94990476D01*
X137604761Y-95085714D01*
X137557142Y-95133333D01*
%TO.C,ENC4*%
X187855593Y-74630318D02*
X188188926Y-74630318D01*
X188331783Y-75154127D02*
X187855593Y-75154127D01*
X187855593Y-74154127D01*
X188331783Y-74154127D01*
X188760355Y-75154127D02*
X188760355Y-74154127D01*
X189331783Y-75154127D01*
X189331783Y-74154127D01*
X190379402Y-75058889D02*
X190331783Y-75106508D01*
X190188926Y-75154127D01*
X190093688Y-75154127D01*
X189950831Y-75106508D01*
X189855593Y-75011270D01*
X189807974Y-74916032D01*
X189760355Y-74725556D01*
X189760355Y-74582699D01*
X189807974Y-74392223D01*
X189855593Y-74296985D01*
X189950831Y-74201747D01*
X190093688Y-74154127D01*
X190188926Y-74154127D01*
X190331783Y-74201747D01*
X190379402Y-74249366D01*
X191236545Y-74487461D02*
X191236545Y-75154127D01*
X190998450Y-74106508D02*
X190760355Y-74820794D01*
X191379402Y-74820794D01*
X191842855Y-82361032D02*
X192266188Y-82361032D01*
X192447617Y-83026270D02*
X191842855Y-83026270D01*
X191842855Y-81756270D01*
X192447617Y-81756270D01*
X192991902Y-83026270D02*
X192991902Y-81756270D01*
X193717617Y-83026270D01*
X193717617Y-81756270D01*
X195048093Y-82905318D02*
X194987617Y-82965794D01*
X194806188Y-83026270D01*
X194685236Y-83026270D01*
X194503807Y-82965794D01*
X194382855Y-82844842D01*
X194322378Y-82723889D01*
X194261902Y-82481985D01*
X194261902Y-82300556D01*
X194322378Y-82058651D01*
X194382855Y-81937699D01*
X194503807Y-81816747D01*
X194685236Y-81756270D01*
X194806188Y-81756270D01*
X194987617Y-81816747D01*
X195048093Y-81877223D01*
X196136664Y-82179604D02*
X196136664Y-83026270D01*
X195834283Y-81695794D02*
X195531902Y-82602937D01*
X196318093Y-82602937D01*
%TO.C,R9*%
X161452380Y-53416666D02*
X160976190Y-53750000D01*
X161452380Y-53988095D02*
X160452380Y-53988095D01*
X160452380Y-53607142D01*
X160500000Y-53511904D01*
X160547619Y-53464285D01*
X160642857Y-53416666D01*
X160785714Y-53416666D01*
X160880952Y-53464285D01*
X160928571Y-53511904D01*
X160976190Y-53607142D01*
X160976190Y-53988095D01*
X161452380Y-52940476D02*
X161452380Y-52750000D01*
X161404761Y-52654761D01*
X161357142Y-52607142D01*
X161214285Y-52511904D01*
X161023809Y-52464285D01*
X160642857Y-52464285D01*
X160547619Y-52511904D01*
X160500000Y-52559523D01*
X160452380Y-52654761D01*
X160452380Y-52845238D01*
X160500000Y-52940476D01*
X160547619Y-52988095D01*
X160642857Y-53035714D01*
X160880952Y-53035714D01*
X160976190Y-52988095D01*
X161023809Y-52940476D01*
X161071428Y-52845238D01*
X161071428Y-52654761D01*
X161023809Y-52559523D01*
X160976190Y-52511904D01*
X160880952Y-52464285D01*
%TO.C,R16*%
X152107142Y-122752380D02*
X151773809Y-122276190D01*
X151535714Y-122752380D02*
X151535714Y-121752380D01*
X151916666Y-121752380D01*
X152011904Y-121800000D01*
X152059523Y-121847619D01*
X152107142Y-121942857D01*
X152107142Y-122085714D01*
X152059523Y-122180952D01*
X152011904Y-122228571D01*
X151916666Y-122276190D01*
X151535714Y-122276190D01*
X153059523Y-122752380D02*
X152488095Y-122752380D01*
X152773809Y-122752380D02*
X152773809Y-121752380D01*
X152678571Y-121895238D01*
X152583333Y-121990476D01*
X152488095Y-122038095D01*
X153916666Y-121752380D02*
X153726190Y-121752380D01*
X153630952Y-121800000D01*
X153583333Y-121847619D01*
X153488095Y-121990476D01*
X153440476Y-122180952D01*
X153440476Y-122561904D01*
X153488095Y-122657142D01*
X153535714Y-122704761D01*
X153630952Y-122752380D01*
X153821428Y-122752380D01*
X153916666Y-122704761D01*
X153964285Y-122657142D01*
X154011904Y-122561904D01*
X154011904Y-122323809D01*
X153964285Y-122228571D01*
X153916666Y-122180952D01*
X153821428Y-122133333D01*
X153630952Y-122133333D01*
X153535714Y-122180952D01*
X153488095Y-122228571D01*
X153440476Y-122323809D01*
%TO.C,J3*%
X134697378Y-70673830D02*
X135411664Y-70673830D01*
X135554521Y-70721449D01*
X135649759Y-70816687D01*
X135697378Y-70959544D01*
X135697378Y-71054782D01*
X134697378Y-70292877D02*
X134697378Y-69673830D01*
X135078331Y-70007163D01*
X135078331Y-69864306D01*
X135125950Y-69769068D01*
X135173569Y-69721449D01*
X135268807Y-69673830D01*
X135506902Y-69673830D01*
X135602140Y-69721449D01*
X135649759Y-69769068D01*
X135697378Y-69864306D01*
X135697378Y-70150020D01*
X135649759Y-70245258D01*
X135602140Y-70292877D01*
%TO.C,J8*%
X196086664Y-102590377D02*
X196086664Y-103304663D01*
X196039045Y-103447520D01*
X195943807Y-103542758D01*
X195800950Y-103590377D01*
X195705712Y-103590377D01*
X196705712Y-103018949D02*
X196610474Y-102971330D01*
X196562855Y-102923711D01*
X196515236Y-102828473D01*
X196515236Y-102780854D01*
X196562855Y-102685616D01*
X196610474Y-102637997D01*
X196705712Y-102590377D01*
X196896188Y-102590377D01*
X196991426Y-102637997D01*
X197039045Y-102685616D01*
X197086664Y-102780854D01*
X197086664Y-102828473D01*
X197039045Y-102923711D01*
X196991426Y-102971330D01*
X196896188Y-103018949D01*
X196705712Y-103018949D01*
X196610474Y-103066568D01*
X196562855Y-103114187D01*
X196515236Y-103209425D01*
X196515236Y-103399901D01*
X196562855Y-103495139D01*
X196610474Y-103542758D01*
X196705712Y-103590377D01*
X196896188Y-103590377D01*
X196991426Y-103542758D01*
X197039045Y-103495139D01*
X197086664Y-103399901D01*
X197086664Y-103209425D01*
X197039045Y-103114187D01*
X196991426Y-103066568D01*
X196896188Y-103018949D01*
%TO.C,R5*%
X157452380Y-53766666D02*
X156976190Y-54100000D01*
X157452380Y-54338095D02*
X156452380Y-54338095D01*
X156452380Y-53957142D01*
X156500000Y-53861904D01*
X156547619Y-53814285D01*
X156642857Y-53766666D01*
X156785714Y-53766666D01*
X156880952Y-53814285D01*
X156928571Y-53861904D01*
X156976190Y-53957142D01*
X156976190Y-54338095D01*
X156452380Y-52861904D02*
X156452380Y-53338095D01*
X156928571Y-53385714D01*
X156880952Y-53338095D01*
X156833333Y-53242857D01*
X156833333Y-53004761D01*
X156880952Y-52909523D01*
X156928571Y-52861904D01*
X157023809Y-52814285D01*
X157261904Y-52814285D01*
X157357142Y-52861904D01*
X157404761Y-52909523D01*
X157452380Y-53004761D01*
X157452380Y-53242857D01*
X157404761Y-53338095D01*
X157357142Y-53385714D01*
%TO.C,R4*%
X115583333Y-65302380D02*
X115250000Y-64826190D01*
X115011904Y-65302380D02*
X115011904Y-64302380D01*
X115392857Y-64302380D01*
X115488095Y-64350000D01*
X115535714Y-64397619D01*
X115583333Y-64492857D01*
X115583333Y-64635714D01*
X115535714Y-64730952D01*
X115488095Y-64778571D01*
X115392857Y-64826190D01*
X115011904Y-64826190D01*
X116440476Y-64635714D02*
X116440476Y-65302380D01*
X116202380Y-64254761D02*
X115964285Y-64969047D01*
X116583333Y-64969047D01*
%TO.C,J2*%
X156347378Y-70816330D02*
X157061664Y-70816330D01*
X157204521Y-70863949D01*
X157299759Y-70959187D01*
X157347378Y-71102044D01*
X157347378Y-71197282D01*
X156442617Y-70387758D02*
X156394998Y-70340139D01*
X156347378Y-70244901D01*
X156347378Y-70006806D01*
X156394998Y-69911568D01*
X156442617Y-69863949D01*
X156537855Y-69816330D01*
X156633093Y-69816330D01*
X156775950Y-69863949D01*
X157347378Y-70435377D01*
X157347378Y-69816330D01*
%TO.C,R7*%
X115383333Y-44152380D02*
X115050000Y-43676190D01*
X114811904Y-44152380D02*
X114811904Y-43152380D01*
X115192857Y-43152380D01*
X115288095Y-43200000D01*
X115335714Y-43247619D01*
X115383333Y-43342857D01*
X115383333Y-43485714D01*
X115335714Y-43580952D01*
X115288095Y-43628571D01*
X115192857Y-43676190D01*
X114811904Y-43676190D01*
X115716666Y-43152380D02*
X116383333Y-43152380D01*
X115954761Y-44152380D01*
%TO.C,C2*%
X128207142Y-58066666D02*
X128254761Y-58114285D01*
X128302380Y-58257142D01*
X128302380Y-58352380D01*
X128254761Y-58495238D01*
X128159523Y-58590476D01*
X128064285Y-58638095D01*
X127873809Y-58685714D01*
X127730952Y-58685714D01*
X127540476Y-58638095D01*
X127445238Y-58590476D01*
X127350000Y-58495238D01*
X127302380Y-58352380D01*
X127302380Y-58257142D01*
X127350000Y-58114285D01*
X127397619Y-58066666D01*
X127397619Y-57685714D02*
X127350000Y-57638095D01*
X127302380Y-57542857D01*
X127302380Y-57304761D01*
X127350000Y-57209523D01*
X127397619Y-57161904D01*
X127492857Y-57114285D01*
X127588095Y-57114285D01*
X127730952Y-57161904D01*
X128302380Y-57733333D01*
X128302380Y-57114285D01*
D11*
%TO.C,R13*%
X132529998Y-50532997D02*
X132529998Y-49762997D01*
X131159998Y-43222997D02*
X131159998Y-49762997D01*
X131159998Y-49762997D02*
X133899998Y-49762997D01*
X132529998Y-42452997D02*
X132529998Y-43222997D01*
X133899998Y-43222997D02*
X131159998Y-43222997D01*
X133899998Y-49762997D02*
X133899998Y-43222997D01*
%TO.C,R12*%
X156769998Y-90112997D02*
X150229998Y-90112997D01*
X149459998Y-91482997D02*
X150229998Y-91482997D01*
X157539998Y-91482997D02*
X156769998Y-91482997D01*
X156769998Y-92852997D02*
X156769998Y-90112997D01*
X150229998Y-90112997D02*
X150229998Y-92852997D01*
X150229998Y-92852997D02*
X156769998Y-92852997D01*
%TO.C,J1*%
X105549998Y-59257997D02*
X105549998Y-60587997D01*
X105549998Y-57987997D02*
X102889998Y-57987997D01*
X105549998Y-57987997D02*
X105549998Y-47767997D01*
X105549998Y-47767997D02*
X102889998Y-47767997D01*
X102889998Y-57987997D02*
X102889998Y-47767997D01*
X105549998Y-60587997D02*
X104219998Y-60587997D01*
%TO.C,R17*%
X152879998Y-103062997D02*
X152879998Y-103832997D01*
X154249998Y-103832997D02*
X151509998Y-103832997D01*
X154249998Y-110372997D02*
X154249998Y-103832997D01*
X151509998Y-103832997D02*
X151509998Y-110372997D01*
X152879998Y-111142997D02*
X152879998Y-110372997D01*
X151509998Y-110372997D02*
X154249998Y-110372997D01*
%TO.C,R18*%
X156814998Y-126497997D02*
X163354998Y-126497997D01*
X156044998Y-125127997D02*
X156814998Y-125127997D01*
X156814998Y-123757997D02*
X156814998Y-126497997D01*
X164124998Y-125127997D02*
X163354998Y-125127997D01*
X163354998Y-126497997D02*
X163354998Y-123757997D01*
X163354998Y-123757997D02*
X156814998Y-123757997D01*
%TO.C,J4*%
X188704998Y-73411747D02*
X187374998Y-73411747D01*
X189974998Y-70751747D02*
X200194998Y-70751747D01*
X200194998Y-73411747D02*
X200194998Y-70751747D01*
X189974998Y-73411747D02*
X189974998Y-70751747D01*
X187374998Y-73411747D02*
X187374998Y-72081747D01*
X189974998Y-73411747D02*
X200194998Y-73411747D01*
%TO.C,R8*%
X150109998Y-93712997D02*
X150109998Y-96452997D01*
X150109998Y-96452997D02*
X156649998Y-96452997D01*
X156649998Y-96452997D02*
X156649998Y-93712997D01*
X157419998Y-95082997D02*
X156649998Y-95082997D01*
X156649998Y-93712997D02*
X150109998Y-93712997D01*
X149339998Y-95082997D02*
X150109998Y-95082997D01*
%TO.C,R14*%
X157419998Y-98882997D02*
X156649998Y-98882997D01*
X150109998Y-100252997D02*
X156649998Y-100252997D01*
X156649998Y-97512997D02*
X150109998Y-97512997D01*
X149339998Y-98882997D02*
X150109998Y-98882997D01*
X156649998Y-100252997D02*
X156649998Y-97512997D01*
X150109998Y-97512997D02*
X150109998Y-100252997D01*
%TO.C,R22*%
X204829998Y-99632997D02*
X204829998Y-96892997D01*
X198289998Y-99632997D02*
X204829998Y-99632997D01*
X197519998Y-98262997D02*
X198289998Y-98262997D01*
X198289998Y-96892997D02*
X198289998Y-99632997D01*
X204829998Y-96892997D02*
X198289998Y-96892997D01*
X205599998Y-98262997D02*
X204829998Y-98262997D01*
%TO.C,C8*%
X153428748Y-46112997D02*
X153413748Y-46112997D01*
X151303748Y-46112997D02*
X151288748Y-46112997D01*
X151288748Y-46112997D02*
X151288748Y-50652997D01*
X151303748Y-50652997D02*
X151288748Y-50652997D01*
X153428748Y-46112997D02*
X153428748Y-50652997D01*
X153428748Y-50652997D02*
X153413748Y-50652997D01*
%TO.C,J10*%
X178069998Y-116222997D02*
X175469998Y-116222997D01*
X175469998Y-118822997D02*
X172869998Y-118822997D01*
X178069998Y-67902997D02*
X172869998Y-67902997D01*
X175469998Y-116222997D02*
X175469998Y-118822997D01*
X172869998Y-118822997D02*
X172869998Y-67902997D01*
X178069998Y-117492997D02*
X178069998Y-118822997D01*
X178069998Y-116222997D02*
X178069998Y-67902997D01*
X178069998Y-118822997D02*
X176739998Y-118822997D01*
%TO.C,K2*%
X168159998Y-104232997D02*
X170279998Y-104232997D01*
X170279998Y-116532997D02*
X168159998Y-116532997D01*
X163159998Y-104232997D02*
X165099998Y-104232997D01*
X157979998Y-116532997D02*
X157979998Y-104232997D01*
X157979998Y-104232997D02*
X160099998Y-104232997D01*
X165099998Y-116532997D02*
X163159998Y-116532997D01*
X160099998Y-116532997D02*
X157979998Y-116532997D01*
X170279998Y-104232997D02*
X170279998Y-116532997D01*
X168669048Y-110482997D02*
G75*
G03*
X168669048Y-110482997I-4579050J0D01*
G01*
%TO.C,R3*%
X164699998Y-57422997D02*
X164699998Y-56652997D01*
X164699998Y-49342997D02*
X164699998Y-50112997D01*
X166069998Y-50112997D02*
X163329998Y-50112997D01*
X163329998Y-56652997D02*
X166069998Y-56652997D01*
X166069998Y-56652997D02*
X166069998Y-50112997D01*
X163329998Y-50112997D02*
X163329998Y-56652997D01*
%TO.C,C6*%
X142049998Y-93112997D02*
X142049998Y-97652997D01*
X142049998Y-97652997D02*
X142034998Y-97652997D01*
X139924998Y-97652997D02*
X139909998Y-97652997D01*
X139909998Y-93112997D02*
X139909998Y-97652997D01*
X142049998Y-93112997D02*
X142034998Y-93112997D01*
X139924998Y-93112997D02*
X139909998Y-93112997D01*
%TO.C,J5*%
X209779998Y-62912997D02*
X202039998Y-62912997D01*
X209779998Y-65512997D02*
X207179998Y-65512997D01*
X209779998Y-62912997D02*
X209779998Y-65512997D01*
X209779998Y-66782997D02*
X209779998Y-68112997D01*
X202039998Y-62912997D02*
X202039998Y-68112997D01*
X207179998Y-68112997D02*
X202039998Y-68112997D01*
X209779998Y-68112997D02*
X208449998Y-68112997D01*
X207179998Y-65512997D02*
X207179998Y-68112997D01*
D10*
%TO.C,ENC1*%
X113062498Y-60542997D02*
X108987498Y-60542997D01*
X122887498Y-60542997D02*
X122887498Y-57692997D01*
X122887498Y-60542997D02*
X118812498Y-60542997D01*
X122887498Y-47542997D02*
X118812498Y-47542997D01*
X113062498Y-47542997D02*
X108987498Y-47542997D01*
X108987498Y-60542997D02*
X108987498Y-47542997D01*
X122887498Y-55392997D02*
X122887498Y-55192997D01*
X122887498Y-50392997D02*
X122887498Y-47542997D01*
X122887498Y-52892997D02*
X122887498Y-52692997D01*
D12*
X125287498Y-56592997D02*
G75*
G03*
X125287498Y-56592997I-125000J0D01*
G01*
D11*
%TO.C,K3*%
X144399998Y-116232997D02*
X142459998Y-116232997D01*
X139399998Y-116232997D02*
X137279998Y-116232997D01*
X149579998Y-116232997D02*
X147459998Y-116232997D01*
X147459998Y-103932997D02*
X149579998Y-103932997D01*
X137279998Y-103932997D02*
X139399998Y-103932997D01*
X137279998Y-116232997D02*
X137279998Y-103932997D01*
X142459998Y-103932997D02*
X144399998Y-103932997D01*
X149579998Y-103932997D02*
X149579998Y-116232997D01*
X147969048Y-110182997D02*
G75*
G03*
X147969048Y-110182997I-4579050J0D01*
G01*
%TO.C,R11*%
X150309998Y-78512997D02*
X150309998Y-85052997D01*
X151679998Y-77742997D02*
X151679998Y-78512997D01*
X151679998Y-85822997D02*
X151679998Y-85052997D01*
X153049998Y-85052997D02*
X153049998Y-78512997D01*
X150309998Y-85052997D02*
X153049998Y-85052997D01*
X153049998Y-78512997D02*
X150309998Y-78512997D01*
%TO.C,R21*%
X182839998Y-98262997D02*
X183609998Y-98262997D01*
X183609998Y-96892997D02*
X183609998Y-99632997D01*
X190149998Y-96892997D02*
X183609998Y-96892997D01*
X183609998Y-99632997D02*
X190149998Y-99632997D01*
X190919998Y-98262997D02*
X190149998Y-98262997D01*
X190149998Y-99632997D02*
X190149998Y-96892997D01*
%TO.C,R19*%
X183649998Y-78644247D02*
X183649998Y-79414247D01*
X185019998Y-85954247D02*
X185019998Y-79414247D01*
X185019998Y-79414247D02*
X182279998Y-79414247D01*
X182279998Y-85954247D02*
X185019998Y-85954247D01*
X182279998Y-79414247D02*
X182279998Y-85954247D01*
X183649998Y-86724247D02*
X183649998Y-85954247D01*
%TO.C,J9*%
X68459998Y-120712997D02*
X67129998Y-120712997D01*
X69729998Y-120712997D02*
X69729998Y-118052997D01*
X69729998Y-118052997D02*
X118049998Y-118052997D01*
X118049998Y-120712997D02*
X118049998Y-118052997D01*
X67129998Y-120712997D02*
X67129998Y-119382997D01*
X69729998Y-120712997D02*
X118049998Y-120712997D01*
%TO.C,R20*%
X202379998Y-79334247D02*
X202379998Y-85874247D01*
X205119998Y-79334247D02*
X202379998Y-79334247D01*
X203749998Y-78564247D02*
X203749998Y-79334247D01*
X205119998Y-85874247D02*
X205119998Y-79334247D01*
X203749998Y-86644247D02*
X203749998Y-85874247D01*
X202379998Y-85874247D02*
X205119998Y-85874247D01*
%TO.C,R15*%
X150554998Y-126497997D02*
X150554998Y-123757997D01*
X151324998Y-125127997D02*
X150554998Y-125127997D01*
X144014998Y-123757997D02*
X144014998Y-126497997D01*
X150554998Y-123757997D02*
X144014998Y-123757997D01*
X144014998Y-126497997D02*
X150554998Y-126497997D01*
X143244998Y-125127997D02*
X144014998Y-125127997D01*
D10*
%TO.C,ENC2*%
X170579998Y-87920497D02*
X170579998Y-83845497D01*
X157579998Y-78095497D02*
X157579998Y-74020497D01*
X162729998Y-87920497D02*
X162929998Y-87920497D01*
X157579998Y-74020497D02*
X170579998Y-74020497D01*
X167729998Y-87920497D02*
X170579998Y-87920497D01*
X170579998Y-78095497D02*
X170579998Y-74020497D01*
X157579998Y-87920497D02*
X157579998Y-83845497D01*
X165229998Y-87920497D02*
X165429998Y-87920497D01*
X157579998Y-87920497D02*
X160429998Y-87920497D01*
D12*
X161654998Y-90195497D02*
G75*
G03*
X161654998Y-90195497I-125000J0D01*
G01*
D11*
%TO.C,R10*%
X132399998Y-64722997D02*
X132399998Y-63952997D01*
X131029998Y-57412997D02*
X131029998Y-63952997D01*
X132399998Y-56642997D02*
X132399998Y-57412997D01*
X133769998Y-57412997D02*
X131029998Y-57412997D01*
X131029998Y-63952997D02*
X133769998Y-63952997D01*
X133769998Y-63952997D02*
X133769998Y-57412997D01*
%TO.C,C10*%
X187319998Y-93759247D02*
X187319998Y-93744247D01*
X187319998Y-95884247D02*
X187319998Y-95869247D01*
X191859998Y-95884247D02*
X191859998Y-95869247D01*
X191859998Y-95884247D02*
X187319998Y-95884247D01*
X191859998Y-93759247D02*
X191859998Y-93744247D01*
X191859998Y-93744247D02*
X187319998Y-93744247D01*
%TO.C,C9*%
X164970000Y-121230000D02*
X160430000Y-121230000D01*
X164970000Y-123370000D02*
X164970000Y-123355000D01*
X164970000Y-123370000D02*
X160430000Y-123370000D01*
X164970000Y-121245000D02*
X164970000Y-121230000D01*
X160430000Y-121245000D02*
X160430000Y-121230000D01*
X160430000Y-123370000D02*
X160430000Y-123355000D01*
%TO.C,R1*%
X152358748Y-55602997D02*
X152358748Y-56372997D01*
X150988748Y-62912997D02*
X153728748Y-62912997D01*
X150988748Y-56372997D02*
X150988748Y-62912997D01*
X153728748Y-56372997D02*
X150988748Y-56372997D01*
X153728748Y-62912997D02*
X153728748Y-56372997D01*
X152358748Y-63682997D02*
X152358748Y-62912997D01*
%TO.C,J11*%
X200179998Y-122887997D02*
X198849998Y-122887997D01*
X189899998Y-120227997D02*
X189899998Y-122887997D01*
X197579998Y-120227997D02*
X189899998Y-120227997D01*
X197579998Y-120227997D02*
X197579998Y-122887997D01*
X197579998Y-122887997D02*
X189899998Y-122887997D01*
X200179998Y-121557997D02*
X200179998Y-122887997D01*
%TO.C,C5*%
X126914998Y-46752997D02*
X126899998Y-46752997D01*
X126914998Y-51292997D02*
X126899998Y-51292997D01*
X129039998Y-46752997D02*
X129024998Y-46752997D01*
X129039998Y-51292997D02*
X129024998Y-51292997D01*
X126899998Y-46752997D02*
X126899998Y-51292997D01*
X129039998Y-46752997D02*
X129039998Y-51292997D01*
%TO.C,C7*%
X140180000Y-121145000D02*
X140180000Y-121130000D01*
X144720000Y-121145000D02*
X144720000Y-121130000D01*
X144720000Y-123270000D02*
X140180000Y-123270000D01*
X144720000Y-121130000D02*
X140180000Y-121130000D01*
X144720000Y-123270000D02*
X144720000Y-123255000D01*
X140180000Y-123270000D02*
X140180000Y-123255000D01*
%TO.C,K1*%
X141988748Y-47692997D02*
X143928748Y-47692997D01*
X143928748Y-59992997D02*
X141988748Y-59992997D01*
X146988748Y-47692997D02*
X149108748Y-47692997D01*
X136808748Y-47692997D02*
X138928748Y-47692997D01*
X136808748Y-59992997D02*
X136808748Y-47692997D01*
X138928748Y-59992997D02*
X136808748Y-59992997D01*
X149108748Y-47692997D02*
X149108748Y-59992997D01*
X149108748Y-59992997D02*
X146988748Y-59992997D01*
X147497798Y-53942997D02*
G75*
G03*
X147497798Y-53942997I-4579050J0D01*
G01*
%TO.C,C4*%
X164924998Y-92812997D02*
X164909998Y-92812997D01*
X164909998Y-92812997D02*
X164909998Y-97352997D01*
X167049998Y-97352997D02*
X167034998Y-97352997D01*
X167049998Y-92812997D02*
X167034998Y-92812997D01*
X167049998Y-92812997D02*
X167049998Y-97352997D01*
X164924998Y-97352997D02*
X164909998Y-97352997D01*
%TO.C,R6*%
X153409998Y-78512997D02*
X153409998Y-85052997D01*
X154779998Y-85822997D02*
X154779998Y-85052997D01*
X156149998Y-85052997D02*
X156149998Y-78512997D01*
X153409998Y-85052997D02*
X156149998Y-85052997D01*
X156149998Y-78512997D02*
X153409998Y-78512997D01*
X154779998Y-77742997D02*
X154779998Y-78512997D01*
%TO.C,J7*%
X201229998Y-112312997D02*
X206429998Y-112312997D01*
X206429998Y-107172997D02*
X206429998Y-112312997D01*
X203829998Y-104572997D02*
X203829998Y-107172997D01*
X206429998Y-104572997D02*
X206429998Y-105902997D01*
X201229998Y-104572997D02*
X201229998Y-112312997D01*
X205099998Y-104572997D02*
X206429998Y-104572997D01*
X203829998Y-107172997D02*
X206429998Y-107172997D01*
X201229998Y-104572997D02*
X203829998Y-104572997D01*
%TO.C,C11*%
X196569998Y-95884247D02*
X196569998Y-95869247D01*
X201109998Y-95884247D02*
X196569998Y-95884247D01*
X201109998Y-95884247D02*
X201109998Y-95869247D01*
X201109998Y-93744247D02*
X196569998Y-93744247D01*
X201109998Y-93759247D02*
X201109998Y-93744247D01*
X196569998Y-93759247D02*
X196569998Y-93744247D01*
%TO.C,C1*%
X170749998Y-92812997D02*
X170734998Y-92812997D01*
X170749998Y-92812997D02*
X170749998Y-97352997D01*
X168624998Y-97352997D02*
X168609998Y-97352997D01*
X170749998Y-97352997D02*
X170734998Y-97352997D01*
X168624998Y-92812997D02*
X168609998Y-92812997D01*
X168609998Y-92812997D02*
X168609998Y-97352997D01*
%TO.C,R2*%
X138888748Y-66052997D02*
X139658748Y-66052997D01*
X146198748Y-64682997D02*
X139658748Y-64682997D01*
X139658748Y-64682997D02*
X139658748Y-67422997D01*
X146198748Y-67422997D02*
X146198748Y-64682997D01*
X139658748Y-67422997D02*
X146198748Y-67422997D01*
X146968748Y-66052997D02*
X146198748Y-66052997D01*
D10*
%TO.C,ENC3*%
X143829998Y-88020497D02*
X144029998Y-88020497D01*
X136179998Y-78195497D02*
X136179998Y-74120497D01*
X149179998Y-88020497D02*
X149179998Y-83945497D01*
X149179998Y-78195497D02*
X149179998Y-74120497D01*
X141329998Y-88020497D02*
X141529998Y-88020497D01*
X136179998Y-88020497D02*
X136179998Y-83945497D01*
X136179998Y-74120497D02*
X149179998Y-74120497D01*
X136179998Y-88020497D02*
X139029998Y-88020497D01*
X146329998Y-88020497D02*
X149179998Y-88020497D01*
D12*
X140254998Y-90295497D02*
G75*
G03*
X140254998Y-90295497I-125000J0D01*
G01*
D11*
%TO.C,C3*%
X136009998Y-93112997D02*
X136024998Y-93112997D01*
X138134998Y-93112997D02*
X138149998Y-93112997D01*
X138149998Y-97652997D02*
X138149998Y-93112997D01*
X138134998Y-97652997D02*
X138149998Y-97652997D01*
X136009998Y-97652997D02*
X136009998Y-93112997D01*
X136009998Y-97652997D02*
X136024998Y-97652997D01*
D10*
%TO.C,ENC4*%
X187519998Y-75501747D02*
X200519998Y-75501747D01*
X187519998Y-79576747D02*
X187519998Y-75501747D01*
X197669998Y-89401747D02*
X200519998Y-89401747D01*
X200519998Y-89401747D02*
X200519998Y-85326747D01*
X200519998Y-79576747D02*
X200519998Y-75501747D01*
X187519998Y-89401747D02*
X187519998Y-85326747D01*
X187519998Y-89401747D02*
X190369998Y-89401747D01*
X195169998Y-89401747D02*
X195369998Y-89401747D01*
X192669998Y-89401747D02*
X192869998Y-89401747D01*
D12*
X191594998Y-91676747D02*
G75*
G03*
X191594998Y-91676747I-125000J0D01*
G01*
D11*
%TO.C,R9*%
X162269998Y-56652997D02*
X162269998Y-50112997D01*
X159529998Y-56652997D02*
X162269998Y-56652997D01*
X162269998Y-50112997D02*
X159529998Y-50112997D01*
X159529998Y-50112997D02*
X159529998Y-56652997D01*
X160899998Y-49342997D02*
X160899998Y-50112997D01*
X160899998Y-57422997D02*
X160899998Y-56652997D01*
%TO.C,R16*%
X156710000Y-122350000D02*
X155940000Y-122350000D01*
X148630000Y-122350000D02*
X149400000Y-122350000D01*
X155940000Y-123720000D02*
X155940000Y-120980000D01*
X149400000Y-120980000D02*
X149400000Y-123720000D01*
X155940000Y-120980000D02*
X149400000Y-120980000D01*
X149400000Y-123720000D02*
X155940000Y-123720000D01*
%TO.C,J3*%
X138844998Y-71670497D02*
X138844998Y-69010497D01*
X138844998Y-69010497D02*
X149064998Y-69010497D01*
X149064998Y-71670497D02*
X149064998Y-69010497D01*
X137574998Y-71670497D02*
X136244998Y-71670497D01*
X138844998Y-71670497D02*
X149064998Y-71670497D01*
X136244998Y-71670497D02*
X136244998Y-70340497D01*
%TO.C,J8*%
X193819998Y-104577997D02*
X193819998Y-112317997D01*
X196419998Y-104577997D02*
X196419998Y-107177997D01*
X199019998Y-104577997D02*
X199019998Y-105907997D01*
X193819998Y-112317997D02*
X199019998Y-112317997D01*
X199019998Y-107177997D02*
X199019998Y-112317997D01*
X196419998Y-107177997D02*
X199019998Y-107177997D01*
X193819998Y-104577997D02*
X196419998Y-104577997D01*
X197689998Y-104577997D02*
X199019998Y-104577997D01*
%TO.C,R5*%
X158469998Y-56652997D02*
X158469998Y-50112997D01*
X155729998Y-50112997D02*
X155729998Y-56652997D01*
X155729998Y-56652997D02*
X158469998Y-56652997D01*
X157099998Y-49342997D02*
X157099998Y-50112997D01*
X158469998Y-50112997D02*
X155729998Y-50112997D01*
X157099998Y-57422997D02*
X157099998Y-56652997D01*
%TO.C,R4*%
X120089998Y-64862997D02*
X119319998Y-64862997D01*
X119319998Y-63492997D02*
X112779998Y-63492997D01*
X112009998Y-64862997D02*
X112779998Y-64862997D01*
X119319998Y-66232997D02*
X119319998Y-63492997D01*
X112779998Y-63492997D02*
X112779998Y-66232997D01*
X112779998Y-66232997D02*
X119319998Y-66232997D01*
%TO.C,J2*%
X160494998Y-71812997D02*
X160494998Y-69152997D01*
X159224998Y-71812997D02*
X157894998Y-71812997D01*
X170714998Y-71812997D02*
X170714998Y-69152997D01*
X157894998Y-71812997D02*
X157894998Y-70482997D01*
X160494998Y-69152997D02*
X170714998Y-69152997D01*
X160494998Y-71812997D02*
X170714998Y-71812997D01*
%TO.C,R7*%
X119589998Y-43572997D02*
X118819998Y-43572997D01*
X118819998Y-44942997D02*
X118819998Y-42202997D01*
X112279998Y-44942997D02*
X118819998Y-44942997D01*
X112279998Y-42202997D02*
X112279998Y-44942997D01*
X111509998Y-43572997D02*
X112279998Y-43572997D01*
X118819998Y-42202997D02*
X112279998Y-42202997D01*
%TO.C,C2*%
X129039998Y-55882997D02*
X129024998Y-55882997D01*
X129039998Y-60422997D02*
X129024998Y-60422997D01*
X129039998Y-55882997D02*
X129039998Y-60422997D01*
X126914998Y-60422997D02*
X126899998Y-60422997D01*
X126899998Y-55882997D02*
X126899998Y-60422997D01*
X126914998Y-55882997D02*
X126899998Y-55882997D01*
%TD*%
M02*
