%TF.GenerationSoftware,KiCad,Pcbnew,(6.0.5)*%
%TF.CreationDate,2022-06-02T12:02:42+02:00*%
%TF.ProjectId,norns_fork,6e6f726e-735f-4666-9f72-6b2e6b696361,rev?*%
%TF.SameCoordinates,Original*%
%TF.FileFunction,Soldermask,Bot*%
%TF.FilePolarity,Negative*%
%FSLAX46Y46*%
G04 Gerber Fmt 4.6, Leading zero omitted, Abs format (unit mm)*
G04 Created by KiCad (PCBNEW (6.0.5)) date 2022-06-02 12:02:42*
%MOMM*%
%LPD*%
G01*
G04 APERTURE LIST*
%ADD10C,1.600000*%
%ADD11O,1.600000X1.600000*%
%ADD12R,1.700000X1.700000*%
%ADD13O,1.700000X1.700000*%
%ADD14O,2.500000X3.000000*%
G04 APERTURE END LIST*
D10*
%TO.C,R13*%
X132529998Y-41412997D03*
D11*
X132529998Y-51572997D03*
%TD*%
D10*
%TO.C,R12*%
X158579998Y-91482997D03*
D11*
X148419998Y-91482997D03*
%TD*%
D12*
%TO.C,J1*%
X104219998Y-59257997D03*
D13*
X104219998Y-56717997D03*
X104219998Y-54177997D03*
X104219998Y-51637997D03*
X104219998Y-49097997D03*
%TD*%
D10*
%TO.C,R17*%
X152879998Y-112182997D03*
D11*
X152879998Y-102022997D03*
%TD*%
D12*
%TO.C,J6*%
X89009998Y-45632997D03*
D13*
X89009998Y-43092997D03*
X91549998Y-45632997D03*
X91549998Y-43092997D03*
X94089998Y-45632997D03*
X94089998Y-43092997D03*
%TD*%
D10*
%TO.C,R18*%
X155004998Y-125127997D03*
D11*
X165164998Y-125127997D03*
%TD*%
D12*
%TO.C,J4*%
X188704998Y-72081747D03*
D13*
X191244998Y-72081747D03*
X193784998Y-72081747D03*
X196324998Y-72081747D03*
X198864998Y-72081747D03*
%TD*%
D10*
%TO.C,R8*%
X158459998Y-95082997D03*
D11*
X148299998Y-95082997D03*
%TD*%
D10*
%TO.C,R14*%
X148299998Y-98882997D03*
D11*
X158459998Y-98882997D03*
%TD*%
D10*
%TO.C,R22*%
X206639998Y-98262997D03*
D11*
X196479998Y-98262997D03*
%TD*%
D10*
%TO.C,C8*%
X152358748Y-45882997D03*
X152358748Y-50882997D03*
%TD*%
D12*
%TO.C,J10*%
X176739998Y-117492997D03*
D13*
X174199998Y-117492997D03*
X176739998Y-114952997D03*
X174199998Y-114952997D03*
X176739998Y-112412997D03*
X174199998Y-112412997D03*
X176739998Y-109872997D03*
X174199998Y-109872997D03*
X176739998Y-107332997D03*
X174199998Y-107332997D03*
X176739998Y-104792997D03*
X174199998Y-104792997D03*
X176739998Y-102252997D03*
X174199998Y-102252997D03*
X176739998Y-99712997D03*
X174199998Y-99712997D03*
X176739998Y-97172997D03*
X174199998Y-97172997D03*
X176739998Y-94632997D03*
X174199998Y-94632997D03*
X176739998Y-92092997D03*
X174199998Y-92092997D03*
X176739998Y-89552997D03*
X174199998Y-89552997D03*
X176739998Y-87012997D03*
X174199998Y-87012997D03*
X176739998Y-84472997D03*
X174199998Y-84472997D03*
X176739998Y-81932997D03*
X174199998Y-81932997D03*
X176739998Y-79392997D03*
X174199998Y-79392997D03*
X176739998Y-76852997D03*
X174199998Y-76852997D03*
X176739998Y-74312997D03*
X174199998Y-74312997D03*
X176739998Y-71772997D03*
X174199998Y-71772997D03*
X176739998Y-69232997D03*
X174199998Y-69232997D03*
%TD*%
D14*
%TO.C,K2*%
X166629998Y-104132997D03*
X166629998Y-116632997D03*
X161629998Y-116632997D03*
X161629998Y-104132997D03*
%TD*%
D10*
%TO.C,R3*%
X164699998Y-48302997D03*
D11*
X164699998Y-58462997D03*
%TD*%
D10*
%TO.C,C6*%
X140979998Y-92882997D03*
X140979998Y-97882997D03*
%TD*%
D12*
%TO.C,J5*%
X208449998Y-66782997D03*
D13*
X208449998Y-64242997D03*
X205909998Y-66782997D03*
X205909998Y-64242997D03*
X203369998Y-66782997D03*
X203369998Y-64242997D03*
%TD*%
D14*
%TO.C,K3*%
X145929998Y-116332997D03*
X145929998Y-103832997D03*
X140929998Y-116332997D03*
X140929998Y-103832997D03*
%TD*%
D10*
%TO.C,R11*%
X151679998Y-86862997D03*
D11*
X151679998Y-76702997D03*
%TD*%
D10*
%TO.C,R21*%
X181799998Y-98262997D03*
D11*
X191959998Y-98262997D03*
%TD*%
D10*
%TO.C,R19*%
X183649998Y-87764247D03*
D11*
X183649998Y-77604247D03*
%TD*%
D12*
%TO.C,J9*%
X68459998Y-119382997D03*
D13*
X70999998Y-119382997D03*
X73539998Y-119382997D03*
X76079998Y-119382997D03*
X78619998Y-119382997D03*
X81159998Y-119382997D03*
X83699998Y-119382997D03*
X86239998Y-119382997D03*
X88779998Y-119382997D03*
X91319998Y-119382997D03*
X93859998Y-119382997D03*
X96399998Y-119382997D03*
X98939998Y-119382997D03*
X101479998Y-119382997D03*
X104019998Y-119382997D03*
X106559998Y-119382997D03*
X109099998Y-119382997D03*
X111639998Y-119382997D03*
X114179998Y-119382997D03*
X116719998Y-119382997D03*
%TD*%
D10*
%TO.C,R20*%
X203749998Y-87684247D03*
D11*
X203749998Y-77524247D03*
%TD*%
D10*
%TO.C,R15*%
X142204998Y-125127997D03*
D11*
X152364998Y-125127997D03*
%TD*%
D10*
%TO.C,R10*%
X132399998Y-65762997D03*
D11*
X132399998Y-55602997D03*
%TD*%
D10*
%TO.C,C10*%
X192089998Y-94814247D03*
X187089998Y-94814247D03*
%TD*%
%TO.C,C9*%
X165200000Y-122300000D03*
X160200000Y-122300000D03*
%TD*%
%TO.C,R1*%
X152358748Y-54562997D03*
D11*
X152358748Y-64722997D03*
%TD*%
D12*
%TO.C,J11*%
X198849998Y-121557997D03*
D13*
X196309998Y-121557997D03*
X193769998Y-121557997D03*
X191229998Y-121557997D03*
%TD*%
D10*
%TO.C,C5*%
X127969998Y-46522997D03*
X127969998Y-51522997D03*
%TD*%
%TO.C,C7*%
X144950000Y-122200000D03*
X139950000Y-122200000D03*
%TD*%
D14*
%TO.C,K1*%
X145458748Y-47592997D03*
X145458748Y-60092997D03*
X140458748Y-47592997D03*
X140458748Y-60092997D03*
%TD*%
D10*
%TO.C,C4*%
X165979998Y-92582997D03*
X165979998Y-97582997D03*
%TD*%
%TO.C,R6*%
X154779998Y-76702997D03*
D11*
X154779998Y-86862997D03*
%TD*%
D12*
%TO.C,J7*%
X205099998Y-105902997D03*
D13*
X202559998Y-105902997D03*
X205099998Y-108442997D03*
X202559998Y-108442997D03*
X205099998Y-110982997D03*
X202559998Y-110982997D03*
%TD*%
D10*
%TO.C,C11*%
X201339998Y-94814247D03*
X196339998Y-94814247D03*
%TD*%
%TO.C,C1*%
X169679998Y-92582997D03*
X169679998Y-97582997D03*
%TD*%
%TO.C,R2*%
X137848748Y-66052997D03*
D11*
X148008748Y-66052997D03*
%TD*%
D10*
%TO.C,C3*%
X137079998Y-97882997D03*
X137079998Y-92882997D03*
%TD*%
%TO.C,R9*%
X160899998Y-48302997D03*
D11*
X160899998Y-58462997D03*
%TD*%
D10*
%TO.C,R16*%
X157750000Y-122350000D03*
D11*
X147590000Y-122350000D03*
%TD*%
D12*
%TO.C,J3*%
X137574998Y-70340497D03*
D13*
X140114998Y-70340497D03*
X142654998Y-70340497D03*
X145194998Y-70340497D03*
X147734998Y-70340497D03*
%TD*%
D12*
%TO.C,J8*%
X197689998Y-105907997D03*
D13*
X195149998Y-105907997D03*
X197689998Y-108447997D03*
X195149998Y-108447997D03*
X197689998Y-110987997D03*
X195149998Y-110987997D03*
%TD*%
D10*
%TO.C,R5*%
X157099998Y-48302997D03*
D11*
X157099998Y-58462997D03*
%TD*%
D10*
%TO.C,R4*%
X121129998Y-64862997D03*
D11*
X110969998Y-64862997D03*
%TD*%
D12*
%TO.C,J2*%
X159224998Y-70482997D03*
D13*
X161764998Y-70482997D03*
X164304998Y-70482997D03*
X166844998Y-70482997D03*
X169384998Y-70482997D03*
%TD*%
D10*
%TO.C,R7*%
X120629998Y-43572997D03*
D11*
X110469998Y-43572997D03*
%TD*%
D10*
%TO.C,C2*%
X127969998Y-55652997D03*
X127969998Y-60652997D03*
%TD*%
M02*
