%TF.GenerationSoftware,KiCad,Pcbnew,(6.0.5)*%
%TF.CreationDate,2022-06-02T12:02:42+02:00*%
%TF.ProjectId,norns_fork,6e6f726e-735f-4666-9f72-6b2e6b696361,rev?*%
%TF.SameCoordinates,Original*%
%TF.FileFunction,Profile,NP*%
%FSLAX46Y46*%
G04 Gerber Fmt 4.6, Leading zero omitted, Abs format (unit mm)*
G04 Created by KiCad (PCBNEW (6.0.5)) date 2022-06-02 12:02:42*
%MOMM*%
%LPD*%
G01*
G04 APERTURE LIST*
%TA.AperFunction,Profile*%
%ADD10C,0.100000*%
%TD*%
G04 APERTURE END LIST*
D10*
X220800000Y-64350000D02*
G75*
G03*
X220800000Y-64350000I-1741407J0D01*
G01*
X220800000Y-122400000D02*
G75*
G03*
X220800000Y-122400000I-1741407J0D01*
G01*
X223750000Y-127950000D02*
X223650000Y-128000000D01*
X223750000Y-113250000D02*
X223750000Y-127950000D01*
X211450000Y-113200000D02*
X223750000Y-113250000D01*
X211450000Y-68150000D02*
X211550000Y-78950000D01*
X223300000Y-68250000D02*
X211450000Y-68150000D01*
X223250000Y-60900000D02*
X223300000Y-68250000D01*
X208800000Y-60900000D02*
X223250000Y-60900000D01*
X208800000Y-57650000D02*
X208800000Y-60900000D01*
X134241407Y-120000000D02*
G75*
G03*
X134241407Y-120000000I-1741407J0D01*
G01*
X134241407Y-77308593D02*
G75*
G03*
X134241407Y-77308593I-1741407J0D01*
G01*
X57341407Y-77458593D02*
G75*
G03*
X57341407Y-77458593I-1741407J0D01*
G01*
X57291407Y-119908593D02*
G75*
G03*
X57291407Y-119908593I-1741407J0D01*
G01*
X171791407Y-122350000D02*
G75*
G03*
X171791407Y-122350000I-1741407J0D01*
G01*
X80191407Y-43300000D02*
G75*
G03*
X80191407Y-43300000I-1741407J0D01*
G01*
X129191407Y-101300000D02*
G75*
G03*
X129191407Y-101300000I-1741407J0D01*
G01*
X80191407Y-101250000D02*
G75*
G03*
X80191407Y-101250000I-1741407J0D01*
G01*
X223650000Y-128000000D02*
X51899998Y-128082997D01*
X172549998Y-57582997D02*
X208800000Y-57650000D01*
X51899998Y-128082997D02*
X51899998Y-39382997D01*
X211550000Y-78950000D02*
X211450000Y-113200000D01*
X51899998Y-39382997D02*
X172549998Y-39332997D01*
X172549998Y-39332997D02*
X172549998Y-57582997D01*
M02*
