999
dxfrw 0.6.3
  0
SECTION
  2
HEADER
  9
$ACADVER
  1
AC1021
  9
$DWGCODEPAGE
  3
ANSI_1252
  9
$INSBASE
 10
0
 20
0
 30
0
  9
$EXTMIN
 10
-0.09622799643290002
 20
-0.0562229964329
 30
0
  9
$EXTMAX
 10
0.09622799643290002
 20
0.0562229964329
 30
0
  9
$LIMMIN
 10
0
 20
0
  9
$LIMMAX
 10
420
 20
297
  9
$ORTHOMODE
 70
    0
  9
$REGENMODE
 70
    1
  9
$FILLMODE
 70
    1
  9
$QTEXTMODE
 70
    0
  9
$MIRRTEXT
 70
    0
  9
$LTSCALE
 40
1
  9
$ATTMODE
 70
    0
  9
$TEXTSIZE
 40
2.5
  9
$TRACEWID
 40
15.68
  9
$TEXTSTYLE
  7
STANDARD
  9
$CLAYER
  8
0
  9
$CELTYPE
  6
BYLAYER
  9
$CECOLOR
 62
  256
  9
$CELTSCALE
 40
1
  9
$DISPSILH
 70
    0
  9
$DIMSCALE
 40
2.5
  9
$DIMASZ
 40
2.5
  9
$DIMEXO
 40
0.625
  9
$DIMDLI
 40
3.75
  9
$DIMRND
 40
0
  9
$DIMDLE
 40
0
  9
$DIMEXE
 40
1.25
  9
$DIMTP
 40
0
  9
$DIMTM
 40
0
  9
$DIMTXT
 40
2.5
  9
$DIMCEN
 40
2.5
  9
$DIMTSZ
 40
0
  9
$DIMTOL
 70
    0
  9
$DIMLIM
 70
    0
  9
$DIMTIH
 70
    0
  9
$DIMTOH
 70
    0
  9
$DIMSE1
 70
    0
  9
$DIMSE2
 70
    0
  9
$DIMTAD
 70
    1
  9
$DIMZIN
 70
    8
  9
$DIMBLK
  1

  9
$DIMASO
 70
    1
  9
$DIMSHO
 70
    1
  9
$DIMPOST
  1

  9
$DIMAPOST
  1

  9
$DIMALT
 70
    0
  9
$DIMALTD
 70
    3
  9
$DIMALTF
 40
0.03937
  9
$DIMLFAC
 40
1
  9
$DIMTOFL
 70
    1
  9
$DIMTVP
 40
0
  9
$DIMTIX
 70
    0
  9
$DIMSOXD
 70
    0
  9
$DIMSAH
 70
    0
  9
$DIMBLK1
  1

  9
$DIMBLK2
  1

  9
$DIMSTYLE
  2
Standard
  9
$DIMCLRD
 70
    0
  9
$DIMCLRE
 70
    0
  9
$DIMCLRT
 70
    0
  9
$DIMTFAC
 40
1
  9
$DIMGAP
 40
0.625
  9
$DIMJUST
 70
    0
  9
$DIMSD1
 70
    0
  9
$DIMSD2
 70
    0
  9
$DIMTOLJ
 70
    0
  9
$DIMTZIN
 70
    8
  9
$DIMALTZ
 70
    0
  9
$DIMALTTZ
 70
    0
  9
$DIMUPT
 70
    0
  9
$DIMDEC
 70
    2
  9
$DIMTDEC
 70
    2
  9
$DIMALTU
 70
    2
  9
$DIMALTTD
 70
    3
  9
$DIMTXSTY
  7
STANDARD
  9
$DIMAUNIT
 70
    0
  9
$DIMADEC
 70
    0
  9
$DIMALTRND
 40
0
  9
$DIMAZIN
 70
    0
  9
$DIMDSEP
 70
   44
  9
$DIMATFIT
 70
    3
  9
$DIMFRAC
 70
    0
  9
$DIMLDRBLK
  1
STANDARD
  9
$DIMLUNIT
 70
    2
  9
$DIMLWD
 70
   -2
  9
$DIMLWE
 70
   -2
  9
$DIMTMOVE
 70
    0
  9
$DIMFXL
 40
1
  9
$DIMFXLON
 70
    0
  9
$DIMJOGANG
 40
0.7854
  9
$DIMTFILL
 70
    0
  9
$DIMTFILLCLR
 70
    0
  9
$DIMARCSYM
 70
    0
  9
$DIMLTYPE
  6

  9
$DIMLTEX1
  6

  9
$DIMLTEX2
  6

  9
$LUNITS
 70
    2
  9
$LUPREC
 70
    4
  9
$SKETCHINC
 40
1
  9
$FILLETRAD
 40
0
  9
$AUNITS
 70
    0
  9
$AUPREC
 70
    2
  9
$MENU
  1
.
  9
$ELEVATION
 40
0
  9
$PELEVATION
 40
0
  9
$THICKNESS
 40
0
  9
$LIMCHECK
 70
    0
  9
$CHAMFERA
 40
0
  9
$CHAMFERB
 40
0
  9
$CHAMFERC
 40
0
  9
$CHAMFERD
 40
0
  9
$SKPOLY
 70
    0
  9
$USRTIMER
 70
    1
  9
$ANGBASE
 50
0
  9
$ANGDIR
 70
    0
  9
$PDMODE
 70
   34
  9
$PDSIZE
 40
0
  9
$PLINEWID
 40
0
  9
$SPLFRAME
 70
    0
  9
$SPLINETYPE
 70
    2
  9
$SPLINESEGS
 70
    8
  9
$HANDSEED
  5
20000
  9
$SURFTAB1
 70
    6
  9
$SURFTAB2
 70
    6
  9
$SURFTYPE
 70
    6
  9
$SURFU
 70
    6
  9
$SURFV
 70
    6
  9
$UCSBASE
  2

  9
$UCSNAME
  2

  9
$UCSORG
 10
0
 20
0
 30
0
  9
$UCSXDIR
 10
1
 20
0
 30
0
  9
$UCSYDIR
 10
0
 20
1
 30
0
  9
$UCSORTHOREF
  2

  9
$UCSORTHOVIEW
 70
    0
  9
$UCSORGTOP
 10
0
 20
0
 30
0
  9
$UCSORGBOTTOM
 10
0
 20
0
 30
0
  9
$UCSORGLEFT
 10
0
 20
0
 30
0
  9
$UCSORGRIGHT
 10
0
 20
0
 30
0
  9
$UCSORGFRONT
 10
0
 20
0
 30
0
  9
$UCSORGBACK
 10
0
 20
0
 30
0
  9
$PUCSBASE
  2

  9
$PUCSNAME
  2

  9
$PUCSORG
 10
0
 20
0
 30
0
  9
$PUCSXDIR
 10
1
 20
0
 30
0
  9
$PUCSYDIR
 10
0
 20
1
 30
0
  9
$PUCSORTHOREF
  2

  9
$PUCSORTHOVIEW
 70
    0
  9
$PUCSORGTOP
 10
0
 20
0
 30
0
  9
$PUCSORGBOTTOM
 10
0
 20
0
 30
0
  9
$PUCSORGLEFT
 10
0
 20
0
 30
0
  9
$PUCSORGRIGHT
 10
0
 20
0
 30
0
  9
$PUCSORGFRONT
 10
0
 20
0
 30
0
  9
$PUCSORGBACK
 10
0
 20
0
 30
0
  9
$USERI1
 70
    0
  9
$USERI2
 70
    0
  9
$USERI3
 70
    0
  9
$USERI4
 70
    0
  9
$USERI5
 70
    0
  9
$USERR1
 40
0
  9
$USERR2
 40
0
  9
$USERR3
 40
0
  9
$USERR4
 40
0
  9
$USERR5
 40
0
  9
$WORLDVIEW
 70
    1
  9
$SHADEDGE
 70
    3
  9
$SHADEDIF
 70
   70
  9
$TILEMODE
 70
    1
  9
$MAXACTVP
 70
   64
  9
$PINSBASE
 10
0
 20
0
 30
0
  9
$PLIMCHECK
 70
    0
  9
$PEXTMIN
 10
0
 20
0
 30
0
  9
$PEXTMAX
 10
0
 20
0
 30
0
  9
$SNAPSTYLE
 70
    0
  9
$PLIMMIN
 10
0
 20
0
  9
$PLIMMAX
 10
210
 20
297
  9
$UNITMODE
 70
    0
  9
$VISRETAIN
 70
    1
  9
$PLINEGEN
 70
    0
  9
$PSLTSCALE
 70
    1
  9
$TREEDEPTH
 70
 3020
  9
$CMLSTYLE
  2
Standard
  9
$CMLJUST
 70
    0
  9
$CMLSCALE
 40
20
  9
$PROXYGRAPHICS
 70
    1
  9
$MEASUREMENT
 70
    1
  9
$CELWEIGHT
370
   -1
  9
$ENDCAPS
280
    0
  9
$JOINSTYLE
280
    0
  9
$LWDISPLAY
290
    0
  9
$INSUNITS
 70
    4
  9
$HYPERLINKBASE
  1

  9
$STYLESHEET
  1

  9
$XEDIT
290
    1
  9
$CEPSNTYPE
380
    0
  9
$PSTYLEMODE
290
    1
  9
$EXTNAMES
290
    1
  9
$PSVPSCALE
 40
1
  9
$OLESTARTUP
290
    0
  9
$SORTENTS
280
  127
  9
$INDEXCTL
280
    0
  9
$HIDETEXT
280
    1
  9
$XCLIPFRAME
290
    0
  9
$HALOGAP
280
    0
  9
$OBSCOLOR
 70
  257
  9
$OBSLTYPE
280
    0
  9
$INTERSECTIONDISPLAY
280
    0
  9
$INTERSECTIONCOLOR
 70
  257
  9
$DIMASSOC
280
    1
  9
$PROJECTNAME
  1

  9
$CAMERADISPLAY
290
    0
  9
$LENSLENGTH
 40
50
  9
$CAMERAHEIGHT
 40
0
  9
$STEPSPERSEC
 40
2
  9
$STEPSIZE
 40
50
  9
$3DDWFPREC
 40
2
  9
$PSOLWIDTH
 40
5
  9
$PSOLHEIGHT
 40
80
  9
$LOFTANG1
 40
1.570796326794897
  9
$LOFTANG2
 40
1.570796326794897
  9
$LOFTMAG1
 40
0
  9
$LOFTMAG2
 40
0
  9
$LOFTPARAM
 70
    7
  9
$LOFTNORMALS
280
    1
  9
$LATITUDE
 40
1
  9
$LONGITUDE
 40
1
  9
$NORTHDIRECTION
 40
0
  9
$TIMEZONE
 70
-8000
  9
$LIGHTGLYPHDISPLAY
280
    1
  9
$TILEMODELIGHTSYNCH
280
    1
  9
$SOLIDHIST
280
    1
  9
$SHOWHIST
280
    1
  9
$DWFFRAME
280
    2
  9
$DGNFRAME
280
    0
  9
$REALWORLDSCALE
290
    1
  9
$INTERFERECOLOR
 62
    1
  9
$CSHADOW
280
    0
  9
$SHADOWPLANELOCATION
 40
0
  0
ENDSEC
  0
SECTION
  2
CLASSES
  0
ENDSEC
  0
SECTION
  2
TABLES
  0
TABLE
  2
VPORT
  5
8
330
0
100
AcDbSymbolTable
 70
    1
  0
VPORT
  5
31
330
2
100
AcDbSymbolTableRecord
100
AcDbViewportTableRecord
  2
*ACTIVE
 70
    0
 10
0
 20
0
 11
1
 21
1
 12
397175.8642527987
 22
-38291.99692921389
 13
0
 23
0
 14
10
 24
10
 15
10
 25
10
 16
0
 26
0
 36
1
 17
0
 27
0
 37
0
 40
170076.1422050799
 41
1.789473684210526
 42
50
 43
0
 44
0
 50
0
 51
0
 71
    0
 72
  100
 73
    1
 74
    3
 75
    0
 76
    1
 77
    0
 78
    0
281
    0
 65
    1
110
0
120
0
130
0
111
1
121
0
131
0
112
0
122
1
132
0
 79
    0
146
0
348
10020
 60
    7
 61
    5
292
1
282
    1
141
0
142
0
 63
  250
421
3358443
  0
ENDTAB
  0
TABLE
  2
LTYPE
  5
5
330
0
100
AcDbSymbolTable
 70
    4
  0
LTYPE
  5
14
330
5
100
AcDbSymbolTableRecord
100
AcDbLinetypeTableRecord
  2
ByBlock
 70
    0
  3

 72
   65
 73
    0
 40
0
  0
LTYPE
  5
15
330
5
100
AcDbSymbolTableRecord
100
AcDbLinetypeTableRecord
  2
ByLayer
 70
    0
  3

 72
   65
 73
    0
 40
0
  0
LTYPE
  5
16
330
5
100
AcDbSymbolTableRecord
100
AcDbLinetypeTableRecord
  2
Continuous
 70
    0
  3
Solid line
 72
   65
 73
    0
 40
0
  0
LTYPE
  5
32
330
5
100
AcDbSymbolTableRecord
100
AcDbLinetypeTableRecord
  2
DOT
 70
    0
  3
Dot . . . . . . . . . . . . . . . . . . . . . .
 72
   65
 73
    2
 40
6.35
 49
0
 74
    0
 49
-6.35
 74
    0
  0
LTYPE
  5
33
330
5
100
AcDbSymbolTableRecord
100
AcDbLinetypeTableRecord
  2
DOTTINY
 70
    0
  3
Dot (.15x) .....................................
 72
   65
 73
    2
 40
0.9525
 49
0
 74
    0
 49
-0.9525
 74
    0
  0
LTYPE
  5
34
330
5
100
AcDbSymbolTableRecord
100
AcDbLinetypeTableRecord
  2
DOT2
 70
    0
  3
Dot (.5x) .....................................
 72
   65
 73
    2
 40
3.175
 49
0
 74
    0
 49
-3.175
 74
    0
  0
LTYPE
  5
35
330
5
100
AcDbSymbolTableRecord
100
AcDbLinetypeTableRecord
  2
DOTX2
 70
    0
  3
Dot (2x) .  .  .  .  .  .  .  .  .  .  .  .  .
 72
   65
 73
    2
 40
12.7
 49
0
 74
    0
 49
-12.7
 74
    0
  0
LTYPE
  5
36
330
5
100
AcDbSymbolTableRecord
100
AcDbLinetypeTableRecord
  2
DASHED
 70
    0
  3
Dashed _ _ _ _ _ _ _ _ _ _ _ _ _ _ _ _ _
 72
   65
 73
    2
 40
19.05
 49
12.7
 74
    0
 49
-6.35
 74
    0
  0
LTYPE
  5
37
330
5
100
AcDbSymbolTableRecord
100
AcDbLinetypeTableRecord
  2
DASHEDTINY
 70
    0
  3
Dashed (.15x) _ _ _ _ _ _ _ _ _ _ _ _ _ _ _ _ _
 72
   65
 73
    2
 40
2.8575
 49
1.905
 74
    0
 49
-0.9525
 74
    0
  0
LTYPE
  5
38
330
5
100
AcDbSymbolTableRecord
100
AcDbLinetypeTableRecord
  2
DASHED2
 70
    0
  3
Dashed (.5x) _ _ _ _ _ _ _ _ _ _ _ _ _ _ _ _ _
 72
   65
 73
    2
 40
9.524999999999999
 49
6.35
 74
    0
 49
-3.175
 74
    0
  0
LTYPE
  5
39
330
5
100
AcDbSymbolTableRecord
100
AcDbLinetypeTableRecord
  2
DASHEDX2
 70
    0
  3
Dashed (2x) ____  ____  ____  ____  ____  ___
 72
   65
 73
    2
 40
38.09999999999999
 49
25.4
 74
    0
 49
-12.7
 74
    0
  0
LTYPE
  5
3A
330
5
100
AcDbSymbolTableRecord
100
AcDbLinetypeTableRecord
  2
DASHDOT
 70
    0
  3
Dash dot __ . __ . __ . __ . __ . __ . __ . __
 72
   65
 73
    4
 40
25.4
 49
12.7
 74
    0
 49
-6.35
 74
    0
 49
0
 74
    0
 49
-6.35
 74
    0
  0
LTYPE
  5
3B
330
5
100
AcDbSymbolTableRecord
100
AcDbLinetypeTableRecord
  2
DASHDOTTINY
 70
    0
  3
Dash dot (.15x) _._._._._._._._._._._._._._._.
 72
   65
 73
    4
 40
3.81
 49
1.905
 74
    0
 49
-0.9525
 74
    0
 49
0
 74
    0
 49
-0.9525
 74
    0
  0
LTYPE
  5
3C
330
5
100
AcDbSymbolTableRecord
100
AcDbLinetypeTableRecord
  2
DASHDOT2
 70
    0
  3
Dash dot (.5x) _._._._._._._._._._._._._._._.
 72
   65
 73
    4
 40
12.7
 49
6.35
 74
    0
 49
-3.175
 74
    0
 49
0
 74
    0
 49
-3.175
 74
    0
  0
LTYPE
  5
3D
330
5
100
AcDbSymbolTableRecord
100
AcDbLinetypeTableRecord
  2
DASHDOTX2
 70
    0
  3
Dash dot (2x) ____  .  ____  .  ____  .  ___
 72
   65
 73
    4
 40
50.8
 49
25.4
 74
    0
 49
-12.7
 74
    0
 49
0
 74
    0
 49
-12.7
 74
    0
  0
LTYPE
  5
3E
330
5
100
AcDbSymbolTableRecord
100
AcDbLinetypeTableRecord
  2
DIVIDE
 70
    0
  3
Divide ____ . . ____ . . ____ . . ____ . . ____
 72
   65
 73
    6
 40
31.75
 49
12.7
 74
    0
 49
-6.35
 74
    0
 49
0
 74
    0
 49
-6.35
 74
    0
 49
0
 74
    0
 49
-6.35
 74
    0
  0
LTYPE
  5
3F
330
5
100
AcDbSymbolTableRecord
100
AcDbLinetypeTableRecord
  2
DIVIDETINY
 70
    0
  3
Divide (.15x) __..__..__..__..__..__..__..__.._
 72
   65
 73
    6
 40
4.7625
 49
1.905
 74
    0
 49
-0.9525
 74
    0
 49
0
 74
    0
 49
-0.9525
 74
    0
 49
0
 74
    0
 49
-0.9525
 74
    0
  0
LTYPE
  5
40
330
5
100
AcDbSymbolTableRecord
100
AcDbLinetypeTableRecord
  2
DIVIDE2
 70
    0
  3
Divide (.5x) __..__..__..__..__..__..__..__.._
 72
   65
 73
    6
 40
15.875
 49
6.35
 74
    0
 49
-3.175
 74
    0
 49
0
 74
    0
 49
-3.175
 74
    0
 49
0
 74
    0
 49
-3.175
 74
    0
  0
LTYPE
  5
41
330
5
100
AcDbSymbolTableRecord
100
AcDbLinetypeTableRecord
  2
DIVIDEX2
 70
    0
  3
Divide (2x) ________  .  .  ________  .  .  _
 72
   65
 73
    6
 40
63.5
 49
25.4
 74
    0
 49
-12.7
 74
    0
 49
0
 74
    0
 49
-12.7
 74
    0
 49
0
 74
    0
 49
-12.7
 74
    0
  0
LTYPE
  5
42
330
5
100
AcDbSymbolTableRecord
100
AcDbLinetypeTableRecord
  2
BORDER
 70
    0
  3
Border __ __ . __ __ . __ __ . __ __ . __ __ .
 72
   65
 73
    6
 40
44.45
 49
12.7
 74
    0
 49
-6.35
 74
    0
 49
12.7
 74
    0
 49
-6.35
 74
    0
 49
0
 74
    0
 49
-6.35
 74
    0
  0
LTYPE
  5
43
330
5
100
AcDbSymbolTableRecord
100
AcDbLinetypeTableRecord
  2
BORDERTINY
 70
    0
  3
Border (.15x) __.__.__.__.__.__.__.__.__.__.__.
 72
   65
 73
    6
 40
6.6675
 49
1.905
 74
    0
 49
-0.9525
 74
    0
 49
1.905
 74
    0
 49
-0.9525
 74
    0
 49
0
 74
    0
 49
-0.9525
 74
    0
  0
LTYPE
  5
44
330
5
100
AcDbSymbolTableRecord
100
AcDbLinetypeTableRecord
  2
BORDER2
 70
    0
  3
Border (.5x) __.__.__.__.__.__.__.__.__.__.__.
 72
   65
 73
    6
 40
22.225
 49
6.35
 74
    0
 49
-3.175
 74
    0
 49
6.35
 74
    0
 49
-3.175
 74
    0
 49
0
 74
    0
 49
-3.175
 74
    0
  0
LTYPE
  5
45
330
5
100
AcDbSymbolTableRecord
100
AcDbLinetypeTableRecord
  2
BORDERX2
 70
    0
  3
Border (2x) ____  ____  .  ____  ____  .  ___
 72
   65
 73
    6
 40
88.89999999999999
 49
25.4
 74
    0
 49
-12.7
 74
    0
 49
25.4
 74
    0
 49
-12.7
 74
    0
 49
0
 74
    0
 49
-12.7
 74
    0
  0
LTYPE
  5
46
330
5
100
AcDbSymbolTableRecord
100
AcDbLinetypeTableRecord
  2
CENTER
 70
    0
  3
Center ____ _ ____ _ ____ _ ____ _ ____ _ ____
 72
   65
 73
    4
 40
50.8
 49
31.75
 74
    0
 49
-6.35
 74
    0
 49
6.35
 74
    0
 49
-6.35
 74
    0
  0
LTYPE
  5
47
330
5
100
AcDbSymbolTableRecord
100
AcDbLinetypeTableRecord
  2
CENTERTINY
 70
    0
  3
Center (.15x) ___ _ ___ _ ___ _ ___ _ ___ _ ___
 72
   65
 73
    4
 40
7.619999999999999
 49
4.7625
 74
    0
 49
-0.9525
 74
    0
 49
0.9525
 74
    0
 49
-0.9525
 74
    0
  0
LTYPE
  5
48
330
5
100
AcDbSymbolTableRecord
100
AcDbLinetypeTableRecord
  2
CENTER2
 70
    0
  3
Center (.5x) ___ _ ___ _ ___ _ ___ _ ___ _ ___
 72
   65
 73
    4
 40
28.575
 49
19.05
 74
    0
 49
-3.175
 74
    0
 49
3.175
 74
    0
 49
-3.175
 74
    0
  0
LTYPE
  5
49
330
5
100
AcDbSymbolTableRecord
100
AcDbLinetypeTableRecord
  2
CENTERX2
 70
    0
  3
Center (2x) ________  __  ________  __  _____
 72
   65
 73
    4
 40
101.6
 49
63.5
 74
    0
 49
-12.7
 74
    0
 49
12.7
 74
    0
 49
-12.7
 74
    0
  0
ENDTAB
  0
TABLE
  2
LAYER
  5
2
330
0
100
AcDbSymbolTable
 70
    1
  0
LAYER
  5
10
330
2
100
AcDbSymbolTableRecord
100
AcDbLayerTableRecord
  2
0
 70
    0
 62
   70
  6
CONTINUOUS
370
   -3
390
F
  0
ENDTAB
  0
TABLE
  2
STYLE
  5
3
330
0
100
AcDbSymbolTable
 70
    3
  0
STYLE
  5
4A
330
2
100
AcDbSymbolTableRecord
100
AcDbTextStyleTableRecord
  2
Standard
 70
    0
 40
0
 41
1
 50
0
 71
    0
 42
1
  3
txt
  4

  0
ENDTAB
  0
TABLE
  2
VIEW
  5
6
330
0
100
AcDbSymbolTable
 70
    0
  0
ENDTAB
  0
TABLE
  2
UCS
  5
7
330
0
100
AcDbSymbolTable
 70
    0
  0
ENDTAB
  0
TABLE
  2
APPID
  5
9
330
0
100
AcDbSymbolTable
 70
    1
  0
APPID
  5
12
330
9
100
AcDbSymbolTableRecord
100
AcDbRegAppTableRecord
  2
ACAD
 70
    0
  0
APPID
  5
4B
330
9
100
AcDbSymbolTableRecord
100
AcDbRegAppTableRecord
  2
LibreCad
 70
    0
  0
ENDTAB
  0
TABLE
  2
DIMSTYLE
  5
A
330
0
100
AcDbSymbolTable
 70
    1
100
AcDbDimStyleTable
 71
    1
  0
DIMSTYLE
105
4C
330
A
100
AcDbSymbolTableRecord
100
AcDbDimStyleTableRecord
  2
Standard
 70
    0
 40
1
 41
2.5
 42
0.625
 43
0.38
 44
1.25
 45
0
 46
0
 47
0
 48
0
 49
1
140
2.5
141
0.09
142
2.5
143
25.4
144
1
145
0
146
1
147
0.625
148
0
 71
    0
 72
    0
 73
    0
 74
    1
 75
    0
 76
    0
 77
    0
 78
    1
 79
    0
170
    0
171
    2
172
    0
173
    0
174
    0
175
    0
176
    0
177
    0
178
    0
179
    0
271
    2
272
    4
273
    2
274
    2
275
    0
276
    0
277
    2
278
    0
279
    0
280
    0
281
    0
282
    0
283
    1
284
    0
285
    0
286
    0
288
    0
289
    3
340
standard
341

371
   -2
372
   -2
  0
ENDTAB
  0
TABLE
  2
BLOCK_RECORD
  5
1
330
0
100
AcDbSymbolTable
 70
    2
  0
BLOCK_RECORD
  5
1F
330
1
100
AcDbSymbolTableRecord
100
AcDbBlockTableRecord
  2
*Model_Space
 70
    0
280
    1
281
    0
  0
BLOCK_RECORD
  5
1E
330
1
100
AcDbSymbolTableRecord
100
AcDbBlockTableRecord
  2
*Paper_Space
 70
    0
280
    1
281
    0
  0
ENDTAB
  0
ENDSEC
  0
SECTION
  2
BLOCKS
  0
BLOCK
  5
20
330
1F
100
AcDbEntity
  8
0
100
AcDbBlockBegin
  2
*Model_Space
 70
    0
 10
0
 20
0
 30
0
  3
*Model_Space
  1

  0
ENDBLK
  5
21
330
1F
100
AcDbEntity
  8
0
100
AcDbBlockEnd
  0
BLOCK
  5
1C
330
1B
100
AcDbEntity
  8
0
100
AcDbBlockBegin
  2
*Paper_Space
 70
    0
 10
0
 20
0
 30
0
  3
*Paper_Space
  1

  0
ENDBLK
  5
1D
330
1F
100
AcDbEntity
  8
0
100
AcDbBlockEnd
  0
ENDSEC
  0
SECTION
  2
ENTITIES
  0
LWPOLYLINE
  5
4D
100
AcDbEntity
  8
0
  6
ByLayer
 62
  256
370
   -1
100
AcDbPolyline
 90
   20
 70
    1
 43
0
 10
-0.09397720599999999
 20
-0.03782303323289999
 42
-0.4142135623731003
 10
-0.0868280152329
 20
-0.044972224
 10
-0.0868280152329
 20
-0.053972206
 42
0.4142135623730996
 10
-0.0845772248
 20
-0.0562229964329
 10
0.0845772248
 20
-0.0562229964329
 42
0.4142135623730997
 10
0.0868280152329
 20
-0.053972206
 10
0.0868280152329
 20
-0.044972224
 42
-0.4142135623731001
 10
0.09397720599999999
 20
-0.0378230332329
 42
0.4142135623731023
 10
0.09622799643290002
 20
-0.0355722428
 10
0.0962279964329
 20
0.0355722428
 42
0.4142135623731005
 10
0.09397720599999999
 20
0.03782303323289999
 42
-0.4142135623731003
 10
0.0868280152329
 20
0.044972224
 10
0.0868280152329
 20
0.053972206
 42
0.4142135623730995
 10
0.0845772248
 20
0.0562229964329
 10
-0.0845772248
 20
0.0562229964329
 42
0.4142135623730994
 10
-0.0868280152329
 20
0.053972206
 10
-0.0868280152329
 20
0.044972224
 42
-0.4142135623731003
 10
-0.09397720599999999
 20
0.0378230332329
 42
0.4142135623731023
 10
-0.09622799643290002
 20
0.0355722428
 10
-0.0962279964329
 20
-0.0355722428
 42
0.4142135623731005
  0
CIRCLE
  5
4E
100
AcDbEntity
  8
0
  6
ByLayer
 62
  256
370
   -1
100
AcDbCircle
 10
0.0879856
 20
-0.0200025
 40
0.004064
  0
CIRCLE
  5
4F
100
AcDbEntity
  8
0
  6
ByLayer
 62
  256
370
   -1
100
AcDbCircle
 10
0.0879856
 20
-0.006985
 40
0.001524
  0
CIRCLE
  5
50
100
AcDbEntity
  8
0
  6
ByLayer
 62
  256
370
   -1
100
AcDbCircle
 10
-0.0879856
 20
0
 40
0.004064
  0
CIRCLE
  5
51
100
AcDbEntity
  8
0
  6
ByLayer
 62
  256
370
   -1
100
AcDbCircle
 10
-0.0879856
 20
-0.0200025
 40
0.004064
  0
CIRCLE
  5
52
100
AcDbEntity
  8
0
  6
ByLayer
 62
  256
370
   -1
100
AcDbCircle
 10
-0.0879856
 20
0.0200025
 40
0.004064
  0
CIRCLE
  5
53
100
AcDbEntity
  8
0
  6
ByLayer
 62
  256
370
   -1
100
AcDbCircle
 10
-0.0879856
 20
-0.006985
 40
0.001524
  0
CIRCLE
  5
54
100
AcDbEntity
  8
0
  6
ByLayer
 62
  256
370
   -1
100
AcDbCircle
 10
-0.0879856
 20
0.006985
 40
0.001524
  0
CIRCLE
  5
55
100
AcDbEntity
  8
0
  6
ByLayer
 62
  256
370
   -1
100
AcDbCircle
 10
0.08001
 20
-0.0450088
 40
0.004064
  0
CIRCLE
  5
56
100
AcDbEntity
  8
0
  6
ByLayer
 62
  256
370
   -1
100
AcDbCircle
 10
-0.08001
 20
-0.0450088
 40
0.004064
  0
CIRCLE
  5
57
100
AcDbEntity
  8
0
  6
ByLayer
 62
  256
370
   -1
100
AcDbCircle
 10
-0.0574802
 20
-0.0450088
 40
0.004064
  0
CIRCLE
  5
58
100
AcDbEntity
  8
0
  6
ByLayer
 62
  256
370
   -1
100
AcDbCircle
 10
0.08001
 20
0.0450088
 40
0.004064
  0
CIRCLE
  5
59
100
AcDbEntity
  8
0
  6
ByLayer
 62
  256
370
   -1
100
AcDbCircle
 10
0.0574802
 20
0.0450088
 40
0.004064
  0
CIRCLE
  5
5A
100
AcDbEntity
  8
0
  6
ByLayer
 62
  256
370
   -1
100
AcDbCircle
 10
-0.08001
 20
0.0450088
 40
0.004064
  0
LWPOLYLINE
  5
5B
100
AcDbEntity
  8
0
  6
ByLayer
 62
  256
370
   -1
100
AcDbPolyline
 90
    9
 70
    0
 43
0
 10
0.0061874821994
 20
-0.0543467824298
 10
0.006068042919299996
 20
-0.0543464056497
 42
-0.002327333354799918
 10
0.005958023140799996
 20
-0.0543448985294
 42
-0.004353746196099901
 10
0.005857799643999998
 20
-0.054342261069
 10
0.0057669956487
 20
-0.0543388700484
 42
-0.01045491949980001
 10
0.0056859879351
 20
-0.0543347254677
 10
0.0056143997231
 20
-0.0543290737668
 42
-0.01464757914399998
 10
0.0055526077927
 20
-0.0543226685057
 10
0.0055002353639
 20
-0.0543155096845
  0
LWPOLYLINE
  5
5C
100
AcDbEntity
  8
0
  6
ByLayer
 62
  256
370
   -1
100
AcDbPolyline
 90
   17
 70
    0
 43
0
 10
0.0055002353639
 20
-0.0543155096845
 10
0.005442211234200001
 20
-0.05430382950249999
 42
-0.01683046708849991
 10
0.005388708465200002
 20
-0.05428951186009999
 42
-0.01366737804609986
 10
0.005340103836999999
 20
-0.05427255675730001
 42
-0.02956265269390036
 10
0.005296397349699998
 20
-0.05425334097410001
 42
-0.02393807819199982
 10
0.0052575890032
 20
-0.0542311109503
 42
-0.02526417956529991
 10
0.005223302017400002
 20
-0.0542062434661
 42
-0.04002791230469942
 10
0.005193913172500004
 20
-0.0541791153016
 42
-0.02929117464739981
 10
0.005169422468400002
 20
-0.0541489728965
 42
-0.03020913303610022
 10
0.005148699564899998
 20
-0.0541154394709
 42
-0.02854073049539997
 10
0.005130614121799999
 20
-0.0540770079044
 42
-0.02036463843460028
 10
0.0051155429193
 20
-0.0540336781972
 42
-0.01803536501979979
 10
0.0051031091772
 20
-0.0539854503491
 42
-0.01975797326689997
 10
0.0050933128956
 20
-0.0539327011402
 42
-0.00677287475979993
 10
0.0050865308544
 20
-0.0538750537905
 42
-0.0179579361283997
 10
0.0050823862737
 20
-0.0538125083
 10
0.0050808791535
 20
-0.0537454414487
  0
LWPOLYLINE
  5
5D
100
AcDbEntity
  8
0
  6
ByLayer
 62
  256
370
   -1
100
AcDbPolyline
 90
   17
 70
    0
 43
0
 10
0.0050808791535
 20
-0.0537454414487
 10
0.0050820094937
 20
-0.0536825191782
 10
0.0050857772943
 20
-0.0536237414883
 42
-0.0172887993997
 10
0.005091428995300001
 20
-0.0535694851592
 42
-0.01862698024040002
 10
0.005099718156600002
 20
-0.0535197501908
 42
-0.001505054915499991
 10
0.005110644778499999
 20
-0.0534737830231
 42
-0.02941154897020004
 10
0.005123455300599998
 20
-0.0534323372161
 42
-0.0149172762429
 10
0.005138903283199999
 20
-0.0533954127699
 42
-0.03273943039190001
 10
0.0051566119462
 20
-0.0533626329044
 42
-0.02852495098230005
 10
0.0051773348497
 20
-0.0533332440595
 42
-0.03337666216210008
 10
0.005202202333899998
 20
-0.0533061158949
 42
-0.02948850257690007
 10
0.005231214398700001
 20
-0.0532816251908
 42
-0.02357591602239988
 10
0.005263994264200002
 20
-0.0532597719472
 42
-0.02597208510229988
 10
0.005300541930400002
 20
-0.0532401793839
 42
-0.01743654883699995
 10
0.005341610957300001
 20
-0.053222847501
 42
-0.0247048943930999
 10
0.0053864477848
 20
-0.0532081530785
 10
0.005435052413
 20
-0.0531957193364
  0
LWPOLYLINE
  5
5E
100
AcDbEntity
  8
0
  6
ByLayer
 62
  256
370
   -1
100
AcDbPolyline
 90
    9
 70
    0
 43
0
 10
0.005435052413
 20
-0.0531957193364
 10
0.0054840338212
 20
-0.0531859230548
 10
0.005540174050600001
 20
-0.0531776338934
 42
-0.01651322335629993
 10
0.0056030963212
 20
-0.0531704750722
 10
0.0056728006329
 20
-0.0531648233712
 42
-0.01218365730620002
 10
0.0057492869858
 20
-0.0531599252304
 10
0.0058329321598
 20
-0.0531569109899
 42
-0.00801895943719998
 10
0.005923359375
 20
-0.0531550270896
 10
0.0060209454114
 20
-0.0531542735294
  0
LINE
  5
5F
100
AcDbEntity
  8
0
  6
ByLayer
 62
  256
370
   -1
100
AcDbLine
 10
0.0060209454114
 20
-0.0531542735294
 11
0.0067213795491
 21
-0.0531542735294
  0
LWPOLYLINE
  5
60
100
AcDbEntity
  8
0
  6
ByLayer
 62
  256
370
   -1
100
AcDbPolyline
 90
    9
 70
    0
 43
0
 10
0.0067213795491
 20
-0.0531542735294
 10
0.0068197191456
 20
-0.0531557806497
 42
-0.005334547168400018
 10
0.006910146360800001
 20
-0.05316067879049999
 42
-0.01174594440290007
 10
0.006992661194600002
 20
-0.05316859117179999
 42
-0.01579371433840013
 10
0.007067263647200001
 20
-0.05317951779369999
 42
-0.01974209466900004
 10
0.0071339537184
 20
-0.0531938354361
 42
-0.005507814664300047
 10
0.007192731408200002
 20
-0.05321116731899999
 42
-0.04752154580800064
 10
0.007243596716800002
 20
-0.05323189022249999
 10
0.007286549644
 20
-0.0532556273665
  0
LWPOLYLINE
  5
61
100
AcDbEntity
  8
0
  6
ByLayer
 62
  256
370
   -1
100
AcDbPolyline
 90
    9
 70
    0
 43
0
 10
0.007286549644
 20
-0.0532556273665
 10
0.0073268651108
 20
-0.0532861465516
 10
0.007361528876600002
 20
-0.0533223174377
 42
-0.0521486682974004
 10
0.007391294501600001
 20
-0.0533641400247
 42
-0.0179060850666
 10
0.007415408425599997
 20
-0.0534119910927
 42
-0.03964502814569978
 10
0.007434247428799999
 20
-0.0534658706418
 42
-0.00232339869050006
 10
0.007447434731000001
 20
-0.0535254018918
 42
-0.03619845342659999
 10
0.0074557238924
 20
-0.0535909616228
 10
0.0074583613528
 20
-0.0536621730548
  0
LINE
  5
62
100
AcDbEntity
  8
0
  6
ByLayer
 62
  256
370
   -1
100
AcDbLine
 10
0.0074583613528
 20
-0.0536621730548
 11
0.0074583613528
 21
-0.0537921621766
  0
LINE
  5
63
100
AcDbEntity
  8
0
  6
ByLayer
 62
  256
370
   -1
100
AcDbLine
 10
0.0074583613528
 20
-0.0537921621766
 11
0.0068803807358
 21
-0.0537921621766
  0
LWPOLYLINE
  5
64
100
AcDbEntity
  8
0
  6
ByLayer
 62
  256
370
   -1
100
AcDbPolyline
 90
    9
 70
    0
 43
0
 10
0.0068803807358
 20
-0.0537921621766
 10
0.0068788736155
 20
-0.053758628751
 42
0.01525739708629995
 10
0.0068754825949
 20
-0.0537281095658
 42
0.02203554419009997
 10
0.006870207674099999
 20
-0.0537006046212
 42
0.01930238655000004
 10
0.006863425632899998
 20
-0.0536764906972
 42
0.04087579285190015
 10
0.0068547596915
 20
-0.0536550142336
 42
0.0212855814943
 10
0.006844209849699999
 20
-0.0536369287905
 42
0.06625167633849961
 10
0.0068317761076
 20
-0.053621857588
 10
0.0068178352453
 20
-0.053609800626
  0
LWPOLYLINE
  5
65
100
AcDbEntity
  8
0
  6
ByLayer
 62
  256
370
   -1
100
AcDbPolyline
 90
    9
 70
    0
 43
0
 10
0.0068178352453
 20
-0.053609800626
 10
0.006804647943
 20
-0.0536018882446
 10
0.006788446400299999
 20
-0.0535951062035
 42
0.05199271099309867
 10
0.006769607397199999
 20
-0.0535890777225
 10
0.0067473773734
 20
-0.0535845563617
 42
0.03234604953279981
 10
0.0067225098892
 20
-0.0535807885611
 10
0.0066946281646
 20
-0.0535781511006
 42
0.02419607591190014
 10
0.0066641089794
 20
-0.0535762672003
 10
0.0066301987737
 20
-0.0535758904203
  0
LINE
  5
66
100
AcDbEntity
  8
0
  6
ByLayer
 62
  256
370
   -1
100
AcDbLine
 10
0.0066301987737
 20
-0.0535758904203
 11
0.0059218522547
 21
-0.0535758904203
  0
LWPOLYLINE
  5
67
100
AcDbEntity
  8
0
  6
ByLayer
 62
  256
370
   -1
100
AcDbPolyline
 90
    5
 70
    0
 43
0
 10
0.0059218522547
 20
-0.0535758904203
 10
0.0058672191456
 20
-0.0535773975405
 10
0.0058208751978
 20
-0.05358267246139999
 42
0.0738854943857032
 10
0.005782820411399998
 20
-0.05359058484269999
 10
0.0057526780063
 20
-0.0536022650247
  0
LWPOLYLINE
  5
68
100
AcDbEntity
  8
0
  6
ByLayer
 62
  256
370
   -1
100
AcDbPolyline
 90
    9
 70
    0
 43
0
 10
0.0057526780063
 20
-0.0536022650247
 10
0.005734215783199997
 20
-0.0536116845263
 42
0.03506937552340102
 10
0.005718391020599994
 20
-0.05362298792819999
 42
0.05002654264500238
 10
0.005705203718399996
 20
-0.0536365520105
 42
0.01744098818040004
 10
0.0056942770965
 20
-0.0536523767731
 42
0.05549512261889968
 10
0.005685611155100001
 20
-0.053669708656
 10
0.005679582674099999
 20
-0.0536893012193
 42
0.05273210639340027
 10
0.0056758148734
 20
-0.053711154463
 10
0.0056746845332
 20
-0.053734891607
  0
LWPOLYLINE
  5
69
100
AcDbEntity
  8
0
  6
ByLayer
 62
  256
370
   -1
100
AcDbPolyline
 90
    5
 70
    0
 43
0
 10
0.0056746845332
 20
-0.053734891607
 10
0.0056773219937
 20
-0.0537744535136
 10
0.0056856111551
 20
-0.0538072333791
 42
0.1154258835487
 10
0.0056995520174
 20
-0.0538328544234
 10
0.0057187678006
 20
-0.0538520702067
  0
LWPOLYLINE
  5
6A
100
AcDbEntity
  8
0
  6
ByLayer
 62
  256
370
   -1
100
AcDbPolyline
 90
    9
 70
    0
 43
0
 10
0.0057187678006
 20
-0.0538520702067
 10
0.005734215783200001
 20
-0.05386073614809999
 42
0.0147273255892998
 10
0.005753431566500003
 20
-0.0538690253095
 42
0.02311205617429981
 10
0.005776415150300001
 20
-0.05387618413069999
 42
0.004626158818599999
 10
0.0058027897547
 20
-0.05388258939179999
 42
0.0208069410285001
 10
0.0058329321598
 20
-0.0538886178728
 10
0.005866842365499999
 20
-0.0538935160136
 42
0.0183848432960001
 10
0.0059045203718
 20
-0.0538980373744
 10
0.0059455893987
 20
-0.0539014283949
  0
LWPOLYLINE
  5
6B
100
AcDbEntity
  8
0
  6
ByLayer
 62
  256
370
   -1
100
AcDbPolyline
 90
    9
 70
    0
 43
0
 10
0.0059455893987
 20
-0.0539014283949
 10
0.0059843977453
 20
-0.0539033122953
 10
0.0060311184731
 20
-0.05390481941550001
 42
0.004800340271499979
 10
0.0060865051424
 20
-0.05390632653580001
 10
0.006149804192999999
 20
-0.053907456876
 42
0.001680344949600086
 10
0.006221769185099994
 20
-0.0539082104361
 42
0.001233166604100106
 10
0.00630202333859998
 20
-0.0539089639962
 42
0.0004577947928000266
 10
0.00639018987339997
 20
-0.0539093407763
 42
0.000822272982100008
 10
0.006487022349699984
 20
-0.0539093407763
 42
0.000822272982100008
  0
LWPOLYLINE
  5
6C
100
AcDbEntity
  8
0
  6
ByLayer
 62
  256
370
   -1
100
AcDbPolyline
 90
    9
 70
    0
 43
0
 10
0.0064870223497
 20
-0.0539093407763
 10
0.0065936511076
 20
-0.0539100943364
 42
-0.007100211629400057
 10
0.006692744264200001
 20
-0.05391197823670001
 42
-0.002137270109399944
 10
0.0067843018196
 20
-0.0539157460373
 42
-0.003356171498300011
 10
0.006867946993699999
 20
-0.0539206441782
 42
-0.00984873409889995
 10
0.0069436797864
 20
-0.0539266726592
 10
0.0070118769778
 20
-0.0539342082605
 42
-0.02077168177439983
 10
0.007072538567999999
 20
-0.053943250982
 10
0.0071252877769
 20
-0.0539538008237
  0
LWPOLYLINE
  5
6D
100
AcDbEntity
  8
0
  6
ByLayer
 62
  256
370
   -1
100
AcDbPolyline
 90
    9
 70
    0
 43
0
 10
0.0071252877769
 20
-0.0539538008237
 10
0.0071738924051
 20
-0.0539666113459
 10
0.007218352452500002
 20
-0.05398205932849999
 42
-0.03047083415580048
 10
0.007259044699400005
 20
-0.05399939121139999
 42
-0.02540717653530042
 10
0.007295215585400004
 20
-0.05401936055479999
 42
-0.02532722141810006
 10
0.0073272418908
 20
-0.0540419673586
 42
-0.0270889587667999
 10
0.007355123615499998
 20
-0.0540664580627
 42
-0.04789498096549955
 10
0.007378860759499999
 20
-0.0540935862272
 10
0.0073984533228
 20
-0.0541229750722
  0
LWPOLYLINE
  5
6E
100
AcDbEntity
  8
0
  6
ByLayer
 62
  256
370
   -1
100
AcDbPolyline
 90
    9
 70
    0
 43
0
 10
0.0073984533228
 20
-0.0541229750722
 10
0.0074120174051
 20
-0.0541512335769
 10
0.007423697587000001
 20
-0.0541840134424
 42
-0.02043075531250007
 10
0.007433493868700002
 20
-0.0542216914487
 42
-0.02150102917720015
 10
0.007441783030100001
 20
-0.0542635140358
 10
0.007447811511100001
 20
-0.0543102347636
 42
-0.01174923323599994
 10
0.0074523328718
 20
-0.0543611000722
 42
-0.01438673417379993
 10
0.0074553471123
 20
-0.0544168635215
 10
0.0074561006725
 20
-0.0544771483317
  0
LWPOLYLINE
  5
6F
100
AcDbEntity
  8
0
  6
ByLayer
 62
  256
370
   -1
100
AcDbPolyline
 90
    9
 70
    0
 43
0
 10
0.0074561006725
 20
-0.0544771483317
 10
0.0074545935522
 20
-0.0545521275642
 10
0.0074493186313
 20
-0.0546210783158
 42
-0.0213215027178
 10
0.007441029469900001
 20
-0.0546840005864
 42
-0.01390505923599996
 10
0.007429349288
 20
-0.054740894376
 42
-0.03354393425179984
 10
0.0074142780854
 20
-0.0547913829044
 10
0.007395815862299997
 20
-0.0548358429519
 42
-0.06288247327769877
 10
0.007374339398699997
 20
-0.0548742745184
 10
0.0073490951345
 20
-0.0549066776038
  0
LWPOLYLINE
  5
70
100
AcDbEntity
  8
0
  6
ByLayer
 62
  256
370
   -1
100
AcDbPolyline
 90
   17
 70
    0
 43
0
 10
0.0073490951345
 20
-0.0549066776038
 10
0.007327995450900002
 20
-0.0549277772873
 42
-0.005995274252199958
 10
0.007304258307000002
 20
-0.0549477466307
 42
-0.02718048301680004
 10
0.007277883702499996
 20
-0.05496620885379999
 42
-0.009937118876199989
 10
0.007248871637699997
 20
-0.05498316395669999
 42
-0.02010843935450006
 10
0.007217222112299997
 20
-0.0549989887193
 42
-0.01584008943659995
 10
0.007182935126599999
 20
-0.05501330636170001
 42
-0.008733994856200081
 10
0.007146010680400001
 20
-0.05502611688390001
 42
-0.01709177499849997
 10
0.0071064487737
 20
-0.0550377970658
 10
0.0070642494066
 20
-0.0550479701275
 42
-0.01340997246259998
 10
0.007019412579099999
 20
-0.0550570128491
 42
-0.008894237908699783
 10
0.0069719382911
 20
-0.0550645484503
 42
-0.005827978770200077
 10
0.0069218265427
 20
-0.0550705769313
 42
-0.009224902683700117
 10
0.006869077333899997
 20
-0.05507547507219999
 42
-0.006222011467399817
 10
0.0068140674446
 20
-0.05507886609269999
 42
-0.007292191712599964
 10
0.0067560433149
 20
-0.05508074999299999
 10
0.0066953817247
 20
-0.0550815035532
  0
LINE
  5
71
100
AcDbEntity
  8
0
  6
ByLayer
 62
  256
370
   -1
100
AcDbLine
 10
0.0066953817247
 20
-0.0550815035532
 11
0.0058883188291
 21
-0.0550815035532
  0
LWPOLYLINE
  5
72
100
AcDbEntity
  8
0
  6
ByLayer
 62
  256
370
   -1
100
AcDbPolyline
 90
    9
 70
    0
 43
0
 10
0.0058883188291
 20
-0.0550815035532
 10
0.0057782990506
 20
-0.05507924287279999
 42
-0.006435991298599939
 10
0.005678075553800001
 20
-0.0550720840516
 42
-0.02119608424880015
 10
0.005586894778499998
 20
-0.05506002708960001
 42
-0.01202708764449982
 10
0.0055051335047
 20
-0.0550430719867
 42
-0.03443923044500003
 10
0.005433168512699999
 20
-0.0550215955231
 10
0.005370623022199999
 20
-0.0549952209187
 42
-0.06671767269400078
 10
0.005317120253199998
 20
-0.0549639481734
 10
0.0052734137658
 20
-0.0549277772873
  0
LWPOLYLINE
  5
73
100
AcDbEntity
  8
0
  6
ByLayer
 62
  256
370
   -1
100
AcDbPolyline
 90
    9
 70
    0
 43
0
 10
0.0052734137658
 20
-0.0549277772873
 10
0.0052466623813
 20
-0.0548965045421
 10
0.005223302017400002
 20
-0.0548595800959
 42
-0.03691042171759982
 10
0.005203709454100001
 20
-0.0548173807288
 42
-0.02329773868859996
 10
0.005187507911399999
 20
-0.0547695296608
 42
-0.01942327750759995
 10
0.005175074169299999
 20
-0.0547164036718
 42
-0.01909588526130013
 10
0.005166031447799998
 20
-0.054657625982
 42
-0.01831092029709991
 10
0.005160756526899999
 20
-0.0545935733712
 10
0.0051588726266
 20
-0.0545238690595
  0
LINE
  5
74
100
AcDbEntity
  8
0
  6
ByLayer
 62
  256
370
   -1
100
AcDbLine
 10
0.0051588726266
 20
-0.0545238690595
 11
0.0051588726266
 21
-0.0544639610294
  0
LINE
  5
75
100
AcDbEntity
  8
0
  6
ByLayer
 62
  256
370
   -1
100
AcDbLine
 10
0.0051588726266
 20
-0.0544639610294
 11
0.0057372300237
 21
-0.0544639610294
  0
LWPOLYLINE
  5
76
100
AcDbEntity
  8
0
  6
ByLayer
 62
  256
370
   -1
100
AcDbPolyline
 90
    9
 70
    0
 43
0
 10
0.0057372300237
 20
-0.0544639610294
 10
0.0057379835839
 20
-0.0544914659741
 42
0.003483198242200051
 10
0.005739867484199999
 20
-0.0545163334582
 42
0.02071138209720021
 10
0.0057428817247
 20
-0.054538563482
 42
0.02690264446039975
 10
0.005747403085400002
 20
-0.0545585328253
 42
0.03267938445809992
 10
0.005753431566500001
 20
-0.0545758647082
 10
0.005760590387700001
 20
-0.0545905591307
 42
0.07301340049899832
 10
0.005768879549100001
 20
-0.0546026160927
 10
0.0057786758307
 20
-0.0546124123744
  0
LWPOLYLINE
  5
77
100
AcDbEntity
  8
0
  6
ByLayer
 62
  256
370
   -1
100
AcDbPolyline
 90
    9
 70
    0
 43
0
 10
0.0057786758307
 20
-0.0546124123744
 10
0.005793747033199999
 20
-0.0546233389962
 42
0.0234650941692001
 10
0.005812962816499999
 20
-0.0546331352779
 42
0.02241352513490004
 10
0.005836699960400002
 20
-0.05464104765919999
 42
0.03304555424789898
 10
0.005864581685100001
 20
-0.05464782970029999
 10
0.005896607990499999
 20
-0.05465272784110001
 42
0.02094135385040026
 10
0.005932778876599999
 20
-0.05465649564180001
 42
0.00587773602799986
 10
0.005973471123399997
 20
-0.0546587563222
 42
0.003903509775000036
 10
0.006018307950899999
 20
-0.0546595098823
 42
0.003903509775000036
  0
LINE
  5
78
100
AcDbEntity
  8
0
  6
ByLayer
 62
  256
370
   -1
100
AcDbLine
 10
0.0060183079509
 20
-0.0546595098823
 11
0.0066588340585
 21
-0.0546595098823
  0
LWPOLYLINE
  5
79
100
AcDbEntity
  8
0
  6
ByLayer
 62
  256
370
   -1
100
AcDbPolyline
 90
    9
 70
    0
 43
0
 10
0.0066588340585
 20
-0.0546595098823
 10
0.0067100761472
 20
-0.05465724920190001
 42
0.01619188933720025
 10
0.0067545361946
 20
-0.05465046716080001
 42
0.05055904945329936
 10
0.0067922142009
 20
-0.0546391637589
 42
0.04942424806500089
 10
0.006823110166100001
 20
-0.0546229622161
 42
0.06864088006949912
 10
0.006846847310100001
 20
-0.0546026160927
 42
0.05794141845840094
 10
0.006864179193000003
 20
-0.0545773718285
 42
0.08250463105680046
 10
0.0068743522547
 20
-0.0545479829836
 10
0.0068777432753
 20
-0.0545136959978
  0
LWPOLYLINE
  5
7A
100
AcDbEntity
  8
0
  6
ByLayer
 62
  256
370
   -1
100
AcDbPolyline
 90
   13
 70
    0
 43
0
 10
0.0068777432753
 20
-0.0545136959978
 10
0.0068751058149
 20
-0.0544741340911
 42
0.04808925167300016
 10
0.0068668166535
 20
-0.0544409774456
 42
0.07221271704939909
 10
0.006852875791099998
 20
-0.0544146028411
 42
0.08440663275609876
 10
0.006833660007899997
 20
-0.0543950102779
 42
0.04904856867619741
 10
0.006820849485799999
 20
-0.05438709789650001
 10
0.006805024723099999
 20
-0.0543803158554
 42
0.03435369262669918
 10
0.006785808939899999
 20
-0.0543739105943
 10
0.006763202136100001
 20
-0.0543682588934
 42
0.02744325760610074
 10
0.006737581091800001
 20
-0.05436298397249999
 10
0.006708569026899999
 20
-0.05435883939180001
 42
0.01851282021739986
 10
0.0066761659415
 20
-0.05435507159110001
 10
0.0066407486155
 20
-0.0543520573506
  0
LWPOLYLINE
  5
7B
100
AcDbEntity
  8
0
  6
ByLayer
 62
  256
370
   -1
100
AcDbPolyline
 90
    9
 70
    0
 43
0
 10
0.0066407486155
 20
-0.0543520573506
 10
0.0066136204509
 20
-0.0543509270105
 10
0.006578203125
 20
-0.0543497966703
 42
0.008436303707500013
 10
0.0065341198576
 20
-0.0543486663301
 10
0.006481747428799998
 20
-0.05434828955
 42
-0.003127391575700002
 10
0.006421085838599998
 20
-0.0543475359899
 10
0.006351758306999999
 20
-0.0543471592098
 42
0.002902014429699943
 10
0.0062737648339
 20
-0.0543467824298
 10
0.0061874821994
 20
-0.0543467824298
  0
LWPOLYLINE
  5
7C
100
AcDbEntity
  8
0
  6
ByLayer
 62
  256
370
   -1
100
AcDbPolyline
 90
   12
 70
    1
 43
0
 10
0.0026272873813
 20
-0.0536282628491
 10
0.0041457110364
 20
-0.0536282628491
 10
0.0041457110364
 20
-0.0539300636798
 10
0.0027395678402
 20
-0.0539300636798
 10
0.0027395678402
 20
-0.0543207846054
 10
0.0041457110364
 20
-0.0543207846054
 10
0.0041457110364
 20
-0.0546229622161
 10
0.002661197587
 20
-0.0546229622161
 10
0.002661197587
 20
-0.0550604038696
 10
0.0047240684335
 20
-0.0550604038696
 10
0.0047240684335
 20
-0.0531749964329
 10
0.0026272873813
 20
-0.0531749964329
  0
LWPOLYLINE
  5
7D
100
AcDbEntity
  8
0
  6
ByLayer
 62
  256
370
   -1
100
AcDbPolyline
 90
    9
 70
    0
 43
0
 10
-0.0025349762658
 20
-0.0548757816386
 10
-0.0025666257911
 20
-0.0548354661718
 10
-0.002594130735800001
 20
-0.0547902525642
 42
-0.03785779929209996
 10
-0.002617491099700001
 20
-0.0547401408158
 42
-0.007857186108399999
 10
-0.0026363301028
 20
-0.0546851309266
 42
-0.02700481249640004
 10
-0.002651401305399999
 20
-0.0546248461165
 42
-0.01451899450720001
 10
-0.002661951147199999
 20
-0.0545596631655
 42
-0.02097913365930028
 10
-0.0026679796282
 20
-0.0544895820737
 10
-0.0026702403085
 20
-0.0544146028411
  0
LINE
  5
7E
100
AcDbEntity
  8
0
  6
ByLayer
 62
  256
370
   -1
100
AcDbLine
 10
-0.0026702403085
 20
-0.0544146028411
 11
-0.0026702403085
 21
-0.0542533409741
  0
LWPOLYLINE
  5
7F
100
AcDbEntity
  8
0
  6
ByLayer
 62
  256
370
   -1
100
AcDbPolyline
 90
    9
 70
    0
 43
0
 10
-0.0026702403085
 20
-0.0542533409741
 10
-0.0026683564082
 20
-0.0541926793839
 42
-0.008424641157499985
 10
-0.002663081487300001
 20
-0.0541350320342
 42
-0.01861759523249996
 10
-0.0026544155459
 20
-0.0540800221449
 42
-0.02037144219219995
 10
-0.002642358583899999
 20
-0.0540280264962
 42
-0.02187660830979995
 10
-0.002626533821199998
 20
-0.0539786683079
 42
-0.006794647167499949
 10
-0.002607318037999999
 20
-0.0539319475801
 42
-0.03826735482800005
 10
-0.0025847112342
 20
-0.0538878643127
 10
-0.0025583366297
 20
-0.0538467952858
  0
LWPOLYLINE
  5
80
100
AcDbEntity
  8
0
  6
ByLayer
 62
  256
370
   -1
100
AcDbPolyline
 90
    9
 70
    0
 43
0
 10
-0.0025583366297
 20
-0.0538467952858
 10
-0.002521788963600001
 20
-0.053800451338
 42
-0.01150319116340005
 10
-0.002480343156600003
 20
-0.0537601358712
 42
-0.03857063588550039
 10
-0.002434752769000002
 20
-0.05372622566549999
 42
-0.03235483174490001
 10
-0.0023846410206
 20
-0.0536983439408
 42
-0.03174103125260002
 10
-0.002330007911399999
 20
-0.0536768674772
 42
-0.0218120383454998
 10
-0.002270853441499999
 20
-0.05366141949460001
 42
-0.03839689745490019
 10
-0.0022071776108
 20
-0.053651999993
 10
-0.0021389804193
 20
-0.0536489857525
  0
LINE
  5
81
100
AcDbEntity
  8
0
  6
ByLayer
 62
  256
370
   -1
100
AcDbLine
 10
-0.0021389804193
 20
-0.0536489857525
 11
-0.0009905547864000001
 21
-0.0536489857525
  0
LINE
  5
82
100
AcDbEntity
  8
0
  6
ByLayer
 62
  256
370
   -1
100
AcDbLine
 10
-0.0009905547864000001
 20
-0.0536489857525
 11
-0.0009905547864000001
 21
-0.0531749964329
  0
LINE
  5
83
100
AcDbEntity
  8
0
  6
ByLayer
 62
  256
370
   -1
100
AcDbLine
 10
-0.0009905547864000001
 20
-0.0531749964329
 11
-0.0004121973892
 21
-0.0531749964329
  0
LINE
  5
84
100
AcDbEntity
  8
0
  6
ByLayer
 62
  256
370
   -1
100
AcDbLine
 10
-0.0004121973892
 20
-0.0531749964329
 11
-0.0004121973892
 21
-0.0550604038696
  0
LINE
  5
85
100
AcDbEntity
  8
0
  6
ByLayer
 62
  256
370
   -1
100
AcDbLine
 10
-0.0004121973892
 20
-0.0550604038696
 11
-0.0019878916139
 21
-0.0550604038696
  0
LWPOLYLINE
  5
86
100
AcDbEntity
  8
0
  6
ByLayer
 62
  256
370
   -1
100
AcDbPolyline
 90
    9
 70
    0
 43
0
 10
-0.0019878916139
 20
-0.0550604038696
 10
-0.002080579509500001
 20
-0.05505738962910001
 42
-0.01102064947890003
 10
-0.002166485363900001
 20
-0.05504872368770001
 42
-0.02433701163590024
 10
-0.0022456091772
 20
-0.0550344060453
 42
-0.02238033115169976
 10
-0.0023175741693
 20
-0.0550144367019
 42
-0.03785724451580003
 10
-0.0023823803402
 20
-0.0549884388775
 10
-0.0024400276899
 20
-0.0549564125722
 42
-0.05805824843149968
 10
-0.0024908929984
 20
-0.0549191113459
 10
-0.0025349762658
 20
-0.0548757816386
  0
LINE
  5
87
100
AcDbEntity
  8
0
  6
ByLayer
 62
  256
370
   -1
100
AcDbLine
 10
-0.0076524030854
 20
-0.0538991677146
 11
-0.0082307604826
 21
-0.0538991677146
  0
LINE
  5
88
100
AcDbEntity
  8
0
  6
ByLayer
 62
  256
370
   -1
100
AcDbLine
 10
-0.0082307604826
 20
-0.0538991677146
 11
-0.0082307604826
 21
-0.0537220810848
  0
LWPOLYLINE
  5
89
100
AcDbEntity
  8
0
  6
ByLayer
 62
  256
370
   -1
100
AcDbPolyline
 90
    9
 70
    0
 43
0
 10
-0.0082307604826
 20
-0.0537220810848
 10
-0.008228876582299999
 20
-0.0536565213538
 10
-0.008222471321199999
 20
-0.0535951062035
 42
-0.02296015413210004
 10
-0.008212298259499999
 20
-0.0535382124139
 42
-0.02284764437960001
 10
-0.008198357397200002
 20
-0.0534858399851
 42
-0.03088648124300019
 10
-0.0081798951741
 20
-0.053437235357
 42
-0.0137290435122999
 10
-0.008157288370299996
 20
-0.0533931520896
 42
-0.04852266923239978
 10
-0.008130913765799998
 20
-0.0533535901829
 10
-0.008100394580700001
 20
-0.053318172857
  0
LWPOLYLINE
  5
8A
100
AcDbEntity
  8
0
  6
ByLayer
 62
  256
370
   -1
100
AcDbPolyline
 90
    9
 70
    0
 43
0
 10
-0.008100394580700001
 20
-0.053318172857
 10
-0.0080555577532
 20
-0.0532797412905
 10
-0.008003562104399998
 20
-0.0532465846449
 42
-0.0399301976874996
 10
-0.007944030854399996
 20
-0.05321832614020001
 42
-0.01661783042279993
 10
-0.0078773407832
 20
-0.0531953425563
 42
-0.02492170006340016
 10
-0.007802738330700001
 20
-0.05317725711329999
 42
-0.01537206240160002
 10
-0.007720977057
 20
-0.0531644465911
 42
-0.02094584819569999
 10
-0.007631680182
 20
-0.0531569109899
 10
-0.0075352244858
 20
-0.0531542735294
  0
LINE
  5
8B
100
AcDbEntity
  8
0
  6
ByLayer
 62
  256
370
   -1
100
AcDbLine
 10
-0.0075352244858
 20
-0.0531542735294
 11
-0.0066030706092
 21
-0.0531542735294
  0
LWPOLYLINE
  5
8C
100
AcDbEntity
  8
0
  6
ByLayer
 62
  256
370
   -1
100
AcDbPolyline
 90
    9
 70
    0
 43
0
 10
-0.0066030706092
 20
-0.0531542735294
 10
-0.0065013399921
 20
-0.0531565342098
 42
-0.00682606349890003
 10
-0.0064067681962
 20
-0.05316256269079998
 42
-0.02146519420110006
 10
-0.006319355221499999
 20
-0.0531731125326
 10
-0.006239854628200001
 20
-0.05318818373510001
 42
-0.0300558801772998
 10
-0.006167136075900002
 20
-0.0532070227383
 10
-0.006101953125000002
 20
-0.0532303831022
 42
-0.04853656318839943
 10
-0.006043928995300002
 20
-0.0532578880468
 10
-0.0059934404668
 20
-0.0532895375722
  0
LWPOLYLINE
  5
8D
100
AcDbEntity
  8
0
  6
ByLayer
 62
  256
370
   -1
100
AcDbPolyline
 90
    9
 70
    0
 43
0
 10
-0.0059934404668
 20
-0.0532895375722
 10
-0.005941444818
 20
-0.0533321137193
 10
-0.005896607990499998
 20
-0.0533822254677
 42
-0.04588348947860017
 10
-0.005858553204099997
 20
-0.0534398728174
 42
-0.02448962428400003
 10
-0.005827657238899999
 20
-0.0535046789883
 42
-0.03207757920630012
 10
-0.005803543314900001
 20
-0.0535766439804
 42
-0.01764144056810003
 10
-0.005786211432000002
 20
-0.0536557677937
 42
-0.03210531595789998
 10
-0.0057756615902
 20
-0.0537424272082
 10
-0.0057722705696
 20
-0.0538366222241
  0
LINE
  5
8E
100
AcDbEntity
  8
0
  6
ByLayer
 62
  256
370
   -1
100
AcDbLine
 10
-0.0057722705696
 20
-0.0538366222241
 11
-0.0057722705696
 21
-0.0543991548586
  0
LWPOLYLINE
  5
8F
100
AcDbEntity
  8
0
  6
ByLayer
 62
  256
370
   -1
100
AcDbPolyline
 90
    9
 70
    0
 43
0
 10
-0.0057722705696
 20
-0.0543991548586
 10
-0.0057756615902
 20
-0.0544929730943
 42
-0.01236086453639994
 10
-0.005786211432000001
 20
-0.0545800092889
 42
-0.02886617460010005
 10
-0.005803543314900001
 20
-0.0546595098823
 42
-0.02753967179110019
 10
-0.005827657238899999
 20
-0.0547318516544
 42
-0.03674605949300003
 10
-0.005858553204099998
 20
-0.0547966578253
 42
-0.02280440703169988
 10
-0.005896607990499995
 20
-0.0548546819551
 42
-0.05747441650050061
 10
-0.005941444817999997
 20
-0.0549051704836
 10
-0.0059934404668
 20
-0.0549485001908
  0
LWPOLYLINE
  5
90
100
AcDbEntity
  8
0
  6
ByLayer
 62
  256
370
   -1
100
AcDbPolyline
 90
    9
 70
    0
 43
0
 10
-0.0059934404668
 20
-0.0549485001908
 10
-0.0060439289953
 20
-0.0549797729361
 10
-0.006101953125000001
 20
-0.0550065243206
 42
-0.03391808951289989
 10
-0.006167136075900001
 20
-0.0550295079044
 42
-0.0133627764831001
 10
-0.006239854628200002
 20
-0.05504834690759999
 42
-0.0158302360891
 10
-0.006319355221500001
 20
-0.05506266454999999
 42
-0.01587653184130005
 10
-0.006406768196200002
 20
-0.0550732143918
 42
-0.01263441857209984
 10
-0.0065013399921
 20
-0.0550792428728
 10
-0.0066030706092
 20
-0.0550815035532
  0
LINE
  5
91
100
AcDbEntity
  8
0
  6
ByLayer
 62
  256
370
   -1
100
AcDbLine
 10
-0.0066030706092
 20
-0.0550815035532
 11
-0.0072827818434
 21
-0.0550815035532
  0
LWPOLYLINE
  5
92
100
AcDbEntity
  8
0
  6
ByLayer
 62
  256
370
   -1
100
AcDbPolyline
 90
   17
 70
    0
 43
0
 10
-0.0072827818434
 20
-0.0550815035532
 10
-0.0073822517801
 20
-0.055080373213
 42
-0.003145745635799995
 10
-0.007474939675600002
 20
-0.0550773589725
 42
-0.006829682627599871
 10
-0.0075608455301
 20
-0.0550724608317
 42
-0.01216635055480022
 10
-0.007640346123400005
 20
-0.0550653020105
 42
-0.00286352680439983
 10
-0.007712687895599999
 20
-0.0550558825089
 42
-0.01271702213730011
 10
-0.0077782476266
 20
-0.055044955887
 42
-0.01756778882570021
 10
-0.007837402096499999
 20
-0.0550317685848
 42
-0.01704075126600011
 10
-0.007889397745299998
 20
-0.05501632060219999
 42
-0.01921628286339996
 10
-0.007936118473100001
 20
-0.05499861193919999
 42
-0.0284668487968
 10
-0.007979071400300004
 20
-0.0549778890358
 42
-0.01396917323550002
 10
-0.008017879746800001
 20
-0.0549541518918
 42
-0.0346073407478998
 10
-0.008052920292699998
 20
-0.0549277772873
 42
-0.02828671773639977
 10
-0.008083816257899999
 20
-0.0548980116623
 42
-0.01450825302009981
 10
-0.008110567642399999
 20
-0.0548656085769
 42
-0.04856808048569981
 10
-0.008133551226300001
 20
-0.054830568031
 10
-0.0081523902294
 20
-0.0547921364646
  0
LWPOLYLINE
  5
93
100
AcDbEntity
  8
0
  6
ByLayer
 62
  256
370
   -1
100
AcDbPolyline
 90
    9
 70
    0
 43
0
 10
-0.0081523902294
 20
-0.0547921364646
 10
-0.0081659543117
 20
-0.0547567191386
 10
-0.008177257713599999
 20
-0.0547160268918
 42
-0.02629454372379994
 10
-0.008187053995299998
 20
-0.0546708132842
 42
-0.006778892306200171
 10
-0.008194966376599999
 20
-0.0546203247557
 42
-0.009665859111099913
 10
-0.008200618077499999
 20
-0.0545653148665
 42
-0.009857587557000055
 10
-0.008204762658199999
 20
-0.0545054068364
 42
-0.009006229290099935
 10
-0.0082070233386
 20
-0.0544402238855
 10
-0.0082074001187
 20
-0.0543705195737
  0
LINE
  5
94
100
AcDbEntity
  8
0
  6
ByLayer
 62
  256
370
   -1
100
AcDbLine
 10
-0.0082074001187
 20
-0.0543705195737
 11
-0.0076290427215
 21
-0.0543705195737
  0
LINE
  5
95
100
AcDbEntity
  8
0
  6
ByLayer
 62
  256
370
   -1
100
AcDbLine
 10
-0.0076290427215
 20
-0.0543705195737
 11
-0.0076290427215
 21
-0.0544225152225
  0
LWPOLYLINE
  5
96
100
AcDbEntity
  8
0
  6
ByLayer
 62
  256
370
   -1
100
AcDbPolyline
 90
    9
 70
    0
 43
0
 10
-0.0076290427215
 20
-0.0544225152225
 10
-0.0076248981408
 20
-0.0544635842494
 42
0.04097947345030006
 10
-0.007612087618699998
 20
-0.0544990015753
 42
0.07945597845229865
 10
-0.007590987935099998
 20
-0.0545287672003
 42
0.0457035453954
 10
-0.007561222310099999
 20
-0.0545532579044
 42
0.05681633204879986
 10
-0.007523167523699999
 20
-0.0545724736877
 42
0.02486791946879984
 10
-0.0074768235759
 20
-0.0545860377699
 42
0.04257336037100044
 10
-0.0074218136867
 20
-0.05459432693130001
 10
-0.007358137856
 20
-0.0545969643918
  0
LINE
  5
97
100
AcDbEntity
  8
0
  6
ByLayer
 62
  256
370
   -1
100
AcDbLine
 10
-0.007358137856
 20
-0.0545969643918
 11
-0.0067281615902
 21
-0.0545969643918
  0
LWPOLYLINE
  5
98
100
AcDbEntity
  8
0
  6
ByLayer
 62
  256
370
   -1
100
AcDbPolyline
 90
    9
 70
    0
 43
0
 10
-0.0067281615902
 20
-0.0545969643918
 10
-0.0066769195016
 20
-0.0545954572715
 10
-0.0066298219937
 20
-0.0545905591307
 42
0.02614530152419997
 10
-0.0065864922864
 20
-0.0545826467494
 42
0.02225306285940013
 10
-0.0065476839399
 20
-0.0545717201275
 42
0.04153325200349955
 10
-0.0065130201741
 20
-0.0545574024851
 10
-0.006482500988899999
 20
-0.0545396938222
 42
0.06500711978710091
 10
-0.006455749604399999
 20
-0.0545189709187
 10
-0.0064335195807
 20
-0.0544952337747
  0
LWPOLYLINE
  5
99
100
AcDbEntity
  8
0
  6
ByLayer
 62
  256
370
   -1
100
AcDbPolyline
 90
    9
 70
    0
 43
0
 10
-0.0064335195807
 20
-0.0544952337747
 10
-0.006417694818
 20
-0.0544726269709
 10
-0.006404130735799999
 20
-0.0544466291465
 42
0.03779952360340013
 10
-0.006392450553799999
 20
-0.0544172403016
 42
0.007203105978699938
 10
-0.006383031052199999
 20
-0.0543848372161
 42
0.02226822106690018
 10
-0.006375495450899998
 20
-0.05434828955
 42
0.0143253309015001
 10
-0.006370220530099999
 20
-0.0543087276434
 42
0.01623016817250018
 10
-0.006367206289599999
 20
-0.0542657747161
 10
-0.0063660759494
 20
-0.0542194307684
  0
LINE
  5
9A
100
AcDbEntity
  8
0
  6
ByLayer
 62
  256
370
   -1
100
AcDbLine
 10
-0.0063660759494
 20
-0.0542194307684
 11
-0.0063660759494
 21
-0.0540163463142
  0
LWPOLYLINE
  5
9B
100
AcDbEntity
  8
0
  6
ByLayer
 62
  256
370
   -1
100
AcDbPolyline
 90
    9
 70
    0
 43
0
 10
-0.0063660759494
 20
-0.0540163463142
 10
-0.0063672062896
 20
-0.0539651042256
 42
0.008411644139099951
 10
-0.006369843749999999
 20
-0.0539180067177
 42
0.02264969310569999
 10
-0.006374741890799999
 20
-0.0538750537905
 10
-0.006381900712000001
 20
-0.0538366222241
 42
0.02422247131800001
 10
-0.006390566653500001
 20
-0.0538019584582
 42
0.02165301267719994
 10
-0.006401116495300001
 20
-0.0537718160532
 42
0.04939013061389971
 10
-0.006413927017400001
 20
-0.0537461950089
 10
-0.0064286214399
 20
-0.0537243417652
  0
LWPOLYLINE
  5
9C
100
AcDbEntity
  8
0
  6
ByLayer
 62
  256
370
   -1
100
AcDbPolyline
 90
    9
 70
    0
 43
0
 10
-0.0064286214399
 20
-0.0537243417652
 10
-0.006448214003200001
 20
-0.0537043724218
 42
0.02747576350869986
 10
-0.0064715743671
 20
-0.0536866637589
 42
0.03651131818410035
 10
-0.006499079311699999
 20
-0.0536719693364
 42
0.02809507320369999
 10
-0.006530728837000001
 20
-0.0536599123744
 42
0.02210081068739984
 10
-0.006566146163000001
 20
-0.0536504928728
 42
0.02384755170260004
 10
-0.006605708069600001
 20
-0.0536437108317
 42
0.01591334467349991
 10
-0.006649414557
 20
-0.053639943031
 42
0.004823780852599973
 10
-0.0066968888449
 20
-0.0536384359108
 42
0.004823780852599973
  0
LINE
  5
9D
100
AcDbEntity
  8
0
  6
ByLayer
 62
  256
370
   -1
100
AcDbLine
 10
-0.0066968888449
 20
-0.0536384359108
 11
-0.0073140545886
 21
-0.0536384359108
  0
LWPOLYLINE
  5
9E
100
AcDbEntity
  8
0
  6
ByLayer
 62
  256
370
   -1
100
AcDbPolyline
 90
    9
 70
    0
 43
0
 10
-0.0073140545886
 20
-0.0536384359108
 10
-0.0073600217563
 20
-0.05363881269079999
 42
0.006606052198400053
 10
-0.007401844343400001
 20
-0.05364031981109999
 42
0.01228160743749992
 10
-0.0074391455696
 20
-0.0536429572715
 10
-0.0074723022152
 20
-0.0536463482921
 42
0.03119228782350017
 10
-0.0075009375
 20
-0.0536504928728
 10
-0.0075254282041
 20
-0.0536561445737
 42
0.05098090864129967
 10
-0.0075453975475
 20
-0.0536625498348
 10
-0.0075612223101
 20
-0.053669708656
  0
LWPOLYLINE
  5
9F
100
AcDbEntity
  8
0
  6
ByLayer
 62
  256
370
   -1
100
AcDbPolyline
 90
    9
 70
    0
 43
0
 10
-0.0075612223101
 20
-0.053669708656
 10
-0.0075826987737
 20
-0.0536840262984
 10
-0.007601160996799997
 20
-0.0537028653016
 42
0.04115386942319896
 10
-0.007616608979399996
 20
-0.0537254721054
 42
0.04881166568409979
 10
-0.0076297962816
 20
-0.0537518467098
 10
-0.007639592563300001
 20
-0.053782742675
 42
0.03667668611200006
 10
-0.007646751384499999
 20
-0.0538174064408
 42
0.01501674083949991
 10
-0.007650895965199999
 20
-0.0538562147873
 42
0.006745353493600059
 10
-0.0076524030854
 20
-0.0538991677146
 42
0.006745353493600059
  0
LWPOLYLINE
  5
A0
100
AcDbEntity
  8
0
  6
ByLayer
 62
  256
370
   -1
100
AcDbPolyline
 90
    8
 70
    1
 43
0
 10
-0.0045812687896
 20
-0.0550604038696
 10
-0.0038284622231
 20
-0.0550604038696
 10
-0.0028077650316
 20
-0.0531749964329
 10
-0.0034535660601
 20
-0.0531749964329
 10
-0.0036227403085
 20
-0.0535084467889
 10
-0.0047949030854
 20
-0.0535084467889
 10
-0.0049742503956
 20
-0.0531749964329
 10
-0.0056177907437
 20
-0.0531749964329
  0
LWPOLYLINE
  5
A1
100
AcDbEntity
  8
0
  6
ByLayer
 62
  256
370
   -1
100
AcDbPolyline
 90
    9
 70
    0
 43
0
 10
9.30646756e-05
 20
-0.0549066776038
 10
6.631329109999999e-05
 20
-0.054872013838
 10
4.295292719999936e-05
 20
-0.0548324519313
 42
-0.03318663905020027
 10
2.336036389999721e-05
 20
-0.054788745444
 42
-0.02213453932539993
 10
7.158821199998466e-06
 20
-0.0547401408158
 42
-0.01818936689710005
 10
-5.274920899999802e-06
 20
-0.0546870148269
 42
-0.01922499393849999
 10
-1.431764240000083e-05
 20
-0.0546293674772
 42
-0.01855945999110006
 10
-1.959256330000042e-05
 20
-0.0545671987668
 10
-2.14764636e-05
 20
-0.0545005086956
  0
LINE
  5
A2
100
AcDbEntity
  8
0
  6
ByLayer
 62
  256
370
   -1
100
AcDbLine
 10
-2.14764636e-05
 20
-0.0545005086956
 11
-2.14764636e-05
 21
-0.0543806926355
  0
LWPOLYLINE
  5
A3
100
AcDbEntity
  8
0
  6
ByLayer
 62
  256
370
   -1
100
AcDbPolyline
 90
    9
 70
    0
 43
0
 10
-2.14764636e-05
 20
-0.0543806926355
 10
-2.034612340000004e-05
 20
-0.0543317112272
 42
-0.01829693974969992
 10
-1.770866300000013e-05
 20
-0.0542857440595
 10
-1.28105221999998e-05
 20
-0.0542431679123
 42
-0.02547115692060004
 10
-6.02848100000105e-06
 20
-0.0542036060057
 42
-0.002533866779899975
 10
3.01424049999814e-06
 20
-0.0541674351196
 42
-0.01973244775070006
 10
1.356408230000081e-05
 20
-0.0541346552541
 42
-0.03786788238299982
 10
2.637460440000139e-05
 20
-0.0541048896291
 10
4.10690269e-05
 20
-0.0540785150247
  0
LWPOLYLINE
  5
A4
100
AcDbEntity
  8
0
  6
ByLayer
 62
  256
370
   -1
100
AcDbPolyline
 90
    9
 70
    0
 43
0
 10
4.10690269e-05
 20
-0.0540785150247
 10
6.02848101e-05
 20
-0.0540502565199
 10
8.364517410000078e-05
 20
-0.0540246354756
 42
-0.05223426945209959
 10
0.0001103965585000007
 20
-0.0540008983317
 10
0.000141292523700003
 20
-0.05397979864810001
 42
-0.04026270363419907
 10
0.0001755795095000024
 20
-0.05396058286490001
 10
0.0002136342958999997
 20
-0.0539440045421
 42
-0.03400200089200006
 10
0.0002558336629999998
 20
-0.0539293101196
 10
0.0003014240506
 20
-0.0539172531576
  0
LINE
  5
A5
100
AcDbEntity
  8
0
  6
ByLayer
 62
  256
370
   -1
100
AcDbLine
 10
0.0003014240506
 20
-0.0539172531576
 11
0.0003014240506
 21
-0.0539119782367
  0
LWPOLYLINE
  5
A6
100
AcDbEntity
  8
0
  6
ByLayer
 62
  256
370
   -1
100
AcDbPolyline
 90
    9
 70
    0
 43
0
 10
0.0003014240506
 20
-0.0539119782367
 10
0.0002648763845
 20
-0.0539040658554
 10
0.0002309661788000001
 20
-0.0538946463538
 42
-0.03246877086899996
 10
0.0001993166535000001
 20
-0.053884096512
 10
0.0001703045886000019
 20
-0.05387166276989999
 42
-0.04012148028939908
 10
0.0001439299842000023
 20
-0.05385809868769999
 10
0.0001201928401999986
 20
-0.0538426507051
 42
-0.04753063166680058
 10
9.871637659999854e-05
 20
-0.0538260723823
 10
7.98773734e-05
 20
-0.0538079869392
  0
LWPOLYLINE
  5
A7
100
AcDbEntity
  8
0
  6
ByLayer
 62
  256
370
   -1
100
AcDbPolyline
 90
    9
 70
    0
 43
0
 10
7.98773734e-05
 20
-0.0538079869392
 10
5.802412969999982e-05
 20
-0.0537816123348
 42
-0.007794702534700003
 10
3.880834650000039e-05
 20
-0.0537514699298
 42
-0.0341004335885999
 10
2.260680379999997e-05
 20
-0.0537175597241
 42
-0.02067755476700001
 10
9.41950159999796e-06
 20
-0.0536802584978
 42
-0.02611254281720012
 10
-7.53560100000706e-07
 20
-0.053639566251
 42
-0.00706023397190004
 10
-7.912381300000256e-06
 20
-0.0535951062035
 42
-0.02603708942570022
 10
-1.243374210000022e-05
 20
-0.0535468783554
 10
-1.39408623e-05
 20
-0.0534952594867
  0
LINE
  5
A8
100
AcDbEntity
  8
0
  6
ByLayer
 62
  256
370
   -1
100
AcDbLine
 10
-1.39408623e-05
 20
-0.0534952594867
 11
-1.39408623e-05
 21
-0.0531749964329
  0
LINE
  5
A9
100
AcDbEntity
  8
0
  6
ByLayer
 62
  256
370
   -1
100
AcDbLine
 10
-1.39408623e-05
 20
-0.0531749964329
 11
0.0005644165348
 21
-0.0531749964329
  0
LINE
  5
AA
100
AcDbEntity
  8
0
  6
ByLayer
 62
  256
370
   -1
100
AcDbLine
 10
0.0005644165348
 20
-0.0531749964329
 11
0.0005644165348
 21
-0.053401441251
  0
LWPOLYLINE
  5
AB
100
AcDbEntity
  8
0
  6
ByLayer
 62
  256
370
   -1
100
AcDbPolyline
 90
   17
 70
    0
 43
0
 10
0.0005644165348
 20
-0.053401441251
 10
0.0005651700949000001
 20
-0.053437235357
 42
0.02086390697319994
 10
0.0005674307753000003
 20
-0.0534700152225
 42
0.002238062276399768
 10
0.0005715753560000006
 20
-0.0534997808475
 42
0.02536968937400004
 10
0.0005772270570000024
 20
-0.0535272857921
 42
0.01867473965170007
 10
0.0005843858782000021
 20
-0.0535513997161
 42
0.02658804667799971
 10
0.0005930518195999984
 20
-0.0535728761798
 42
0.03985329591990103
 10
0.0006032248812999983
 20
-0.0535913384029
 42
0.03063550283109982
 10
0.000615281843400003
 20
-0.0536071631655
 42
0.04436355514579916
 10
0.000629222705700001
 20
-0.0536207272478
 42
0.03071505192410022
 10
0.0006458010284999994
 20
-0.0536324074298
 42
0.03728358164319992
 10
0.0006650168116999989
 20
-0.0536422037114
 42
0.01972968952710034
 10
0.0006868700554
 20
-0.0536501160927
 42
0.02673047446549975
 10
0.0007117375396
 20
-0.0536565213538
 42
0.01519592804289989
 10
0.000738865704099999
 20
-0.0536610427146
 42
0.02374271380980023
 10
0.0007690081092
 20
-0.053663680175
 10
0.0008014111946
 20
-0.0536644337351
  0
LINE
  5
AC
100
AcDbEntity
  8
0
  6
ByLayer
 62
  256
370
   -1
100
AcDbLine
 10
0.0008014111946
 20
-0.0536644337351
 11
0.0017102047073
 21
-0.0536644337351
  0
LINE
  5
AD
100
AcDbEntity
  8
0
  6
ByLayer
 62
  256
370
   -1
100
AcDbLine
 10
0.0017102047073
 20
-0.0536644337351
 11
0.0017102047073
 21
-0.0531749964329
  0
LINE
  5
AE
100
AcDbEntity
  8
0
  6
ByLayer
 62
  256
370
   -1
100
AcDbLine
 10
0.0017102047073
 20
-0.0531749964329
 11
0.0022885621044
 21
-0.0531749964329
  0
LINE
  5
AF
100
AcDbEntity
  8
0
  6
ByLayer
 62
  256
370
   -1
100
AcDbLine
 10
0.0022885621044
 20
-0.0531749964329
 11
0.0022885621044
 21
-0.0550604038696
  0
LINE
  5
B0
100
AcDbEntity
  8
0
  6
ByLayer
 62
  256
370
   -1
100
AcDbLine
 10
0.0022885621044
 20
-0.0550604038696
 11
0.0005436936312999999
 21
-0.0550604038696
  0
LWPOLYLINE
  5
B1
100
AcDbEntity
  8
0
  6
ByLayer
 62
  256
370
   -1
100
AcDbPolyline
 90
    9
 70
    0
 43
0
 10
0.0005436936312999999
 20
-0.0550604038696
 10
0.0004675840584999985
 20
-0.0550581431892
 42
-0.009644050845899881
 10
0.0003971261866999992
 20
-0.055050984368
 42
-0.02776744948039998
 10
0.0003323200158000008
 20
-0.05503892740599999
 42
-0.0183448375469997
 10
0.0002731655459000011
 20
-0.0550219723032
 42
-0.0354648625913004
 10
0.0002196627769000012
 20
-0.05500049583959999
 42
-0.01521491712609989
 10
0.0001718117089000021
 20
-0.0549741212351
 42
-0.05580665392190014
 10
0.0001296123417999994
 20
-0.0549428484899
 10
9.30646756e-05
 20
-0.0549066776038
  0
CIRCLE
  5
B2
100
AcDbEntity
  8
0
  6
ByLayer
 62
  256
370
   -1
100
AcDbCircle
 10
-0.0574802
 20
0.0450088
 40
0.004064
  0
CIRCLE
  5
B3
100
AcDbEntity
  8
0
  6
ByLayer
 62
  256
370
   -1
100
AcDbCircle
 10
0.0574802
 20
-0.0450088
 40
0.004064
  0
CIRCLE
  5
B4
100
AcDbEntity
  8
0
  6
ByLayer
 62
  256
370
   -1
100
AcDbCircle
 10
0.0879856
 20
0.006985
 40
0.001524
  0
CIRCLE
  5
B5
100
AcDbEntity
  8
0
  6
ByLayer
 62
  256
370
   -1
100
AcDbCircle
 10
0.0879856
 20
0.0200025
 40
0.004064
  0
CIRCLE
  5
B6
100
AcDbEntity
  8
0
  6
ByLayer
 62
  256
370
   -1
100
AcDbCircle
 10
0.0879856
 20
0
 40
0.004064
  0
ENDSEC
  0
SECTION
  2
OBJECTS
  0
DICTIONARY
  5
C
330
0
100
AcDbDictionary
281
    1
  3
ACAD_GROUP
350
D
  0
DICTIONARY
  5
D
330
C
100
AcDbDictionary
281
    1
  0
ENDSEC
  0
EOF
