0
SECTION
2
HEADER
9
$INSUNITS
70
4
9
$ACADVER
1
AC1014
9
$HANDSEED
5
FFFF
0
ENDSEC
0
SECTION
2
TABLES
0
TABLE
2
VPORT
5
8
100
AcDbSymbolTable
0
ENDTAB
0
TABLE
2
LTYPE
5
5
100
AcDbSymbolTable
0
LTYPE
5
14
100
AcDbSymbolTableRecord
100
AcDbLinetypeTableRecord
2
BYBLOCK
70
0
0
LTYPE
5
15
100
AcDbSymbolTableRecord
100
AcDbLinetypeTableRecord
2
BYLAYER
70
0
0
ENDTAB
0
TABLE
2
LAYER
5
2
100
AcDbSymbolTable
70
2
0
LAYER
5
50
100
AcDbSymbolTableRecord
100
AcDbLayerTableRecord
2
0
70
0
6
CONTINUOUS
0
ENDTAB
0
TABLE
2
STYLE
5
3
100
AcDbSymbolTable
70
1
0
STYLE
5
11
100
AcDbSymbolTableRecord
100
AcDbTextStyleTableRecord
2
STANDARD
70
0
0
ENDTAB
0
TABLE
2
VIEW
5
6
100
AcDbSymbolTable
70
0
0
ENDTAB
0
TABLE
2
UCS
5
7
100
AcDbSymbolTable
70
0
0
ENDTAB
0
TABLE
2
APPID
5
9
100
AcDbSymbolTable
70
2
0
APPID
5
12
100
AcDbSymbolTableRecord
100
AcDbRegAppTableRecord
2
ACAD
70
0
0
ENDTAB
0
TABLE
2
DIMSTYLE
5
A
100
AcDbSymbolTable
70
1
0
ENDTAB
0
TABLE
2
BLOCK_RECORD
5
1
100
AcDbSymbolTable
70
1
0
BLOCK_RECORD
5
1F
100
AcDbSymbolTableRecord
100
AcDbBlockTableRecord
2
*MODEL_SPACE
0
BLOCK_RECORD
5
1B
100
AcDbSymbolTableRecord
100
AcDbBlockTableRecord
2
*PAPER_SPACE
0
ENDTAB
0
ENDSEC
0
SECTION
2
BLOCKS
0
BLOCK
5
20
100
AcDbEntity
100
AcDbBlockBegin
2
*MODEL_SPACE
0
ENDBLK
5
21
100
AcDbEntity
100
AcDbBlockEnd
0
BLOCK
5
1C
100
AcDbEntity
100
AcDbBlockBegin
2
*PAPER_SPACE
0
ENDBLK
5
1D
100
AcDbEntity
100
AcDbBlockEnd
0
ENDSEC
0
SECTION
2
ENTITIES
0
LWPOLYLINE
5
100
100
AcDbEntity
8
0
100
AcDbPolyline
90
20
70
1
43
0.0
10
-93.977206000000422
20
-37.823033232918057
42
-0.41421356237309542
10
-86.828015232918702
20
-44.972223999999756
10
-86.82801523291829
20
-53.972206000000405
42
0.41421356237309503
10
-84.577224799999883
20
-56.222996432918784
10
84.577224799999883
20
-56.222996432918308
42
0.41421356237309503
10
86.828015232918276
20
-53.972206000000405
10
86.828015232918702
20
-44.972223999999756
42
-0.4142135623730947
10
93.977206000000407
20
-37.82303323291805
42
0.41421356237309503
10
96.227996432918346
20
-35.572242800000097
10
96.227996432918289
20
35.572242800000097
42
0.41421356237309503
10
93.977206000000422
20
37.823033232918057
42
-0.4142135623730947
10
86.828015232918702
20
44.972223999999756
10
86.828015232918702
20
53.972206000000405
42
0.41421356237309503
10
84.577224799999883
20
56.222996432918784
10
-84.577224799999883
20
56.222996432918308
42
0.41421356237309503
10
-86.828015232918276
20
53.972206000000405
10
-86.828015232918702
20
44.972223999999756
42
-0.4142135623730947
10
-93.977206000000407
20
37.82303323291805
42
0.41421356237309503
10
-96.227996432918346
20
35.572242800000097
10
-96.227996432918289
20
-35.572242800000097
42
0.41421356237309276
0
CIRCLE
5
101
100
AcDbEntity
8
0
100
AcDbCircle
10
87.985600000000005
20
-20.002499999999998
30
0
40
4.0640000000000001
210
0
220
0
230
1
0
CIRCLE
5
102
100
AcDbEntity
8
0
100
AcDbCircle
10
87.985600000000005
20
-6.9850000000000003
30
0
40
1.5239999999999998
210
0
220
0
230
1
0
CIRCLE
5
103
100
AcDbEntity
8
0
100
AcDbCircle
10
-87.985600000000005
20
0
30
0
40
4.0640000000000001
210
0
220
-0
230
1
0
CIRCLE
5
104
100
AcDbEntity
8
0
100
AcDbCircle
10
-87.985600000000005
20
-20.002499999999998
30
0
40
4.0640000000000001
210
0
220
-0
230
1
0
CIRCLE
5
105
100
AcDbEntity
8
0
100
AcDbCircle
10
-87.985600000000005
20
20.002499999999998
30
0
40
4.0640000000000001
210
0
220
-0
230
1
0
CIRCLE
5
106
100
AcDbEntity
8
0
100
AcDbCircle
10
-87.985600000000005
20
-6.9850000000000003
30
0
40
1.5239999999999998
210
0
220
-0
230
1
0
CIRCLE
5
107
100
AcDbEntity
8
0
100
AcDbCircle
10
-87.985600000000005
20
6.9850000000000003
30
0
40
1.5239999999999998
210
0
220
-0
230
1
0
CIRCLE
5
108
100
AcDbEntity
8
0
100
AcDbCircle
10
80.009999999999991
20
-45.008800000000008
30
0
40
4.0640000000000001
210
0
220
0
230
1
0
CIRCLE
5
109
100
AcDbEntity
8
0
100
AcDbCircle
10
-80.009999999999991
20
-45.008800000000008
30
0
40
4.0640000000000001
210
0
220
-0
230
1
0
CIRCLE
5
110
100
AcDbEntity
8
0
100
AcDbCircle
10
-57.480200000000004
20
-45.008800000000008
30
0
40
4.0640000000000001
210
0
220
-0
230
1
0
CIRCLE
5
111
100
AcDbEntity
8
0
100
AcDbCircle
10
80.009999999999991
20
45.008800000000008
30
0
40
4.0640000000000001
210
0
220
-0
230
1
0
CIRCLE
5
112
100
AcDbEntity
8
0
100
AcDbCircle
10
57.480200000000004
20
45.008800000000008
30
0
40
4.0640000000000001
210
0
220
-0
230
1
0
CIRCLE
5
113
100
AcDbEntity
8
0
100
AcDbCircle
10
-80.009999999999991
20
45.008800000000008
30
0
40
4.0640000000000001
210
0
220
0
230
1
0
SPLINE
5
114
100
AcDbEntity
8
0
100
AcDbSpline
70
0
71
3
72
15
73
11
74
0
42
0.000000001
43
0.0000000001
44
0.0000000001
40
0
40
0
40
0
40
0
40
0.17347775223086701
40
0.333288490958975
40
0.47890624446575897
40
0.61088439230139002
40
0.72869611102720799
40
0.832996319068258
40
0.923225503501927
40
1
40
1
40
1
40
1
10
6.1874821993670901
20
-54.346782429754199
30
0
10
6.1476686463356414
20
-54.346742530456503
30
0
10
6.0711781520853405
20
-54.346665875227899
30
0
10
5.9612753542174097
20
-54.34519222822221
30
0
10
5.8609217768845303
20
-54.342538402285797
30
0
10
5.7702411527172801
20
-54.339132167997199
30
0
10
5.6890530670793504
20
-54.335370534971695
30
0
10
5.6176017787396004
20
-54.329545612903196
30
0
10
5.5556198709927704
20
-54.323469954608193
30
0
10
5.5176779327742498
20
-54.3180166592266
30
0
10
5.5002353639240509
20
-54.315509684501002
30
0
0
SPLINE
5
115
100
AcDbEntity
8
0
100
AcDbSpline
70
0
71
3
72
23
73
19
74
0
42
0.000000001
43
0.0000000001
44
0.0000000001
40
0
40
0
40
0
40
0
40
0.074101308409962902
40
0.143441810407194
40
0.20788919932122998
40
0.26766314155658
40
0.32365632922680754
40
0.37668389466867103
40
0.42675683738403197
40
0.475380107682564
40
0.52473241001816806
40
0.57790873243047303
40
0.63534378816993797
40
0.69769766120327092
40
0.76486696348929206
40
0.83753710660277103
40
0.91601353019867793
40
1
40
1
40
1
40
1
10
5.5002353639240509
20
-54.315509684501002
30
0
10
5.4808408427841693
20
-54.311865003700994
30
0
10
5.4432978454474199
20
-54.304809802874907
30
0
10
5.38975288214088
20
-54.290532689081992
30
0
10
5.3410608506052393
20
-54.273551299783598
30
0
10
5.2969048190493204
20
-54.254590333683304
30
0
10
5.2578378301217397
20
-54.232173494924197
30
0
10
5.2234367237789803
20
-54.207345703346697
30
0
10
5.1934339762353208
20
-54.180101334025309
30
0
10
5.1686212277583294
20
-54.149287619300395
30
0
10
5.1475418768027401
20
-54.114906155252491
30
0
10
5.1294381374585711
20
-54.076254406643606
30
0
10
5.1145584963986401
20
-54.032596899903503
30
0
10
5.10228557871182
20
-53.9843195856335
30
0
10
5.0924308771982698
20
-53.931349057620501
30
0
10
5.0859445082615391
20
-53.87355234550401
30
0
10
5.0817435055398299
20
-53.811063197814903
30
0
10
5.0811737124814709
20
-53.767804416027502
30
0
10
5.0808791534810105
20
-53.745441448741609
30
0
0
SPLINE
5
116
100
AcDbEntity
8
0
100
AcDbSpline
70
0
71
3
72
23
73
19
74
0
42
0.000000001
43
0.0000000001
44
0.0000000001
40
0
40
0
40
0
40
0
40
0.0864176385187162
40
0.167295734330145
40
0.24220264022308149
40
0.31143982522721503
40
0.37631987681640749
40
0.43588912338475649
40
0.490851643956629
40
0.54201286204105603
40
0.59139287624401904
40
0.64192761754918803
40
0.69406322511746898
40
0.748161763735811
40
0.80510494391387599
40
0.86631648882894907
40
0.9311077724678799
40
1
40
1
40
1
40
1
10
5.0808791534810105
20
-53.745441448741609
30
0
10
5.0810321766745501
20
-53.724459396110298
30
0
10
5.0813284139702199
20
-53.6838402822018
30
0
10
5.085399431511
20
-53.625163507965198
30
0
10
5.0906688004238001
20
-53.570780648227199
30
0
10
5.0989326292769199
20
-53.5206655793707
30
0
10
5.1099132650552495
20
-53.474928297014905
30
0
10
5.1223677167645594
20
-53.433139070671999
30
0
10
5.1379759364053399
20
-53.395995428908904
30
0
10
5.1557341521716396
20
-53.362608079524996
30
0
10
5.1769002231697803
20
-53.332534737144201
30
0
10
5.2019186471618397
20
-53.305254657940594
30
0
10
5.2311616128491405
20
-53.2807458537497
30
0
10
5.26427181247315
20
-53.258886061893698
30
0
10
5.3011820232844702
20
-53.239109623512604
30
0
10
5.34221356464578
20
-53.221970109594793
30
0
10
5.3872376226468894
20
-53.2072635948591
30
0
10
5.4187914952766896
20
-53.199645323221098
30
0
10
5.4350524129746898
20
-53.195719336399804
30
0
0
SPLINE
5
117
100
AcDbEntity
8
0
100
AcDbSpline
70
0
71
3
72
15
73
11
74
0
42
0.000000001
43
0.0000000001
44
0.0000000001
40
0
40
0
40
0
40
0
40
0.084902342041171502
40
0.18135829593696398
40
0.28899710266943451
40
0.40786217573040001
40
0.53813217063378005
40
0.68039597771517002
40
0.83412827522858501
40
1
40
1
40
1
40
1
10
5.4350524129746898
20
-53.195719336399804
30
0
10
5.4513470010916398
20
-53.192271755816904
30
0
10
5.4861535642892996
20
-53.184907443778201
30
0
10
5.5423282973179102
20
-53.177145592501596
30
0
10
5.6052424844982891
20
-53.169803167716303
30
0
10
5.6750281735062602
20
-53.164598225236908
30
0
10
5.7516092546542197
20
-53.159293680079102
30
0
10
5.8351797596473096
20
-53.156727184702191
30
0
10
5.9257356470498301
20
-53.154721485782296
30
0
10
5.9884152429497108
20
-53.154426581968096
30
0
10
6.0209454113924101
20
-53.154273529437802
30
0
0
LINE
5
118
100
AcDbEntity
8
0
100
AcDbLine
10
6.0209454113924101
20
-53.154273529437795
30
0
11
6.7213795490506296
21
-53.154273529437802
31
0
0
SPLINE
5
119
100
AcDbEntity
8
0
100
AcDbSpline
70
0
71
3
72
15
73
11
74
0
42
0.000000001
43
0.0000000001
44
0.0000000001
40
0
40
0
40
0
40
0
40
0.16936878696464602
40
0.32532019417958552
40
0.468069342786684
40
0.59791158960745894
40
0.71537428762918609
40
0.82090311930527904
40
0.91548791720298195
40
1
40
1
40
1
40
1
10
6.7213795490506296
20
-53.154273529437802
30
0
10
6.7541664667800196
20
-53.154501700696706
30
0
10
6.8171429256271798
20
-53.154939967508305
30
0
10
6.9076408870863197
20
-53.159937175944599
30
0
10
6.9902488132651595
20
-53.167673820483301
30
0
10
7.0650429352062405
20
-53.178286374304406
30
0
10
7.131907507104339
20
-53.192516430612606
30
0
10
7.1909852662405704
20
-53.209624115368698
30
0
10
7.24245141187515
20
-53.2298342885952
30
0
10
7.2724119098446902
20
-53.247358198740301
30
0
10
7.2865496439873398
20
-53.255627366463102
30
0
0
SPLINE
5
120
100
AcDbEntity
8
0
100
AcDbSpline
70
0
71
3
72
15
73
11
74
0
42
0.000000001
43
0.0000000001
44
0.0000000001
40
0
40
0
40
0
40
0
40
0.10969011294918579
40
0.2183706454377265
40
0.32972905289443855
40
0.44596886316205248
40
0.56978935085738103
40
0.70206201019133696
40
0.84541402219880601
40
1
40
1
40
1
40
1
10
7.2865496439873398
20
-53.255627366463102
30
0
10
7.3003644779993504
20
-53.265353933366804
30
0
10
7.3278669952154099
20
-53.284717544503401
30
0
10
7.3626379237571609
20
-53.321971590156295
30
0
10
7.3929208363030794
20
-53.3640276572077
30
0
10
7.4169128232452994
20
-53.412639433656707
30
0
10
7.4358044603350688
20
-53.466792304327001
30
0
10
7.4485442671339408
20
-53.526941061011506
30
0
10
7.4571404554421701
20
-53.592597924683602
30
0
10
7.4579442840676702
20
-53.6384056075416
30
0
10
7.4583613528480992
20
-53.662173054754199
30
0
0
LINE
5
121
100
AcDbEntity
8
0
100
AcDbLine
10
7.458361352848101
20
-53.662173054754199
30
0
11
7.4583613528480992
21
-53.792162176589699
31
0
0
LINE
5
122
100
AcDbEntity
8
0
100
AcDbLine
10
7.4583613528480992
20
-53.792162176589699
30
0
11
6.8803807357594993
21
-53.792162176589699
31
0
0
SPLINE
5
123
100
AcDbEntity
8
0
100
AcDbSpline
70
0
71
3
72
15
73
11
74
0
42
0.000000001
43
0.0000000001
44
0.0000000001
40
0
40
0
40
0
40
0
40
0.168344712387407
40
0.3223447140310155
40
0.46279978742396399
40
0.58842662418046898
40
0.70457209173961299
40
0.80957708119911809
40
0.907563681750299
40
1
40
1
40
1
40
1
10
6.8803807357594993
20
-53.792162176589699
30
0
10
6.88003042803917
20
-53.7809754309935
30
0
10
6.8793596624396303
20
-53.759555166234406
30
0
10
6.8759952093320296
20
-53.728942595614804
30
0
10
6.8707812510418007
20
-53.701483829239706
30
0
10
6.86402893948142
20
-53.676963645374009
30
0
10
6.8555876641675297
20
-53.655436323905896
30
0
10
6.8449061297480593
20
-53.6370348121525
30
0
10
6.8325087816027796
20
-53.621624752784001
30
0
10
6.8226304490089396
20
-53.613664663637898
30
0
10
6.8178352452531712
20
-53.609800625956709
30
0
0
SPLINE
5
124
100
AcDbEntity
8
0
100
AcDbSpline
70
0
71
3
72
15
73
11
74
0
42
0.000000001
43
0.0000000001
44
0.0000000001
40
0
40
0
40
0
40
0
40
0.079660758277452906
40
0.17063884528428749
40
0.27309700335939302
40
0.39060324692638154
40
0.52088378051057105
40
0.66595226655497997
40
0.82433863481880798
40
1
40
1
40
1
40
1
10
6.8178352452531712
20
-53.609800625956709
30
0
10
6.8135151740563407
20
-53.607017045334196
30
0
10
6.80426128322586
20
-53.601054423417899
30
0
10
6.7877833623441397
20
-53.594730734705898
30
0
10
6.768806575948549
20
-53.588327467340406
30
0
10
6.7465683906150096
20
-53.584346663152999
30
0
10
6.7216099449348397
20
-53.580336347050505
30
0
10
6.6937760770220596
20
-53.5780284786713
30
0
10
6.6630123665234997
20
-53.575836721766599
30
0
10
6.6415073427226599
20
-53.575871914115005
30
0
10
6.630198773734179
20
-53.5758904202605
30
0
0
LINE
5
125
100
AcDbEntity
8
0
100
AcDbLine
10
6.630198773734179
20
-53.5758904202605
30
0
11
5.92185225474684
21
-53.5758904202605
31
0
0
SPLINE
5
126
100
AcDbEntity
8
0
100
AcDbSpline
70
0
71
3
72
11
73
7
74
0
42
0.000000001
43
0.0000000001
44
0.0000000001
40
0
40
0
40
0
40
0
40
0.31684875556897496
40
0.58725645866278109
40
0.81259238815236201
40
1
40
1
40
1
40
1
10
5.92185225474684
20
-53.5758904202605
30
0
10
5.90361218332517
20
-53.576014978004203
30
0
10
5.8698055182820594
20
-53.576245836854497
30
0
10
5.8234409498393402
20
-53.581952908500199
30
0
10
5.7844894708120798
20
-53.588617436756209
30
0
10
5.7626116881299296
20
-53.598003328535306
30
0
10
5.7526780063291207
20
-53.602265024690901
30
0
0
SPLINE
5
127
100
AcDbEntity
8
0
100
AcDbSpline
70
0
71
3
72
15
73
11
74
0
42
0.000000001
43
0.0000000001
44
0.0000000001
40
0
40
0
40
0
40
0
40
0.12627352448325521
40
0.24475349865873453
40
0.36000968981082904
40
0.477170321457074
40
0.59522703217394901
40
0.72011589067807302
40
0.85521944737281497
40
1
40
1
40
1
40
1
10
5.7526780063291207
20
-53.602265024690901
30
0
10
5.7464228379804609
20
-53.605220830206989
30
0
10
5.7342985677163796
20
-53.610950010131091
30
0
10
5.7181408563788807
20
-53.622427977661502
30
0
10
5.7046991542924896
20
-53.636286514775904
30
0
10
5.6939202579250505
20
-53.652217536169999
30
0
10
5.6848770012336791
20
-53.669820370949502
30
0
10
5.6790904678221601
20
-53.689764935811795
30
0
10
5.6751609918370498
20
-53.711626584805998
30
0
10
5.6748469718457208
20
-53.726959883264797
30
0
10
5.6746845332278495
20
-53.734891606969398
30
0
0
SPLINE
5
128
100
AcDbEntity
8
0
100
AcDbSpline
70
0
71
3
72
11
73
7
74
0
42
0.000000001
43
0.0000000001
44
0.0000000001
40
0
40
0
40
0
40
0
40
0.3054564053691215
40
0.565937271085872
40
0.79064557199257701
40
1
40
1
40
1
40
1
10
5.6746845332278495
20
-53.734891606969398
30
0
10
5.6750708248304509
20
-53.748135980766406
30
0
10
5.6757865302849
20
-53.772674620756092
30
0
10
5.6838772578222896
20
-53.806135359908708
30
0
10
5.6977780495884298
20
-53.83346336190121
30
0
10
5.7119381765287605
20
-53.846015930203997
30
0
10
5.7187678006329099
20
-53.852070206652904
30
0
0
SPLINE
5
129
100
AcDbEntity
8
0
100
AcDbSpline
70
0
71
3
72
15
73
11
74
0
42
0.000000001
43
0.0000000001
44
0.0000000001
40
0
40
0
40
0
40
0
40
0.075691103873486709
40
0.16511967389114102
40
0.26798883598135947
40
0.38397082103472951
40
0.51532846756333506
40
0.66173997028721199
40
0.82390354989403092
40
1
40
1
40
1
40
1
10
5.7187678006329099
20
-53.852070206652904
30
0
10
5.7238620998574197
20
-53.8550633019073
30
0
10
5.7349752820361406
20
-53.8615927206504
30
0
10
5.7542870178724703
20
-53.8697697717285
30
0
10
5.7773405465494996
20
-53.87669779457849
30
0
10
5.80392935811504
20
-53.882982092703706
30
0
10
5.8340249967683704
20
-53.889202157210093
30
0
10
5.8680596177847395
20
-53.893697961382102
30
0
10
5.9055650015214001
20
-53.898504642698903
30
0
10
5.9318865398350704
20
-53.9004274113625
30
0
10
5.9455893987341799
20
-53.901428394944098
30
0
0
SPLINE
5
130
100
AcDbEntity
8
0
100
AcDbSpline
70
0
71
3
72
15
73
11
74
0
42
0.000000001
43
0.0000000001
44
0.0000000001
40
0
40
0
40
0
40
0
40
0.071747080286509987
40
0.15806549023595748
40
0.26037923074952851
40
0.37728458935723003
40
0.51018094745398301
40
0.65838314791087604
40
0.82119114273229898
40
1
40
1
40
1
40
1
10
5.9455893987341799
20
-53.901428394944098
30
0
10
5.9585235268394303
20
-53.902105094536097
30
0
10
5.9870186139087096
20
-53.903595926669198
30
0
10
6.0340058706617503
20
-53.904882854084299
30
0
10
6.0891350762965395
20
-53.9065137898573
30
0
10
6.1526897635319102
20
-53.9075869105789
30
0
10
6.2245321814971195
20
-53.908208452442395
30
0
10
6.3046590127217694
20
-53.9090845674367
30
0
10
6.3930782725818798
20
-53.909414969239798
30
0
10
6.4547448645946996
20
-53.909366267634098
30
0
10
6.4870223496835502
20
-53.909340776273204
30
0
0
SPLINE
5
131
100
AcDbEntity
8
0
100
AcDbSpline
70
0
71
3
72
15
73
11
74
0
42
0.000000001
43
0.0000000001
44
0.0000000001
40
0
40
0
40
0
40
0
40
0.16638376879455899
40
0.32103304631483398
40
0.46401702583206605
40
0.59475748266203499
40
0.71330196423042702
40
0.820362025140004
40
0.91606204539394498
40
1
40
1
40
1
40
1
10
6.4870223496835502
20
-53.909340776273204
30
0
10
6.5225654622680302
20
-53.909524604013406
30
0
10
6.5911449504667594
20
-53.909879294737394
30
0
10
6.6902657383431494
20
-53.911479332836493
30
0
10
6.7817014194951213
20
-53.915401682391703
30
0
10
6.8653625236756604
20
-53.920213207467199
30
0
10
6.9412755591982105
20
-53.926046386260197
30
0
10
7.0095055145668095
20
-53.933566722799696
30
0
10
7.0701793721445894
20
-53.942182243319905
30
0
10
7.1077380454568893
20
-53.950100789834806
30
0
10
7.1252877768987402
20
-53.953800823741602
30
0
0
SPLINE
5
132
100
AcDbEntity
8
0
100
AcDbSpline
70
0
71
3
72
15
73
11
74
0
42
0.000000001
43
0.0000000001
44
0.0000000001
40
0
40
0
40
0
40
0
40
0.15205931335401801
40
0.29444669743870949
40
0.42824919917147253
40
0.55324118480021101
40
0.67183268891618197
40
0.78409859274133498
40
0.89314750953503297
40
1
40
1
40
1
40
1
10
7.1252877768987402
20
-53.953800823741602
30
0
10
7.1415729388588698
20
-53.957787451564997
30
0
10
7.1731074239926604
20
-53.965507132593693
30
0
10
7.2176037549728198
20
-53.9813737700795
30
0
10
7.2585045679480107
20
-53.998245960461198
30
0
10
7.2950258150753813
20
-54.018343622087599
30
0
10
7.3270792058410503
20
-54.041045335653507
30
0
10
7.3554251064795206
20
-54.065622787899102
30
0
10
7.3795087821286698
20
-54.092824285821301
30
0
10
7.3921814501161895
20
-54.112993204759903
30
0
10
7.3984533227848095
20
-54.122975072159292
30
0
0
SPLINE
5
133
100
AcDbEntity
8
0
100
AcDbSpline
70
0
71
3
72
15
73
11
74
0
42
0.000000001
43
0.0000000001
44
0.0000000001
40
0
40
0
40
0
40
0
40
0.0865846488626206
40
0.18270846210929151
40
0.29024616566540351
40
0.4080193091101465
40
0.53814520980916491
40
0.67920370045568101
40
0.83346313510404002
40
1
40
1
40
1
40
1
10
7.3984533227848095
20
-54.122975072159292
30
0
10
7.4031830636331701
20
-54.132302778992411
30
0
10
7.4131636281781601
20
-54.151985840515103
30
0
10
7.4245964860841696
20
-54.185201838386696
30
0
10
7.4340745512288198
20
-54.222821816035001
30
0
10
7.4426240205884708
20
-54.264889212544702
30
0
10
7.44819905361061
20
-54.311527487922092
30
0
10
7.4527241740127401
20
-54.362664397226197
30
0
10
7.4559167349440791
20
-54.418331218249001
30
0
10
7.4560378153084805
20
-54.457048698828302
30
0
10
7.4561006724683594
20
-54.477148331652899
30
0
0
SPLINE
5
134
100
AcDbEntity
8
0
100
AcDbSpline
70
0
71
3
72
15
73
11
74
0
42
0.000000001
43
0.0000000001
44
0.0000000001
40
0
40
0
40
0
40
0
40
0.166054531407236
40
0.31917322481404647
40
0.45970112848536804
40
0.58830422759551093
40
0.70497174405040697
40
0.81156667035005903
40
0.90904857000267592
40
1
40
1
40
1
40
1
10
7.4561006724683594
20
-54.477148331652998
30
0
10
7.455912830812589
20
-54.502153640199104
30
0
10
7.4555517805809899
20
-54.550216315143906
30
0
10
7.4500108096246294
20
-54.619245126439807
30
0
10
7.4420632299720699
20
-54.682346416106398
30
0
10
7.43054658423583
20
-54.739328052175999
30
0
10
7.4156543849894501
20
-54.790272292777196
30
0
10
7.3970813643120898
20
-54.834881265700503
30
0
10
7.3760879278742797
20
-54.874293528094498
30
0
10
7.3578824182405995
20
-54.896135232063699
30
0
10
7.3490951344936706
20
-54.906677603804795
30
0
0
SPLINE
5
135
100
AcDbEntity
8
0
100
AcDbSpline
70
0
71
3
72
23
73
19
74
0
42
0.000000001
43
0.0000000001
44
0.0000000001
40
0
40
0
40
0
40
0
40
0.042994295894656247
40
0.087689260577145003
40
0.1340765494174514
40
0.18249385412733948
40
0.233478817160723
40
0.28701564331887847
40
0.34332932892099
40
0.40276469648855745
40
0.46530966286518399
40
0.53121375138614402
40
0.60047361895097595
40
0.67319791858904598
40
0.74952878059273698
40
0.82894043785646399
40
0.912588776581582
40
1
40
1
40
1
40
1
10
7.3490951344936706
20
-54.906677603804901
30
0
10
7.3421834712341196
20
-54.913838397281694
30
0
10
7.3280867491462898
20
-54.928443234320305
30
0
10
7.3042133526362196
20
-54.948339908465996
30
0
10
7.2777436644026592
20
-54.966865170427191
30
0
10
7.2485057798917296
20
-54.983741621581089
30
0
10
7.216867258676281
20
-54.999627057215399
30
0
10
7.1824760912583496
20
-55.013918650374805
30
0
10
7.1454038101490998
20
-55.026589465445099
30
0
10
7.1058593285126808
20
-55.038379660119901
30
0
10
7.0635374031595504
20
-55.048358422819391
30
0
10
7.0187125567959194
20
-55.057496400090898
30
0
10
6.9711864660733189
20
-55.064979980358601
30
0
10
6.921016960173521
20
-55.0708562831474
30
0
10
6.8683908021162594
20
-55.075832186794898
30
0
10
6.8131004429512396
20
-55.079190186788303
30
0
10
6.7551763655707395
20
-55.08098952552939
30
0
10
6.7156034402729894
20
-55.081329716175205
30
0
10
6.6953817246835499
20
-55.081503553171899
30
0
0
LINE
5
136
100
AcDbEntity
8
0
100
AcDbLine
10
6.6953817246835516
20
-55.081503553171899
30
0
11
5.8883188291139295
21
-55.081503553171899
31
0
0
SPLINE
5
137
100
AcDbEntity
8
0
100
AcDbSpline
70
0
71
3
72
15
73
11
74
0
42
0.000000001
43
0.0000000001
44
0.0000000001
40
0
40
0
40
0
40
0
40
0.16990282721470298
40
0.32503890388781598
40
0.46704451156594001
40
0.59596701883641101
40
0.71192092212296498
40
0.816723891444462
40
0.91240667615456006
40
1
40
1
40
1
40
1
10
5.8883188291139295
20
-55.081503553171899
30
0
10
5.8516322908567613
20
-55.0811431825461
30
0
10
5.7814477484448705
20
-55.080453762157092
30
0
10
5.6808099131438095
20
-55.073259945252687
30
0
10
5.5895020017347292
20
-55.061575637313702
30
0
10
5.5076127180129095
20
-55.044781694730709
30
0
10
5.4349671836071698
20
-55.023694769243001
30
0
10
5.3719180865047704
20
-54.9971992347837
30
0
10
5.3172650180187802
20
-54.966691134156804
30
0
10
5.2875943136261494
20
-54.940361184894506
30
0
10
5.2734137658227898
20
-54.927777287349102
30
0
0
SPLINE
5
138
100
AcDbEntity
8
0
100
AcDbSpline
70
0
71
3
72
15
73
11
74
0
42
0.000000001
43
0.0000000001
44
0.0000000001
40
0
40
0
40
0
40
0
40
0.095723375792251902
40
0.197354477734973
40
0.30557365450537699
40
0.42308193528306803
40
0.54999227291032404
40
0.68831771976869105
40
0.83780850677732599
40
1
40
1
40
1
40
1
10
5.2734137658227898
20
-54.927777287349102
30
0
10
5.26417109286038
20
-54.917607547139902
30
0
10
5.2451153201165202
20
-54.896640424416809
30
0
10
5.2220380777628996
20
-54.859150835597895
30
0
10
5.2024128700852206
20
-54.816467831483195
30
0
10
5.1862997672113496
20
-54.768461465429006
30
0
10
5.1740855510764394
20
-54.714921957445398
30
0
10
5.1651147177350101
20
-54.656122747417498
30
0
10
5.1599513322012003
20
-54.591781479567992
30
0
10
5.1592418322334099
20
-54.547113259615195
30
0
10
5.15887262658228
20
-54.523869059501102
30
0
0
LINE
5
139
100
AcDbEntity
8
0
100
AcDbLine
10
5.1588726265822817
20
-54.523869059501102
30
0
11
5.15887262658228
21
-54.463961029437797
31
0
0
LINE
5
140
100
AcDbEntity
8
0
100
AcDbLine
10
5.15887262658228
20
-54.463961029437797
30
0
11
5.7372300237341802
21
-54.463961029437797
31
0
0
SPLINE
5
141
100
AcDbEntity
8
0
100
AcDbSpline
70
0
71
3
72
15
73
11
74
0
42
0.000000001
43
0.0000000001
44
0.0000000001
40
0
40
0
40
0
40
0
40
0.173550094870288
40
0.33084899652614302
40
0.47234598063470901
40
0.60148895570928196
40
0.71723240105861297
40
0.82033007645842893
40
0.912616907704215
40
1
40
1
40
1
40
1
10
5.7372300237341802
20
-54.463961029437797
30
0
10
5.7373870330521601
20
-54.473133174154704
30
0
10
5.7376863493696604
20
-54.490618585948198
30
0
10
5.7395795899860698
20
-54.515522518228188
30
0
10
5.7424553058086492
20
-54.537970412970502
30
0
10
5.7468453385273
20
-54.5579513702911
30
0
10
5.7528710230219691
20
-54.575377022270004
30
0
10
5.7599945258100398
20
-54.590217242637202
30
0
10
5.7682793075082799
20
-54.602801505975989
30
0
10
5.775273958066399
20
-54.609267577834103
30
0
10
5.7786758306962094
20
-54.6124123743745
30
0
0
SPLINE
5
142
100
AcDbEntity
8
0
100
AcDbSpline
70
0
71
3
72
15
73
11
74
0
42
0.000000001
43
0.0000000001
44
0.0000000001
40
0
40
0
40
0
40
0
40
0.074982330000562897
40
0.1618610197516985
40
0.26264565690311603
40
0.3782273464600755
40
0.50872862452784295
40
0.65521248663016407
40
0.81937272449813503
40
1
40
1
40
1
40
1
10
5.7786758306962094
20
-54.6124123743745
30
0
10
5.7835946393026196
20
-54.616212133553795
30
0
10
5.7942126525997795
20
-54.6244145046401
30
0
10
5.8138222058481306
20
-54.634150300558204
30
0
10
5.8378114355652304
20
-54.641624614262099
30
0
10
5.8656882187233306
20
-54.648605956419594
30
0
10
5.8979067056358305
20
-54.6530651753055
30
0
10
5.9342053499236203
20
-54.656958474905899
30
0
10
5.9748275478543995
20
-54.659111906450299
30
0
10
6.0033602431285988
20
-54.659373066017196
30
0
10
6.01830795094937
20
-54.659509882285903
30
0
0
LINE
5
143
100
AcDbEntity
8
0
100
AcDbLine
10
6.01830795094937
20
-54.659509882285903
30
0
11
6.6588340585443104
21
-54.659509882285903
31
0
0
SPLINE
5
144
100
AcDbEntity
8
0
100
AcDbSpline
70
0
71
3
72
15
73
11
74
0
42
0.000000001
43
0.0000000001
44
0.0000000001
40
0
40
0
40
0
40
0
40
0.17216184450585251
40
0.32311865610989499
40
0.45515363798229702
40
0.57224966851043801
40
0.67718644846285503
40
0.77996729069359094
40
0.88435393956941
40
1
40
1
40
1
40
1
10
6.6588340585443104
20
-54.659509882285903
30
0
10
6.6759418086750797
20
-54.6591404714653
30
0
10
6.7080501614125101
20
-54.658447149851298
30
0
10
6.7528761364788998
20
-54.651752210329704
30
0
10
6.7912680207295706
20
-54.640865349508303
30
0
10
6.8227780197632892
20
-54.624677838066802
30
0
10
6.8477399638157896
20
-54.603727937575997
30
0
10
6.8654944199645493
20
-54.577870639996
30
0
10
6.8761101279976202
20
-54.547126070544309
30
0
10
6.8771806330806209
20
-54.525213128341498
30
0
10
6.87774327531646
20
-54.513695997792198
30
0
0
SPLINE
5
145
100
AcDbEntity
8
0
100
AcDbSpline
70
0
71
3
72
19
73
15
74
0
42
0.000000001
43
0.0000000001
44
0.0000000001
40
0
40
0
40
0
40
0
40
0.11994512477719241
40
0.22333487413577099
40
0.31358118879817903
40
0.39659933571911399
40
0.44214875024039696
40
0.49423170183187204
40
0.55550612934931098
40
0.62599914027561598
40
0.70513145326964999
40
0.79378743193583001
40
0.89247106503268092
40
1
40
1
40
1
40
1
10
6.87774327531646
20
-54.513695997792198
30
0
10
6.8773465479949101
20
-54.500461307422796
30
0
10
6.8766078514735707
20
-54.475818639257909
30
0
10
6.8685254566359202
20
-54.441910275793504
30
0
10
6.8545288779703109
20
-54.414442566190701
30
0
10
6.8374656639674694
20
-54.396804354164402
30
0
10
6.82039999162639
20
-54.386374715905994
30
0
10
6.8041342701028693
20
-54.379787536290401
30
0
10
6.7849281962648096
20
-54.373298083141101
30
0
10
6.7622873649344903
20
-54.367978992670302
30
0
10
6.7366159925238396
20
-54.362414211358001
30
0
10
6.7074723805165206
20
-54.358671169860301
30
0
10
6.67522263721178
20
-54.354721589190504
30
0
10
6.65256393098805
20
-54.352970467748001
30
0
10
6.6407486155063298
20
-54.352057350640301
30
0
0
SPLINE
5
146
100
AcDbEntity
8
0
100
AcDbSpline
70
0
71
3
72
15
73
11
74
0
42
0.000000001
43
0.0000000001
44
0.0000000001
40
0
40
0
40
0
40
0
40
0.059893844168097003
40
0.138060574424758
40
0.23533565695750749
40
0.35086679885968547
40
0.48469030668023599
40
0.63762191779111099
40
0.80966944703467403
40
1
40
1
40
1
40
1
10
6.6407486155063298
20
-54.352057350640301
30
0
10
6.6317065965116493
20
-54.351660743384002
30
0
10
6.6108639480941802
20
-54.350746528803391
30
0
10
6.5753168429842201
20
-54.349726909921102
30
0
10
6.5313657514153096
20
-54.348357381551097
30
0
10
6.4789808945906104
20
-54.348464474816403
30
0
10
6.4182004860352704
20
-54.347316599961808
30
0
10
6.3488690961177294
20
-54.347218637013896
30
0
10
6.2710025289635096
20
-54.346653868716601
30
0
10
6.2162432309563993
20
-54.346738158520097
30
0
10
6.1874821993670901
20
-54.346782429754199
30
0
0
LWPOLYLINE
5
147
100
AcDbEntity
8
0
100
AcDbPolyline
90
12
70
1
43
0.0
10
2.6272873813291153
20
-53.628262849058004
10
4.1457110363924095
20
-53.628262849058004
10
4.1457110363924095
20
-53.930063679754205
10
2.7395678401898755
20
-53.930063679754205
10
2.7395678401898755
20
-54.320784605387104
10
4.1457110363924095
20
-54.320784605387104
10
4.1457110363924095
20
-54.62296221614659
10
2.6611975870253204
20
-54.62296221614659
10
2.6611975870253204
20
-55.060403869627599
10
4.7240684335443097
20
-55.060403869627599
10
4.7240684335443097
20
-53.174996432918803
10
2.6272873813291153
20
-53.174996432918803
0
SPLINE
5
148
100
AcDbEntity
8
0
100
AcDbSpline
70
0
71
3
72
15
73
11
74
0
42
0.000000001
43
0.0000000001
44
0.0000000001
40
0
40
0
40
0
40
0
40
0.1043589481087078
40
0.21211401098232952
40
0.3246878348864225
40
0.44307907210189501
40
0.5696021068550271
40
0.70404760608221706
40
0.847266066540731
40
1
40
1
40
1
40
1
10
-2.5349762658227797
20
-54.875781638614995
30
0
10
-2.5458768952483752
20
-54.862597493097802
30
0
10
-2.5680328892632454
20
-54.835800155277703
30
0
10
-2.5952926829142946
20
-54.789955622179804
30
0
10
-2.61886258860758
20
-54.739665216799203
30
0
10
-2.6374402570010353
20
-54.684059565298298
30
0
10
-2.6525968820148749
20
-54.623769207335897
30
0
10
-2.6629532219111902
20
-54.5583327187599
30
0
10
-2.668842147035015
20
-54.488058633156406
30
0
10
-2.6697643709150602
20
-54.439607374078598
30
0
10
-2.6702403085443001
20
-54.414602841146603
30
0
0
LINE
5
149
100
AcDbEntity
8
0
100
AcDbLine
10
-2.6702403085443001
20
-54.414602841146603
30
0
11
-2.6702403085443001
21
-54.253340974058005
31
0
0
SPLINE
5
150
100
AcDbEntity
8
0
100
AcDbSpline
70
0
71
3
72
15
73
11
74
0
42
0.000000001
43
0.0000000001
44
0.0000000001
40
0
40
0
40
0
40
0
40
0.14168709588426059
40
0.2768311970944195
40
0.40683950816557701
40
0.53144785608260003
40
0.652455564341751
40
0.77039354870385002
40
0.88605270743750808
40
1
40
1
40
1
40
1
10
-2.6702403085443001
20
-54.253340974058005
30
0
10
-2.6698699128213699
20
-54.233108348469401
30
0
10
-2.6691462259482899
20
-54.193577423460901
30
0
10
-2.6637476063957748
20
-54.135685153869787
30
0
10
-2.6551920230494703
20
-54.080662759578395
30
0
10
-2.6432237988493452
20
-54.028324609054593
30
0
10
-2.6273242087514048
20
-53.978839093275603
30
0
10
-2.6080192479007103
20
-53.932001284211005
30
0
10
-2.5857299925012551
20
-53.887539434572993
30
0
10
-2.5674222519408749
20
-53.860308995127397
30
0
10
-2.5583366297468353
20
-53.846795285766902
30
0
0
SPLINE
5
151
100
AcDbEntity
8
0
100
AcDbSpline
70
0
71
3
72
15
73
11
74
0
42
0.000000001
43
0.0000000001
44
0.0000000001
40
0
40
0
40
0
40
0
40
0.12207582984311839
40
0.24166623548486052
40
0.35918707446935849
40
0.47779842650617799
40
0.59921578433783496
40
0.72567064683746296
40
0.85880722578310198
40
1
40
1
40
1
40
1
10
-2.5583366297468353
20
-53.846795285766902
30
0
10
-2.5465731315232349
20
-53.830990811924799
30
0
10
-2.5232856360748452
20
-53.7997036381892
30
0
10
-2.4813508616544002
20
-53.759431117172902
30
0
10
-2.4353025451524299
20
-53.725071833347108
30
0
10
-2.3847939233183948
20
-53.696945668086393
30
0
10
-2.3295887358808005
20
-53.675479495668498
30
0
10
-2.2700196857231902
20
-53.6601639964152
30
0
10
-2.20598666257112
20
-53.650474662076995
30
0
10
-2.161748875550475
20
-53.649491678106799
30
0
10
-2.1389804193037953
20
-53.648985752538998
30
0
0
LINE
5
152
100
AcDbEntity
8
0
100
AcDbLine
10
-2.1389804193037958
20
-53.648985752538998
30
0
11
-0.99055478639240191
21
-53.648985752538998
31
0
0
LINE
5
153
100
AcDbEntity
8
0
100
AcDbLine
10
-0.99055478639240191
20
-53.648985752538998
30
0
11
-0.99055478639240191
21
-53.174996432918803
31
0
0
LINE
5
154
100
AcDbEntity
8
0
100
AcDbLine
10
-0.99055478639240191
20
-53.174996432918803
30
0
11
-0.41219738924050403
21
-53.174996432918803
31
0
0
LINE
5
155
100
AcDbEntity
8
0
100
AcDbLine
10
-0.41219738924050403
20
-53.174996432918803
30
0
11
-0.41219738924050403
21
-55.060403869627599
31
0
0
LINE
5
156
100
AcDbEntity
8
0
100
AcDbLine
10
-0.41219738924050403
20
-55.060403869627599
30
0
11
-1.9878916139240452
21
-55.060403869627599
31
0
0
SPLINE
5
157
100
AcDbEntity
8
0
100
AcDbSpline
70
0
71
3
72
15
73
11
74
0
42
0.000000001
43
0.0000000001
44
0.0000000001
40
0
40
0
40
0
40
0
40
0.15590392923931901
40
0.30105687074257897
40
0.43623549173604348
40
0.56179032647285698
40
0.67917845710795599
40
0.79004341090503205
40
0.89608420838052605
40
1
40
1
40
1
40
1
10
-1.9878916139240452
20
-55.060403869627599
30
0
10
-2.018809467237185
20
-55.059840818588903
30
0
10
-2.0785131078955503
20
-55.0587535439793
30
0
10
-2.1646696922276147
20
-55.050018284006306
30
0
10
-2.2439992707481156
20
-55.035978026139396
30
0
10
-2.3164399447813353
20
-55.016213047895704
30
0
10
-2.3818760326824
20
-54.990360891513703
30
0
10
-2.4398150817928599
20
-54.957931136019596
30
0
10
-2.4918890521771702
20
-54.9208603058728
30
0
10
-2.5207110988639405
20
-54.890706129207601
30
0
10
-2.5349762658227797
20
-54.875781638614995
30
0
0
LINE
5
158
100
AcDbEntity
8
0
100
AcDbLine
10
-7.6524030854430292
20
-53.8991677145643
30
0
11
-8.2307604825949294
21
-53.8991677145643
31
0
0
LINE
5
159
100
AcDbEntity
8
0
100
AcDbLine
10
-8.2307604825949294
20
-53.8991677145643
30
0
11
-8.2307604825949294
21
-53.722081084817496
31
0
0
SPLINE
5
160
100
AcDbEntity
8
0
100
AcDbSpline
70
0
71
3
72
15
73
11
74
0
42
0.000000001
43
0.0000000001
44
0.0000000001
40
0
40
0
40
0
40
0
40
0.1507180121309685
40
0.29261510943534746
40
0.42543026653590299
40
0.54997257806804101
40
0.66945195719626305
40
0.78329896320887904
40
0.89256278756316998
40
1
40
1
40
1
40
1
10
-8.2307604825949294
20
-53.722081084817496
30
0
10
-8.2304924166748208
20
-53.700209302764897
30
0
10
-8.2299719736471992
20
-53.657745805480289
30
0
10
-8.2232983423224209
20
-53.596313320067893
30
0
10
-8.2133063519452598
20
-53.539228906710399
30
0
10
-8.1994713222340305
20
-53.486264227089102
30
0
10
-8.181107659122679
20
-53.437583389320608
30
0
10
-8.15835700658989
20
-53.393322269769001
30
0
10
-8.1320573113235177
20
-53.353017817369597
30
0
10
-8.11088934805192
20
-53.329722389990494
30
0
10
-8.1003945806962001
20
-53.318172856969397
30
0
0
SPLINE
5
161
100
AcDbEntity
8
0
100
AcDbSpline
70
0
71
3
72
15
73
11
74
0
42
0.000000001
43
0.0000000001
44
0.0000000001
40
0
40
0
40
0
40
0
40
0.097967649000123808
40
0.20027208064862351
40
0.30959392288774351
40
0.42661613757045153
40
0.55396357373049199
40
0.69125722568541093
40
0.839923874773437
40
1
40
1
40
1
40
1
10
-8.1003945806962001
20
-53.318172856969397
30
0
10
-8.0858136077871805
20
-53.304895357536999
30
0
10
-8.0560061987886495
20
-53.2777525970005
30
0
10
-8.0028610263237798
20
-53.244843840885096
30
0
10
-7.9430987933329611
20
-53.216520877437397
30
0
10
-7.87564647168589
20
-53.19368704596441
30
0
10
-7.8009880417845601
20
-53.17578267715669
30
0
10
-7.7188221774623003
20
-53.163191243485599
30
0
10
-7.6294320170866703
20
-53.155752747666597
30
0
10
-7.5673912277504298
20
-53.154778601913897
30
0
10
-7.5352244857594899
20
-53.154273529437802
30
0
0
LINE
5
162
100
AcDbEntity
8
0
100
AcDbLine
10
-7.5352244857594899
20
-53.154273529437795
30
0
11
-6.6030706091772107
21
-53.154273529437802
31
0
0
SPLINE
5
163
100
AcDbEntity
8
0
100
AcDbSpline
70
0
71
3
72
15
73
11
74
0
42
0.000000001
43
0.0000000001
44
0.0000000001
40
0
40
0
40
0
40
0
40
0.1605875215537215
40
0.3101405184264785
40
0.44909384872661451
40
0.57679363843839204
40
0.69534428533176795
40
0.80462050048017797
40
0.90595947726639603
40
1
40
1
40
1
40
1
10
-6.6030706091772107
20
-53.154273529437802
30
0
10
-6.5691514792140602
20
-53.154745138005204
30
0
10
-6.5036439201611094
20
-53.155655949282391
30
0
10
-6.40893138179303
20
-53.161543272953608
30
0
10
-6.3215426708223097
20
-53.171726451387698
30
0
10
-6.2415964701679894
20
-53.1870600982733
30
0
10
-6.1686523948639405
20
-53.205289606828892
30
0
10
-6.1031793426853396
20
-53.228877902203891
30
0
10
-6.0444758674904193
20
-53.255741475955901
30
0
10
-6.0100232716662205
20
-53.278556291290798
30
0
10
-5.9934404667721495
20
-53.28953757215929
30
0
0
SPLINE
5
164
100
AcDbEntity
8
0
100
AcDbSpline
70
0
71
3
72
15
73
11
74
0
42
0.000000001
43
0.0000000001
44
0.0000000001
40
0
40
0
40
0
40
0
40
0.10949298518629899
40
0.21904962458927599
40
0.33159256036879298
40
0.44856543073185401
40
0.57222392419364798
40
0.70419542662124601
40
0.84643040710875406
40
1
40
1
40
1
40
1
10
-5.9934404667721495
20
-53.28953757215929
30
0
10
-5.9756108684390803
20
-53.303177391899005
30
0
10
-5.9399413064594597
20
-53.330464960946301
30
0
10
-5.8949919251884992
20
-53.381809555230902
30
0
10
-5.8566283327829005
20
-53.439823151555601
30
0
10
-5.8257803083438802
20
-53.505418003743898
30
0
10
-5.8017079222316106
20
-53.577915422662407
30
0
10
-5.7846388452465503
20
-53.65762955285139
30
0
10
-5.7739122796947893
20
-53.744646979616995
30
0
10
-5.7728316093210497
20
-53.805190508785799
30
0
10
-5.7722705696202503
20
-53.836622224058004
30
0
0
LINE
5
165
100
AcDbEntity
8
0
100
AcDbLine
10
-5.7722705696202494
20
-53.836622224057997
30
0
11
-5.7722705696202503
21
-54.399154858551704
31
0
0
SPLINE
5
166
100
AcDbEntity
8
0
100
AcDbSpline
70
0
71
3
72
15
73
11
74
0
42
0.000000001
43
0.0000000001
44
0.0000000001
40
0
40
0
40
0
40
0
40
0.15250912513086651
40
0.29493607016110052
40
0.42711988545505347
40
0.55099753429892295
40
0.66762857299690004
40
0.78035394980975803
40
0.89004734173095101
40
1
40
1
40
1
40
1
10
-5.7722705696202503
20
-54.399154858551704
30
0
10
-5.7728413744210707
20
-54.430460114430403
30
0
10
-5.7739452488590004
20
-54.491001076398106
30
0
10
-5.7846353405624793
20
-54.578146915238094
30
0
10
-5.8017280436755101
20
-54.6582235469794
30
0
10
-5.8256830063723397
20
-54.731025694189597
30
0
10
-5.8567382882180503
20
-54.796762697222398
30
0
10
-5.8949589092734502
20
-54.855105319035005
30
0
10
-5.9400321120673008
20
-54.906800442379897
30
0
10
-5.9756236779836698
20
-54.934589340837199
30
0
10
-5.9934404667721495
20
-54.948500190830188
30
0
0
SPLINE
5
167
100
AcDbEntity
8
0
100
AcDbSpline
70
0
71
3
72
15
73
11
74
0
42
0.000000001
43
0.0000000001
44
0.0000000001
40
0
40
0
40
0
40
0
40
0.093841802741217104
40
0.1948016373256635
40
0.30401338975248804
40
0.42271044514953598
40
0.55035152622389205
40
0.68947646207577207
40
0.83921415495032803
40
1
40
1
40
1
40
1
10
-5.9934404667721495
20
-54.948500190830188
30
0
10
-6.010012424026721
20
-54.959384584611605
30
0
10
-6.0444133446461104
20
-54.981978968649301
30
0
10
-6.1032965934159495
20
-55.007957015009907
30
0
10
-6.1687218918491906
20
-55.031125268835908
30
0
10
-6.2415014790477201
20
-55.049724751535798
30
0
10
-6.3216439488184895
20
-55.063756242056897
30
0
10
-6.4089146598245108
20
-55.074323464720798
30
0
10
-6.5036485995476703
20
-55.080096044731803
30
0
10
-6.5691530755733698
20
-55.081023385701997
30
0
10
-6.6030706091772107
20
-55.081503553171899
30
0
0
LINE
5
168
100
AcDbEntity
8
0
100
AcDbLine
10
-6.6030706091772107
20
-55.081503553171906
30
0
11
-7.2827818433544289
21
-55.081503553171899
31
0
0
SPLINE
5
169
100
AcDbEntity
8
0
100
AcDbSpline
70
0
71
3
72
23
73
19
74
0
42
0.000000001
43
0.0000000001
44
0.0000000001
40
0
40
0
40
0
40
0
40
0.1026612051379458
40
0.19836717460398451
40
0.287167394265328
40
0.36954525186308551
40
0.44483334893417303
40
0.51342531515546996
40
0.57597227125971406
40
0.63195082346786602
40
0.68351470223907196
40
0.73273216286999898
40
0.77968084060785003
40
0.82494224379398995
40
0.86921745615537405
40
0.91258174310095597
40
0.95582906732370398
40
1
40
1
40
1
40
1
10
-7.2827818433544289
20
-55.081503553171899
30
0
10
-7.3159409945506706
20
-55.081275578284902
30
0
10
-7.380012784144661
20
-55.080835073674102
30
0
10
-7.4727260546614094
20
-55.0777845180098
30
0
10
-7.5588051115237693
20
-55.073056093418003
30
0
10
-7.6381328144214997
20
-55.066113379700198
30
0
10
-7.7105956426853499
20
-55.056524556861099
30
0
10
-7.7764332911488196
20
-55.045898929378097
30
0
10
-7.8355195999611897
20
-55.032971637647201
30
0
10
-7.8882414933414999
20
-55.017359648423806
30
0
10
-7.9356903824776213
20
-54.999561176451898
30
0
10
-7.9788262155791498
20
-54.978964397392701
30
0
10
-8.0177789313463208
20
-54.9549846029538
30
0
10
-8.0532926326335801
20
-54.9287216991695
30
0
10
-8.084220350397862
20
-54.898765066161502
30
0
10
-8.1110743353139014
20
-54.866055297888806
30
0
10
-8.1347102209631501
20
-54.830856760416999
30
0
10
-8.1464555286677793
20
-54.805133820858103
30
0
10
-8.1523902294303792
20
-54.792136464564294
30
0
0
SPLINE
5
170
100
AcDbEntity
8
0
100
AcDbSpline
70
0
71
3
72
15
73
11
74
0
42
0.000000001
43
0.0000000001
44
0.0000000001
40
0
40
0
40
0
40
0
40
0.088652334688625697
40
0.1873726538321385
40
0.29551247603686404
40
0.4149707102813795
40
0.54423409309176907
40
0.68460481798168993
40
0.83706264582693202
40
1
40
1
40
1
40
1
10
-8.1523902294303792
20
-54.792136464564294
30
0
10
-8.1571638033126312
20
-54.780416369046002
30
0
10
-8.1672530717985996
20
-54.755645161292101
30
0
10
-8.1778344593400085
20
-54.714766626956703
30
0
10
-8.1878603068652804
20
-54.669330618765201
30
0
10
-8.1956396609190207
20
-54.618993905937707
30
0
10
-8.2010052100672119
20
-54.563756861646596
30
0
10
-8.2052322236337112
20
-54.503706769268803
30
0
10
-8.2074358234195586
20
-54.438733614597396
30
0
10
-8.2074122809990602
20
-54.393755742083798
30
0
10
-8.2074001186708792
20
-54.370519573741596
30
0
0
LINE
5
171
100
AcDbEntity
8
0
100
AcDbLine
10
-8.2074001186708792
20
-54.370519573741589
30
0
11
-7.6290427215189807
21
-54.370519573741596
31
0
0
LINE
5
172
100
AcDbEntity
8
0
100
AcDbLine
10
-7.6290427215189807
20
-54.370519573741596
30
0
11
-7.6290427215189807
21
-54.422515222475703
31
0
0
SPLINE
5
173
100
AcDbEntity
8
0
100
AcDbSpline
70
0
71
3
72
15
73
11
74
0
42
0.000000001
43
0.0000000001
44
0.0000000001
40
0
40
0
40
0
40
0
40
0.1133214498055632
40
0.21671930343424201
40
0.31688459716744949
40
0.4227065267072565
40
0.53974380733225202
40
0.67231159235511107
40
0.82503779642326003
40
1
40
1
40
1
40
1
10
-7.6290427215189807
20
-54.422515222475703
30
0
10
-7.6283800741756602
20
-54.436323533322806
30
0
10
-7.6271128077321606
20
-54.462730956749795
30
0
10
-7.6137265702564507
20
-54.499440293467806
30
0
10
-7.5918067880900502
20
-54.530490484970201
30
0
10
-7.5608321818959805
20
-54.555245800551695
30
0
10
-7.5219030743519699
20
-54.574502691013095
30
0
10
-7.4746359562859697
20
-54.587594271404896
30
0
10
-7.4192138603015803
20
-54.595842019808096
30
0
10
-7.3793971404091891
20
-54.596573717484198
30
0
10
-7.3581378560126502
20
-54.596964391779501
30
0
0
LINE
5
174
100
AcDbEntity
8
0
100
AcDbLine
10
-7.3581378560126502
20
-54.596964391779501
30
0
11
-6.7281615901898695
21
-54.596964391779501
31
0
0
SPLINE
5
175
100
AcDbEntity
8
0
100
AcDbSpline
70
0
71
3
72
15
73
11
74
0
42
0.000000001
43
0.0000000001
44
0.0000000001
40
0
40
0
40
0
40
0
40
0.15914226156220249
40
0.30613805999921101
40
0.44287301841521298
40
0.56803187820916201
40
0.68445838134904202
40
0.79399482876241601
40
0.89904287114302606
40
1
40
1
40
1
40
1
10
-6.7281615901898695
20
-54.596964391779501
30
0
10
-6.7110666276507205
20
-54.596738853793703
30
0
10
-6.6781814680701004
20
-54.596304991909605
30
0
10
-6.6308374424919592
20
-54.5912313584613
30
0
10
-6.5875636572682703
20
-54.583568916906799
30
0
10
-6.5483399072611608
20
-54.572742014573201
30
0
10
-6.5132865404411202
20
-54.558513144144094
30
0
10
-6.4825666105635698
20
-54.540511385713295
30
0
10
-6.4552627665571105
20
-54.520114645469405
30
0
10
-6.4406707182008489
20
-54.503416868434009
30
0
10
-6.4335195806962
20
-54.495233774690902
30
0
0
SPLINE
5
176
100
AcDbEntity
8
0
100
AcDbSpline
70
0
71
3
72
15
73
11
74
0
42
0.000000001
43
0.0000000001
44
0.0000000001
40
0
40
0
40
0
40
0
40
0.09550708173701429
40
0.19699631639172049
40
0.30645032945482004
40
0.4232402730737615
40
0.55239299333606195
40
0.690529023805174
40
0.83955527579330902
40
1
40
1
40
1
40
1
10
-6.4335195806962
20
-54.495233774690902
30
0
10
-6.4280253737125301
20
-54.487837000462598
30
0
10
-6.4166928262449296
20
-54.472580149874403
30
0
10
-6.4034176604334796
20
-54.446089970882099
30
0
10
-6.3916908438308102
20
-54.4167578651453
30
0
10
-6.3823113233150606
20
-54.383781192020905
30
0
10
-6.374899653519309
20
-54.347512276883009
30
0
10
-6.3696840658755596
20
-54.307725414532904
30
0
10
-6.3667711170194199
20
-54.264688391158806
30
0
10
-6.3663133025394902
20
-54.234883213984901
30
0
10
-6.3660759493670804
20
-54.219430768361804
30
0
0
LINE
5
177
100
AcDbEntity
8
0
100
AcDbLine
10
-6.3660759493670804
20
-54.219430768361804
30
0
11
-6.3660759493670804
21
-54.016346314247897
31
0
0
SPLINE
5
178
100
AcDbEntity
8
0
100
AcDbSpline
70
0
71
3
72
15
73
11
74
0
42
0.000000001
43
0.0000000001
44
0.0000000001
40
0
40
0
40
0
40
0
40
0.168936661815968
40
0.32441478330751949
40
0.46690655792723501
40
0.59575713877291991
40
0.71352632124166104
40
0.81878611758227904
40
0.913201614405733
40
1
40
1
40
1
40
1
10
-6.3660759493670804
20
-54.016346314247897
30
0
10
-6.3663460019989007
20
-53.999262744209602
30
0
10
-6.366864593198061
20
-53.966456587082504
30
0
10
-6.3693103030409004
20
-53.919286833561301
30
0
10
-6.3739946884712495
20
-53.876334357806101
30
0
10
-6.3813722224885492
20
-53.8376560913958
30
0
10
-6.3897080352426192
20
-53.803032291501211
30
0
10
-6.4000983352284102
20
-53.772598473724798
30
0
10
-6.4128989607630791
20
-53.746461924230204
30
0
10
-6.4235295617499304
20
-53.731505594328596
30
0
10
-6.4286214398734103
20
-53.724341765197295
30
0
0
SPLINE
5
179
100
AcDbEntity
8
0
100
AcDbSpline
70
0
71
3
72
15
73
11
74
0
42
0.000000001
43
0.0000000001
44
0.0000000001
40
0
40
0
40
0
40
0
40
0.096303302748572892
40
0.19721291150564049
40
0.30456054410774147
40
0.42114827927433302
40
0.54730654396469303
40
0.68548043363726496
40
0.83649295733014806
40
1
40
1
40
1
40
1
10
-6.4286214398734103
20
-53.724341765197295
30
0
10
-6.4349632816418803
20
-53.717486522136298
30
0
10
-6.4479503033095797
20
-53.703448141265106
30
0
10
-6.4716787720054008
20
-53.685630709589503
30
0
10
-6.4996263954878897
20
-53.670987608276199
30
0
10
-6.5314326433055605
20
-53.659051683493203
30
0
10
-6.5671665656279901
20
-53.649700120112598
30
0
10
-6.60686642109511
20
-53.642937077421102
30
0
10
-6.6506079567509904
20
-53.639438020005194
30
0
10
-6.6810586567915404
20
-53.638778678125199
30
0
10
-6.6968888449367103
20
-53.638435910766908
30
0
0
LINE
5
180
100
AcDbEntity
8
0
100
AcDbLine
10
-6.6968888449367103
20
-53.638435910766908
30
0
11
-7.3140545886075898
21
-53.638435910766908
31
0
0
SPLINE
5
181
100
AcDbEntity
8
0
100
AcDbSpline
70
0
71
3
72
15
73
11
74
0
42
0.000000001
43
0.0000000001
44
0.0000000001
40
0
40
0
40
0
40
0
40
0.18317833707530048
40
0.34994317087420601
40
0.49895399198317697
40
0.63176738311861802
40
0.74706365285995002
40
0.84722028166591101
40
0.93078835686980799
40
1
40
1
40
1
40
1
10
-7.3140545886075898
20
-53.638435910766908
30
0
10
-7.3293781498974395
20
-53.638475335352702
30
0
10
-7.3586522207972704
20
-53.638550651925705
30
0
10
-7.4003733140642405
20
-53.640003221047301
30
0
10
-7.4378142222060708
20
-53.642658461426301
30
0
10
-7.470855791282359
20
-53.646031933132001
30
0
10
-7.4997784158698604
20
-53.649811175412495
30
0
10
-7.5241353039201408
20
-53.655563619467898
30
0
10
-7.5444681414498893
20
-53.661642446696504
30
0
10
-7.5559987575714507
20
-53.6671938032013
30
0
10
-7.5612223101265794
20
-53.669708656019999
30
0
0
SPLINE
5
182
100
AcDbEntity
8
0
100
AcDbSpline
70
0
71
3
72
15
73
11
74
0
42
0.000000001
43
0.0000000001
44
0.0000000001
40
0
40
0
40
0
40
0
40
0.099707257594115486
40
0.201600139411547
40
0.30736942671019052
40
0.42127750911301348
40
0.54648126412708498
40
0.68320970176676199
40
0.83397498752897692
40
1
40
1
40
1
40
1
10
-7.5612223101265794
20
-53.669708656019999
30
0
10
-7.5686141375443601
20
-53.674175852232004
30
0
10
-7.5835598242866196
20
-53.6832081674401
30
0
10
-7.6019897573332091
20
-53.702689050700798
30
0
10
-7.6174355815149593
20
-53.725783856745302
30
0
10
-7.6310505649690095
20
-53.752400084101197
30
0
10
-7.6402888632478705
20
-53.7836106828372
30
0
10
-7.6475850217605599
20
-53.818495898851602
30
0
10
-7.6515195245473908
20
-53.8575087521303
30
0
10
-7.6520992566176691
20
-53.884842506551401
30
0
10
-7.6524030854430292
20
-53.8991677145643
30
0
0
LWPOLYLINE
5
183
100
AcDbEntity
8
0
100
AcDbPolyline
90
8
70
1
43
0.0
10
-4.5812687895569599
20
-55.060403869627599
10
-3.828462223101265
20
-55.060403869627599
10
-2.8077650316455656
20
-53.174996432918803
10
-3.4535660601265805
20
-53.174996432918803
10
-3.6227403085442993
20
-53.508446788931394
10
-4.7949030854430301
20
-53.508446788931394
10
-4.9742503955696202
20
-53.174996432918803
10
-5.6177907436708798
20
-53.174996432918803
0
SPLINE
5
184
100
AcDbEntity
8
0
100
AcDbSpline
70
0
71
3
72
15
73
11
74
0
42
0.000000001
43
0.0000000001
44
0.0000000001
40
0
40
0
40
0
40
0
40
0.10161911309605459
40
0.20824655413271151
40
0.31940661710773949
40
0.43831064358844901
40
0.56493793612213894
40
0.700362662670452
40
0.84516305891644905
40
1
40
1
40
1
40
1
10
0.093064675632914512
20
-54.906677603804795
30
0
10
0.083836590423390492
20
-54.895344487890092
30
0
10
0.064925611104864694
20
-54.872119700102502
30
0
10
0.041928994840470302
20
-54.832218047195902
30
0
10
0.022187038051922101
20
-54.788013587870601
30
0
10
0.0060490901947554201
20
-54.739291573120703
30
0
10
-0.0061565839636021202
20
-54.6858941773365
30
0
10
-0.015203793953778801
20
-54.628119208565302
30
0
10
-0.020373491044026401
20
-54.565785785437804
30
0
10
-0.021100686790391402
20
-54.522748248829998
30
0
10
-0.021476463607591853
20
-54.500508695576997
30
0
0
LINE
5
185
100
AcDbEntity
8
0
100
AcDbLine
10
-0.021476463607591853
20
-54.500508695576997
30
0
11
-0.021476463607591853
21
-54.380692635450401
31
0
0
SPLINE
5
186
100
AcDbEntity
8
0
100
AcDbSpline
70
0
71
3
72
15
73
11
74
0
42
0.000000001
43
0.0000000001
44
0.0000000001
40
0
40
0
40
0
40
0
40
0.15685747037034151
40
0.30426503712060354
40
0.44147315853414748
40
0.56997964300426207
40
0.68934600209372898
40
0.79959318108204702
40
0.90333982439817406
40
1
40
1
40
1
40
1
10
-0.021476463607591853
20
-54.380692635450401
30
0
10
-0.021195790744192748
20
-54.364363889448498
30
0
10
-0.020651354199352105
20
-54.332690125383195
30
0
10
-0.0182873376899895
20
-54.286759465679104
30
0
10
-0.013239324083163079
20
-54.244025936188898
30
0
10
-0.0067812654935392293
20
-54.204421694337697
30
0
10
0.0024471608028673554
20
-54.168258672456197
30
0
10
0.01282156508887834
20
-54.135118631948991
30
0
10
0.025444017893988501
20
-54.1052359718622
30
0
10
0.035984934279762001
20
-54.087209532978505
30
0
10
0.041069026898737052
20
-54.078515024690901
30
0
0
SPLINE
5
187
100
AcDbEntity
8
0
100
AcDbSpline
70
0
71
3
72
15
73
11
74
0
42
0.000000001
43
0.0000000001
44
0.0000000001
40
0
40
0
40
0
40
0
40
0.1085963283794282
40
0.21877847117593499
40
0.33243206812748555
40
0.45132587882706099
40
0.57622953473648497
40
0.70813915359159996
40
0.85013990998968803
40
1
40
1
40
1
40
1
10
0.041069026898737052
20
-54.078515024690901
30
0
10
0.047181812514358004
20
-54.068871376631606
30
0
10
0.059496647753899401
20
-54.049443255898098
30
0
10
0.083620066654896491
20
-54.024069353079092
30
0
10
0.11024125867589241
20
-53.999812494400096
30
0
10
0.14162462384112179
20
-53.979114610341995
30
0
10
0.175877946727721
20
-53.959537111834202
30
0
10
0.21447201036545399
20
-53.943224263585904
30
0
10
0.2564072575958225
20
-53.928342289884498
30
0
10
0.28615146538665048
20
-53.921015302941001
30
0
10
0.30142405063291455
20
-53.917253157602296
30
0
0
LINE
5
188
100
AcDbEntity
8
0
100
AcDbLine
10
0.30142405063291455
20
-53.917253157602296
30
0
11
0.30142405063291455
21
-53.911978236716195
31
0
0
SPLINE
5
189
100
AcDbEntity
8
0
100
AcDbSpline
70
0
71
3
72
15
73
11
74
0
42
0.000000001
43
0.0000000001
44
0.0000000001
40
0
40
0
40
0
40
0
40
0.150335510035847
40
0.29182565055646698
40
0.42594810469261002
40
0.55284475028417601
40
0.67207848972602702
40
0.78593757331247704
40
0.89501071950514099
40
1
40
1
40
1
40
1
10
0.30142405063291455
20
-53.911978236716195
30
0
10
0.28920151944057804
20
-53.909504797056798
30
0
10
0.26547560055554698
20
-53.904703448808604
30
0
10
0.231504891609493
20
-53.894989103536403
30
0
10
0.19967439111857099
20
-53.884841118240701
30
0
10
0.17078291159102252
20
-53.872151050741302
30
0
10
0.1440027496346464
20
-53.858857642372797
30
0
10
0.1203833492238688
20
-53.843078060227697
30
0
10
0.098535909672025579
20
-53.826790110519902
30
0
10
0.086017275672836194
20
-53.814174436065599
30
0
10
0.079877373417724606
20
-53.807986939247897
30
0
0
SPLINE
5
190
100
AcDbEntity
8
0
100
AcDbSpline
70
0
71
3
72
15
73
11
74
0
42
0.000000001
43
0.0000000001
44
0.0000000001
40
0
40
0
40
0
40
0
40
0.1024884636062544
40
0.2094494032001335
40
0.32190201426895654
40
0.44028487282223749
40
0.56579190304248306
40
0.70053916551692796
40
0.84547974073567
40
1
40
1
40
1
40
1
10
0.079877373417724606
20
-53.807986939247897
30
0
10
0.072359405944776897
20
-53.799375346461602
30
0
10
0.056995395742258703
20
-53.781776361110197
30
0
10
0.037879883343321097
20
-53.7512635178118
30
0
10
0.021722788264845902
20
-53.717208935308101
30
0
10
0.0085838567915407105
20
-53.679677565191398
30
0
10
-0.001601676451567925
20
-53.6386817247637
30
0
10
-0.0084878726728622109
20
-53.594034296286701
30
0
10
-0.013176620030713399
20
-53.545847056818303
30
0
10
-0.013680739350588099
20
-53.512477834694501
30
0
10
-0.013940862341768801
20
-53.495259486716201
30
0
0
LINE
5
191
100
AcDbEntity
8
0
100
AcDbLine
10
-0.013940862341768801
20
-53.495259486716201
30
0
11
-0.013940862341768801
21
-53.174996432918803
31
0
0
LINE
5
192
100
AcDbEntity
8
0
100
AcDbLine
10
-0.013940862341768801
20
-53.174996432918803
30
0
11
0.56441653481012899
21
-53.174996432918803
31
0
0
LINE
5
193
100
AcDbEntity
8
0
100
AcDbLine
10
0.56441653481012899
20
-53.174996432918803
30
0
11
0.56441653481012899
21
-53.401441250956694
31
0
0
SPLINE
5
194
100
AcDbEntity
8
0
100
AcDbSpline
70
0
71
3
72
23
73
19
74
0
42
0.000000001
43
0.0000000001
44
0.0000000001
40
0
40
0
40
0
40
0
40
0.085965245005004798
40
0.1648608276805365
40
0.237021390384208
40
0.304444071171109
40
0.36484232679005552
40
0.42044991450286096
40
0.47106444906391998
40
0.51883381354121094
40
0.56553755628496905
40
0.614231766509167
40
0.66602121657908697
40
0.72182715420078702
40
0.78348607767192491
40
0.84952275096612595
40
0.92217503417778801
40
1
40
1
40
1
40
1
10
0.56441653481012899
20
-53.401441250956694
30
0
10
0.56456126156840414
20
-53.413374817361607
30
0
10
0.56483881295740201
20
-53.436260550247795
30
0
10
0.56692660552368201
20
-53.469128641978692
30
0
10
0.57120964753505798
20
-53.499174230238502
30
0
10
0.57659262125064903
20
-53.526435098791893
30
0
10
0.58382705306229898
20
-53.550888389608602
30
0
10
0.59235841263066491
20
-53.5724262856072
30
0
10
0.60255878014474007
20
-53.591297435211501
30
0
10
0.61483071176131487
20
-53.607362979674392
30
0
10
0.62907994314290705
20
-53.6213321455459
30
0
10
0.64592358857152998
20
-53.633049853514109
30
0
10
0.66534312797082307
20
-53.642869328209493
30
0
10
0.68754647752476195
20
-53.650697405291801
30
0
10
0.71225137746379197
20
-53.657034603003304
30
0
10
0.73973264350588908
20
-53.661517153740405
30
0
10
0.76971030693575404
20
-53.6641137049604
30
0
10
0.79060481456767795
20
-53.664324641416499
30
0
10
0.80141119462025612
20
-53.664433735133997
30
0
0
LINE
5
195
100
AcDbEntity
8
0
100
AcDbLine
10
0.80141119462025612
20
-53.664433735134011
30
0
11
1.7102047072784852
21
-53.664433735133997
31
0
0
LINE
5
196
100
AcDbEntity
8
0
100
AcDbLine
10
1.7102047072784852
20
-53.664433735133997
30
0
11
1.7102047072784852
21
-53.174996432918803
31
0
0
LINE
5
197
100
AcDbEntity
8
0
100
AcDbLine
10
1.7102047072784852
20
-53.174996432918803
30
0
11
2.288562104430385
21
-53.174996432918803
31
0
0
LINE
5
198
100
AcDbEntity
8
0
100
AcDbLine
10
2.288562104430385
20
-53.174996432918803
30
0
11
2.288562104430385
21
-55.060403869627599
31
0
0
LINE
5
199
100
AcDbEntity
8
0
100
AcDbLine
10
2.288562104430385
20
-55.060403869627599
30
0
11
0.54369363132911719
21
-55.060403869627599
31
0
0
SPLINE
5
200
100
AcDbEntity
8
0
100
AcDbSpline
70
0
71
3
72
15
73
11
74
0
42
0.000000001
43
0.0000000001
44
0.0000000001
40
0
40
0
40
0
40
0
40
0.15518722134773
40
0.29952662581300599
40
0.433874428176871
40
0.55929164639453799
40
0.67679266268903604
40
0.78815091359143497
40
0.89520001244186298
40
1
40
1
40
1
40
1
10
0.54369363132911708
20
-55.060403869627599
30
0
10
0.51830530801227404
20
-55.060032608314202
30
0
10
0.46930334282401703
20
-55.05931603740369
30
0
10
0.39862127602717501
20
-55.052089184287098
30
0
10
0.33350596769116003
20
-55.040285668793999
30
0
10
0.274089361584194
20
-55.023307595587397
30
0
10
0.22006026274717846
20
-55.002007526347299
30
0
10
0.1718353803367445
20
-54.975450998992301
30
0
10
0.12882082563339459
20
-54.944268212952096
30
0
10
0.1048987354273582
20
-54.919118806684693
30
0
10
0.093064675632914512
20
-54.906677603804795
30
0
0
CIRCLE
5
201
100
AcDbEntity
8
0
100
AcDbCircle
10
-57.480200000000004
20
45.008800000000008
30
0
40
4.0640000000000001
210
0
220
0
230
1
0
CIRCLE
5
202
100
AcDbEntity
8
0
100
AcDbCircle
10
57.480200000000004
20
-45.008800000000008
30
0
40
4.0640000000000001
210
0
220
0
230
1
0
CIRCLE
5
203
100
AcDbEntity
8
0
100
AcDbCircle
10
87.985600000000005
20
6.9850000000000003
30
0
40
1.5239999999999998
210
0
220
0
230
1
0
CIRCLE
5
204
100
AcDbEntity
8
0
100
AcDbCircle
10
87.985600000000005
20
20.002499999999998
30
0
40
4.0640000000000001
210
0
220
0
230
1
0
CIRCLE
5
205
100
AcDbEntity
8
0
100
AcDbCircle
10
87.985600000000005
20
0
30
0
40
4.0640000000000001
210
0
220
0
230
1
0
ENDSEC
0
SECTION
2
OBJECTS
0
DICTIONARY
5
C
100
AcDbDictionary
3
ACAD_GROUP
350
D
3
ACAD_MLINESTYLE
350
17
0
DICTIONARY
5
D
100
AcDbDictionary
0
DICTIONARY
5
1A
330
C
100
AcDbDictionary
0
DICTIONARY
5
17
100
AcDbDictionary
0
ENDSEC
0
EOF
