<?xml version="1.0" standalone="no"?>
 <!DOCTYPE svg PUBLIC "-//W3C//DTD SVG 1.1//EN" 
 "http://www.w3.org/Graphics/SVG/1.1/DTD/svg11.dtd"> 
<svg
  xmlns:svg="http://www.w3.org/2000/svg"
  xmlns="http://www.w3.org/2000/svg"
  xmlns:xlink="http://www.w3.org/1999/xlink"
  version="1.1"
  width="18.808700cm" height="13.385800cm" viewBox="0 0 188087000 133858000">
<title>SVG Picture created as norns_fork-Edge_Cuts.svg date 2022/06/30 09:57:43 </title>
  <desc>Picture generated by PCBNEW </desc>
<g style="fill:#000000; fill-opacity:1.000000;stroke:#000000; stroke-opacity:1.000000;
stroke-linecap:round; stroke-linejoin:round;"
 transform="translate(0 0) scale(1 1)">
</g>
<g style="fill:#000000; fill-opacity:0.0; 
stroke:#000000; stroke-width:0.000000; stroke-opacity:1; 
stroke-linecap:round; stroke-linejoin:round;">
</g>
<g style="fill:#000000; fill-opacity:0.0; 
stroke:#000000; stroke-width:200000.000000; stroke-opacity:1; 
stroke-linecap:round; stroke-linejoin:round;">
<path d="M185366467.428409 34915047.432242 A4999983.000000 4999983.000000 0.0 0 0 180364575.000166 29949060.410064" />
<path d="M185366531 34915047
L185515465 56808268
" />
<path d="M17148757 30016700
L180364575 29949060
" />
<path d="M169100000.000000 118267143.000000 A5000000.000000 5000000.000000 0.0 0 0 164100000.000000 123267143.000000" />
<path d="M164100000 123267143
L164100000 130767143
" />
<path d="M183000000 118267143
L169100000 118267143
" />
<path d="M183000000.000000 118267143.000000 A5000000.000000 5000000.000000 0.0 0 0 188000000.000000 113267143.000000" />
<path d="M188000000 113267143
L188000000 96884943
" />
<circle cx="6114400.000000" cy="101769643.000000" r="1740000.000000" /> 
<circle cx="6114400.000000" cy="81767143.000000" r="1740000.000000" /> 
<circle cx="6114400.000000" cy="61764643.000000" r="1740000.000000" /> 
<circle cx="36619800.000000" cy="36758343.000000" r="1740000.000000" /> 
<circle cx="182085600.000000" cy="101769643.000000" r="1740000.000000" /> 
<circle cx="151580200.000000" cy="126775943.000000" r="1740000.000000" /> 
<circle cx="36619800.000000" cy="126775943.000000" r="1740000.000000" /> 
<path d="M17148757.001350 30016703.257508 A3000000.000000 3000000.000000 0.0 0 0 14150000.000002 33016700.000000" />
<path d="M14150000 52200269
L14150000 33016700
" />
<path d="M161100000.000000 133767143.000000 A3000000.000000 3000000.000000 0.0 0 0 164100000.000000 130767143.000000" />
<path d="M22150000 133767143
L161100000 133767143
" />
<path d="M19150000.000000 130767143.000000 A3000000.000000 3000000.000000 0.0 0 0 22150000.000000 133767143.000000" />
<path d="M19150000 111767143
L19150000 130767143
" />
<path d="M19150000.000000 111767143.000000 A3000000.000000 3000000.000000 0.0 0 0 16150000.000000 108767143.000000" />
<path d="M16150000 108767143
L3100000 108767143
" />
<path d="M100000.000000 105767143.000000 A3000001.000000 3000001.000000 0.0 0 0 3100000.000000 108767143.000000" />
<path d="M100000 58200269
L100000 105767143
" />
<path d="M3100000.000000 55200269.000000 A3000001.000000 3000001.000000 0.0 0 0 100000.000000 58200269.000000" />
<path d="M11150000 55200269
L3100000 55200269
" />
<path d="M11150000.000000 55200269.000000 A2999999.000000 2999999.000000 0.0 0 0 14150000.000000 52200269.000000" />
<path d="M180473388.482793 61842044.814894 A4999980.000000 4999980.000000 0.0 0 0 185515464.568163 56808268.002934" />
<path d="M180473388 61842102
L173700000 61784943
" />
<path d="M188000000.000000 96884943.000000 A5000000.000000 5000000.000000 0.0 0 0 183000000.000000 91884943.000000" />
<path d="M173700000 91884943
L183000000 91884943
" />
<circle cx="6114400.000000" cy="74782143.000000" r="1524000.000000" /> 
<circle cx="6114400.000000" cy="88752143.000000" r="1524000.000000" /> 
<circle cx="94519731.000000" cy="56596543.000000" r="1741410.000000" /> 
<circle cx="94519721.000000" cy="98946543.000000" r="1741410.000000" /> 
<circle cx="17519721.000000" cy="98946543.000000" r="1741410.000000" /> 
<circle cx="17519721.000000" cy="56446543.000000" r="1741410.000000" /> 
<circle cx="181308990.000000" cy="57984943.000000" r="1741410.000000" /> 
<circle cx="181308590.000000" cy="116034943.000000" r="1741410.000000" /> 
<circle cx="132299990.000000" cy="115984943.000000" r="1741410.000000" /> 
<circle cx="89699990.000000" cy="94938479.000000" r="1740060.000000" /> 
<circle cx="40700000.000000" cy="94907143.000000" r="1740000.000000" /> 
<circle cx="40700000.000000" cy="36967143.000000" r="1702939.000000" /> 
<path d="M173700000 61784943
L173700000 91884943
" />
<g >
</g>
<g >
</g>
<g >
</g>
<g >
</g>
<g >
</g>
<g >
</g>
<g >
</g>
<g >
</g>
<g >
</g>
<g >
</g>
<g >
</g>
<g >
</g>
<g >
</g>
<g >
</g>
<g >
</g>
<g >
</g>
<g >
</g>
<g >
</g>
<g >
</g>
<g >
</g>
<g >
</g>
<g >
</g>
<g >
</g>
<g >
</g>
<g >
</g>
<g >
</g>
<g >
</g>
<g >
</g>
<g >
</g>
<g >
</g>
<g >
</g>
<g >
</g>
<g >
</g>
<g >
</g>
<g >
</g>
<g >
</g>
<g >
</g>
<g >
</g>
<g >
</g>
<g >
</g>
<g >
</g>
<g >
</g>
<g >
</g>
<g >
</g>
<g >
</g>
<g >
</g>
<g >
</g>
<g >
</g>
<g >
</g>
<g >
</g>
<g >
</g>
<g >
</g>
<g >
</g>
<g >
</g>
<g >
</g>
</g> 
</svg>
