<?xml version="1.0" encoding="UTF-8" standalone="no"?>
<!-- Created with Inkscape (http://www.inkscape.org/) -->

<svg
   version="1.1"
   id="svg337"
   width="1024"
   height="1024"
   viewBox="0 0 1024 1024"
   sodipodi:docname="logo_usines.svg"
   inkscape:version="1.2 (dc2aedaf03, 2022-05-15)"
   xmlns:inkscape="http://www.inkscape.org/namespaces/inkscape"
   xmlns:sodipodi="http://sodipodi.sourceforge.net/DTD/sodipodi-0.dtd"
   xmlns="http://www.w3.org/2000/svg"
   xmlns:svg="http://www.w3.org/2000/svg">
  <defs
     id="defs341" />
  <sodipodi:namedview
     id="namedview339"
     pagecolor="#ffffff"
     bordercolor="#666666"
     borderopacity="1.0"
     inkscape:showpageshadow="2"
     inkscape:pageopacity="0.0"
     inkscape:pagecheckerboard="0"
     inkscape:deskcolor="#d1d1d1"
     showgrid="false"
     inkscape:zoom="0.23046875"
     inkscape:cx="-182.23729"
     inkscape:cy="512"
     inkscape:window-width="1366"
     inkscape:window-height="717"
     inkscape:window-x="0"
     inkscape:window-y="0"
     inkscape:window-maximized="1"
     inkscape:current-layer="g343" />
  <g
     inkscape:groupmode="layer"
     inkscape:label="Image"
     id="g343">
    <path
       style="fill:#000000"
       d="m 842.58672,899.75 c -0.34166,-7.8375 -1.0661,-35.4 -1.60988,-61.25 -0.54377,-25.85 -1.8846,-89.975 -2.97963,-142.5 -1.09503,-52.525 -2.44399,-115.075 -2.9977,-139 -0.9228,-39.87268 -2.37126,-107.45363 -4.97244,-232 -0.54563,-26.125 -1.27171,-53.9125 -1.61352,-61.75 -0.61407,-14.08038 -0.64922,-14.25 -2.95263,-14.25 -2.07025,0 -41.89503,5.20273 -50.20286,6.55853 -2.31604,0.37797 -3.36894,1.15917 -3.68659,2.73527 -0.24456,1.21341 -0.70293,13.6812 -1.01861,27.7062 -0.31567,14.025 -1.01481,39.45 -1.55364,56.5 -0.53883,17.05 -1.88572,63.85 -2.99308,104 -1.10736,40.15 -2.44708,85.375 -2.97715,100.5 -0.53007,15.125 -1.68835,55.625 -2.57395,90 -0.8856,34.375 -1.91278,64.40603 -2.28261,66.73563 l -0.67243,4.23564 -53,-30.08746 C 645.69229,644.49939 630.49198,635.85036 598.94065,617.8202 587.08301,611.04409 573.7087,603.475 569.21996,601 l -8.16134,-4.5 -0.0277,-24.5 -0.0277,-24.5 -14.00162,0.30271 -14.00162,0.30271 v 15.94729 C 533,572.82372 532.7948,580 532.54401,580 c -0.2508,0 -2.8383,-1.42152 -5.75,-3.15892 C 518.589,571.94516 509.85045,567 509.40393,567 509.18177,567 509,602.775 509,646.5 509,700.84482 508.6711,726 507.96055,726 506.46219,726 496.8685,719.64043 268.5,567.26366 l -20,-13.34481 -0.25629,75.54057 C 248.10276,671.00674 247.80947,705 247.59197,705 c -0.2175,0 -10.67718,-6.23482 -23.24372,-13.85515 C 211.78171,683.52452 164.825,655.11385 120,628.01003 75.175,600.90621 34.109674,576.04561 28.74372,572.76425 21.412179,568.2809 18.819835,566.13976 18.31306,564.14907 17.10294,559.39553 19.905361,508.84394 22.543946,487.83004 29.360475,433.54264 43.981032,382.6562 67.138674,332.61932 78.133942,308.86177 98.088375,274 100.69163,274 c 0.82357,0 6.06737,1.51802 11.65289,3.37338 10.03044,3.33184 18.30417,5.99528 46.65548,15.01911 7.975,2.53833 22.71927,7.27029 32.76505,10.51547 l 18.26504,5.90031 14.23496,10.78931 c 7.82922,5.93413 22.33495,16.90974 32.23495,24.39024 65.63821,49.59669 61.79605,46.50404 60.9777,49.08244 -0.29402,0.92638 0.15301,29.30204 0.9934,63.05703 0.84038,33.75499 1.52818,63.96021 1.52844,67.12271 L 320,529 h 76.5 76.5 l 0.0911,-26.75 c 0.0501,-14.7125 0.0143,-31.1375 -0.0796,-36.5 L 472.84083,456 h 24.57956 24.57957 v -36.57567 -36.57567 l 2.25,-1.89014 c 1.2375,-1.03957 6.975,-5.34827 12.75,-9.57488 5.775,-4.2266 13.95087,-10.52466 18.16861,-13.99568 l 7.66861,-6.31094 0.55184,3.71149 c 0.30351,2.04132 1.27403,24.63649 2.15672,50.21149 0.88269,25.575 1.80456,47.5125 2.04861,48.75 l 0.44371,2.25 h 25.48095 25.48095 l 0.13929,-79.75 c 0.0766,-43.8625 0.18911,-93.475 0.25,-110.25 l 0.11071,-30.5 9,-1.20237 c 4.95,-0.6613 22.05,-2.79186 38,-4.73457 15.95,-1.94272 43.85,-5.35421 62,-7.58109 18.15,-2.22688 45.375,-5.5673 60.5,-7.42315 15.125,-1.85585 39.61133,-4.85977 54.41407,-6.67538 l 26.91406,-3.30112 4.92688,5.45884 C 885.5741,221.47441 908,249.66941 908,251.20986 c 0,0.29249 -2.5875,0.8246 -5.75,1.18247 -10.96591,1.24088 -21.88683,8.05017 -27.86981,17.37709 L 871,275.03883 V 362.01942 449 h 4.81942 c 2.65068,0 17.61318,-1.33382 33.25,-2.96404 15.63682,-1.63023 30.86281,-3.09273 33.83553,-3.25 l 5.40496,-0.28596 -0.2034,-15 c -0.11187,-8.25 -0.62525,-22.425 -1.14084,-31.5 -0.51558,-9.075 -0.94378,-17.94837 -0.95155,-19.7186 L 946,373.0628 l -27.25,0.0656 -27.25,0.0655 -0.62817,-17.34694 c -0.3455,-9.54082 -0.683,-28.89992 -0.75,-43.02022 L 890,287.15345 l 2.70481,-3.32672 C 898.71845,276.43038 912.97478,266 917.07055,266 c 1.82255,0 10.4026,13.16016 22.493,34.5 46.82589,82.64878 70.56535,186.60004 64.40445,282.01707 -7.01109,108.58547 -43.76311,204.59866 -108.38305,283.14639 -4.90327,5.9601 -17.35336,19.27404 -27.66687,29.58654 C 851.97521,911.19133 848.71999,914 846.18709,914 h -2.97917 z M 268,461.04868 v -36.95132 l -8.75,0.48996 c -4.8125,0.26947 -11.51257,0.72804 -14.88905,1.01903 l -6.13904,0.52907 -0.69193,25.18229 c -0.38056,13.85026 -0.54299,28.75324 -0.36095,33.11773 l 0.33097,7.93543 12.5,2.70615 c 6.875,1.48838 13.7375,2.75494 15.25,2.81456 L 268,498 Z m -64,-14.05742 v -39.00873 l -5.25,0.56405 c -20.25444,2.17611 -22.01079,2.16966 -31,-0.11385 L 159,406.20999 v 13.36362 c 0,11.46793 0.21278,13.28197 1.5,12.78802 0.825,-0.31659 1.5,-0.94714 1.5,-1.40123 0,-0.45409 0.82067,-1.0861 1.82371,-1.40445 1.00305,-0.31835 2.69055,-1.37692 3.75,-2.35238 C 170.2108,424.77558 174.2826,422 175.2074,422 c 0.41932,0 0.88169,13.13326 1.0275,29.18502 l 0.2651,29.18503 5,1.32225 c 3.91164,1.03443 16.92893,3.55166 21.75,4.20592 0.4125,0.056 0.75,-17.45215 0.75,-38.90696 z m -95,-20.62024 v -40.62899 l -9.25,0.86005 C 85.419397,387.93451 80.463891,387.59937 67,384.38721 L 54.5,381.405 54.22479,396.04724 c -0.151365,8.05324 0.07364,15.57205 0.5,16.70848 0.893539,2.38163 0.745953,2.42085 17.273196,-4.591 7.274729,-3.08638 9.650682,-4.57211 10.15032,-6.34717 0.358784,-1.27465 0.69719,11.72456 0.752014,28.88714 L 83,461.90937 l 3.75,0.65073 c 2.0625,0.3579 7.575,1.44134 12.25,2.40765 4.675,0.9663 8.8375,1.81887 9.25,1.89458 0.4125,0.0757 0.75,-18.14537 0.75,-40.49131 z m 597.5,34.28672 28,-2.21795 V 431.3018 c 0,-14.9259 -0.37498,-27.51235 -0.83329,-27.9699 -0.45831,-0.45754 -9.68331,-0.93852 -20.5,-1.06884 L 693.5,402.02612 l -0.67588,-4.26306 c -0.37173,-2.34468 -0.70923,-23.80661 -0.75,-47.69317 L 692,306.63977 l 4.70368,-4.38027 c 2.58703,-2.40915 8.09953,-6.0179 12.25,-8.01943 6.62522,-3.19497 8.49068,-3.64532 15.2832,-3.68962 7.48301,-0.0488 7.6636,-0.10591 5.50348,-1.7407 -1.22837,-0.92964 -5.27674,-2.91541 -8.99638,-4.41282 -9.33627,-3.75848 -18.59156,-3.71394 -28.28372,0.13613 -6.71466,2.6673 -13.79149,6.82674 -17.96026,10.55623 -1.97364,1.76567 -1.99655,2.88418 -1.73861,84.84998 L 673.02278,463 l 2.73861,-0.0621 C 677.26763,462.90366 691.1,461.87762 706.5,460.65774 Z M 531.74874,837.25126 482,787.50251 V 834.75126 882 h -8 -8 v -66.24621 -66.24621 l 49.25375,49.24621 C 542.34331,825.8392 564.84331,848 565.25375,848 565.66419,848 566,827.075 566,801.5 V 755 h 8 8 v 66 c 0,36.3 -0.11307,66 -0.25126,66 -0.13819,0 -22.63819,-22.38693 -50,-49.74874 z M 247.4018,883.51427 c -8.12422,-1.76751 -15.58972,-5.67451 -21.61878,-11.314 -5.60787,-5.24551 -8.77806,-10.20835 -11.9965,-18.78018 -2.15923,-5.75079 -2.23243,-7.24273 -2.55959,-52.17009 L 210.89014,755 H 218.94507 227 l 0.0178,37.25 c 0.01,20.4875 0.43136,41.18042 0.93686,45.98426 1.13553,10.79107 4.76104,19.3727 10.29766,24.37471 6.2534,5.64957 9.88574,6.81453 21.24771,6.81453 11.36197,0 14.99431,-1.16496 21.24771,-6.81453 5.70109,-5.15059 9.21842,-13.65333 10.30884,-24.92039 0.48909,-5.05372 0.90145,-25.72608 0.91635,-45.93858 L 292,755 h 8.05493 8.05493 l -0.33679,46.25 c -0.32716,44.92736 -0.40036,46.4193 -2.55959,52.17009 -3.21844,8.57183 -6.38863,13.53467 -11.9965,18.78018 -11.55546,10.80878 -28.68922,15.03994 -45.81518,11.314 z m 108.92377,0.44121 c -6.87198,-1.35876 -15.47764,-6.01231 -20.61063,-11.1453 -4.75054,-4.75054 -9.9136,-14.17799 -11.17924,-20.41265 l -0.62981,-3.10247 7.79706,-1.55172 c 4.28838,-0.85344 8.13455,-1.34327 8.54705,-1.08851 0.4125,0.25476 0.75988,1.44915 0.77196,2.65419 0.0121,1.20504 0.84412,3.99098 1.84897,6.19098 5.06724,11.09407 19.06357,16.9883 31.51305,13.27099 5.61381,-1.67623 14.07931,-10.00905 15.51414,-15.27099 2.82393,-10.35614 0.0331,-19.34054 -7.77839,-25.04076 -2.54085,-1.85411 -10.90691,-5.96675 -18.59123,-9.13919 -7.68433,-3.17243 -16.50594,-7.4605 -19.60358,-9.52902 -12.04784,-8.04524 -16.50951,-20.43308 -12.21904,-33.9262 2.37201,-7.45972 11.49154,-16.63135 19.79412,-19.9072 5.04492,-1.99051 7.83057,-2.37453 17.5,-2.41248 10.45965,-0.0411 12.02183,0.19938 17.26825,2.65788 5.82406,2.72919 16.74627,12.51877 16.71511,14.98175 -0.009,0.72337 -2.75885,2.79282 -6.11042,4.59878 l -6.09378,3.28355 -4.86198,-4.54781 c -5.95765,-5.57268 -8.65034,-6.65529 -16.67734,-6.70516 -8.16433,-0.0507 -16.21478,3.67977 -19.87417,9.20948 -3.17806,4.80237 -3.46259,12.0067 -0.62703,15.87628 2.9551,4.03271 10.32942,8.56355 18.92571,11.6281 21.54966,7.68241 31.86677,14.92106 37.01737,25.972 2.42706,5.20741 2.79359,7.20447 2.77469,15.11799 -0.0203,8.49715 -0.27678,9.63397 -3.76702,16.69598 -4.30591,8.71241 -9.2305,13.52761 -18.19372,17.78959 -9.50698,4.52052 -19.26904,5.80961 -29.1701,3.85192 z m 365.94413,-0.01 c -9.92739,-1.95935 -19.68245,-8.32515 -25.32485,-16.5261 C 694.08591,863.26451 690,853.27128 690,850.43427 c 0,-1.037 11.39413,-3.93427 15.47232,-3.93427 0.53478,0 1.30096,1.92503 1.70261,4.27785 1.06564,6.24226 5.43955,12.02017 11.82507,15.62082 4.81261,2.71373 6.43735,3.09843 13,3.07815 5.71072,-0.0177 8.45428,-0.53258 11.5,-2.15842 11.68464,-6.23737 16.84265,-20.68278 11.19717,-31.35855 C 751.71453,830.3196 744.53848,825.49633 731,820.03217 c -26.57825,-10.72704 -35,-19.07006 -35,-34.6728 0,-19.41421 18.3022,-33.56702 41.46894,-32.06729 10.01537,0.64836 14.10119,1.87606 20.21268,6.07345 5.04489,3.46485 11.69323,11.21893 10.82441,12.62471 -0.27835,0.45039 -3.0392,2.24848 -6.13522,3.99576 l -5.62914,3.17689 -4.12083,-3.9727 c -5.80068,-5.59216 -9.77366,-7.32953 -16.96863,-7.42033 -6.831,-0.0862 -14.96253,2.80265 -18.50609,6.57461 -3.27936,3.49071 -5.39076,9.53792 -4.67058,13.37685 1.4063,7.49621 7.43893,11.6539 29.31691,20.20518 16.6201,6.49619 24.63324,12.89018 29.13004,23.244 5.79952,13.35334 2.21308,30.41651 -8.67167,41.25697 -9.90592,9.86562 -25.53777,14.36913 -39.98112,11.51847 z M 425.24254,818.75 425.5,755.5 l 8.25,-0.29044 8.25,-0.29044 V 818.45956 882 h -8.50746 -8.50745 z M 605,818.48721 v -63.5128 l 35.25,0.2628 35.25,0.26279 0.29381,7.25 0.29381,7.25 H 648.54381 621 v 17.48367 17.48366 l 26.75,0.26634 26.75,0.26633 0.29532,6.73358 0.29531,6.73358 -26.79531,0.26642 L 621.5,819.5 v 24 24 l 27.25,0.26607 27.25,0.26607 V 875.01607 882 H 640.5 605 Z M 365.95124,722.67096 c -1.95182,-0.64403 -4.55916,-1.90222 -5.79409,-2.79599 -2.54057,-1.83871 -6.36612,-8.72783 -5.56574,-10.02287 0.92254,-1.49271 6.40859,-0.98581 6.40859,0.59214 0,3.17857 4.46152,6.74074 9.09699,7.26322 4.08703,0.46067 4.84317,0.19854 7.717,-2.6753 3.63379,-3.63378 4.21838,-8.11323 1.55507,-11.91565 -0.89702,-1.28067 -5.32047,-4.025 -9.82988,-6.09849 C 359.85562,692.56536 357,689.48683 357,683.5 c 0,-7.65367 5.93286,-12.5 15.30246,-12.5 5.67334,0 11.88522,3.00796 12.46353,6.03517 0.35349,1.85036 -3.99252,4.78525 -4.56092,3.08003 -0.21217,-0.6365 -1.75743,-1.8666 -3.43391,-2.73354 -3.7185,-1.92291 -8.2642,-1.20656 -11.47309,1.80804 -4.75631,4.46832 -1.92328,9.10954 7.84091,12.84539 11.19144,4.28191 15.85636,10.76038 13.90558,19.31156 -1.98178,8.68707 -12.29907,14.22608 -21.09332,11.32431 z m -73.50093,-0.93985 c -0.2678,-0.69789 -0.36618,-12.28539 -0.21861,-25.75 L 292.5,671.5 h 3 3 l 0.26967,22.45314 c 0.16935,14.09958 0.6546,22.69104 1.30429,23.09257 0.56904,0.35169 4.16019,0.59269 7.98033,0.53557 C 314.99673,717.47746 315,717.47871 315,720.2387 V 723 h -11.03138 c -7.9902,0 -11.16563,-0.34981 -11.51831,-1.26889 z m 28,0 c -0.2678,-0.69789 -0.36618,-12.28539 -0.21861,-25.75 L 320.5,671.5 334.75,671.22254 349,670.94509 V 673.97254 677 h -11 -11 v 7.5 7.5 h 10.5 c 10.4936,0 10.5,10e-4 10.5,2.46502 0,2.44116 -0.0992,2.46777 -10.25,2.75 L 327.5,697.5 l -0.28973,9.41643 c -0.204,6.63031 0.0733,9.6408 0.93725,10.17474 0.67484,0.41708 5.53022,0.67968 10.78973,0.58357 L 348.5,717.5 l 0.31642,2.75 0.31642,2.75 h -14.0978 c -10.46768,0 -14.22319,-0.32673 -14.58473,-1.26889 z m 202.2944,-347.47228 c -0.29131,-0.57531 1.77787,-229.82271 2.17534,-241.00883 0.0791,-2.22545 0.23706,-2.25 14.47751,-2.25 h 14.39755 l 0.6268,13.25 c 1.96885,41.62011 3.76291,82.82008 5.10568,117.25 0.83656,21.45 1.95067,48.42496 2.47582,59.94435 0.87766,19.25215 0.8151,21.0988 -0.7743,22.85607 -4.61128,5.09829 -37.93648,31.0405 -38.4844,29.95841 z M 525.00089,123.35149 525,119.20298 532,118.5 c 3.85,-0.38664 10.10837,-0.39082 13.90748,-0.009 7.27689,0.73079 8.04126,1.39944 8.07887,7.06721 0.0132,1.98587 -0.49395,2.05589 -14.48546,2 l -14.49911,-0.0579 -8.9e-4,-4.14851 z m -10e-4,-18.12971 L 525,94.943561 538.75,95.22178 552.5,95.5 l 0.28179,10 0.28179,10 h -14.03197 -14.03197 l 1.8e-4,-10.27822 z"
       id="path347" />
  </g>
</svg>
