<?xml version="1.0" encoding="UTF-8" standalone="no"?>
<!-- Created with Inkscape (http://www.inkscape.org/) -->

<svg
   version="1.1"
   id="svg2"
   width="313"
   height="222"
   viewBox="0 0 313 222"
   sodipodi:docname="logo.svg"
   inkscape:version="1.2 (dc2aedaf03, 2022-05-15)"
   xmlns:inkscape="http://www.inkscape.org/namespaces/inkscape"
   xmlns:sodipodi="http://sodipodi.sourceforge.net/DTD/sodipodi-0.dtd"
   xmlns="http://www.w3.org/2000/svg"
   xmlns:svg="http://www.w3.org/2000/svg">
  <defs
     id="defs6" />
  <sodipodi:namedview
     id="namedview4"
     pagecolor="#ffffff"
     bordercolor="#666666"
     borderopacity="1.0"
     inkscape:showpageshadow="2"
     inkscape:pageopacity="0.0"
     inkscape:pagecheckerboard="0"
     inkscape:deskcolor="#d1d1d1"
     showgrid="false"
     inkscape:zoom="1.0630631"
     inkscape:cx="5.6440678"
     inkscape:cy="111"
     inkscape:window-width="1366"
     inkscape:window-height="717"
     inkscape:window-x="0"
     inkscape:window-y="0"
     inkscape:window-maximized="1"
     inkscape:current-layer="g8" />
  <g
     inkscape:groupmode="layer"
     inkscape:label="Image"
     id="g8">
    <path
       style="fill:#000000"
       d="m 26.823594,167.80348 -0.22987,-22.25 h -8 -8 v -23 c 0,-14.66667 0.36232,-23 1,-23 0.55,0 1.03163,-0.7875 1.07029,-1.75 0.0601,-1.49644 0.19481,-1.46022 0.92971,0.25 0.61696,1.43575 0.87926,0.36113 0.92972,-3.80902 0.0386,-3.194956 -0.2887,-5.587149 -0.72746,-5.31598 -3.0973,1.914236 -3.51952,-6.267761 -3.23163,-62.625 l 0.0294,-5.75 h 6.3731 6.37311 l 0.87689,28.25 c 0.83755,26.982101 0.90128,27.62166 1.42007,14.25 l 0.54317,-14 0.20683,13.75 0.20683,13.749999 h 3 3 l 0.20805,-13.749999 0.20805,-13.75 0.54195,14.5 c 0.52217,13.970733 0.57381,13.450592 1.41481,-14.25 l 0.87286,-28.75 h 6.37714 6.37714 v 28.5 28.499999 h -3.64788 -3.64788 l 3.30593,2.25 c 4.94273,3.36399 7.2155,7.043192 7.74317,12.534764 1.1165,11.619607 -8.07064,19.121257 -23.50334,19.191377 l -5.25,0.0239 v 11 11 h 21 21 v 6 6 h -9.5 -9.5 l -0.22107,22.25 -0.22107,22.25 -0.54796,-22.5 -0.54796,-22.5 -0.5011,22.5 -0.5011,22.5 -0.45094,-22.5 -0.45094,-22.5 -0.55786,22.5 -0.55786,22.5 -0.22107,-22.25 -0.22107,-22.25 h -5 -5 l -0.22107,22.25 -0.22107,22.25 -0.55786,-22.5 -0.55786,-22.5 -0.44214,22.5 -0.44214,22.5 -0.54796,-22.5 -0.54796,-22.5 -0.5011,22.5 -0.5011,22.5 z M 16.318454,91.321389 c -0.22256,-1.79735 -0.40925,-0.567909 -0.41486,2.732091 -0.006,3.3 0.17648,4.77056 0.40466,3.26791 0.22817,-1.50265 0.23276,-4.202651 0.0102,-6.000001 z m 2,0 c -0.22256,-1.79735 -0.40925,-0.567909 -0.41486,2.732091 -0.006,3.3 0.17648,4.77056 0.40466,3.26791 0.22817,-1.50265 0.23276,-4.202651 0.0102,-6.000001 z m 2,0 c -0.22256,-1.79735 -0.40925,-0.567909 -0.41486,2.732091 -0.006,3.3 0.17648,4.77056 0.40466,3.26791 0.22817,-1.50265 0.23276,-4.202651 0.0102,-6.000001 z m 9.27527,2.946251 v -5.285841 l -4,-0.0288 -4,-0.0288 v 5.314641 5.31464 h 4 4 z m 1.72473,-2.946251 c -0.22256,-1.79735 -0.40925,-0.567909 -0.41486,2.732091 -0.006,3.3 0.17648,4.77056 0.40466,3.26791 0.22817,-1.50265 0.23276,-4.202651 0.0102,-6.000001 z m 2,0 c -0.22256,-1.79735 -0.40925,-0.567909 -0.41486,2.732091 -0.006,3.3 0.17648,4.77056 0.40466,3.26791 0.22817,-1.50265 0.23276,-4.202651 0.0102,-6.000001 z m 2,0 c -0.22256,-1.79735 -0.40925,-0.567909 -0.41486,2.732091 -0.006,3.3 0.17648,4.77056 0.40466,3.26791 0.22817,-1.50265 0.23276,-4.202651 0.0102,-6.000001 z m 3.15549,2.732091 c 0.15285,3.38551 0.34657,3.71439 1.26097,2.14084 0.77484,-1.33338 0.7723,-2.5353 -0.009,-4.249999 -1.76269,-3.868738 -3.14436,-2.775662 -2.98199,2.359159 l 0.15019,4.75 0.69961,-4.5 0.69961,-4.5 z m -0.58055,90.5 c 0,-3.025 0.18746,-4.2625 0.41659,-2.75 0.22912,1.5125 0.22912,3.9875 0,5.5 -0.22913,1.5125 -0.41659,0.275 -0.41659,-2.75 z m 2.10951,-11.5 c -10e-4,-9.35 0.14916,-13.3096 0.33402,-8.7991 0.18485,4.51049 0.18579,12.16049 0.002,17 -0.18371,4.8395 -0.33496,1.1491 -0.33611,-8.2009 z m 48.58565,-2.25 c -0.003,-10.3125 -0.29069,-23.06098 -0.63965,-28.32995 l -0.63448,-9.57994 -4.21729,-1.12796 c -5.92872,-1.58569 -13.47732,-7.89969 -16.84164,-14.08714 -5.51765,-10.14771 -3.19392,-23.5751 5.49894,-31.774898 3.47882,-3.281498 10.21103,-7.22819 12.82448,-7.518221 0.83315,-0.09246 -1.18519,-0.429959 -4.48519,-0.75 l -6,-0.581892 v -5.5 -5.499999 l 21.25,-0.269888 21.249996,-0.269887 v 6.019886 6.019888 l -6.75,0.0098 -6.75,0.0098 5.08125,2.366045 c 13.28574,6.186395 19.93662,20.158176 15.83705,33.269526 -2.40316,7.68584 -9.78629,15.33806 -17.36238,17.99519 l -5.27391,1.84964 0.72316,28.25 0.72316,28.25 h -7.114156 -7.11417 l -0.005,-18.75 z m 11.32595,-49.32212 c 5.371496,-1.49159 11.218066,-7.06952 12.434926,-11.86359 1.306,-5.14522 0.5722,-8.78545 -2.63351,-13.06429 l -2.6222,-3.5 -0.58189,6 -0.58189,6 -0.3447,-7 -0.34469,-7 -0.64683,7 -0.64683,7 -0.35674,-7.5 -0.35675,-7.5 -0.63968,7.5 -0.63968,7.5 -0.18016,-7.75 c -0.15435,-6.639782 -0.43085,-7.751956 -1.930156,-7.763655 -0.9625,-0.0075 -2.7625,-0.284994 -4,-0.616631 -2.19207,-0.587453 -2.2548,-0.387572 -2.4363,7.763656 l -0.1863,8.36663 -0.6274,-8.5 -0.62739,-8.5 -0.36968,8.5 -0.36969,8.5 -0.63324,-8 -0.63324,-8 -0.36676,8 -0.36676,8 -0.63324,-8 -0.63324,-8 -0.38208,8 -0.38207,8 -0.34512,-7.25 c -0.18981,-3.9875 -0.68539,-7.25 -1.1013,-7.25 -2.01127,0 -3.17144,2.949031 -3.3243,8.45 l -0.1681,6.05 -0.66379,-6 -0.66378,-6 -0.32521,6 -0.32522,6 -0.68579,-5 -0.68579,-5 -0.28875,5 c -0.27583,4.77646 -0.31835,4.84352 -0.95112,1.5 -0.63615,-3.36144 -0.69281,-3.27522 -1.43131,2.17793 -1.13743,8.39896 2.50625,14.15884 10.90138,17.23278 4.84843,1.77528 7.81341,1.8953 12.77637,0.51717 z m -0.0686,-21.42788 c 0.0111,-2.2 0.215886,-2.98225 0.455076,-1.73834 0.2392,1.24391 0.23011,3.04391 -0.0202,4 -0.25029,0.95609 -0.445986,-0.0617 -0.434896,-2.26166 z m 4.145206,75.5 c 0,-7.975 0.1553,-11.2375 0.34512,-7.25 0.18981,3.9875 0.18981,10.5125 0,14.5 -0.18982,3.9875 -0.34512,0.725 -0.34512,-7.25 z m 7,0 c 0,-7.975 0.1553,-11.2375 0.34512,-7.25 0.18981,3.9875 0.18981,10.5125 0,14.5 -0.18982,3.9875 -0.34512,0.725 -0.34512,-7.25 z m 1.94359,-7.16124 c 0.36246,-11.63868 0.65902,-24.46368 0.65902,-28.5 v -7.33876 h 6.5 6.5 v 28.5 28.5 h -7.15902 -7.15903 z m 39.65902,-6.83876 v -28 h -6.5 -6.5 l 0.22162,-56.750001 c 0.15646,-40.065597 0.38531,-49.988039 0.77838,-33.749999 l 0.55676,23 0.44324,-23 0.44324,-23 0.55676,23 0.55676,23 0.44324,-23 0.44324,-23 0.55676,23 0.55676,23 0.44324,-23 0.44324,-23 0.54705,23 0.54705,23 0.50107,-23 0.50106,-23 0.23026,22.75 0.23027,22.75 h 3 3 l 0.22162,-22.75 0.22162,-22.75 0.54705,23 0.54705,23 0.50107,-23 0.50106,-23 0.45188,23 0.45189,23 0.55676,-23 0.55676,-23 0.44324,23 0.44324,23 0.55676,-23 0.55676,-23 0.22162,22.75 0.22162,22.75 h 4 4 l 0.22162,-22.75 0.22162,-22.75 0.54705,23 0.54705,23 0.50107,-23 0.50106,-23 0.23026,22.75 0.23027,22.75 h 4.5 4.5 v 5.999999 6 h -4.5 -4.5 v 22.000001 22 h 4.5 4.5 v 6 6 h -8 -8 v 28 28 h -6.5 -6.5 z m -11.25349,-73.25 c -0.17545,-6.187501 -0.319,-1.125001 -0.319,11.25 0,12.375 0.14355,17.4375 0.319,11.25 0.17544,-6.1875 0.17544,-16.3125 0,-22.5 z m 2,0 c -0.17545,-6.187501 -0.319,-1.125001 -0.319,11.25 0,12.375 0.14355,17.4375 0.319,11.25 0.17544,-6.1875 0.17544,-16.3125 0,-22.5 z m 2,0 c -0.17545,-6.187501 -0.319,-1.125001 -0.319,11.25 0,12.375 0.14355,17.4375 0.319,11.25 0.17544,-6.1875 0.17544,-16.3125 0,-22.5 z m 7.47146,13.5 0.21797,-19.750001 0.56406,20.000001 0.56406,20 0.21797,-22.25 0.21797,-22.250001 h -4 -4 v 22.000001 22 h 3 3 z m -4.8979,-17.250001 c 0,-3.575 0.1815,-5.0375 0.40333,-3.25 0.22182,1.7875 0.22182,4.7125 0,6.500001 -0.22183,1.7875 -0.40333,0.325 -0.40333,-3.250001 z m 8.42644,3.750001 c -0.17545,-6.187501 -0.319,-1.125001 -0.319,11.25 0,12.375 0.14355,17.4375 0.319,11.25 0.17544,-6.1875 0.17544,-16.3125 0,-22.5 z m 2,0 c -0.17545,-6.187501 -0.319,-1.125001 -0.319,11.25 0,12.375 0.14355,17.4375 0.319,11.25 0.17544,-6.1875 0.17544,-16.3125 0,-22.5 z m 2,0 c -0.17545,-6.187501 -0.319,-1.125001 -0.319,11.25 0,12.375 0.14355,17.4375 0.319,11.25 0.17544,-6.1875 0.17544,-16.3125 0,-22.5 z m 5.36949,31.5 c 0.11048,-1.66667 0.13778,-1.66667 0.57333,0 0.25152,0.9625 1.09932,1.75 1.88399,1.75 1.19234,0 1.42668,-3.61364 1.42668,-22 V 77.553479 h -4 -4 V 99.55348 c 0,21.33333 0.0606,22 2,22 1.1939,0 2.04675,-0.70533 2.116,-1.75 z m 5.63051,-31.5 c -0.17545,-6.187501 -0.319,-1.125001 -0.319,11.25 0,12.375 0.14355,17.4375 0.319,11.25 0.17544,-6.1875 0.17544,-16.3125 0,-22.5 z m 22.5963,93.75 c 0.004,-4.4 0.17944,-6.07561 0.39069,-3.72357 0.21124,2.35204 0.20827,5.95204 -0.007,8 -0.21487,2.04796 -0.38771,0.12357 -0.38408,-4.27643 z m 1.88034,-17.34563 c -0.21253,-24.13885 -0.32546,-25.48931 -2.37187,-28.36323 -1.98171,-2.78306 -2.03162,-3.22254 -0.64216,-5.65437 0.82861,-1.45022 7.94267,-14.02356 15.80903,-27.94074 11.35878,-20.095992 14.548,-25.0356 15.49543,-24.000006 0.65613,0.717186 7.84004,13.003976 15.96425,27.303976 8.12421,14.3 14.9668,26.3375 15.20575,26.75 0.23895,0.4125 -2.88223,0.75 -6.93596,0.75 h -7.37041 l -4.73306,-8.5 -4.73306,-8.5 -8.20555,0.0123 -8.20554,0.0123 -4.25,7.33773 c -2.3375,4.03576 -4.25,8.05368 -4.25,8.92872 0,2.30381 1.7668,3.04722 2.30832,0.97126 0.25282,-0.96923 0.57112,-0.18724 0.70732,1.73776 l 0.24764,3.5 0.73672,-3.50007 c 0.71741,-3.40829 0.7441,-3.36899 1.01855,1.5 l 0.28184,5 0.69961,-4.5 0.69961,-4.5 0.1502,5.27144 c 0.11119,3.90279 0.86419,6.35303 2.90019,9.43723 l 2.75,4.16579 0.55633,-9.93723 0.55634,-9.93723 0.39313,12 0.39313,12 0.60107,-11.5 0.60107,-11.5 0.405,13 0.405,13 0.58893,-13.5 0.58893,-13.5 0.20553,14.75 c 0.12583,9.02964 0.59336,14.75 1.20554,14.75 0.55,0 1,0.675 1,1.5 0,0.825 0.45,1.5 1,1.5 0.6126,0 0.99745,4.74561 0.99341,12.25 l -0.007,12.25 -1.91814,-2.90967 -1.91815,-2.90968 -0.41523,3.40968 c -0.35,2.87409 -0.46504,2.62429 -0.73237,-1.59033 l -0.31714,-5 -0.68579,5 -0.68579,5 -0.32971,-6.5 -0.3297,-6.5 -0.6548,6.5 -0.6548,6.5 -0.1726,-7.27144 c -0.14443,-6.0847 -0.62142,-7.95106 -2.9226,-11.43563 l -2.75,-4.16418 -0.55053,11.43562 -0.55054,11.43563 -0.40363,-13 -0.40363,-13 -0.59167,13 -0.59167,13 -0.41181,-14.5 -0.41221,-14.5 -0.5839,14.5 -0.5839,14.5 -0.20805,-15.20981 -0.20805,-15.2098 -3.97847,-6.2902 -3.97848,-6.29019 -0.2925,21.5 -0.29251,21.5 -0.45064,-23 -0.45064,-23 -0.55676,23 -0.55676,23 -0.44477,-24.5 -0.44477,-24.5 -0.5537,24.5 -0.5537,24.5 z m 31.55328,-49.88126 c -2.04796,-0.21488 -5.64796,-0.21785 -8,-0.007 -2.35204,0.21125 -0.67643,0.38706 3.72357,0.39069 4.4,0.004 6.32439,-0.16921 4.27643,-0.38408 z m -0.52643,-1.99651 c -1.7875,-0.22182 -4.7125,-0.22182 -6.5,0 -1.7875,0.22183 -0.325,0.40333 3.25,0.40333 3.575,0 5.0375,-0.1815 3.25,-0.40333 z m -0.48209,-1.99113 c -1.50265,-0.22817 -4.20265,-0.23276 -6,-0.0102 -1.79735,0.22256 -0.56791,0.40925 2.73209,0.41486 3.3,0.006 4.77056,-0.17648 3.26791,-0.40466 z m -0.51791,-1.9912 c -1.2375,-0.23836 -3.2625,-0.23836 -4.5,0 -1.2375,0.23835 -0.225,0.43337 2.25,0.43337 2.475,0 3.4875,-0.19502 2.25,-0.43337 z m -0.5,-1.9836 c -0.9625,-0.25152 -2.5375,-0.25152 -3.5,0 -0.9625,0.25153 -0.175,0.45733 1.75,0.45733 1.925,0 2.7125,-0.2058 1.75,-0.45733 z m -0.5,-1.97295 c -0.6875,-0.27741 -1.8125,-0.27741 -2.5,0 -0.6875,0.27741 -0.125,0.50439 1.25,0.50439 1.375,0 1.9375,-0.22698 1.25,-0.50439 z m -17.84521,69.16228 c 10e-4,-8.8 0.15425,-12.26613 0.33996,-7.70252 0.18572,4.56362 0.18468,11.76362 -0.002,16 -0.18698,4.23639 -0.33893,0.50252 -0.33766,-8.29748 z m 58.76853,14.07514 c -9.11739,-2.97 -16.68583,-10.55328 -19.05703,-19.0944 -1.35375,-4.87626 -1.48223,-14.82494 -0.18106,-14.02077 0.51437,0.3179 1.11735,-0.89304 1.33996,-2.69099 l 0.40474,-3.26898 0.31714,3.5 c 0.29009,3.20149 0.37563,3.07355 1.00293,-1.5 l 0.68579,-5 0.15711,4.75 c 0.13211,3.99433 0.46831,4.75 2.11329,4.75 1.72997,0 1.9961,-0.8384 2.3013,-7.25 l 0.34512,-7.25 0.385,7.5 0.385,7.5 0.62739,-8.5 0.62739,-8.5 0.37772,8.5 0.37772,8.5 0.61717,-9.5 c 0.59718,-9.1924 0.63024,-8.98193 1.02089,6.5 l 0.40371,16 0.5754,-16.5 0.5754,-16.5 0.2123,17.38365 0.2123,17.38365 2.75,2.36494 2.75,2.36494 0.53071,-20.74859 0.53072,-20.74859 0.43978,21.5 0.43979,21.5 0.559,-22 0.559,-22 0.38195,22 0.38195,22 0.76217,-29.5 0.76217,-29.5 -2.67362,-2.82157 -2.67362,-2.82158 -0.56749,10.82158 c -0.31212,5.95186 -0.53712,-2.3412 -0.5,-18.42902 0.0537,-23.250813 -0.19708,-29.250472 -1.22235,-29.250002 -4.83763,0.0022 -14.72276,-8.21046 -18.38681,-15.275967 -3.30353,-6.370297 -3.13347,-16.572871 0.38859,-23.313461 11.38638,-21.79146 45.64077,-21.761791 56.31168,0.04877 3.21608,6.573435 3.65453,15.71927 1.04574,21.813522 -2.98449,6.971897 -11.38693,14.640398 -18.3334,16.73201 -2.53249,0.762542 -2.43849,0.831833 1.26404,0.931722 15.00488,0.404812 23.78813,16.437539 14.83442,27.078406 -3.02723,3.59765 -9.20384,6.98559 -12.73556,6.98559 -1.36446,0 -2.73827,0.41655 -3.05292,0.92567 -0.31465,0.50912 4.57351,5.34662 10.86257,10.75 6.28907,5.40338 11.46996,10.18351 11.51308,10.62252 0.0431,0.439 -4.64659,0.72271 -10.42159,0.63046 -6.32047,-0.10097 -10.5,-0.5714 -10.5,-1.18184 0,-0.55776 -1.2375,-2.08256 -2.75,-3.38844 l -2.75,-2.37432 -0.60809,3.75797 c -0.60157,3.71764 -0.61131,3.7043 -0.90711,-1.24202 l -0.29901,-5 -0.68579,5 -0.68579,5 -0.32521,-6 -0.32522,-6 -0.66378,6 -0.66378,6 -0.3447,-7 -0.34469,-7 -0.64683,7 -0.64683,7 -0.33141,-7.5 -0.33142,-7.5 -0.74592,8.5 c -0.41026,4.675 -0.79058,17.8375 -0.84517,29.25 l -0.0993,20.75 h 3 c 2.97356,0 3,-0.049 3,-5.55902 0,-3.45136 -0.37914,-5.32469 -1,-4.94098 -0.62464,0.38605 -1,-1.65628 -1,-5.44098 v -6.05902 h 15.6446 15.64461 l -0.6031,6.45849 c -1.49103,15.96703 -12.95394,26.46962 -29.68611,27.19909 -4.61464,0.20119 -9.16454,-0.21524 -11.82668,-1.08244 z m 14.55141,-18.80723 c -0.22256,-1.79735 -0.40925,-0.56791 -0.41486,2.73209 -0.006,3.3 0.17648,4.77056 0.40466,3.26791 0.22817,-1.50265 0.23276,-4.20265 0.0102,-6 z m 2,0 c -0.22256,-1.79735 -0.40925,-0.56791 -0.41486,2.73209 -0.006,3.3 0.17648,4.77056 0.40466,3.26791 0.22817,-1.50265 0.23276,-4.20265 0.0102,-6 z m 3.69348,6.6251 c 1.10546,-0.4242 1.58179,-1.91116 1.58179,-4.93785 0,-3.71441 -0.28468,-4.30942 -2,-4.18021 -1.7005,0.1281 -2,0.86754 -2,4.93785 0,5.10476 0.002,5.10755 2.41821,4.18021 z m 3.28905,-7.63135 c -0.23919,-1.24391 -0.44398,-0.46166 -0.45508,1.73834 -0.0111,2.2 0.18461,3.21775 0.4349,2.26166 0.25029,-0.95609 0.25937,-2.75609 0.0202,-4 z m 1.98573,-0.49263 c -0.25354,-0.97297 -0.47766,-0.41903 -0.49804,1.23097 -0.0204,1.65 0.18706,2.44606 0.46099,1.76903 0.27392,-0.67703 0.29059,-2.02703 0.0371,-3 z M 267.31712,90.30348 c -0.22183,-1.7875 -0.40333,-0.325 -0.40333,3.25 0,3.575 0.1815,5.0375 0.40333,3.25 0.22182,-1.7875 0.22182,-4.7125 0,-6.5 z m 5.2766,3.25 c 0,-5.333333 -0.22222,-6.000001 -2,-6.000001 -1.77778,0 -2,0.666668 -2,6.000001 0,5.33333 0.22222,6 2,6 1.77778,0 2,-0.66667 2,-6 z m 1.7234,-3.25 c -0.22183,-1.7875 -0.40333,-0.325 -0.40333,3.25 0,3.575 0.1815,5.0375 0.40333,3.25 0.22182,-1.7875 0.22182,-4.7125 0,-6.5 z m 2,0 c -0.22183,-1.7875 -0.40333,-0.325 -0.40333,3.25 0,3.575 0.1815,5.0375 0.40333,3.25 0.22182,-1.7875 0.22182,-4.7125 0,-6.5 z m 2,0 c -0.22183,-1.7875 -0.40333,-0.325 -0.40333,3.25 0,3.575 0.1815,5.0375 0.40333,3.25 0.22182,-1.7875 0.22182,-4.7125 0,-6.5 z m 2,0 c -0.22183,-1.7875 -0.40333,-0.325 -0.40333,3.25 0,3.575 0.1815,5.0375 0.40333,3.25 0.22182,-1.7875 0.22182,-4.7125 0,-6.5 z m 7.2766,3.43182 c 0,-5.797982 -0.0104,-5.818184 -3,-5.818184 -2.98958,0 -3,0.0202 -3,5.818184 0,5.79798 0.0104,5.81818 3,5.81818 2.98958,0 3,-0.0202 3,-5.81818 z m 1.71625,-2.93182 c -0.22912,-1.5125 -0.41659,-0.275 -0.41659,2.75 0,3.025 0.18747,4.2625 0.41659,2.75 0.22913,-1.5125 0.22913,-3.9875 0,-5.5 z m 1.98948,0.5 c -0.23835,-1.2375 -0.43337,-0.225 -0.43337,2.25 0,2.475 0.19502,3.4875 0.43337,2.25 0.23836,-1.2375 0.23836,-3.2625 0,-4.5 z m -7.02843,-27.835828 c 2.36981,-1.147205 5.28346,-3.454698 6.47479,-5.127762 3.03,-4.255243 3.56422,-11.484284 1.21162,-16.395665 l -1.86371,-3.890745 -0.5929,5 -0.59289,5 -0.32521,-6 -0.32522,-6 -0.66378,6 -0.66378,6 -0.34071,-6.5 -0.34071,-6.5 -0.6548,6.5 -0.6548,6.5 -0.1726,-6.652175 c -0.16688,-6.431833 -0.27197,-6.686815 -3.1726,-7.69798 l -3,-1.045806 -0.18338,7.697981 -0.18338,7.69798 -0.63324,-8 -0.63324,-8 -0.36676,8 -0.36676,8 -0.63324,-8 -0.63324,-8 -0.36968,8.5 -0.36969,8.5 -0.62739,-8.5 -0.62739,-8.5 -0.36969,8 -0.36968,8 -0.63324,-8 -0.63324,-8 -0.38208,8 -0.38207,8 -0.34512,-7.25 c -0.35812,-7.523345 -1.07917,-8.460421 -4.50749,-5.857954 -1.27628,0.968838 -1.79551,2.922765 -1.91811,7.218197 l -0.16811,5.889757 -0.66378,-6 -0.66378,-6 -0.32522,6 -0.32521,6 -0.68579,-5 -0.68579,-5 -0.29901,5.5 c -0.29649,5.453576 -0.30451,5.466237 -0.95071,1.5 -0.64663,-3.968958 -0.65797,-3.95115 -1.46145,2.29461 -0.7432,5.777143 -0.60247,6.607861 1.71187,10.105062 5.03074,7.601962 16.47629,10.316188 25.36239,6.0145 z m -21.39129,77.585828 c 0.008,-2.75 0.20172,-3.75631 0.43157,-2.23625 0.22986,1.52006 0.22371,3.77006 -0.0136,5 -0.23736,1.22994 -0.42542,-0.0137 -0.41792,-2.76375 z m -57.28601,-92 v -28.5 h 6.5 6.5 v 28.5 28.499999 h -6.5 -6.5 z M 80.885314,63.810982 c 3.73537,-0.192928 9.58537,-0.191497 13,0.0032 3.41463,0.194657 0.35841,0.352507 -6.79159,0.350758 -7.15,-0.0017 -9.94378,-0.161031 -6.20841,-0.353958 z m 0,-2 c 3.73537,-0.192928 9.58537,-0.191497 13,0.0032 3.41463,0.194657 0.35841,0.352507 -6.79159,0.350758 -7.15,-0.0017 -9.94378,-0.161031 -6.20841,-0.353958 z m 0,-2 c 3.73537,-0.192928 9.58537,-0.191497 13,0.0032 3.41463,0.194657 0.35841,0.352507 -6.79159,0.350758 -7.15,-0.0017 -9.94378,-0.161031 -6.20841,-0.353958 z m 0,-2 c 3.73537,-0.192928 9.58537,-0.191497 13,0.0032 3.41463,0.194657 0.35841,0.352507 -6.79159,0.350758 -7.15,-0.0017 -9.94378,-0.161031 -6.20841,-0.353958 z m 0,-2 c 3.73537,-0.192928 9.58537,-0.191497 13,0.0032 3.41463,0.194657 0.35841,0.352507 -6.79159,0.350758 -7.15,-0.0017 -9.94378,-0.161031 -6.20841,-0.353958 z m -7.29159,-6.757502 v -5.5 h 12.90745 12.90745 l 0.34255,5.501363 0.342546,5.501364 -13.249996,-0.0014 -13.25,-0.0014 z m 7.29159,-7.242498 c 3.73537,-0.192928 9.58537,-0.191497 13,0.0032 3.41463,0.194657 0.35841,0.352507 -6.79159,0.350758 -7.15,-0.0017 -9.94378,-0.161031 -6.20841,-0.353958 z m 0,-2 c 3.73537,-0.192928 9.58537,-0.191497 13,0.0032 3.41463,0.194657 0.35841,0.352507 -6.79159,0.350758 -7.15,-0.0017 -9.94378,-0.161031 -6.20841,-0.353958 z m 0,-2 c 3.73537,-0.192928 9.58537,-0.191497 13,0.0032 3.41463,0.194657 0.35841,0.352507 -6.79159,0.350758 -7.15,-0.0017 -9.94378,-0.161031 -6.20841,-0.353958 z m 0,-2 c 3.73537,-0.192928 9.58537,-0.191497 13,0.0032 3.41463,0.194657 0.35841,0.352507 -6.79159,0.350758 -7.15,-0.0017 -9.94378,-0.161031 -6.20841,-0.353958 z m 0,-2 c 3.73537,-0.192928 9.58537,-0.191497 13,0.0032 3.41463,0.194657 0.35841,0.352507 -6.79159,0.350758 -7.15,-0.0017 -9.94378,-0.161031 -6.20841,-0.353958 z m -7.29159,-7.257502 v -6 h 21 20.999996 v 6 6 h -20.999996 -21 z m 76.194946,-3.5 c 0.0204,-1.65 0.2445,-2.203936 0.49804,-1.230968 0.25354,0.972967 0.23687,2.322967 -0.0371,3 -0.27388,0.677032 -0.48132,-0.119032 -0.46094,-1.769032 z"
       id="path116" />
  </g>
</svg>
