%TF.GenerationSoftware,KiCad,Pcbnew,(6.0.6)*%
%TF.CreationDate,2022-07-08T10:44:38+02:00*%
%TF.ProjectId,norns_fork,6e6f726e-735f-4666-9f72-6b2e6b696361,V2*%
%TF.SameCoordinates,Original*%
%TF.FileFunction,Other,User*%
%FSLAX46Y46*%
G04 Gerber Fmt 4.6, Leading zero omitted, Abs format (unit mm)*
G04 Created by KiCad (PCBNEW (6.0.6)) date 2022-07-08 10:44:38*
%MOMM*%
%LPD*%
G01*
G04 APERTURE LIST*
%TA.AperFunction,Profile*%
%ADD10C,0.200000*%
%TD*%
%ADD11C,0.150000*%
%ADD12C,0.050000*%
G04 APERTURE END LIST*
D10*
X54898757Y-36329557D02*
X51345231Y-36329557D01*
X46345230Y-135080000D02*
G75*
G03*
X51345231Y-140080000I5000000J0D01*
G01*
X129190050Y-101251336D02*
G75*
G03*
X129190050Y-101251336I-1740060J0D01*
G01*
X136750000Y-50180957D02*
X169682342Y-50180957D01*
X51345231Y-140080000D02*
X59900000Y-140080000D01*
X134011141Y-62909400D02*
G75*
G03*
X134011141Y-62909400I-1741410J0D01*
G01*
X217545231Y-119953960D02*
X217545231Y-135080000D01*
X140555410Y-131951800D02*
G75*
G03*
X140555410Y-131951800I-1741410J0D01*
G01*
X217545231Y-66131713D02*
X217545231Y-41268982D01*
X178717040Y-106170860D02*
G75*
G03*
X180717000Y-108170860I2000060J60D01*
G01*
X188942909Y-77646960D02*
X180717000Y-77646960D01*
X192942909Y-71131709D02*
G75*
G03*
X190942909Y-73131713I-109J-1999891D01*
G01*
X54898757Y-36329557D02*
X129747928Y-36298538D01*
X129232210Y-43254160D02*
G75*
G03*
X129232210Y-43254160I-1741410J0D01*
G01*
X46345231Y-41329557D02*
X46345231Y-135080000D01*
X217545240Y-119953960D02*
G75*
G03*
X212545231Y-114953960I-5000040J-40D01*
G01*
X57011131Y-105259400D02*
G75*
G03*
X57011131Y-105259400I-1741410J0D01*
G01*
X53580000Y-43071200D02*
G75*
G03*
X53580000Y-43071200I-1740000J0D01*
G01*
X57011131Y-62759400D02*
G75*
G03*
X57011131Y-62759400I-1741410J0D01*
G01*
X51345231Y-36329561D02*
G75*
G03*
X46345231Y-41329557I9J-5000009D01*
G01*
X53580000Y-133088800D02*
G75*
G03*
X53580000Y-133088800I-1740000J0D01*
G01*
X189554000Y-131951800D02*
G75*
G03*
X189554000Y-131951800I-1740000J0D01*
G01*
X190942909Y-110170860D02*
X190942909Y-112953960D01*
X80190000Y-101220000D02*
G75*
G03*
X80190000Y-101220000I-1740000J0D01*
G01*
X213600000Y-133088800D02*
G75*
G03*
X213600000Y-133088800I-1740000J0D01*
G01*
X217545218Y-41268982D02*
G75*
G03*
X212545231Y-36268982I-5000018J-18D01*
G01*
X134011131Y-105259400D02*
G75*
G03*
X134011131Y-105259400I-1741410J0D01*
G01*
X169682342Y-50180942D02*
G75*
G03*
X171682342Y-48180957I58J1999942D01*
G01*
X140555410Y-73951760D02*
G75*
G03*
X140555410Y-73951760I-1741410J0D01*
G01*
X212545231Y-71131731D02*
G75*
G03*
X217545231Y-66131713I-131J5000131D01*
G01*
X134750043Y-48180957D02*
G75*
G03*
X136750000Y-50180957I2000057J57D01*
G01*
X190942840Y-112953960D02*
G75*
G03*
X192942909Y-114953960I2000060J60D01*
G01*
X189555410Y-73951760D02*
G75*
G03*
X189555410Y-73951760I-1741410J0D01*
G01*
X134750000Y-41298538D02*
X134750000Y-48180957D01*
X59900000Y-140080000D02*
X212545231Y-140080000D01*
X212545231Y-140079931D02*
G75*
G03*
X217545231Y-135080000I-31J5000031D01*
G01*
X180717000Y-77646900D02*
G75*
G03*
X178717000Y-79646960I0J-2000000D01*
G01*
X80152939Y-43280000D02*
G75*
G03*
X80152939Y-43280000I-1702939J0D01*
G01*
X176682342Y-36269042D02*
G75*
G03*
X171682342Y-41268982I-42J-4999958D01*
G01*
X190942909Y-73131713D02*
X190942909Y-75646960D01*
X171682342Y-48180957D02*
X171682342Y-41268982D01*
X188942909Y-77647009D02*
G75*
G03*
X190942909Y-75646960I-9J2000009D01*
G01*
X134750062Y-41298538D02*
G75*
G03*
X129747928Y-36298538I-4999962J38D01*
G01*
X178717000Y-79646960D02*
X178717000Y-106170860D01*
X176682342Y-36268982D02*
X212545231Y-36268982D01*
X213601410Y-43071200D02*
G75*
G03*
X213601410Y-43071200I-1741410J0D01*
G01*
X192942909Y-114953960D02*
X212545231Y-114953960D01*
X180717000Y-108170860D02*
X188942909Y-108170860D01*
X212545231Y-71131713D02*
X192942909Y-71131713D01*
X190942840Y-110170860D02*
G75*
G03*
X188942909Y-108170860I-1999940J60D01*
G01*
D11*
%TO.C,ENC1*%
X121205000Y-44110000D02*
X107355000Y-44110000D01*
X107355000Y-59385000D02*
X121205000Y-59385000D01*
X107355000Y-59385000D02*
X107355000Y-59385000D01*
X107355000Y-44110000D02*
X107355000Y-59385000D01*
X121205000Y-59385000D02*
X121205000Y-44110000D01*
D12*
%TO.C,K3*%
X181520000Y-116810000D02*
X181520000Y-129310000D01*
X197520000Y-129310000D02*
X197520000Y-116810000D01*
X197520000Y-116810000D02*
X181520000Y-116810000D01*
X181520000Y-129310000D02*
X197520000Y-129310000D01*
%TO.C,R13*%
X130580000Y-45940000D02*
X130580000Y-58200000D01*
X133580000Y-58200000D02*
X133580000Y-45940000D01*
X133580000Y-45940000D02*
X130580000Y-45940000D01*
X130580000Y-58200000D02*
X133580000Y-58200000D01*
%TO.C,R12*%
X165000000Y-77450000D02*
X152740000Y-77450000D01*
X152740000Y-80450000D02*
X165000000Y-80450000D01*
X165000000Y-80450000D02*
X165000000Y-77450000D01*
X152740000Y-77450000D02*
X152740000Y-80450000D01*
%TO.C,J1*%
X99710000Y-44535000D02*
X99710000Y-58285000D01*
X103310000Y-58285000D02*
X103310000Y-44535000D01*
X103310000Y-44535000D02*
X99710000Y-44535000D01*
X99710000Y-58285000D02*
X103310000Y-58285000D01*
%TO.C,R17*%
X152730000Y-88500000D02*
X152730000Y-91500000D01*
X164990000Y-88500000D02*
X152730000Y-88500000D01*
X164990000Y-91500000D02*
X164990000Y-88500000D01*
X152730000Y-91500000D02*
X164990000Y-91500000D01*
%TO.C,R18*%
X164880000Y-76430000D02*
X164880000Y-73430000D01*
X152620000Y-76430000D02*
X164880000Y-76430000D01*
X164880000Y-73430000D02*
X152620000Y-73430000D01*
X152620000Y-73430000D02*
X152620000Y-76430000D01*
%TO.C,J4*%
X177270000Y-52600000D02*
X191020000Y-52600000D01*
X191020000Y-49000000D02*
X177270000Y-49000000D01*
X177270000Y-49000000D02*
X177270000Y-52600000D01*
X191020000Y-52600000D02*
X191020000Y-49000000D01*
%TO.C,R8*%
X152620000Y-84050000D02*
X164880000Y-84050000D01*
X164880000Y-84050000D02*
X164880000Y-81050000D01*
X152620000Y-81050000D02*
X152620000Y-84050000D01*
X164880000Y-81050000D02*
X152620000Y-81050000D01*
%TO.C,R14*%
X164880000Y-87850000D02*
X164880000Y-84850000D01*
X152620000Y-84850000D02*
X152620000Y-87850000D01*
X152620000Y-87850000D02*
X164880000Y-87850000D01*
X164880000Y-84850000D02*
X152620000Y-84850000D01*
%TO.C,R22*%
X168690000Y-117175000D02*
X168690000Y-114175000D01*
X156430000Y-117175000D02*
X168690000Y-117175000D01*
X156430000Y-114175000D02*
X156430000Y-117175000D01*
X168690000Y-114175000D02*
X156430000Y-114175000D01*
%TO.C,C8*%
X158866666Y-57410000D02*
X158866666Y-64510000D01*
X161266666Y-57410000D02*
X158866666Y-57410000D01*
X158866666Y-64510000D02*
X161266666Y-64510000D01*
X161266666Y-64510000D02*
X161266666Y-57410000D01*
%TO.C,J10*%
X147260000Y-128850000D02*
X147260000Y-77000000D01*
X141110000Y-77000000D02*
X141110000Y-128850000D01*
X147260000Y-77000000D02*
X141110000Y-77000000D01*
X141110000Y-128850000D02*
X147260000Y-128850000D01*
%TO.C,K2*%
X162690000Y-118700000D02*
X150190000Y-118700000D01*
X162690000Y-134700000D02*
X162690000Y-118700000D01*
X150190000Y-134700000D02*
X162690000Y-134700000D01*
X150190000Y-118700000D02*
X150190000Y-134700000D01*
%TO.C,R3*%
X147150000Y-70900000D02*
X150150000Y-70900000D01*
X150150000Y-70900000D02*
X150150000Y-58640000D01*
X147150000Y-58640000D02*
X147150000Y-70900000D01*
X150150000Y-58640000D02*
X147150000Y-58640000D01*
%TO.C,C6*%
X154870000Y-103880000D02*
X154870000Y-96780000D01*
X154870000Y-96780000D02*
X152470000Y-96780000D01*
X152470000Y-103880000D02*
X154870000Y-103880000D01*
X152470000Y-96780000D02*
X152470000Y-103880000D01*
%TO.C,J5*%
X170360000Y-78010000D02*
X170360000Y-71910000D01*
X179010000Y-71910000D02*
X179010000Y-78010000D01*
X179010000Y-78010000D02*
X170360000Y-78010000D01*
X170360000Y-71910000D02*
X179010000Y-71910000D01*
%TO.C,R11*%
X168690000Y-106910000D02*
X168690000Y-103910000D01*
X156430000Y-103910000D02*
X156430000Y-106910000D01*
X156430000Y-106910000D02*
X168690000Y-106910000D01*
X168690000Y-103910000D02*
X156430000Y-103910000D01*
%TO.C,R21*%
X156430000Y-112042500D02*
X168690000Y-112042500D01*
X168690000Y-112042500D02*
X168690000Y-109042500D01*
X156430000Y-109042500D02*
X156430000Y-112042500D01*
X168690000Y-109042500D02*
X156430000Y-109042500D01*
%TO.C,R19*%
X156430000Y-101830000D02*
X168690000Y-101830000D01*
X156430000Y-98830000D02*
X156430000Y-101830000D01*
X168690000Y-98830000D02*
X156430000Y-98830000D01*
X168690000Y-101830000D02*
X168690000Y-98830000D01*
%TO.C,J9*%
X119569800Y-103559200D02*
X67719800Y-103559200D01*
X67719800Y-107159200D02*
X119569800Y-107159200D01*
X119569800Y-107159200D02*
X119569800Y-103559200D01*
X67719800Y-103559200D02*
X67719800Y-107159200D01*
%TO.C,R20*%
X168690000Y-93645000D02*
X156430000Y-93645000D01*
X156430000Y-93645000D02*
X156430000Y-96645000D01*
X156430000Y-96645000D02*
X168690000Y-96645000D01*
X168690000Y-96645000D02*
X168690000Y-93645000D01*
%TO.C,R15*%
X163623332Y-54830000D02*
X163623332Y-67090000D01*
X166623332Y-54830000D02*
X163623332Y-54830000D01*
X166623332Y-67090000D02*
X166623332Y-54830000D01*
X163623332Y-67090000D02*
X166623332Y-67090000D01*
D11*
%TO.C,ENC2*%
X74285000Y-113725000D02*
X59010000Y-113725000D01*
X74285000Y-127575000D02*
X74285000Y-127575000D01*
X74285000Y-127575000D02*
X74285000Y-113725000D01*
X59010000Y-113725000D02*
X59010000Y-127575000D01*
X59010000Y-127575000D02*
X74285000Y-127575000D01*
D12*
%TO.C,R10*%
X125256002Y-45940000D02*
X122256002Y-45940000D01*
X122256002Y-45940000D02*
X122256002Y-58200000D01*
X122256002Y-58200000D02*
X125256002Y-58200000D01*
X125256002Y-58200000D02*
X125256002Y-45940000D01*
%TO.C,C10*%
X154870000Y-114000000D02*
X154870000Y-106900000D01*
X152470000Y-106900000D02*
X152470000Y-114000000D01*
X154870000Y-106900000D02*
X152470000Y-106900000D01*
X152470000Y-114000000D02*
X154870000Y-114000000D01*
%TO.C,C9*%
X168980000Y-57410000D02*
X168980000Y-64510000D01*
X171380000Y-64510000D02*
X171380000Y-57410000D01*
X171380000Y-57410000D02*
X168980000Y-57410000D01*
X168980000Y-64510000D02*
X171380000Y-64510000D01*
%TO.C,R1*%
X138300000Y-70900000D02*
X138300000Y-58640000D01*
X135300000Y-58640000D02*
X135300000Y-70900000D01*
X135300000Y-70900000D02*
X138300000Y-70900000D01*
X138300000Y-58640000D02*
X135300000Y-58640000D01*
%TO.C,J11*%
X202655000Y-117570000D02*
X206205000Y-117570000D01*
X202655000Y-128770000D02*
X202655000Y-117570000D01*
X206205000Y-117570000D02*
X206205000Y-128770000D01*
X206205000Y-128770000D02*
X202655000Y-128770000D01*
%TO.C,C5*%
X126769998Y-48520000D02*
X126769998Y-55620000D01*
X129169998Y-55620000D02*
X129169998Y-48520000D01*
X126769998Y-55620000D02*
X129169998Y-55620000D01*
X129169998Y-48520000D02*
X126769998Y-48520000D01*
%TO.C,C7*%
X156510000Y-64510000D02*
X156510000Y-57410000D01*
X156510000Y-57410000D02*
X154110000Y-57410000D01*
X154110000Y-57410000D02*
X154110000Y-64510000D01*
X154110000Y-64510000D02*
X156510000Y-64510000D01*
%TO.C,K1*%
X71320000Y-59200000D02*
X87320000Y-59200000D01*
X71320000Y-46700000D02*
X71320000Y-59200000D01*
X87320000Y-46700000D02*
X71320000Y-46700000D01*
X87320000Y-59200000D02*
X87320000Y-46700000D01*
%TO.C,C4*%
X169480000Y-92450000D02*
X169480000Y-85350000D01*
X167080000Y-85350000D02*
X167080000Y-92450000D01*
X167080000Y-92450000D02*
X169480000Y-92450000D01*
X169480000Y-85350000D02*
X167080000Y-85350000D01*
%TO.C,R6*%
X152580000Y-69620000D02*
X152580000Y-72620000D01*
X164840000Y-69620000D02*
X152580000Y-69620000D01*
X152580000Y-72620000D02*
X164840000Y-72620000D01*
X164840000Y-72620000D02*
X164840000Y-69620000D01*
%TO.C,J7*%
X172110000Y-113785000D02*
X178210000Y-113785000D01*
X178210000Y-113785000D02*
X178210000Y-122435000D01*
X178210000Y-122435000D02*
X172110000Y-122435000D01*
X172110000Y-122435000D02*
X172110000Y-113785000D01*
%TO.C,C11*%
X148570000Y-114000000D02*
X150970000Y-114000000D01*
X148570000Y-106900000D02*
X148570000Y-114000000D01*
X150970000Y-114000000D02*
X150970000Y-106900000D01*
X150970000Y-106900000D02*
X148570000Y-106900000D01*
%TO.C,C1*%
X170250000Y-85350000D02*
X170250000Y-92450000D01*
X172650000Y-85350000D02*
X170250000Y-85350000D01*
X172650000Y-92450000D02*
X172650000Y-85350000D01*
X170250000Y-92450000D02*
X172650000Y-92450000D01*
%TO.C,R2*%
X194530000Y-67860000D02*
X206790000Y-67860000D01*
X206790000Y-67860000D02*
X206790000Y-64860000D01*
X206790000Y-64860000D02*
X194530000Y-64860000D01*
X194530000Y-64860000D02*
X194530000Y-67860000D01*
D11*
%TO.C,ENC3*%
X130165000Y-127575000D02*
X130165000Y-127575000D01*
X114890000Y-113725000D02*
X114890000Y-127575000D01*
X130165000Y-113725000D02*
X114890000Y-113725000D01*
X114890000Y-127575000D02*
X130165000Y-127575000D01*
X130165000Y-127575000D02*
X130165000Y-113725000D01*
D12*
%TO.C,C3*%
X150970000Y-96780000D02*
X148570000Y-96780000D01*
X148570000Y-103880000D02*
X150970000Y-103880000D01*
X148570000Y-96780000D02*
X148570000Y-103880000D01*
X150970000Y-103880000D02*
X150970000Y-96780000D01*
D11*
%TO.C,ENC4*%
X191075000Y-55255000D02*
X177225000Y-55255000D01*
X177225000Y-55255000D02*
X177225000Y-70530000D01*
X191075000Y-55255000D02*
X191075000Y-55255000D01*
X191075000Y-70530000D02*
X191075000Y-55255000D01*
X177225000Y-70530000D02*
X191075000Y-70530000D01*
D12*
%TO.C,R9*%
X143340000Y-58640000D02*
X143340000Y-70900000D01*
X146340000Y-70900000D02*
X146340000Y-58640000D01*
X146340000Y-58640000D02*
X143340000Y-58640000D01*
X143340000Y-70900000D02*
X146340000Y-70900000D01*
%TO.C,R16*%
X206790000Y-59430000D02*
X194530000Y-59430000D01*
X194530000Y-59430000D02*
X194530000Y-62430000D01*
X194530000Y-62430000D02*
X206790000Y-62430000D01*
X206790000Y-62430000D02*
X206790000Y-59430000D01*
%TO.C,J3*%
X131550000Y-113780000D02*
X131550000Y-127530000D01*
X131550000Y-127530000D02*
X135150000Y-127530000D01*
X135150000Y-113780000D02*
X131550000Y-113780000D01*
X135150000Y-127530000D02*
X135150000Y-113780000D01*
%TO.C,J8*%
X59350000Y-44010000D02*
X59350000Y-37910000D01*
X68000000Y-44010000D02*
X59350000Y-44010000D01*
X68000000Y-37910000D02*
X68000000Y-44010000D01*
X59350000Y-37910000D02*
X68000000Y-37910000D01*
%TO.C,R5*%
X142470000Y-58640000D02*
X139470000Y-58640000D01*
X142470000Y-70900000D02*
X142470000Y-58640000D01*
X139470000Y-58640000D02*
X139470000Y-70900000D01*
X139470000Y-70900000D02*
X142470000Y-70900000D01*
%TO.C,R4*%
X173820000Y-94550000D02*
X176820000Y-94550000D01*
X173820000Y-82290000D02*
X173820000Y-94550000D01*
X176820000Y-82290000D02*
X173820000Y-82290000D01*
X176820000Y-94550000D02*
X176820000Y-82290000D01*
%TO.C,J2*%
X79270000Y-113780000D02*
X75670000Y-113780000D01*
X75670000Y-127530000D02*
X79270000Y-127530000D01*
X79270000Y-127530000D02*
X79270000Y-113780000D01*
X75670000Y-113780000D02*
X75670000Y-127530000D01*
%TO.C,R7*%
X136050000Y-54640000D02*
X148310000Y-54640000D01*
X148310000Y-51640000D02*
X136050000Y-51640000D01*
X148310000Y-54640000D02*
X148310000Y-51640000D01*
X136050000Y-51640000D02*
X136050000Y-54640000D01*
%TO.C,C2*%
X138690000Y-55950000D02*
X138690000Y-58350000D01*
X145790000Y-55950000D02*
X138690000Y-55950000D01*
X145790000Y-58350000D02*
X145790000Y-55950000D01*
X138690000Y-58350000D02*
X145790000Y-58350000D01*
%TD*%
M02*
