M48
; DRILL file {KiCad (6.0.6)} date ven. 08 juil. 2022 10:44:44
; FORMAT={-:-/ absolute / inch / decimal}
; #@! TF.CreationDate,2022-07-08T10:44:44+02:00
; #@! TF.GenerationSoftware,Kicad,Pcbnew,(6.0.6)
; #@! TF.FileFunction,Plated,1,2,PTH
FMAT,2
INCH
; #@! TA.AperFunction,Plated,PTH,ViaDrill
T1C0.0157
; #@! TA.AperFunction,Plated,PTH,ViaDrill
T2C0.0236
; #@! TA.AperFunction,Plated,PTH,ComponentDrill
T3C0.0315
; #@! TA.AperFunction,Plated,PTH,ComponentDrill
T4C0.0394
; #@! TA.AperFunction,Plated,PTH,ComponentDrill
T5C0.0472
; #@! TA.AperFunction,Plated,PTH,ComponentDrill
T6C0.0520
; #@! TA.AperFunction,Plated,PTH,ComponentDrill
T7C0.0591
%
G90
G05
T1
X2.1843Y-1.5236
X2.2113Y-1.7901
X2.2232Y-1.628
X3.4661Y-4.3291
X3.474Y-4.2785
X3.9941Y-3.3106
X4.3563Y-1.8787
X4.4776Y-4.3244
X4.4855Y-4.2785
X4.5543Y-4.3878
X4.5956Y-4.2959
X4.6059Y-4.4106
X4.6087Y-4.2535
X4.8059Y-1.9053
X4.8319Y-2.3181
X4.8353Y-2.0997
X4.898Y-2.8673
X4.9752Y-4.589
X5.0024Y-3.7516
X5.0787Y-2.7764
X5.0787Y-4.4602
X5.1551Y-2.9669
X5.1988Y-2.7579
X5.2106Y-2.8161
X5.2272Y-3.5224
X5.2894Y-3.422
X5.3228Y-2.2272
X5.335Y-2.9323
X5.4031Y-3.6252
X5.4587Y-3.839
X5.4669Y-3.4217
X5.5083Y-3.0846
X5.5173Y-4.322
X5.5232Y-4.2071
X5.5413Y-3.9724
X5.5421Y-4.7154
X5.5823Y-2.6899
X5.5878Y-3.0067
X5.6063Y-2.5433
X5.7201Y-2.4587
X5.7717Y-2.6091
X5.7843Y-2.7254
X5.8035Y-4.3488
X5.8094Y-3.9689
X5.814Y-4.1323
X5.8232Y-2.8232
X5.8276Y-3.8126
X5.8728Y-2.9831
X5.8976Y-3.0287
X5.9157Y-4.7622
X5.9209Y-2.6091
X5.9232Y-3.3965
X5.9339Y-3.7339
X5.948Y-3.0878
X5.9516Y-5.3472
X5.9634Y-4.013
X5.9748Y-2.6165
X5.9831Y-4.6724
X5.9957Y-2.4075
X6.0126Y-3.7102
X6.0193Y-4.6376
X6.0677Y-3.6823
X6.0906Y-4.5479
X6.0972Y-3.7602
X6.126Y-3.9717
X6.1386Y-3.6492
X6.15Y-4.25
X6.2035Y-4.0189
X6.2197Y-3.1394
X6.2378Y-4.1008
X6.2789Y-4.0647
X6.3Y-3.65
X6.3024Y-3.8457
X6.3071Y-3.3567
X6.3232Y-2.6912
X6.3685Y-4.165
X6.374Y-3.9398
X6.3791Y-3.8236
X6.3811Y-3.3138
X6.3945Y-3.4587
X6.4Y-4.1
X6.4075Y-3.8642
X6.4241Y-4.8314
X6.4287Y-3.0323
X6.43Y-2.69
X6.4359Y-3.8956
X6.4524Y-4.8862
X6.4925Y-3.6378
X6.4972Y-3.863
X6.5Y-4.05
X6.5038Y-3.4228
X6.5343Y-4.2461
X6.5559Y-4.2012
X6.5894Y-3.3087
X6.59Y-2.74
X6.5962Y-2.989
X6.6079Y-3.8602
X6.6185Y-3.6811
X6.6638Y-2.0622
X6.6776Y-4.2618
X6.6976Y-2.6339
X6.7311Y-2.1075
X6.7787Y-3.1913
X6.8004Y-2.6639
X6.8492Y-2.5055
X6.8528Y-3.339
X6.8622Y-2.1587
X6.8953Y-2.1079
X6.9106Y-3.2256
X6.9106Y-4.087
X6.9276Y-2.0642
X6.9291Y-2.2157
X7.0069Y-3.2965
X7.3835Y-4.7567
T2
X6.7856Y-2.2685
X6.874Y-2.7165
X6.9689Y-2.0382
T3
X4.8723Y-1.85
X4.8723Y-2.25
X5.0382Y-1.9516
X5.0382Y-2.1484
X5.2Y-1.85
X5.2Y-2.25
X5.3858Y-2.35
X5.3858Y-2.75
X5.3976Y-2.0921
X5.5016Y-2.25
X5.55Y-2.35
X5.55Y-2.75
X5.6984Y-2.25
X5.7024Y-2.35
X5.7024Y-2.75
X5.7976Y-2.0921
X5.8524Y-2.35
X5.8524Y-2.75
X5.8965Y-3.8516
X5.8965Y-4.0484
X5.8965Y-4.25
X5.8965Y-4.4469
X6.0484Y-2.8
X6.05Y-2.95
X6.05Y-3.25
X6.05Y-3.3996
X6.05Y-3.8516
X6.05Y-4.0484
X6.05Y-4.25
X6.05Y-4.4469
X6.0543Y-3.5433
X6.0547Y-3.1083
X6.1146Y-2.3016
X6.1146Y-2.4984
X6.2Y-3.7459
X6.2Y-3.95
X6.2Y-4.15
X6.2Y-4.3521
X6.2Y-4.5541
X6.3018Y-2.3016
X6.3018Y-2.4984
X6.4484Y-2.8
X6.45Y-2.95
X6.45Y-3.25
X6.45Y-3.3996
X6.4543Y-3.5433
X6.4547Y-3.1083
X6.5009Y-2.2
X6.5009Y-2.6
X6.6Y-3.7459
X6.6Y-3.95
X6.6Y-4.15
X6.6Y-4.3521
X6.6Y-4.5541
X6.6252Y-3.4016
X6.6252Y-3.5984
X6.7Y-2.3016
X6.7Y-2.4984
X6.75Y-3.4016
X6.75Y-3.5984
X6.9024Y-3.2811
X6.9024Y-3.6811
X7.7Y-2.3988
X7.7Y-2.6126
X8.1Y-2.3988
X8.1Y-2.6126
T4
X2.3547Y-4.6516
X2.3547Y-4.75
X2.3547Y-4.8484
X2.4075Y-1.5618
X2.4075Y-1.6618
X2.5075Y-1.5618
X2.5075Y-1.6618
X2.6075Y-1.5618
X2.6075Y-1.6618
X2.737Y-4.148
X2.837Y-4.148
X2.937Y-4.148
X3.037Y-4.148
X3.05Y-4.55
X3.05Y-4.65
X3.05Y-4.75
X3.05Y-4.85
X3.05Y-4.95
X3.137Y-4.148
X3.237Y-4.148
X3.337Y-4.148
X3.437Y-4.148
X3.5043Y-1.6966
X3.5043Y-1.7966
X3.537Y-4.148
X3.6043Y-1.6966
X3.6043Y-1.7966
X3.637Y-4.148
X3.7043Y-1.6966
X3.7043Y-1.7966
X3.737Y-4.148
X3.837Y-4.148
X3.937Y-4.148
X3.9965Y-1.8238
X3.9965Y-1.9238
X3.9965Y-2.0238
X3.9965Y-2.1238
X3.9965Y-2.2238
X4.037Y-4.148
X4.137Y-4.148
X4.237Y-4.148
X4.337Y-4.148
X4.4008Y-1.7681
X4.437Y-4.148
X4.4992Y-1.7681
X4.537Y-4.148
X4.5547Y-4.6516
X4.5547Y-4.75
X4.5547Y-4.8484
X4.5976Y-1.7681
X4.637Y-4.148
X5.25Y-4.55
X5.25Y-4.65
X5.25Y-4.75
X5.25Y-4.85
X5.25Y-4.95
X5.6268Y-3.102
X5.6268Y-3.202
X5.6268Y-3.302
X5.6268Y-3.402
X5.6268Y-3.502
X5.6268Y-3.602
X5.6268Y-3.702
X5.6268Y-3.802
X5.6268Y-3.902
X5.6268Y-4.002
X5.6268Y-4.102
X5.6268Y-4.202
X5.6268Y-4.302
X5.6268Y-4.402
X5.6268Y-4.502
X5.6268Y-4.602
X5.6268Y-4.702
X5.6268Y-4.802
X5.6268Y-4.902
X5.6268Y-5.002
X5.7268Y-3.102
X5.7268Y-3.202
X5.7268Y-3.302
X5.7268Y-3.402
X5.7268Y-3.502
X5.7268Y-3.602
X5.7268Y-3.702
X5.7268Y-3.802
X5.7268Y-3.902
X5.7268Y-4.002
X5.7268Y-4.102
X5.7268Y-4.202
X5.7268Y-4.302
X5.7268Y-4.402
X5.7268Y-4.502
X5.7268Y-4.602
X5.7268Y-4.702
X5.7268Y-4.802
X5.7268Y-4.902
X5.7268Y-5.002
X6.7768Y-2.902
X6.7768Y-3.002
X6.8469Y-4.5506
X6.8469Y-4.6506
X6.8469Y-4.7506
X6.8768Y-2.902
X6.8768Y-3.002
X6.9469Y-4.5506
X6.9469Y-4.6506
X6.9469Y-4.7506
X6.9768Y-2.902
X6.9768Y-3.002
X7.05Y-2.0
X7.15Y-2.0
X7.1516Y-2.7453
X7.25Y-2.0
X7.25Y-2.7453
X7.3484Y-2.7453
X7.35Y-2.0
X7.45Y-2.0
X8.0494Y-4.6996
X8.0494Y-4.7996
X8.0494Y-4.8996
X8.0494Y-4.9996
T5
X2.8968Y-1.9362
X2.8968Y-2.2362
X3.3468Y-1.9362
X3.3468Y-2.2362
X6.0075Y-4.7621
X6.0075Y-5.2121
X6.3075Y-4.7621
X6.3075Y-5.2121
X7.2354Y-4.6965
X7.2354Y-4.9965
X7.6854Y-4.6965
X7.6854Y-4.9965
T6
X2.4016Y-2.0667
X2.4016Y-2.2636
T7
G00X2.6992Y-4.5256
M15
G01X2.6008Y-4.5256
M16
G05
G00X2.6992Y-4.9744
M15
G01X2.6008Y-4.9744
M16
G05
G00X4.2748Y-2.1126
M15
G01X4.2748Y-2.0142
M16
G05
G00X4.7236Y-2.1126
M15
G01X4.7236Y-2.0142
M16
G05
G00X4.8992Y-4.5256
M15
G01X4.8008Y-4.5256
M16
G05
G00X4.8992Y-4.9744
M15
G01X4.8008Y-4.9744
M16
G05
G00X7.0256Y-2.4008
M15
G01X7.0256Y-2.4992
M16
G05
G00X7.4744Y-2.4008
M15
G01X7.4744Y-2.4992
M16
G05
T0
M30
