999
dxfrw 0.6.3
  0
SECTION
  2
HEADER
  9
$ACADVER
  1
AC1021
  9
$DWGCODEPAGE
  3
ANSI_1252
  9
$INSBASE
 10
0
 20
0
 30
0
  9
$EXTMIN
 10
-16.22799643291836
 20
-16.22299643291878
 30
0
  9
$EXTMAX
 10
176.2279964329184
 20
96.22299643291879
 30
0
  9
$LIMMIN
 10
0
 20
0
  9
$LIMMAX
 10
420
 20
297
  9
$ORTHOMODE
 70
    0
  9
$REGENMODE
 70
    1
  9
$FILLMODE
 70
    1
  9
$QTEXTMODE
 70
    0
  9
$MIRRTEXT
 70
    0
  9
$LTSCALE
 40
1
  9
$ATTMODE
 70
    0
  9
$TEXTSIZE
 40
2.5
  9
$TRACEWID
 40
15.68
  9
$TEXTSTYLE
  7
STANDARD
  9
$CLAYER
  8
0
  9
$CELTYPE
  6
BYLAYER
  9
$CECOLOR
 62
  256
  9
$CELTSCALE
 40
1
  9
$DISPSILH
 70
    0
  9
$DIMSCALE
 40
1
  9
$DIMASZ
 40
2.5
  9
$DIMEXO
 40
0.625
  9
$DIMDLI
 40
3.75
  9
$DIMRND
 40
0
  9
$DIMDLE
 40
0
  9
$DIMEXE
 40
1.25
  9
$DIMTP
 40
0
  9
$DIMTM
 40
0
  9
$DIMTXT
 40
2.5
  9
$DIMCEN
 40
2.5
  9
$DIMTSZ
 40
0
  9
$DIMTOL
 70
    0
  9
$DIMLIM
 70
    0
  9
$DIMTIH
 70
    0
  9
$DIMTOH
 70
    0
  9
$DIMSE1
 70
    0
  9
$DIMSE2
 70
    0
  9
$DIMTAD
 70
    1
  9
$DIMZIN
 70
    8
  9
$DIMBLK
  1

  9
$DIMASO
 70
    1
  9
$DIMSHO
 70
    1
  9
$DIMPOST
  1

  9
$DIMAPOST
  1

  9
$DIMALT
 70
    0
  9
$DIMALTD
 70
    3
  9
$DIMALTF
 40
0.03937
  9
$DIMLFAC
 40
1
  9
$DIMTOFL
 70
    1
  9
$DIMTVP
 40
0
  9
$DIMTIX
 70
    0
  9
$DIMSOXD
 70
    0
  9
$DIMSAH
 70
    0
  9
$DIMBLK1
  1

  9
$DIMBLK2
  1

  9
$DIMSTYLE
  2
Standard
  9
$DIMCLRD
 70
    0
  9
$DIMCLRE
 70
    0
  9
$DIMCLRT
 70
    0
  9
$DIMTFAC
 40
1
  9
$DIMGAP
 40
0.625
  9
$DIMJUST
 70
    0
  9
$DIMSD1
 70
    0
  9
$DIMSD2
 70
    0
  9
$DIMTOLJ
 70
    0
  9
$DIMTZIN
 70
    8
  9
$DIMALTZ
 70
    0
  9
$DIMALTTZ
 70
    0
  9
$DIMUPT
 70
    0
  9
$DIMDEC
 70
    2
  9
$DIMTDEC
 70
    2
  9
$DIMALTU
 70
    2
  9
$DIMALTTD
 70
    3
  9
$DIMTXSTY
  7
STANDARD
  9
$DIMAUNIT
 70
    0
  9
$DIMADEC
 70
    0
  9
$DIMALTRND
 40
0
  9
$DIMAZIN
 70
    0
  9
$DIMDSEP
 70
   44
  9
$DIMATFIT
 70
    3
  9
$DIMFRAC
 70
    0
  9
$DIMLDRBLK
  1
STANDARD
  9
$DIMLUNIT
 70
    2
  9
$DIMLWD
 70
   -2
  9
$DIMLWE
 70
   -2
  9
$DIMTMOVE
 70
    0
  9
$DIMFXL
 40
1
  9
$DIMFXLON
 70
    0
  9
$DIMJOGANG
 40
0.7854
  9
$DIMTFILL
 70
    0
  9
$DIMTFILLCLR
 70
    0
  9
$DIMARCSYM
 70
    0
  9
$DIMLTYPE
  6

  9
$DIMLTEX1
  6

  9
$DIMLTEX2
  6

  9
$LUNITS
 70
    2
  9
$LUPREC
 70
    4
  9
$SKETCHINC
 40
1
  9
$FILLETRAD
 40
0
  9
$AUNITS
 70
    0
  9
$AUPREC
 70
    2
  9
$MENU
  1
.
  9
$ELEVATION
 40
0
  9
$PELEVATION
 40
0
  9
$THICKNESS
 40
0
  9
$LIMCHECK
 70
    0
  9
$CHAMFERA
 40
0
  9
$CHAMFERB
 40
0
  9
$CHAMFERC
 40
0
  9
$CHAMFERD
 40
0
  9
$SKPOLY
 70
    0
  9
$USRTIMER
 70
    1
  9
$ANGBASE
 50
0
  9
$ANGDIR
 70
    0
  9
$PDMODE
 70
   34
  9
$PDSIZE
 40
0
  9
$PLINEWID
 40
0
  9
$SPLFRAME
 70
    0
  9
$SPLINETYPE
 70
    2
  9
$SPLINESEGS
 70
    8
  9
$HANDSEED
  5
20000
  9
$SURFTAB1
 70
    6
  9
$SURFTAB2
 70
    6
  9
$SURFTYPE
 70
    6
  9
$SURFU
 70
    6
  9
$SURFV
 70
    6
  9
$UCSBASE
  2

  9
$UCSNAME
  2

  9
$UCSORG
 10
0
 20
0
 30
0
  9
$UCSXDIR
 10
1
 20
0
 30
0
  9
$UCSYDIR
 10
0
 20
1
 30
0
  9
$UCSORTHOREF
  2

  9
$UCSORTHOVIEW
 70
    0
  9
$UCSORGTOP
 10
0
 20
0
 30
0
  9
$UCSORGBOTTOM
 10
0
 20
0
 30
0
  9
$UCSORGLEFT
 10
0
 20
0
 30
0
  9
$UCSORGRIGHT
 10
0
 20
0
 30
0
  9
$UCSORGFRONT
 10
0
 20
0
 30
0
  9
$UCSORGBACK
 10
0
 20
0
 30
0
  9
$PUCSBASE
  2

  9
$PUCSNAME
  2

  9
$PUCSORG
 10
0
 20
0
 30
0
  9
$PUCSXDIR
 10
1
 20
0
 30
0
  9
$PUCSYDIR
 10
0
 20
1
 30
0
  9
$PUCSORTHOREF
  2

  9
$PUCSORTHOVIEW
 70
    0
  9
$PUCSORGTOP
 10
0
 20
0
 30
0
  9
$PUCSORGBOTTOM
 10
0
 20
0
 30
0
  9
$PUCSORGLEFT
 10
0
 20
0
 30
0
  9
$PUCSORGRIGHT
 10
0
 20
0
 30
0
  9
$PUCSORGFRONT
 10
0
 20
0
 30
0
  9
$PUCSORGBACK
 10
0
 20
0
 30
0
  9
$USERI1
 70
    0
  9
$USERI2
 70
    0
  9
$USERI3
 70
    0
  9
$USERI4
 70
    0
  9
$USERI5
 70
    0
  9
$USERR1
 40
0
  9
$USERR2
 40
0
  9
$USERR3
 40
0
  9
$USERR4
 40
0
  9
$USERR5
 40
0
  9
$WORLDVIEW
 70
    1
  9
$SHADEDGE
 70
    3
  9
$SHADEDIF
 70
   70
  9
$TILEMODE
 70
    1
  9
$MAXACTVP
 70
   64
  9
$PINSBASE
 10
0
 20
0
 30
0
  9
$PLIMCHECK
 70
    0
  9
$PEXTMIN
 10
0
 20
0
 30
0
  9
$PEXTMAX
 10
0
 20
0
 30
0
  9
$GRIDMODE
 70
    1
  9
$SNAPSTYLE
 70
    0
  9
$PLIMMIN
 10
0
 20
0
  9
$PLIMMAX
 10
210
 20
297
  9
$UNITMODE
 70
    0
  9
$VISRETAIN
 70
    1
  9
$PLINEGEN
 70
    0
  9
$PSLTSCALE
 70
    1
  9
$TREEDEPTH
 70
 3020
  9
$CMLSTYLE
  2
Standard
  9
$CMLJUST
 70
    0
  9
$CMLSCALE
 40
20
  9
$PROXYGRAPHICS
 70
    1
  9
$MEASUREMENT
 70
    1
  9
$CELWEIGHT
370
   -1
  9
$ENDCAPS
280
    0
  9
$JOINSTYLE
280
    0
  9
$LWDISPLAY
290
    0
  9
$INSUNITS
 70
    0
  9
$HYPERLINKBASE
  1

  9
$STYLESHEET
  1

  9
$XEDIT
290
    1
  9
$CEPSNTYPE
380
    0
  9
$PSTYLEMODE
290
    1
  9
$EXTNAMES
290
    1
  9
$PSVPSCALE
 40
1
  9
$OLESTARTUP
290
    0
  9
$SORTENTS
280
  127
  9
$INDEXCTL
280
    0
  9
$HIDETEXT
280
    1
  9
$XCLIPFRAME
290
    0
  9
$HALOGAP
280
    0
  9
$OBSCOLOR
 70
  257
  9
$OBSLTYPE
280
    0
  9
$INTERSECTIONDISPLAY
280
    0
  9
$INTERSECTIONCOLOR
 70
  257
  9
$DIMASSOC
280
    1
  9
$PROJECTNAME
  1

  9
$CAMERADISPLAY
290
    0
  9
$LENSLENGTH
 40
50
  9
$CAMERAHEIGHT
 40
0
  9
$STEPSPERSEC
 40
2
  9
$STEPSIZE
 40
50
  9
$3DDWFPREC
 40
2
  9
$PSOLWIDTH
 40
5
  9
$PSOLHEIGHT
 40
80
  9
$LOFTANG1
 40
1.570796326794897
  9
$LOFTANG2
 40
1.570796326794897
  9
$LOFTMAG1
 40
0
  9
$LOFTMAG2
 40
0
  9
$LOFTPARAM
 70
    7
  9
$LOFTNORMALS
280
    1
  9
$LATITUDE
 40
1
  9
$LONGITUDE
 40
1
  9
$NORTHDIRECTION
 40
0
  9
$TIMEZONE
 70
-8000
  9
$LIGHTGLYPHDISPLAY
280
    1
  9
$TILEMODELIGHTSYNCH
280
    1
  9
$SOLIDHIST
280
    1
  9
$SHOWHIST
280
    1
  9
$DWFFRAME
280
    2
  9
$DGNFRAME
280
    0
  9
$REALWORLDSCALE
290
    1
  9
$INTERFERECOLOR
 62
    1
  9
$CSHADOW
280
    0
  9
$SHADOWPLANELOCATION
 40
0
  0
ENDSEC
  0
SECTION
  2
CLASSES
  0
ENDSEC
  0
SECTION
  2
TABLES
  0
TABLE
  2
VPORT
  5
8
330
0
100
AcDbSymbolTable
 70
    1
  0
VPORT
  5
31
330
2
100
AcDbSymbolTableRecord
100
AcDbViewportTableRecord
  2
*ACTIVE
 70
    0
 10
0
 20
0
 11
1
 21
1
 12
162.0540884183302
 22
79.1896962679142
 13
0
 23
0
 14
10
 24
10
 15
10
 25
10
 16
0
 26
0
 36
1
 17
0
 27
0
 37
0
 40
195.1263513608466
 41
1.728813559322034
 42
50
 43
0
 44
0
 50
0
 51
0
 71
    0
 72
  100
 73
    1
 74
    3
 75
    0
 76
    1
 77
    0
 78
    0
281
    0
 65
    1
110
0
120
0
130
0
111
1
121
0
131
0
112
0
122
1
132
0
 79
    0
146
0
348
10020
 60
    7
 61
    5
292
1
282
    1
141
0
142
0
 63
  250
421
3358443
  0
ENDTAB
  0
TABLE
  2
LTYPE
  5
5
330
0
100
AcDbSymbolTable
 70
    4
  0
LTYPE
  5
14
330
5
100
AcDbSymbolTableRecord
100
AcDbLinetypeTableRecord
  2
ByBlock
 70
    0
  3

 72
   65
 73
    0
 40
0
  0
LTYPE
  5
15
330
5
100
AcDbSymbolTableRecord
100
AcDbLinetypeTableRecord
  2
ByLayer
 70
    0
  3

 72
   65
 73
    0
 40
0
  0
LTYPE
  5
16
330
5
100
AcDbSymbolTableRecord
100
AcDbLinetypeTableRecord
  2
Continuous
 70
    0
  3
Solid line
 72
   65
 73
    0
 40
0
  0
LTYPE
  5
32
330
5
100
AcDbSymbolTableRecord
100
AcDbLinetypeTableRecord
  2
DOT
 70
    0
  3
Dot . . . . . . . . . . . . . . . . . . . . . .
 72
   65
 73
    2
 40
6.35
 49
0
 74
    0
 49
-6.35
 74
    0
  0
LTYPE
  5
33
330
5
100
AcDbSymbolTableRecord
100
AcDbLinetypeTableRecord
  2
DOTTINY
 70
    0
  3
Dot (.15x) .....................................
 72
   65
 73
    2
 40
0.9525
 49
0
 74
    0
 49
-0.9525
 74
    0
  0
LTYPE
  5
34
330
5
100
AcDbSymbolTableRecord
100
AcDbLinetypeTableRecord
  2
DOT2
 70
    0
  3
Dot (.5x) .....................................
 72
   65
 73
    2
 40
3.175
 49
0
 74
    0
 49
-3.175
 74
    0
  0
LTYPE
  5
35
330
5
100
AcDbSymbolTableRecord
100
AcDbLinetypeTableRecord
  2
DOTX2
 70
    0
  3
Dot (2x) .  .  .  .  .  .  .  .  .  .  .  .  .
 72
   65
 73
    2
 40
12.7
 49
0
 74
    0
 49
-12.7
 74
    0
  0
LTYPE
  5
36
330
5
100
AcDbSymbolTableRecord
100
AcDbLinetypeTableRecord
  2
DASHED
 70
    0
  3
Dashed _ _ _ _ _ _ _ _ _ _ _ _ _ _ _ _ _
 72
   65
 73
    2
 40
19.05
 49
12.7
 74
    0
 49
-6.35
 74
    0
  0
LTYPE
  5
37
330
5
100
AcDbSymbolTableRecord
100
AcDbLinetypeTableRecord
  2
DASHEDTINY
 70
    0
  3
Dashed (.15x) _ _ _ _ _ _ _ _ _ _ _ _ _ _ _ _ _
 72
   65
 73
    2
 40
2.8575
 49
1.905
 74
    0
 49
-0.9525
 74
    0
  0
LTYPE
  5
38
330
5
100
AcDbSymbolTableRecord
100
AcDbLinetypeTableRecord
  2
DASHED2
 70
    0
  3
Dashed (.5x) _ _ _ _ _ _ _ _ _ _ _ _ _ _ _ _ _
 72
   65
 73
    2
 40
9.524999999999999
 49
6.35
 74
    0
 49
-3.175
 74
    0
  0
LTYPE
  5
39
330
5
100
AcDbSymbolTableRecord
100
AcDbLinetypeTableRecord
  2
DASHEDX2
 70
    0
  3
Dashed (2x) ____  ____  ____  ____  ____  ___
 72
   65
 73
    2
 40
38.09999999999999
 49
25.4
 74
    0
 49
-12.7
 74
    0
  0
LTYPE
  5
3A
330
5
100
AcDbSymbolTableRecord
100
AcDbLinetypeTableRecord
  2
DASHDOT
 70
    0
  3
Dash dot __ . __ . __ . __ . __ . __ . __ . __
 72
   65
 73
    4
 40
25.4
 49
12.7
 74
    0
 49
-6.35
 74
    0
 49
0
 74
    0
 49
-6.35
 74
    0
  0
LTYPE
  5
3B
330
5
100
AcDbSymbolTableRecord
100
AcDbLinetypeTableRecord
  2
DASHDOTTINY
 70
    0
  3
Dash dot (.15x) _._._._._._._._._._._._._._._.
 72
   65
 73
    4
 40
3.81
 49
1.905
 74
    0
 49
-0.9525
 74
    0
 49
0
 74
    0
 49
-0.9525
 74
    0
  0
LTYPE
  5
3C
330
5
100
AcDbSymbolTableRecord
100
AcDbLinetypeTableRecord
  2
DASHDOT2
 70
    0
  3
Dash dot (.5x) _._._._._._._._._._._._._._._.
 72
   65
 73
    4
 40
12.7
 49
6.35
 74
    0
 49
-3.175
 74
    0
 49
0
 74
    0
 49
-3.175
 74
    0
  0
LTYPE
  5
3D
330
5
100
AcDbSymbolTableRecord
100
AcDbLinetypeTableRecord
  2
DASHDOTX2
 70
    0
  3
Dash dot (2x) ____  .  ____  .  ____  .  ___
 72
   65
 73
    4
 40
50.8
 49
25.4
 74
    0
 49
-12.7
 74
    0
 49
0
 74
    0
 49
-12.7
 74
    0
  0
LTYPE
  5
3E
330
5
100
AcDbSymbolTableRecord
100
AcDbLinetypeTableRecord
  2
DIVIDE
 70
    0
  3
Divide ____ . . ____ . . ____ . . ____ . . ____
 72
   65
 73
    6
 40
31.75
 49
12.7
 74
    0
 49
-6.35
 74
    0
 49
0
 74
    0
 49
-6.35
 74
    0
 49
0
 74
    0
 49
-6.35
 74
    0
  0
LTYPE
  5
3F
330
5
100
AcDbSymbolTableRecord
100
AcDbLinetypeTableRecord
  2
DIVIDETINY
 70
    0
  3
Divide (.15x) __..__..__..__..__..__..__..__.._
 72
   65
 73
    6
 40
4.7625
 49
1.905
 74
    0
 49
-0.9525
 74
    0
 49
0
 74
    0
 49
-0.9525
 74
    0
 49
0
 74
    0
 49
-0.9525
 74
    0
  0
LTYPE
  5
40
330
5
100
AcDbSymbolTableRecord
100
AcDbLinetypeTableRecord
  2
DIVIDE2
 70
    0
  3
Divide (.5x) __..__..__..__..__..__..__..__.._
 72
   65
 73
    6
 40
15.875
 49
6.35
 74
    0
 49
-3.175
 74
    0
 49
0
 74
    0
 49
-3.175
 74
    0
 49
0
 74
    0
 49
-3.175
 74
    0
  0
LTYPE
  5
41
330
5
100
AcDbSymbolTableRecord
100
AcDbLinetypeTableRecord
  2
DIVIDEX2
 70
    0
  3
Divide (2x) ________  .  .  ________  .  .  _
 72
   65
 73
    6
 40
63.5
 49
25.4
 74
    0
 49
-12.7
 74
    0
 49
0
 74
    0
 49
-12.7
 74
    0
 49
0
 74
    0
 49
-12.7
 74
    0
  0
LTYPE
  5
42
330
5
100
AcDbSymbolTableRecord
100
AcDbLinetypeTableRecord
  2
BORDER
 70
    0
  3
Border __ __ . __ __ . __ __ . __ __ . __ __ .
 72
   65
 73
    6
 40
44.45
 49
12.7
 74
    0
 49
-6.35
 74
    0
 49
12.7
 74
    0
 49
-6.35
 74
    0
 49
0
 74
    0
 49
-6.35
 74
    0
  0
LTYPE
  5
43
330
5
100
AcDbSymbolTableRecord
100
AcDbLinetypeTableRecord
  2
BORDERTINY
 70
    0
  3
Border (.15x) __.__.__.__.__.__.__.__.__.__.__.
 72
   65
 73
    6
 40
6.6675
 49
1.905
 74
    0
 49
-0.9525
 74
    0
 49
1.905
 74
    0
 49
-0.9525
 74
    0
 49
0
 74
    0
 49
-0.9525
 74
    0
  0
LTYPE
  5
44
330
5
100
AcDbSymbolTableRecord
100
AcDbLinetypeTableRecord
  2
BORDER2
 70
    0
  3
Border (.5x) __.__.__.__.__.__.__.__.__.__.__.
 72
   65
 73
    6
 40
22.225
 49
6.35
 74
    0
 49
-3.175
 74
    0
 49
6.35
 74
    0
 49
-3.175
 74
    0
 49
0
 74
    0
 49
-3.175
 74
    0
  0
LTYPE
  5
45
330
5
100
AcDbSymbolTableRecord
100
AcDbLinetypeTableRecord
  2
BORDERX2
 70
    0
  3
Border (2x) ____  ____  .  ____  ____  .  ___
 72
   65
 73
    6
 40
88.89999999999999
 49
25.4
 74
    0
 49
-12.7
 74
    0
 49
25.4
 74
    0
 49
-12.7
 74
    0
 49
0
 74
    0
 49
-12.7
 74
    0
  0
LTYPE
  5
46
330
5
100
AcDbSymbolTableRecord
100
AcDbLinetypeTableRecord
  2
CENTER
 70
    0
  3
Center ____ _ ____ _ ____ _ ____ _ ____ _ ____
 72
   65
 73
    4
 40
50.8
 49
31.75
 74
    0
 49
-6.35
 74
    0
 49
6.35
 74
    0
 49
-6.35
 74
    0
  0
LTYPE
  5
47
330
5
100
AcDbSymbolTableRecord
100
AcDbLinetypeTableRecord
  2
CENTERTINY
 70
    0
  3
Center (.15x) ___ _ ___ _ ___ _ ___ _ ___ _ ___
 72
   65
 73
    4
 40
7.619999999999999
 49
4.7625
 74
    0
 49
-0.9525
 74
    0
 49
0.9525
 74
    0
 49
-0.9525
 74
    0
  0
LTYPE
  5
48
330
5
100
AcDbSymbolTableRecord
100
AcDbLinetypeTableRecord
  2
CENTER2
 70
    0
  3
Center (.5x) ___ _ ___ _ ___ _ ___ _ ___ _ ___
 72
   65
 73
    4
 40
28.575
 49
19.05
 74
    0
 49
-3.175
 74
    0
 49
3.175
 74
    0
 49
-3.175
 74
    0
  0
LTYPE
  5
49
330
5
100
AcDbSymbolTableRecord
100
AcDbLinetypeTableRecord
  2
CENTERX2
 70
    0
  3
Center (2x) ________  __  ________  __  _____
 72
   65
 73
    4
 40
101.6
 49
63.5
 74
    0
 49
-12.7
 74
    0
 49
12.7
 74
    0
 49
-12.7
 74
    0
  0
ENDTAB
  0
TABLE
  2
LAYER
  5
2
330
0
100
AcDbSymbolTable
 70
    1
  0
LAYER
  5
10
330
2
100
AcDbSymbolTableRecord
100
AcDbLayerTableRecord
  2
0
 70
    0
 62
    7
  6
CONTINUOUS
370
    0
390
F
  0
LAYER
  5
4A
330
2
100
AcDbSymbolTableRecord
100
AcDbLayerTableRecord
  2
cote
 70
    0
 62
    3
  6
CONTINUOUS
370
    0
390
F
  0
LAYER
  5
4B
330
2
100
AcDbSymbolTableRecord
100
AcDbLayerTableRecord
  2
fond
 70
    1
 62
    2
  6
CONTINUOUS
370
    0
390
F
  0
LAYER
  5
4C
330
2
100
AcDbSymbolTableRecord
100
AcDbLayerTableRecord
  2
noname
 70
    0
 62
    6
  6
CONTINUOUS
370
    0
390
F
  0
LAYER
  5
4D
330
2
100
AcDbSymbolTableRecord
100
AcDbLayerTableRecord
  2
screen
 70
    0
 62
    2
  6
CONTINUOUS
370
    0
390
F
  0
ENDTAB
  0
TABLE
  2
STYLE
  5
3
330
0
100
AcDbSymbolTable
 70
    3
  0
STYLE
  5
4E
330
2
100
AcDbSymbolTableRecord
100
AcDbTextStyleTableRecord
  2
Standard
 70
    0
 40
0
 41
1
 50
0
 71
    0
 42
1
  3
txt
  4

  0
ENDTAB
  0
TABLE
  2
VIEW
  5
6
330
0
100
AcDbSymbolTable
 70
    0
  0
ENDTAB
  0
TABLE
  2
UCS
  5
7
330
0
100
AcDbSymbolTable
 70
    0
  0
ENDTAB
  0
TABLE
  2
APPID
  5
9
330
0
100
AcDbSymbolTable
 70
    1
  0
APPID
  5
12
330
9
100
AcDbSymbolTableRecord
100
AcDbRegAppTableRecord
  2
ACAD
 70
    0
  0
APPID
  5
4F
330
9
100
AcDbSymbolTableRecord
100
AcDbRegAppTableRecord
  2
LibreCad
 70
    0
  0
ENDTAB
  0
TABLE
  2
DIMSTYLE
  5
A
330
0
100
AcDbSymbolTable
 70
    1
100
AcDbDimStyleTable
 71
    1
  0
DIMSTYLE
105
50
330
A
100
AcDbSymbolTableRecord
100
AcDbDimStyleTableRecord
  2
Standard
 70
    0
 40
1
 41
2.5
 42
0.625
 43
0.38
 44
1.25
 45
0
 46
0
 47
0
 48
0
 49
1
140
2.5
141
0.09
142
0
143
25.4
144
1
145
0
146
1
147
0.625
148
0
 71
    0
 72
    0
 73
    0
 74
    1
 75
    0
 76
    0
 77
    0
 78
    8
 79
    0
170
    0
171
    2
172
    0
173
    0
174
    0
175
    0
176
    0
177
    0
178
    0
179
    0
271
    2
272
    4
273
    2
274
    2
275
    0
276
    0
277
    2
278
   44
279
    0
280
    0
281
    0
282
    0
283
    1
284
    0
285
    0
286
    0
288
    0
289
    3
340
STANDARD
341

371
   -2
372
   -2
  0
ENDTAB
  0
TABLE
  2
BLOCK_RECORD
  5
1
330
0
100
AcDbSymbolTable
 70
    2
  0
BLOCK_RECORD
  5
1F
330
1
100
AcDbSymbolTableRecord
100
AcDbBlockTableRecord
  2
*Model_Space
 70
    0
280
    1
281
    0
  0
BLOCK_RECORD
  5
1E
330
1
100
AcDbSymbolTableRecord
100
AcDbBlockTableRecord
  2
*Paper_Space
 70
    0
280
    1
281
    0
  0
ENDTAB
  0
ENDSEC
  0
SECTION
  2
BLOCKS
  0
BLOCK
  5
20
330
1F
100
AcDbEntity
  8
0
100
AcDbBlockBegin
  2
*Model_Space
 70
    0
 10
0
 20
0
 30
0
  3
*Model_Space
  1

  0
ENDBLK
  5
21
330
1F
100
AcDbEntity
  8
0
100
AcDbBlockEnd
  0
BLOCK
  5
1C
330
1B
100
AcDbEntity
  8
0
100
AcDbBlockBegin
  2
*Paper_Space
 70
    0
 10
0
 20
0
 30
0
  3
*Paper_Space
  1

  0
ENDBLK
  5
1D
330
1F
100
AcDbEntity
  8
0
100
AcDbBlockEnd
  0
ENDSEC
  0
SECTION
  2
ENTITIES
  0
ARC
  5
51
100
AcDbEntity
  8
0
  6
ByLayer
 62
  256
370
   -1
100
AcDbCircle
 10
125.7
 20
75.53996716099152
 40
5
100
AcDbArc
 50
180
 51
269.8941017143147
  0
LINE
  5
52
100
AcDbEntity
  8
0
  6
ByLayer
 62
  256
370
   -1
100
AcDbLine
 10
159.6
 20
59.9822
 11
159.6
 21
29.8822
  0
ARC
  5
53
100
AcDbEntity
  8
0
  6
ByLayer
 62
  256
370
   -1
100
AcDbCircle
 10
169.3916067775186
 20
68.45920106238701
 40
2
100
AcDbArc
 50
0.3897611953178861
 51
89.89410171431487
  0
CIRCLE
  5
54
100
AcDbEntity
  8
noname
  6
ByLayer
 62
  256
370
   -1
100
AcDbCircle
 10
26.6
 20
84.80000000000001
 40
1.702938636592637
  0
CIRCLE
  5
55
100
AcDbEntity
  8
noname
  6
ByLayer
 62
  256
370
   -1
100
AcDbCircle
 10
26.6
 20
26.86
 40
1.740000000000003
  0
CIRCLE
  5
56
100
AcDbEntity
  8
noname
  6
ByLayer
 62
  256
370
   -1
100
AcDbCircle
 10
75.59999000000001
 20
26.82866432990023
 40
1.740060064222497
  0
CIRCLE
  5
57
100
AcDbEntity
  8
noname
  6
ByLayer
 62
  256
370
   -1
100
AcDbCircle
 10
118.19999
 20
5.7822
 40
1.741410040998393
  0
CIRCLE
  5
58
100
AcDbEntity
  8
noname
  6
ByLayer
 62
  256
370
   -1
100
AcDbCircle
 10
167.20859
 20
5.732199999999972
 40
1.741410040998385
  0
CIRCLE
  5
59
100
AcDbEntity
  8
noname
  6
ByLayer
 62
  256
370
   -1
100
AcDbCircle
 10
167.20899
 20
63.78220000000002
 40
1.74141000000003
  0
LINE
  5
5A
100
AcDbEntity
  8
0
  6
ByLayer
 62
  256
370
   -1
100
AcDbLine
 10
125.6907586364745
 20
70.53997570127879
 11
169.3953033229288
 21
70.4591976462721
  0
CIRCLE
  5
5B
100
AcDbEntity
  8
screen
  6
ByLayer
 62
  256
370
   -1
100
AcDbCircle
 10
3.41972099074497
 20
65.32060020004636
 40
1.74141
  0
CIRCLE
  5
5C
100
AcDbEntity
  8
screen
  6
ByLayer
 62
  256
370
   -1
100
AcDbCircle
 10
3.41972099074497
 20
22.82060020004635
 40
1.741409999999996
  0
CIRCLE
  5
5D
100
AcDbEntity
  8
screen
  6
ByLayer
 62
  256
370
   -1
100
AcDbCircle
 10
80.41972099074498
 20
22.82060020004635
 40
1.741410000000002
  0
CIRCLE
  5
5E
100
AcDbEntity
  8
screen
  6
ByLayer
 62
  256
370
   -1
100
AcDbCircle
 10
80.41973099074497
 20
65.17060020004637
 40
1.741409999999988
  0
LWPOLYLINE
  5
5F
100
AcDbEntity
  8
0
  6
ByLayer
 62
  256
370
   -1
100
AcDbPolyline
 90
   20
 70
    1
 43
0
 10
-13.97720600000042
 20
2.176966767081948
 42
-0.4142135623730956
 10
-6.828015232918702
 20
-4.972223999999756
 10
-6.82801523291829
 20
-13.9722060000004
 42
0.414213562373095
 10
-4.577224799999883
 20
-16.22299643291878
 10
164.5772247999999
 20
-16.2229964329183
 42
0.4142135623730943
 10
166.8280152329183
 20
-13.9722060000004
 10
166.8280152329187
 20
-4.972223999999755
 42
-0.414213562373095
 10
173.9772060000004
 20
2.176966767081961
 42
0.414213562373095
 10
176.2279964329184
 20
4.427757199999903
 10
176.2279964329183
 20
75.57224280000008
 42
0.4142135623730961
 10
173.9772060000004
 20
77.82303323291808
 42
-0.4142135623730948
 10
166.8280152329187
 20
84.97222399999976
 10
166.8280152329187
 20
93.9722060000004
 42
0.414213562373096
 10
164.5772247999999
 20
96.22299643291879
 10
-4.577224799999883
 20
96.22299643291831
 42
0.414213562373094
 10
-6.828015232918276
 20
93.9722060000004
 10
-6.828015232918697
 20
84.97222399999974
 42
-0.4142135623730948
 10
-13.97720600000041
 20
77.82303323291806
 42
0.4142135623730961
 10
-16.22799643291836
 20
75.5722428000001
 10
-16.2279964329183
 20
4.427757199999903
 42
0.4142135623730948
  0
CIRCLE
  5
60
100
AcDbEntity
  8
0
  6
ByLayer
 62
  256
370
   -1
100
AcDbCircle
 10
167.9856
 20
19.9975
 40
4.064
  0
CIRCLE
  5
61
100
AcDbEntity
  8
0
  6
ByLayer
 62
  256
370
   -1
100
AcDbCircle
 10
167.9856
 20
33.015
 40
1.524
  0
CIRCLE
  5
62
100
AcDbEntity
  8
0
  6
ByLayer
 62
  256
370
   -1
100
AcDbCircle
 10
-7.985600000000005
 20
40
 40
4.064
  0
CIRCLE
  5
63
100
AcDbEntity
  8
0
  6
ByLayer
 62
  256
370
   -1
100
AcDbCircle
 10
-7.985600000000005
 20
19.9975
 40
4.064
  0
CIRCLE
  5
64
100
AcDbEntity
  8
0
  6
ByLayer
 62
  256
370
   -1
100
AcDbCircle
 10
-7.985600000000005
 20
60.0025
 40
4.064
  0
CIRCLE
  5
65
100
AcDbEntity
  8
0
  6
ByLayer
 62
  256
370
   -1
100
AcDbCircle
 10
-7.985600000000005
 20
33.015
 40
1.524
  0
CIRCLE
  5
66
100
AcDbEntity
  8
0
  6
ByLayer
 62
  256
370
   -1
100
AcDbCircle
 10
-7.985600000000005
 20
46.985
 40
1.524
  0
CIRCLE
  5
67
100
AcDbEntity
  8
0
  6
ByLayer
 62
  256
370
   -1
100
AcDbCircle
 10
160.01
 20
-5.008800000000008
 40
4.064
  0
CIRCLE
  5
68
100
AcDbEntity
  8
0
  6
ByLayer
 62
  256
370
   -1
100
AcDbCircle
 10
-0.009999999999990905
 20
-5.008800000000008
 40
4.064
  0
CIRCLE
  5
69
100
AcDbEntity
  8
0
  6
ByLayer
 62
  256
370
   -1
100
AcDbCircle
 10
22.5198
 20
-5.008800000000008
 40
4.064
  0
CIRCLE
  5
6A
100
AcDbEntity
  8
0
  6
ByLayer
 62
  256
370
   -1
100
AcDbCircle
 10
160.01
 20
85.00880000000001
 40
4.064
  0
CIRCLE
  5
6B
100
AcDbEntity
  8
0
  6
ByLayer
 62
  256
370
   -1
100
AcDbCircle
 10
137.4802
 20
85.00880000000001
 40
4.064
  0
CIRCLE
  5
6C
100
AcDbEntity
  8
0
  6
ByLayer
 62
  256
370
   -1
100
AcDbCircle
 10
-0.009999999999990905
 20
85.00880000000001
 40
4.064
  0
SPLINE
  5
6D
100
AcDbEntity
  8
0
  6
ByLayer
 62
  256
370
   -1
100
AcDbSpline
210
0
220
0
230
0
 70
    8
 71
    3
 72
   15
 73
   11
 74
    0
 42
1e-07
 43
1e-07
 40
0
 40
0
 40
0
 40
0
 40
0.173477752230867
 40
0.333288490958975
 40
0.478906244465759
 40
0.61088439230139
 40
0.728696111027208
 40
0.832996319068258
 40
0.923225503501927
 40
1
 40
1
 40
1
 40
1
 10
86.1874821993671
 20
-14.3467824297542
 30
0
 10
86.14766864633565
 20
-14.3467425304565
 30
0
 10
86.07117815208534
 20
-14.3466658752279
 30
0
 10
85.96127535421741
 20
-14.34519222822221
 30
0
 10
85.86092177688452
 20
-14.3425384022858
 30
0
 10
85.77024115271728
 20
-14.3391321679972
 30
0
 10
85.68905306707936
 20
-14.33537053497169
 30
0
 10
85.6176017787396
 20
-14.3295456129032
 30
0
 10
85.55561987099277
 20
-14.32346995460819
 30
0
 10
85.51767793277425
 20
-14.3180166592266
 30
0
 10
85.50023536392405
 20
-14.315509684501
 30
0
  0
SPLINE
  5
6E
100
AcDbEntity
  8
0
  6
ByLayer
 62
  256
370
   -1
100
AcDbSpline
210
0
220
0
230
0
 70
    8
 71
    3
 72
   23
 73
   19
 74
    0
 42
1e-07
 43
1e-07
 40
0
 40
0
 40
0
 40
0
 40
0.0741013084099629
 40
0.143441810407194
 40
0.20788919932123
 40
0.26766314155658
 40
0.3236563292268075
 40
0.376683894668671
 40
0.426756837384032
 40
0.475380107682564
 40
0.5247324100181681
 40
0.577908732430473
 40
0.635343788169938
 40
0.6976976612032709
 40
0.7648669634892921
 40
0.837537106602771
 40
0.9160135301986779
 40
1
 40
1
 40
1
 40
1
 10
85.50023536392405
 20
-14.315509684501
 30
0
 10
85.48084084278418
 20
-14.31186500370099
 30
0
 10
85.44329784544742
 20
-14.30480980287491
 30
0
 10
85.38975288214088
 20
-14.29053268908199
 30
0
 10
85.34106085060525
 20
-14.2735512997836
 30
0
 10
85.29690481904932
 20
-14.2545903336833
 30
0
 10
85.25783783012174
 20
-14.2321734949242
 30
0
 10
85.22343672377897
 20
-14.2073457033467
 30
0
 10
85.19343397623533
 20
-14.18010133402531
 30
0
 10
85.16862122775834
 20
-14.1492876193004
 30
0
 10
85.14754187680273
 20
-14.11490615525249
 30
0
 10
85.12943813745858
 20
-14.07625440664361
 30
0
 10
85.11455849639864
 20
-14.0325968999035
 30
0
 10
85.10228557871181
 20
-13.9843195856335
 30
0
 10
85.09243087719827
 20
-13.9313490576205
 30
0
 10
85.08594450826153
 20
-13.87355234550401
 30
0
 10
85.08174350553983
 20
-13.8110631978149
 30
0
 10
85.08117371248147
 20
-13.7678044160275
 30
0
 10
85.08087915348101
 20
-13.74544144874161
 30
0
  0
SPLINE
  5
6F
100
AcDbEntity
  8
0
  6
ByLayer
 62
  256
370
   -1
100
AcDbSpline
210
0
220
0
230
0
 70
    8
 71
    3
 72
   23
 73
   19
 74
    0
 42
1e-07
 43
1e-07
 40
0
 40
0
 40
0
 40
0
 40
0.0864176385187162
 40
0.167295734330145
 40
0.2422026402230815
 40
0.311439825227215
 40
0.3763198768164075
 40
0.4358891233847565
 40
0.490851643956629
 40
0.542012862041056
 40
0.591392876244019
 40
0.641927617549188
 40
0.694063225117469
 40
0.748161763735811
 40
0.805104943913876
 40
0.8663164888289491
 40
0.9311077724678799
 40
1
 40
1
 40
1
 40
1
 10
85.08087915348101
 20
-13.74544144874161
 30
0
 10
85.08103217667455
 20
-13.7244593961103
 30
0
 10
85.08132841397023
 20
-13.6838402822018
 30
0
 10
85.08539943151101
 20
-13.6251635079652
 30
0
 10
85.0906688004238
 20
-13.5707806482272
 30
0
 10
85.09893262927692
 20
-13.5206655793707
 30
0
 10
85.10991326505525
 20
-13.47492829701491
 30
0
 10
85.12236771676456
 20
-13.433139070672
 30
0
 10
85.13797593640534
 20
-13.3959954289089
 30
0
 10
85.15573415217165
 20
-13.362608079525
 30
0
 10
85.17690022316978
 20
-13.3325347371442
 30
0
 10
85.20191864716185
 20
-13.30525465794059
 30
0
 10
85.23116161284914
 20
-13.2807458537497
 30
0
 10
85.26427181247315
 20
-13.2588860618937
 30
0
 10
85.30118202328447
 20
-13.2391096235126
 30
0
 10
85.34221356464577
 20
-13.22197010959479
 30
0
 10
85.38723762264689
 20
-13.2072635948591
 30
0
 10
85.41879149527669
 20
-13.1996453232211
 30
0
 10
85.43505241297468
 20
-13.1957193363998
 30
0
  0
SPLINE
  5
70
100
AcDbEntity
  8
0
  6
ByLayer
 62
  256
370
   -1
100
AcDbSpline
210
0
220
0
230
0
 70
    8
 71
    3
 72
   15
 73
   11
 74
    0
 42
1e-07
 43
1e-07
 40
0
 40
0
 40
0
 40
0
 40
0.0849023420411715
 40
0.181358295936964
 40
0.2889971026694345
 40
0.4078621757304
 40
0.53813217063378
 40
0.68039597771517
 40
0.834128275228585
 40
1
 40
1
 40
1
 40
1
 10
85.43505241297468
 20
-13.1957193363998
 30
0
 10
85.45134700109163
 20
-13.1922717558169
 30
0
 10
85.4861535642893
 20
-13.1849074437782
 30
0
 10
85.54232829731791
 20
-13.1771455925016
 30
0
 10
85.60524248449829
 20
-13.1698031677163
 30
0
 10
85.67502817350626
 20
-13.16459822523691
 30
0
 10
85.75160925465423
 20
-13.1592936800791
 30
0
 10
85.8351797596473
 20
-13.15672718470219
 30
0
 10
85.92573564704983
 20
-13.1547214857823
 30
0
 10
85.98841524294971
 20
-13.1544265819681
 30
0
 10
86.0209454113924
 20
-13.1542735294378
 30
0
  0
LINE
  5
71
100
AcDbEntity
  8
0
  6
ByLayer
 62
  256
370
   -1
100
AcDbLine
 10
86.0209454113924
 20
-13.15427352943779
 11
86.72137954905062
 21
-13.1542735294378
  0
SPLINE
  5
72
100
AcDbEntity
  8
0
  6
ByLayer
 62
  256
370
   -1
100
AcDbSpline
210
0
220
0
230
0
 70
    8
 71
    3
 72
   15
 73
   11
 74
    0
 42
1e-07
 43
1e-07
 40
0
 40
0
 40
0
 40
0
 40
0.169368786964646
 40
0.3253201941795855
 40
0.468069342786684
 40
0.5979115896074589
 40
0.7153742876291861
 40
0.820903119305279
 40
0.9154879172029819
 40
1
 40
1
 40
1
 40
1
 10
86.72137954905062
 20
-13.1542735294378
 30
0
 10
86.75416646678002
 20
-13.15450170069671
 30
0
 10
86.81714292562718
 20
-13.15493996750831
 30
0
 10
86.90764088708632
 20
-13.1599371759446
 30
0
 10
86.99024881326515
 20
-13.1676738204833
 30
0
 10
87.06504293520624
 20
-13.17828637430441
 30
0
 10
87.13190750710434
 20
-13.19251643061261
 30
0
 10
87.19098526624057
 20
-13.2096241153687
 30
0
 10
87.24245141187515
 20
-13.2298342885952
 30
0
 10
87.27241190984469
 20
-13.2473581987403
 30
0
 10
87.28654964398734
 20
-13.2556273664631
 30
0
  0
SPLINE
  5
73
100
AcDbEntity
  8
0
  6
ByLayer
 62
  256
370
   -1
100
AcDbSpline
210
0
220
0
230
0
 70
    8
 71
    3
 72
   15
 73
   11
 74
    0
 42
1e-07
 43
1e-07
 40
0
 40
0
 40
0
 40
0
 40
0.1096901129491858
 40
0.2183706454377265
 40
0.3297290528944385
 40
0.4459688631620525
 40
0.569789350857381
 40
0.702062010191337
 40
0.845414022198806
 40
1
 40
1
 40
1
 40
1
 10
87.28654964398734
 20
-13.2556273664631
 30
0
 10
87.30036447799935
 20
-13.2653539333668
 30
0
 10
87.32786699521542
 20
-13.2847175445034
 30
0
 10
87.36263792375716
 20
-13.32197159015629
 30
0
 10
87.39292083630308
 20
-13.3640276572077
 30
0
 10
87.4169128232453
 20
-13.41263943365671
 30
0
 10
87.43580446033506
 20
-13.466792304327
 30
0
 10
87.44854426713394
 20
-13.52694106101151
 30
0
 10
87.45714045544217
 20
-13.5925979246836
 30
0
 10
87.45794428406766
 20
-13.6384056075416
 30
0
 10
87.4583613528481
 20
-13.6621730547542
 30
0
  0
LINE
  5
74
100
AcDbEntity
  8
0
  6
ByLayer
 62
  256
370
   -1
100
AcDbLine
 10
87.4583613528481
 20
-13.6621730547542
 11
87.4583613528481
 21
-13.7921621765897
  0
LINE
  5
75
100
AcDbEntity
  8
0
  6
ByLayer
 62
  256
370
   -1
100
AcDbLine
 10
87.4583613528481
 20
-13.7921621765897
 11
86.8803807357595
 21
-13.7921621765897
  0
SPLINE
  5
76
100
AcDbEntity
  8
0
  6
ByLayer
 62
  256
370
   -1
100
AcDbSpline
210
0
220
0
230
0
 70
    8
 71
    3
 72
   15
 73
   11
 74
    0
 42
1e-07
 43
1e-07
 40
0
 40
0
 40
0
 40
0
 40
0.168344712387407
 40
0.3223447140310155
 40
0.462799787423964
 40
0.588426624180469
 40
0.704572091739613
 40
0.8095770811991181
 40
0.907563681750299
 40
1
 40
1
 40
1
 40
1
 10
86.8803807357595
 20
-13.7921621765897
 30
0
 10
86.88003042803916
 20
-13.7809754309935
 30
0
 10
86.87935966243963
 20
-13.75955516623441
 30
0
 10
86.87599520933203
 20
-13.7289425956148
 30
0
 10
86.87078125104181
 20
-13.70148382923971
 30
0
 10
86.86402893948141
 20
-13.67696364537401
 30
0
 10
86.85558766416753
 20
-13.6554363239059
 30
0
 10
86.84490612974805
 20
-13.6370348121525
 30
0
 10
86.83250878160278
 20
-13.621624752784
 30
0
 10
86.82263044900894
 20
-13.6136646636379
 30
0
 10
86.81783524525318
 20
-13.60980062595671
 30
0
  0
SPLINE
  5
77
100
AcDbEntity
  8
0
  6
ByLayer
 62
  256
370
   -1
100
AcDbSpline
210
0
220
0
230
0
 70
    8
 71
    3
 72
   15
 73
   11
 74
    0
 42
1e-07
 43
1e-07
 40
0
 40
0
 40
0
 40
0
 40
0.07966075827745291
 40
0.1706388452842875
 40
0.273097003359393
 40
0.3906032469263815
 40
0.520883780510571
 40
0.66595226655498
 40
0.824338634818808
 40
1
 40
1
 40
1
 40
1
 10
86.81783524525318
 20
-13.60980062595671
 30
0
 10
86.81351517405633
 20
-13.6070170453342
 30
0
 10
86.80426128322586
 20
-13.6010544234179
 30
0
 10
86.78778336234414
 20
-13.5947307347059
 30
0
 10
86.76880657594855
 20
-13.58832746734041
 30
0
 10
86.74656839061501
 20
-13.584346663153
 30
0
 10
86.72160994493484
 20
-13.5803363470505
 30
0
 10
86.69377607702206
 20
-13.5780284786713
 30
0
 10
86.6630123665235
 20
-13.5758367217666
 30
0
 10
86.64150734272266
 20
-13.57587191411501
 30
0
 10
86.63019877373418
 20
-13.5758904202605
 30
0
  0
LINE
  5
78
100
AcDbEntity
  8
0
  6
ByLayer
 62
  256
370
   -1
100
AcDbLine
 10
86.63019877373418
 20
-13.5758904202605
 11
85.92185225474684
 21
-13.5758904202605
  0
SPLINE
  5
79
100
AcDbEntity
  8
0
  6
ByLayer
 62
  256
370
   -1
100
AcDbSpline
210
0
220
0
230
0
 70
    8
 71
    3
 72
   11
 73
    7
 74
    0
 42
1e-07
 43
1e-07
 40
0
 40
0
 40
0
 40
0
 40
0.316848755568975
 40
0.5872564586627811
 40
0.812592388152362
 40
1
 40
1
 40
1
 40
1
 10
85.92185225474684
 20
-13.5758904202605
 30
0
 10
85.90361218332517
 20
-13.5760149780042
 30
0
 10
85.86980551828206
 20
-13.5762458368545
 30
0
 10
85.82344094983934
 20
-13.5819529085002
 30
0
 10
85.78448947081208
 20
-13.58861743675621
 30
0
 10
85.76261168812994
 20
-13.59800332853531
 30
0
 10
85.75267800632912
 20
-13.6022650246909
 30
0
  0
SPLINE
  5
7A
100
AcDbEntity
  8
0
  6
ByLayer
 62
  256
370
   -1
100
AcDbSpline
210
0
220
0
230
0
 70
    8
 71
    3
 72
   15
 73
   11
 74
    0
 42
1e-07
 43
1e-07
 40
0
 40
0
 40
0
 40
0
 40
0.1262735244832552
 40
0.2447534986587345
 40
0.360009689810829
 40
0.477170321457074
 40
0.595227032173949
 40
0.720115890678073
 40
0.855219447372815
 40
1
 40
1
 40
1
 40
1
 10
85.75267800632912
 20
-13.6022650246909
 30
0
 10
85.74642283798046
 20
-13.60522083020699
 30
0
 10
85.73429856771638
 20
-13.61095001013109
 30
0
 10
85.71814085637888
 20
-13.6224279776615
 30
0
 10
85.70469915429248
 20
-13.6362865147759
 30
0
 10
85.69392025792504
 20
-13.65221753617
 30
0
 10
85.68487700123367
 20
-13.6698203709495
 30
0
 10
85.67909046782216
 20
-13.68976493581179
 30
0
 10
85.67516099183705
 20
-13.711626584806
 30
0
 10
85.67484697184572
 20
-13.7269598832648
 30
0
 10
85.67468453322785
 20
-13.7348916069694
 30
0
  0
SPLINE
  5
7B
100
AcDbEntity
  8
0
  6
ByLayer
 62
  256
370
   -1
100
AcDbSpline
210
0
220
0
230
0
 70
    8
 71
    3
 72
   11
 73
    7
 74
    0
 42
1e-07
 43
1e-07
 40
0
 40
0
 40
0
 40
0
 40
0.3054564053691215
 40
0.565937271085872
 40
0.790645571992577
 40
1
 40
1
 40
1
 40
1
 10
85.67468453322785
 20
-13.7348916069694
 30
0
 10
85.67507082483046
 20
-13.74813598076641
 30
0
 10
85.6757865302849
 20
-13.77267462075609
 30
0
 10
85.68387725782229
 20
-13.80613535990871
 30
0
 10
85.69777804958844
 20
-13.83346336190121
 30
0
 10
85.71193817652876
 20
-13.846015930204
 30
0
 10
85.7187678006329
 20
-13.8520702066529
 30
0
  0
SPLINE
  5
7C
100
AcDbEntity
  8
0
  6
ByLayer
 62
  256
370
   -1
100
AcDbSpline
210
0
220
0
230
0
 70
    8
 71
    3
 72
   15
 73
   11
 74
    0
 42
1e-07
 43
1e-07
 40
0
 40
0
 40
0
 40
0
 40
0.07569110387348671
 40
0.165119673891141
 40
0.2679888359813595
 40
0.3839708210347295
 40
0.5153284675633351
 40
0.661739970287212
 40
0.8239035498940309
 40
1
 40
1
 40
1
 40
1
 10
85.7187678006329
 20
-13.8520702066529
 30
0
 10
85.72386209985741
 20
-13.8550633019073
 30
0
 10
85.73497528203615
 20
-13.8615927206504
 30
0
 10
85.75428701787247
 20
-13.8697697717285
 30
0
 10
85.7773405465495
 20
-13.87669779457849
 30
0
 10
85.80392935811504
 20
-13.88298209270371
 30
0
 10
85.83402499676836
 20
-13.88920215721009
 30
0
 10
85.86805961778474
 20
-13.8936979613821
 30
0
 10
85.9055650015214
 20
-13.8985046426989
 30
0
 10
85.93188653983508
 20
-13.9004274113625
 30
0
 10
85.94558939873419
 20
-13.9014283949441
 30
0
  0
SPLINE
  5
7D
100
AcDbEntity
  8
0
  6
ByLayer
 62
  256
370
   -1
100
AcDbSpline
210
0
220
0
230
0
 70
    8
 71
    3
 72
   15
 73
   11
 74
    0
 42
1e-07
 43
1e-07
 40
0
 40
0
 40
0
 40
0
 40
0.07174708028650999
 40
0.1580654902359575
 40
0.2603792307495285
 40
0.37728458935723
 40
0.510180947453983
 40
0.658383147910876
 40
0.821191142732299
 40
1
 40
1
 40
1
 40
1
 10
85.94558939873419
 20
-13.9014283949441
 30
0
 10
85.95852352683943
 20
-13.9021050945361
 30
0
 10
85.9870186139087
 20
-13.9035959266692
 30
0
 10
86.03400587066174
 20
-13.9048828540843
 30
0
 10
86.08913507629654
 20
-13.9065137898573
 30
0
 10
86.15268976353191
 20
-13.9075869105789
 30
0
 10
86.22453218149712
 20
-13.90820845244239
 30
0
 10
86.30465901272177
 20
-13.9090845674367
 30
0
 10
86.39307827258187
 20
-13.9094149692398
 30
0
 10
86.4547448645947
 20
-13.9093662676341
 30
0
 10
86.48702234968356
 20
-13.9093407762732
 30
0
  0
SPLINE
  5
7E
100
AcDbEntity
  8
0
  6
ByLayer
 62
  256
370
   -1
100
AcDbSpline
210
0
220
0
230
0
 70
    8
 71
    3
 72
   15
 73
   11
 74
    0
 42
1e-07
 43
1e-07
 40
0
 40
0
 40
0
 40
0
 40
0.166383768794559
 40
0.321033046314834
 40
0.4640170258320661
 40
0.594757482662035
 40
0.713301964230427
 40
0.820362025140004
 40
0.916062045393945
 40
1
 40
1
 40
1
 40
1
 10
86.48702234968356
 20
-13.9093407762732
 30
0
 10
86.52256546226803
 20
-13.90952460401341
 30
0
 10
86.59114495046676
 20
-13.90987929473739
 30
0
 10
86.69026573834314
 20
-13.91147933283649
 30
0
 10
86.78170141949512
 20
-13.9154016823917
 30
0
 10
86.86536252367566
 20
-13.9202132074672
 30
0
 10
86.9412755591982
 20
-13.9260463862602
 30
0
 10
87.00950551456681
 20
-13.9335667227997
 30
0
 10
87.07017937214459
 20
-13.94218224331991
 30
0
 10
87.10773804545688
 20
-13.95010078983481
 30
0
 10
87.12528777689874
 20
-13.9538008237416
 30
0
  0
SPLINE
  5
7F
100
AcDbEntity
  8
0
  6
ByLayer
 62
  256
370
   -1
100
AcDbSpline
210
0
220
0
230
0
 70
    8
 71
    3
 72
   15
 73
   11
 74
    0
 42
1e-07
 43
1e-07
 40
0
 40
0
 40
0
 40
0
 40
0.152059313354018
 40
0.2944466974387095
 40
0.4282491991714725
 40
0.553241184800211
 40
0.671832688916182
 40
0.784098592741335
 40
0.893147509535033
 40
1
 40
1
 40
1
 40
1
 10
87.12528777689874
 20
-13.9538008237416
 30
0
 10
87.14157293885887
 20
-13.957787451565
 30
0
 10
87.17310742399266
 20
-13.96550713259369
 30
0
 10
87.21760375497281
 20
-13.9813737700795
 30
0
 10
87.25850456794801
 20
-13.9982459604612
 30
0
 10
87.29502581507538
 20
-14.0183436220876
 30
0
 10
87.32707920584104
 20
-14.04104533565351
 30
0
 10
87.35542510647952
 20
-14.0656227878991
 30
0
 10
87.37950878212867
 20
-14.0928242858213
 30
0
 10
87.39218145011618
 20
-14.1129932047599
 30
0
 10
87.3984533227848
 20
-14.12297507215929
 30
0
  0
SPLINE
  5
80
100
AcDbEntity
  8
0
  6
ByLayer
 62
  256
370
   -1
100
AcDbSpline
210
0
220
0
230
0
 70
    8
 71
    3
 72
   15
 73
   11
 74
    0
 42
1e-07
 43
1e-07
 40
0
 40
0
 40
0
 40
0
 40
0.0865846488626206
 40
0.1827084621092915
 40
0.2902461656654035
 40
0.4080193091101465
 40
0.5381452098091649
 40
0.679203700455681
 40
0.83346313510404
 40
1
 40
1
 40
1
 40
1
 10
87.3984533227848
 20
-14.12297507215929
 30
0
 10
87.40318306363316
 20
-14.13230277899241
 30
0
 10
87.41316362817815
 20
-14.1519858405151
 30
0
 10
87.42459648608417
 20
-14.1852018383867
 30
0
 10
87.43407455122882
 20
-14.222821816035
 30
0
 10
87.44262402058847
 20
-14.2648892125447
 30
0
 10
87.44819905361061
 20
-14.31152748792209
 30
0
 10
87.45272417401274
 20
-14.3626643972262
 30
0
 10
87.45591673494408
 20
-14.418331218249
 30
0
 10
87.45603781530848
 20
-14.4570486988283
 30
0
 10
87.45610067246835
 20
-14.4771483316529
 30
0
  0
SPLINE
  5
81
100
AcDbEntity
  8
0
  6
ByLayer
 62
  256
370
   -1
100
AcDbSpline
210
0
220
0
230
0
 70
    8
 71
    3
 72
   15
 73
   11
 74
    0
 42
1e-07
 43
1e-07
 40
0
 40
0
 40
0
 40
0
 40
0.166054531407236
 40
0.3191732248140465
 40
0.459701128485368
 40
0.5883042275955109
 40
0.704971744050407
 40
0.811566670350059
 40
0.9090485700026759
 40
1
 40
1
 40
1
 40
1
 10
87.45610067246835
 20
-14.477148331653
 30
0
 10
87.45591283081259
 20
-14.5021536401991
 30
0
 10
87.45555178058099
 20
-14.55021631514391
 30
0
 10
87.45001080962463
 20
-14.61924512643981
 30
0
 10
87.44206322997206
 20
-14.6823464161064
 30
0
 10
87.43054658423583
 20
-14.739328052176
 30
0
 10
87.41565438498945
 20
-14.7902722927772
 30
0
 10
87.39708136431209
 20
-14.8348812657005
 30
0
 10
87.37608792787428
 20
-14.8742935280945
 30
0
 10
87.35788241824059
 20
-14.8961352320637
 30
0
 10
87.34909513449367
 20
-14.90667760380479
 30
0
  0
SPLINE
  5
82
100
AcDbEntity
  8
0
  6
ByLayer
 62
  256
370
   -1
100
AcDbSpline
210
0
220
0
230
0
 70
    8
 71
    3
 72
   23
 73
   19
 74
    0
 42
1e-07
 43
1e-07
 40
0
 40
0
 40
0
 40
0
 40
0.04299429589465625
 40
0.087689260577145
 40
0.1340765494174514
 40
0.1824938541273395
 40
0.233478817160723
 40
0.2870156433188785
 40
0.34332932892099
 40
0.4027646964885574
 40
0.465309662865184
 40
0.531213751386144
 40
0.600473618950976
 40
0.673197918589046
 40
0.749528780592737
 40
0.828940437856464
 40
0.912588776581582
 40
1
 40
1
 40
1
 40
1
 10
87.34909513449367
 20
-14.9066776038049
 30
0
 10
87.34218347123412
 20
-14.91383839728169
 30
0
 10
87.32808674914629
 20
-14.92844323432031
 30
0
 10
87.30421335263622
 20
-14.948339908466
 30
0
 10
87.27774366440266
 20
-14.96686517042719
 30
0
 10
87.24850577989173
 20
-14.98374162158109
 30
0
 10
87.21686725867627
 20
-14.9996270572154
 30
0
 10
87.18247609125835
 20
-15.0139186503748
 30
0
 10
87.14540381014911
 20
-15.0265894654451
 30
0
 10
87.10585932851268
 20
-15.0383796601199
 30
0
 10
87.06353740315956
 20
-15.04835842281939
 30
0
 10
87.01871255679592
 20
-15.0574964000909
 30
0
 10
86.97118646607332
 20
-15.0649799803586
 30
0
 10
86.92101696017352
 20
-15.0708562831474
 30
0
 10
86.86839080211627
 20
-15.0758321867949
 30
0
 10
86.81310044295124
 20
-15.0791901867883
 30
0
 10
86.75517636557073
 20
-15.08098952552939
 30
0
 10
86.71560344027299
 20
-15.0813297161752
 30
0
 10
86.69538172468356
 20
-15.0815035531719
 30
0
  0
LINE
  5
83
100
AcDbEntity
  8
0
  6
ByLayer
 62
  256
370
   -1
100
AcDbLine
 10
86.69538172468356
 20
-15.0815035531719
 11
85.88831882911393
 21
-15.0815035531719
  0
SPLINE
  5
84
100
AcDbEntity
  8
0
  6
ByLayer
 62
  256
370
   -1
100
AcDbSpline
210
0
220
0
230
0
 70
    8
 71
    3
 72
   15
 73
   11
 74
    0
 42
1e-07
 43
1e-07
 40
0
 40
0
 40
0
 40
0
 40
0.169902827214703
 40
0.325038903887816
 40
0.46704451156594
 40
0.595967018836411
 40
0.711920922122965
 40
0.816723891444462
 40
0.9124066761545601
 40
1
 40
1
 40
1
 40
1
 10
85.88831882911393
 20
-15.0815035531719
 30
0
 10
85.85163229085676
 20
-15.0811431825461
 30
0
 10
85.78144774844488
 20
-15.08045376215709
 30
0
 10
85.6808099131438
 20
-15.07325994525269
 30
0
 10
85.58950200173473
 20
-15.0615756373137
 30
0
 10
85.50761271801291
 20
-15.04478169473071
 30
0
 10
85.43496718360717
 20
-15.023694769243
 30
0
 10
85.37191808650476
 20
-14.9971992347837
 30
0
 10
85.31726501801879
 20
-14.9666911341568
 30
0
 10
85.28759431362614
 20
-14.94036118489451
 30
0
 10
85.2734137658228
 20
-14.9277772873491
 30
0
  0
SPLINE
  5
85
100
AcDbEntity
  8
0
  6
ByLayer
 62
  256
370
   -1
100
AcDbSpline
210
0
220
0
230
0
 70
    8
 71
    3
 72
   15
 73
   11
 74
    0
 42
1e-07
 43
1e-07
 40
0
 40
0
 40
0
 40
0
 40
0.0957233757922519
 40
0.197354477734973
 40
0.305573654505377
 40
0.423081935283068
 40
0.549992272910324
 40
0.688317719768691
 40
0.837808506777326
 40
1
 40
1
 40
1
 40
1
 10
85.2734137658228
 20
-14.9277772873491
 30
0
 10
85.26417109286038
 20
-14.9176075471399
 30
0
 10
85.24511532011653
 20
-14.89664042441681
 30
0
 10
85.2220380777629
 20
-14.85915083559789
 30
0
 10
85.20241287008523
 20
-14.81646783148319
 30
0
 10
85.18629976721135
 20
-14.76846146542901
 30
0
 10
85.17408555107644
 20
-14.7149219574454
 30
0
 10
85.16511471773501
 20
-14.6561227474175
 30
0
 10
85.1599513322012
 20
-14.59178147956799
 30
0
 10
85.15924183223341
 20
-14.54711325961519
 30
0
 10
85.15887262658228
 20
-14.5238690595011
 30
0
  0
LINE
  5
86
100
AcDbEntity
  8
0
  6
ByLayer
 62
  256
370
   -1
100
AcDbLine
 10
85.15887262658228
 20
-14.5238690595011
 11
85.15887262658228
 21
-14.4639610294378
  0
LINE
  5
87
100
AcDbEntity
  8
0
  6
ByLayer
 62
  256
370
   -1
100
AcDbLine
 10
85.15887262658228
 20
-14.4639610294378
 11
85.73723002373418
 21
-14.4639610294378
  0
SPLINE
  5
88
100
AcDbEntity
  8
0
  6
ByLayer
 62
  256
370
   -1
100
AcDbSpline
210
0
220
0
230
0
 70
    8
 71
    3
 72
   15
 73
   11
 74
    0
 42
1e-07
 43
1e-07
 40
0
 40
0
 40
0
 40
0
 40
0.173550094870288
 40
0.330848996526143
 40
0.472345980634709
 40
0.601488955709282
 40
0.717232401058613
 40
0.8203300764584289
 40
0.912616907704215
 40
1
 40
1
 40
1
 40
1
 10
85.73723002373418
 20
-14.4639610294378
 30
0
 10
85.73738703305216
 20
-14.4731331741547
 30
0
 10
85.73768634936965
 20
-14.4906185859482
 30
0
 10
85.73957958998606
 20
-14.51552251822819
 30
0
 10
85.74245530580865
 20
-14.5379704129705
 30
0
 10
85.74684533852729
 20
-14.5579513702911
 30
0
 10
85.75287102302197
 20
-14.57537702227
 30
0
 10
85.75999452581004
 20
-14.5902172426372
 30
0
 10
85.76827930750828
 20
-14.60280150597599
 30
0
 10
85.77527395806639
 20
-14.6092675778341
 30
0
 10
85.77867583069622
 20
-14.6124123743745
 30
0
  0
SPLINE
  5
89
100
AcDbEntity
  8
0
  6
ByLayer
 62
  256
370
   -1
100
AcDbSpline
210
0
220
0
230
0
 70
    8
 71
    3
 72
   15
 73
   11
 74
    0
 42
1e-07
 43
1e-07
 40
0
 40
0
 40
0
 40
0
 40
0.0749823300005629
 40
0.1618610197516985
 40
0.262645656903116
 40
0.3782273464600755
 40
0.508728624527843
 40
0.6552124866301641
 40
0.819372724498135
 40
1
 40
1
 40
1
 40
1
 10
85.77867583069622
 20
-14.6124123743745
 30
0
 10
85.78359463930262
 20
-14.61621213355379
 30
0
 10
85.79421265259978
 20
-14.6244145046401
 30
0
 10
85.81382220584813
 20
-14.6341503005582
 30
0
 10
85.83781143556523
 20
-14.6416246142621
 30
0
 10
85.86568821872334
 20
-14.64860595641959
 30
0
 10
85.89790670563583
 20
-14.6530651753055
 30
0
 10
85.93420534992362
 20
-14.6569584749059
 30
0
 10
85.9748275478544
 20
-14.6591119064503
 30
0
 10
86.0033602431286
 20
-14.6593730660172
 30
0
 10
86.01830795094936
 20
-14.6595098822859
 30
0
  0
LINE
  5
8A
100
AcDbEntity
  8
0
  6
ByLayer
 62
  256
370
   -1
100
AcDbLine
 10
86.01830795094936
 20
-14.6595098822859
 11
86.65883405854431
 21
-14.6595098822859
  0
SPLINE
  5
8B
100
AcDbEntity
  8
0
  6
ByLayer
 62
  256
370
   -1
100
AcDbSpline
210
0
220
0
230
0
 70
    8
 71
    3
 72
   15
 73
   11
 74
    0
 42
1e-07
 43
1e-07
 40
0
 40
0
 40
0
 40
0
 40
0.1721618445058525
 40
0.323118656109895
 40
0.455153637982297
 40
0.572249668510438
 40
0.677186448462855
 40
0.7799672906935909
 40
0.88435393956941
 40
1
 40
1
 40
1
 40
1
 10
86.65883405854431
 20
-14.6595098822859
 30
0
 10
86.67594180867508
 20
-14.6591404714653
 30
0
 10
86.70805016141252
 20
-14.6584471498513
 30
0
 10
86.7528761364789
 20
-14.6517522103297
 30
0
 10
86.79126802072958
 20
-14.6408653495083
 30
0
 10
86.82277801976329
 20
-14.6246778380668
 30
0
 10
86.84773996381578
 20
-14.603727937576
 30
0
 10
86.86549441996455
 20
-14.577870639996
 30
0
 10
86.87611012799762
 20
-14.54712607054431
 30
0
 10
86.87718063308063
 20
-14.5252131283415
 30
0
 10
86.87774327531646
 20
-14.5136959977922
 30
0
  0
SPLINE
  5
8C
100
AcDbEntity
  8
0
  6
ByLayer
 62
  256
370
   -1
100
AcDbSpline
210
0
220
0
230
0
 70
    8
 71
    3
 72
   19
 73
   15
 74
    0
 42
1e-07
 43
1e-07
 40
0
 40
0
 40
0
 40
0
 40
0.1199451247771924
 40
0.223334874135771
 40
0.313581188798179
 40
0.396599335719114
 40
0.442148750240397
 40
0.494231701831872
 40
0.555506129349311
 40
0.625999140275616
 40
0.70513145326965
 40
0.79378743193583
 40
0.8924710650326809
 40
1
 40
1
 40
1
 40
1
 10
86.87774327531646
 20
-14.5136959977922
 30
0
 10
86.8773465479949
 20
-14.5004613074228
 30
0
 10
86.87660785147357
 20
-14.47581863925791
 30
0
 10
86.86852545663592
 20
-14.4419102757935
 30
0
 10
86.85452887797031
 20
-14.4144425661907
 30
0
 10
86.83746566396746
 20
-14.3968043541644
 30
0
 10
86.82039999162639
 20
-14.38637471590599
 30
0
 10
86.80413427010286
 20
-14.3797875362904
 30
0
 10
86.78492819626481
 20
-14.3732980831411
 30
0
 10
86.76228736493449
 20
-14.3679789926703
 30
0
 10
86.73661599252384
 20
-14.362414211358
 30
0
 10
86.70747238051652
 20
-14.3586711698603
 30
0
 10
86.67522263721177
 20
-14.3547215891905
 30
0
 10
86.65256393098805
 20
-14.352970467748
 30
0
 10
86.64074861550633
 20
-14.3520573506403
 30
0
  0
SPLINE
  5
8D
100
AcDbEntity
  8
0
  6
ByLayer
 62
  256
370
   -1
100
AcDbSpline
210
0
220
0
230
0
 70
    8
 71
    3
 72
   15
 73
   11
 74
    0
 42
1e-07
 43
1e-07
 40
0
 40
0
 40
0
 40
0
 40
0.059893844168097
 40
0.138060574424758
 40
0.2353356569575075
 40
0.3508667988596855
 40
0.484690306680236
 40
0.637621917791111
 40
0.809669447034674
 40
1
 40
1
 40
1
 40
1
 10
86.64074861550633
 20
-14.3520573506403
 30
0
 10
86.63170659651165
 20
-14.351660743384
 30
0
 10
86.61086394809418
 20
-14.35074652880339
 30
0
 10
86.57531684298422
 20
-14.3497269099211
 30
0
 10
86.53136575141531
 20
-14.3483573815511
 30
0
 10
86.47898089459061
 20
-14.3484644748164
 30
0
 10
86.41820048603527
 20
-14.34731659996181
 30
0
 10
86.34886909611772
 20
-14.3472186370139
 30
0
 10
86.27100252896351
 20
-14.3466538687166
 30
0
 10
86.21624323095639
 20
-14.3467381585201
 30
0
 10
86.1874821993671
 20
-14.3467824297542
 30
0
  0
LWPOLYLINE
  5
8E
100
AcDbEntity
  8
0
  6
ByLayer
 62
  256
370
   -1
100
AcDbPolyline
 90
   12
 70
    1
 43
0
 10
82.62728738132911
 20
-13.628262849058
 10
84.14571103639241
 20
-13.628262849058
 10
84.14571103639241
 20
-13.93006367975421
 10
82.73956784018988
 20
-13.93006367975421
 10
82.73956784018988
 20
-14.3207846053871
 10
84.14571103639241
 20
-14.3207846053871
 10
84.14571103639241
 20
-14.62296221614659
 10
82.66119758702533
 20
-14.62296221614659
 10
82.66119758702533
 20
-15.0604038696276
 10
84.7240684335443
 20
-15.0604038696276
 10
84.7240684335443
 20
-13.1749964329188
 10
82.62728738132911
 20
-13.1749964329188
  0
SPLINE
  5
8F
100
AcDbEntity
  8
0
  6
ByLayer
 62
  256
370
   -1
100
AcDbSpline
210
0
220
0
230
0
 70
    8
 71
    3
 72
   15
 73
   11
 74
    0
 42
1e-07
 43
1e-07
 40
0
 40
0
 40
0
 40
0
 40
0.1043589481087078
 40
0.2121140109823295
 40
0.3246878348864225
 40
0.443079072101895
 40
0.5696021068550271
 40
0.7040476060822171
 40
0.847266066540731
 40
1
 40
1
 40
1
 40
1
 10
77.46502373417722
 20
-14.875781638615
 30
0
 10
77.45412310475163
 20
-14.8625974930978
 30
0
 10
77.43196711073675
 20
-14.8358001552777
 30
0
 10
77.40470731708571
 20
-14.7899556221798
 30
0
 10
77.38113741139242
 20
-14.7396652167992
 30
0
 10
77.36255974299897
 20
-14.6840595652983
 30
0
 10
77.34740311798512
 20
-14.6237692073359
 30
0
 10
77.3370467780888
 20
-14.5583327187599
 30
0
 10
77.33115785296499
 20
-14.48805863315641
 30
0
 10
77.33023562908494
 20
-14.4396073740786
 30
0
 10
77.32975969145571
 20
-14.4146028411466
 30
0
  0
LINE
  5
90
100
AcDbEntity
  8
0
  6
ByLayer
 62
  256
370
   -1
100
AcDbLine
 10
77.32975969145571
 20
-14.4146028411466
 11
77.32975969145571
 21
-14.25334097405801
  0
SPLINE
  5
91
100
AcDbEntity
  8
0
  6
ByLayer
 62
  256
370
   -1
100
AcDbSpline
210
0
220
0
230
0
 70
    8
 71
    3
 72
   15
 73
   11
 74
    0
 42
1e-07
 43
1e-07
 40
0
 40
0
 40
0
 40
0
 40
0.1416870958842606
 40
0.2768311970944195
 40
0.406839508165577
 40
0.5314478560826
 40
0.652455564341751
 40
0.77039354870385
 40
0.8860527074375081
 40
1
 40
1
 40
1
 40
1
 10
77.32975969145571
 20
-14.25334097405801
 30
0
 10
77.33013008717863
 20
-14.2331083484694
 30
0
 10
77.3308537740517
 20
-14.1935774234609
 30
0
 10
77.33625239360423
 20
-14.13568515386979
 30
0
 10
77.34480797695053
 20
-14.0806627595784
 30
0
 10
77.35677620115065
 20
-14.02832460905459
 30
0
 10
77.3726757912486
 20
-13.9788390932756
 30
0
 10
77.39198075209929
 20
-13.932001284211
 30
0
 10
77.41427000749874
 20
-13.88753943457299
 30
0
 10
77.43257774805913
 20
-13.8603089951274
 30
0
 10
77.44166337025317
 20
-13.8467952857669
 30
0
  0
SPLINE
  5
92
100
AcDbEntity
  8
0
  6
ByLayer
 62
  256
370
   -1
100
AcDbSpline
210
0
220
0
230
0
 70
    8
 71
    3
 72
   15
 73
   11
 74
    0
 42
1e-07
 43
1e-07
 40
0
 40
0
 40
0
 40
0
 40
0.1220758298431184
 40
0.2416662354848605
 40
0.3591870744693585
 40
0.477798426506178
 40
0.599215784337835
 40
0.725670646837463
 40
0.858807225783102
 40
1
 40
1
 40
1
 40
1
 10
77.44166337025317
 20
-13.8467952857669
 30
0
 10
77.45342686847677
 20
-13.8309908119248
 30
0
 10
77.47671436392515
 20
-13.7997036381892
 30
0
 10
77.51864913834559
 20
-13.7594311171729
 30
0
 10
77.56469745484758
 20
-13.72507183334711
 30
0
 10
77.6152060766816
 20
-13.69694566808639
 30
0
 10
77.6704112641192
 20
-13.6754794956685
 30
0
 10
77.72998031427682
 20
-13.6601639964152
 30
0
 10
77.79401333742888
 20
-13.650474662077
 30
0
 10
77.83825112444953
 20
-13.6494916781068
 30
0
 10
77.86101958069621
 20
-13.648985752539
 30
0
  0
LINE
  5
93
100
AcDbEntity
  8
0
  6
ByLayer
 62
  256
370
   -1
100
AcDbLine
 10
77.86101958069621
 20
-13.648985752539
 11
79.00944521360759
 21
-13.648985752539
  0
LINE
  5
94
100
AcDbEntity
  8
0
  6
ByLayer
 62
  256
370
   -1
100
AcDbLine
 10
79.00944521360759
 20
-13.648985752539
 11
79.00944521360759
 21
-13.1749964329188
  0
LINE
  5
95
100
AcDbEntity
  8
0
  6
ByLayer
 62
  256
370
   -1
100
AcDbLine
 10
79.00944521360759
 20
-13.1749964329188
 11
79.5878026107595
 21
-13.1749964329188
  0
LINE
  5
96
100
AcDbEntity
  8
0
  6
ByLayer
 62
  256
370
   -1
100
AcDbLine
 10
79.5878026107595
 20
-13.1749964329188
 11
79.5878026107595
 21
-15.0604038696276
  0
LINE
  5
97
100
AcDbEntity
  8
0
  6
ByLayer
 62
  256
370
   -1
100
AcDbLine
 10
79.5878026107595
 20
-15.0604038696276
 11
78.01210838607595
 21
-15.0604038696276
  0
SPLINE
  5
98
100
AcDbEntity
  8
0
  6
ByLayer
 62
  256
370
   -1
100
AcDbSpline
210
0
220
0
230
0
 70
    8
 71
    3
 72
   15
 73
   11
 74
    0
 42
1e-07
 43
1e-07
 40
0
 40
0
 40
0
 40
0
 40
0.155903929239319
 40
0.301056870742579
 40
0.4362354917360435
 40
0.561790326472857
 40
0.679178457107956
 40
0.7900434109050321
 40
0.896084208380526
 40
1
 40
1
 40
1
 40
1
 10
78.01210838607595
 20
-15.0604038696276
 30
0
 10
77.98119053276281
 20
-15.0598408185889
 30
0
 10
77.92148689210445
 20
-15.0587535439793
 30
0
 10
77.83533030777238
 20
-15.05001828400631
 30
0
 10
77.75600072925188
 20
-15.0359780261394
 30
0
 10
77.68356005521866
 20
-15.0162130478957
 30
0
 10
77.6181239673176
 20
-14.9903608915137
 30
0
 10
77.56018491820714
 20
-14.9579311360196
 30
0
 10
77.50811094782283
 20
-14.9208603058728
 30
0
 10
77.47928890113606
 20
-14.8907061292076
 30
0
 10
77.46502373417722
 20
-14.875781638615
 30
0
  0
LINE
  5
99
100
AcDbEntity
  8
0
  6
ByLayer
 62
  256
370
   -1
100
AcDbLine
 10
72.34759691455697
 20
-13.8991677145643
 11
71.76923951740507
 21
-13.8991677145643
  0
LINE
  5
9A
100
AcDbEntity
  8
0
  6
ByLayer
 62
  256
370
   -1
100
AcDbLine
 10
71.76923951740507
 20
-13.8991677145643
 11
71.76923951740507
 21
-13.7220810848175
  0
SPLINE
  5
9B
100
AcDbEntity
  8
0
  6
ByLayer
 62
  256
370
   -1
100
AcDbSpline
210
0
220
0
230
0
 70
    8
 71
    3
 72
   15
 73
   11
 74
    0
 42
1e-07
 43
1e-07
 40
0
 40
0
 40
0
 40
0
 40
0.1507180121309685
 40
0.2926151094353475
 40
0.425430266535903
 40
0.549972578068041
 40
0.669451957196263
 40
0.783298963208879
 40
0.89256278756317
 40
1
 40
1
 40
1
 40
1
 10
71.76923951740507
 20
-13.7220810848175
 30
0
 10
71.76950758332518
 20
-13.7002093027649
 30
0
 10
71.7700280263528
 20
-13.65774580548029
 30
0
 10
71.77670165767758
 20
-13.59631332006789
 30
0
 10
71.78669364805474
 20
-13.5392289067104
 30
0
 10
71.80052867776597
 20
-13.4862642270891
 30
0
 10
71.81889234087733
 20
-13.43758338932061
 30
0
 10
71.8416429934101
 20
-13.393322269769
 30
0
 10
71.86794268867648
 20
-13.3530178173696
 30
0
 10
71.88911065194807
 20
-13.32972238999049
 30
0
 10
71.8996054193038
 20
-13.3181728569694
 30
0
  0
SPLINE
  5
9C
100
AcDbEntity
  8
0
  6
ByLayer
 62
  256
370
   -1
100
AcDbSpline
210
0
220
0
230
0
 70
    8
 71
    3
 72
   15
 73
   11
 74
    0
 42
1e-07
 43
1e-07
 40
0
 40
0
 40
0
 40
0
 40
0.09796764900012381
 40
0.2002720806486235
 40
0.3095939228877435
 40
0.4266161375704515
 40
0.553963573730492
 40
0.6912572256854109
 40
0.839923874773437
 40
1
 40
1
 40
1
 40
1
 10
71.8996054193038
 20
-13.3181728569694
 30
0
 10
71.91418639221283
 20
-13.304895357537
 30
0
 10
71.94399380121135
 20
-13.2777525970005
 30
0
 10
71.99713897367621
 20
-13.2448438408851
 30
0
 10
72.05690120666704
 20
-13.2165208774374
 30
0
 10
72.12435352831412
 20
-13.19368704596441
 30
0
 10
72.19901195821544
 20
-13.17578267715669
 30
0
 10
72.2811778225377
 20
-13.1631912434856
 30
0
 10
72.37056798291333
 20
-13.1557527476666
 30
0
 10
72.43260877224957
 20
-13.1547786019139
 30
0
 10
72.46477551424051
 20
-13.1542735294378
 30
0
  0
LINE
  5
9D
100
AcDbEntity
  8
0
  6
ByLayer
 62
  256
370
   -1
100
AcDbLine
 10
72.46477551424051
 20
-13.15427352943779
 11
73.39692939082279
 21
-13.1542735294378
  0
SPLINE
  5
9E
100
AcDbEntity
  8
0
  6
ByLayer
 62
  256
370
   -1
100
AcDbSpline
210
0
220
0
230
0
 70
    8
 71
    3
 72
   15
 73
   11
 74
    0
 42
1e-07
 43
1e-07
 40
0
 40
0
 40
0
 40
0
 40
0.1605875215537215
 40
0.3101405184264785
 40
0.4490938487266145
 40
0.576793638438392
 40
0.695344285331768
 40
0.804620500480178
 40
0.905959477266396
 40
1
 40
1
 40
1
 40
1
 10
73.39692939082279
 20
-13.1542735294378
 30
0
 10
73.43084852078594
 20
-13.1547451380052
 30
0
 10
73.49635607983889
 20
-13.15565594928239
 30
0
 10
73.59106861820698
 20
-13.16154327295361
 30
0
 10
73.67845732917769
 20
-13.1717264513877
 30
0
 10
73.75840352983201
 20
-13.1870600982733
 30
0
 10
73.83134760513606
 20
-13.20528960682889
 30
0
 10
73.89682065731466
 20
-13.22887790220389
 30
0
 10
73.95552413250958
 20
-13.2557414759559
 30
0
 10
73.98997672833377
 20
-13.2785562912908
 30
0
 10
74.00655953322786
 20
-13.28953757215929
 30
0
  0
SPLINE
  5
9F
100
AcDbEntity
  8
0
  6
ByLayer
 62
  256
370
   -1
100
AcDbSpline
210
0
220
0
230
0
 70
    8
 71
    3
 72
   15
 73
   11
 74
    0
 42
1e-07
 43
1e-07
 40
0
 40
0
 40
0
 40
0
 40
0.109492985186299
 40
0.219049624589276
 40
0.331592560368793
 40
0.448565430731854
 40
0.572223924193648
 40
0.704195426621246
 40
0.8464304071087541
 40
1
 40
1
 40
1
 40
1
 10
74.00655953322786
 20
-13.28953757215929
 30
0
 10
74.02438913156092
 20
-13.30317739189901
 30
0
 10
74.06005869354054
 20
-13.3304649609463
 30
0
 10
74.10500807481151
 20
-13.3818095552309
 30
0
 10
74.1433716672171
 20
-13.4398231515556
 30
0
 10
74.17421969165612
 20
-13.5054180037439
 30
0
 10
74.19829207776839
 20
-13.57791542266241
 30
0
 10
74.21536115475345
 20
-13.65762955285139
 30
0
 10
74.22608772030522
 20
-13.74464697961699
 30
0
 10
74.22716839067895
 20
-13.8051905087858
 30
0
 10
74.22772943037975
 20
-13.836622224058
 30
0
  0
LINE
  5
A0
100
AcDbEntity
  8
0
  6
ByLayer
 62
  256
370
   -1
100
AcDbLine
 10
74.22772943037975
 20
-13.836622224058
 11
74.22772943037975
 21
-14.3991548585517
  0
SPLINE
  5
A1
100
AcDbEntity
  8
0
  6
ByLayer
 62
  256
370
   -1
100
AcDbSpline
210
0
220
0
230
0
 70
    8
 71
    3
 72
   15
 73
   11
 74
    0
 42
1e-07
 43
1e-07
 40
0
 40
0
 40
0
 40
0
 40
0.1525091251308665
 40
0.2949360701611005
 40
0.4271198854550535
 40
0.550997534298923
 40
0.6676285729969
 40
0.780353949809758
 40
0.890047341730951
 40
1
 40
1
 40
1
 40
1
 10
74.22772943037975
 20
-14.3991548585517
 30
0
 10
74.22715862557892
 20
-14.4304601144304
 30
0
 10
74.22605475114099
 20
-14.49100107639811
 30
0
 10
74.21536465943753
 20
-14.57814691523809
 30
0
 10
74.19827195632449
 20
-14.6582235469794
 30
0
 10
74.17431699362766
 20
-14.7310256941896
 30
0
 10
74.14326171178195
 20
-14.7967626972224
 30
0
 10
74.10504109072654
 20
-14.855105319035
 30
0
 10
74.0599678879327
 20
-14.9068004423799
 30
0
 10
74.02437632201634
 20
-14.9345893408372
 30
0
 10
74.00655953322786
 20
-14.94850019083019
 30
0
  0
SPLINE
  5
A2
100
AcDbEntity
  8
0
  6
ByLayer
 62
  256
370
   -1
100
AcDbSpline
210
0
220
0
230
0
 70
    8
 71
    3
 72
   15
 73
   11
 74
    0
 42
1e-07
 43
1e-07
 40
0
 40
0
 40
0
 40
0
 40
0.0938418027412171
 40
0.1948016373256635
 40
0.304013389752488
 40
0.422710445149536
 40
0.5503515262238921
 40
0.6894764620757721
 40
0.839214154950328
 40
1
 40
1
 40
1
 40
1
 10
74.00655953322786
 20
-14.94850019083019
 30
0
 10
73.98998757597327
 20
-14.95938458461161
 30
0
 10
73.95558665535388
 20
-14.9819789686493
 30
0
 10
73.89670340658405
 20
-15.00795701500991
 30
0
 10
73.83127810815081
 20
-15.03112526883591
 30
0
 10
73.75849852095229
 20
-15.0497247515358
 30
0
 10
73.67835605118151
 20
-15.0637562420569
 30
0
 10
73.59108534017548
 20
-15.0743234647208
 30
0
 10
73.49635140045233
 20
-15.0800960447318
 30
0
 10
73.43084692442663
 20
-15.081023385702
 30
0
 10
73.39692939082279
 20
-15.0815035531719
 30
0
  0
LINE
  5
A3
100
AcDbEntity
  8
0
  6
ByLayer
 62
  256
370
   -1
100
AcDbLine
 10
73.39692939082279
 20
-15.08150355317191
 11
72.71721815664557
 21
-15.0815035531719
  0
SPLINE
  5
A4
100
AcDbEntity
  8
0
  6
ByLayer
 62
  256
370
   -1
100
AcDbSpline
210
0
220
0
230
0
 70
    8
 71
    3
 72
   23
 73
   19
 74
    0
 42
1e-07
 43
1e-07
 40
0
 40
0
 40
0
 40
0
 40
0.1026612051379458
 40
0.1983671746039845
 40
0.287167394265328
 40
0.3695452518630855
 40
0.444833348934173
 40
0.51342531515547
 40
0.5759722712597141
 40
0.631950823467866
 40
0.683514702239072
 40
0.732732162869999
 40
0.77968084060785
 40
0.8249422437939899
 40
0.869217456155374
 40
0.912581743100956
 40
0.955829067323704
 40
1
 40
1
 40
1
 40
1
 10
72.71721815664557
 20
-15.0815035531719
 30
0
 10
72.68405900544933
 20
-15.0812755782849
 30
0
 10
72.61998721585533
 20
-15.0808350736741
 30
0
 10
72.52727394533859
 20
-15.0777845180098
 30
0
 10
72.44119488847623
 20
-15.073056093418
 30
0
 10
72.3618671855785
 20
-15.0661133797002
 30
0
 10
72.28940435731465
 20
-15.0565245568611
 30
0
 10
72.22356670885118
 20
-15.0458989293781
 30
0
 10
72.16448040003881
 20
-15.0329716376472
 30
0
 10
72.1117585066585
 20
-15.01735964842381
 30
0
 10
72.06430961752238
 20
-14.9995611764519
 30
0
 10
72.02117378442085
 20
-14.9789643973927
 30
0
 10
71.98222106865367
 20
-14.9549846029538
 30
0
 10
71.94670736736641
 20
-14.9287216991695
 30
0
 10
71.91577964960214
 20
-14.8987650661615
 30
0
 10
71.8889256646861
 20
-14.86605529788881
 30
0
 10
71.86528977903686
 20
-14.830856760417
 30
0
 10
71.85354447133221
 20
-14.8051338208581
 30
0
 10
71.84760977056962
 20
-14.79213646456429
 30
0
  0
SPLINE
  5
A5
100
AcDbEntity
  8
0
  6
ByLayer
 62
  256
370
   -1
100
AcDbSpline
210
0
220
0
230
0
 70
    8
 71
    3
 72
   15
 73
   11
 74
    0
 42
1e-07
 43
1e-07
 40
0
 40
0
 40
0
 40
0
 40
0.0886523346886257
 40
0.1873726538321385
 40
0.295512476036864
 40
0.4149707102813795
 40
0.5442340930917691
 40
0.6846048179816899
 40
0.837062645826932
 40
1
 40
1
 40
1
 40
1
 10
71.84760977056962
 20
-14.79213646456429
 30
0
 10
71.84283619668737
 20
-14.780416369046
 30
0
 10
71.8327469282014
 20
-14.7556451612921
 30
0
 10
71.82216554066
 20
-14.7147666269567
 30
0
 10
71.81213969313472
 20
-14.6693306187652
 30
0
 10
71.80436033908097
 20
-14.61899390593771
 30
0
 10
71.79899478993279
 20
-14.5637568616466
 30
0
 10
71.79476777636629
 20
-14.5037067692688
 30
0
 10
71.79256417658044
 20
-14.4387336145974
 30
0
 10
71.79258771900093
 20
-14.3937557420838
 30
0
 10
71.79259988132912
 20
-14.3705195737416
 30
0
  0
LINE
  5
A6
100
AcDbEntity
  8
0
  6
ByLayer
 62
  256
370
   -1
100
AcDbLine
 10
71.79259988132912
 20
-14.37051957374159
 11
72.37095727848101
 21
-14.3705195737416
  0
LINE
  5
A7
100
AcDbEntity
  8
0
  6
ByLayer
 62
  256
370
   -1
100
AcDbLine
 10
72.37095727848101
 20
-14.3705195737416
 11
72.37095727848101
 21
-14.4225152224757
  0
SPLINE
  5
A8
100
AcDbEntity
  8
0
  6
ByLayer
 62
  256
370
   -1
100
AcDbSpline
210
0
220
0
230
0
 70
    8
 71
    3
 72
   15
 73
   11
 74
    0
 42
1e-07
 43
1e-07
 40
0
 40
0
 40
0
 40
0
 40
0.1133214498055632
 40
0.216719303434242
 40
0.3168845971674495
 40
0.4227065267072565
 40
0.539743807332252
 40
0.6723115923551111
 40
0.82503779642326
 40
1
 40
1
 40
1
 40
1
 10
72.37095727848101
 20
-14.4225152224757
 30
0
 10
72.37161992582433
 20
-14.43632353332281
 30
0
 10
72.37288719226784
 20
-14.46273095674979
 30
0
 10
72.38627342974355
 20
-14.49944029346781
 30
0
 10
72.40819321190995
 20
-14.5304904849702
 30
0
 10
72.43916781810402
 20
-14.5552458005517
 30
0
 10
72.47809692564803
 20
-14.57450269101309
 30
0
 10
72.52536404371403
 20
-14.5875942714049
 30
0
 10
72.58078613969842
 20
-14.5958420198081
 30
0
 10
72.6206028595908
 20
-14.5965737174842
 30
0
 10
72.64186214398735
 20
-14.5969643917795
 30
0
  0
LINE
  5
A9
100
AcDbEntity
  8
0
  6
ByLayer
 62
  256
370
   -1
100
AcDbLine
 10
72.64186214398735
 20
-14.5969643917795
 11
73.27183840981013
 21
-14.5969643917795
  0
SPLINE
  5
AA
100
AcDbEntity
  8
0
  6
ByLayer
 62
  256
370
   -1
100
AcDbSpline
210
0
220
0
230
0
 70
    8
 71
    3
 72
   15
 73
   11
 74
    0
 42
1e-07
 43
1e-07
 40
0
 40
0
 40
0
 40
0
 40
0.1591422615622025
 40
0.306138059999211
 40
0.442873018415213
 40
0.568031878209162
 40
0.684458381349042
 40
0.793994828762416
 40
0.8990428711430261
 40
1
 40
1
 40
1
 40
1
 10
73.27183840981013
 20
-14.5969643917795
 30
0
 10
73.28893337234928
 20
-14.5967388537937
 30
0
 10
73.32181853192989
 20
-14.59630499190961
 30
0
 10
73.36916255750805
 20
-14.5912313584613
 30
0
 10
73.41243634273172
 20
-14.5835689169068
 30
0
 10
73.45166009273883
 20
-14.5727420145732
 30
0
 10
73.48671345955889
 20
-14.55851314414409
 30
0
 10
73.51743338943643
 20
-14.54051138571329
 30
0
 10
73.54473723344289
 20
-14.52011464546941
 30
0
 10
73.55932928179915
 20
-14.50341686843401
 30
0
 10
73.5664804193038
 20
-14.4952337746909
 30
0
  0
SPLINE
  5
AB
100
AcDbEntity
  8
0
  6
ByLayer
 62
  256
370
   -1
100
AcDbSpline
210
0
220
0
230
0
 70
    8
 71
    3
 72
   15
 73
   11
 74
    0
 42
1e-07
 43
1e-07
 40
0
 40
0
 40
0
 40
0
 40
0.09550708173701429
 40
0.1969963163917205
 40
0.30645032945482
 40
0.4232402730737615
 40
0.552392993336062
 40
0.690529023805174
 40
0.839555275793309
 40
1
 40
1
 40
1
 40
1
 10
73.5664804193038
 20
-14.4952337746909
 30
0
 10
73.57197462628747
 20
-14.4878370004626
 30
0
 10
73.58330717375507
 20
-14.4725801498744
 30
0
 10
73.59658233956652
 20
-14.4460899708821
 30
0
 10
73.60830915616918
 20
-14.4167578651453
 30
0
 10
73.61768867668493
 20
-14.3837811920209
 30
0
 10
73.62510034648069
 20
-14.34751227688301
 30
0
 10
73.63031593412444
 20
-14.3077254145329
 30
0
 10
73.63322888298057
 20
-14.26468839115881
 30
0
 10
73.6336866974605
 20
-14.2348832139849
 30
0
 10
73.63392405063291
 20
-14.2194307683618
 30
0
  0
LINE
  5
AC
100
AcDbEntity
  8
0
  6
ByLayer
 62
  256
370
   -1
100
AcDbLine
 10
73.63392405063291
 20
-14.2194307683618
 11
73.63392405063291
 21
-14.0163463142479
  0
SPLINE
  5
AD
100
AcDbEntity
  8
0
  6
ByLayer
 62
  256
370
   -1
100
AcDbSpline
210
0
220
0
230
0
 70
    8
 71
    3
 72
   15
 73
   11
 74
    0
 42
1e-07
 43
1e-07
 40
0
 40
0
 40
0
 40
0
 40
0.168936661815968
 40
0.3244147833075195
 40
0.466906557927235
 40
0.5957571387729199
 40
0.713526321241661
 40
0.818786117582279
 40
0.913201614405733
 40
1
 40
1
 40
1
 40
1
 10
73.63392405063291
 20
-14.0163463142479
 30
0
 10
73.63365399800109
 20
-13.9992627442096
 30
0
 10
73.63313540680194
 20
-13.9664565870825
 30
0
 10
73.6306896969591
 20
-13.9192868335613
 30
0
 10
73.62600531152876
 20
-13.8763343578061
 30
0
 10
73.61862777751145
 20
-13.8376560913958
 30
0
 10
73.61029196475738
 20
-13.80303229150121
 30
0
 10
73.59990166477159
 20
-13.7725984737248
 30
0
 10
73.58710103923693
 20
-13.7464619242302
 30
0
 10
73.57647043825007
 20
-13.7315055943286
 30
0
 10
73.57137856012659
 20
-13.72434176519729
 30
0
  0
SPLINE
  5
AE
100
AcDbEntity
  8
0
  6
ByLayer
 62
  256
370
   -1
100
AcDbSpline
210
0
220
0
230
0
 70
    8
 71
    3
 72
   15
 73
   11
 74
    0
 42
1e-07
 43
1e-07
 40
0
 40
0
 40
0
 40
0
 40
0.09630330274857289
 40
0.1972129115056405
 40
0.3045605441077415
 40
0.421148279274333
 40
0.547306543964693
 40
0.685480433637265
 40
0.8364929573301481
 40
1
 40
1
 40
1
 40
1
 10
73.57137856012659
 20
-13.72434176519729
 30
0
 10
73.56503671835812
 20
-13.7174865221363
 30
0
 10
73.55204969669042
 20
-13.70344814126511
 30
0
 10
73.5283212279946
 20
-13.6856307095895
 30
0
 10
73.50037360451211
 20
-13.6709876082762
 30
0
 10
73.46856735669444
 20
-13.6590516834932
 30
0
 10
73.43283343437201
 20
-13.6497001201126
 30
0
 10
73.39313357890489
 20
-13.6429370774211
 30
0
 10
73.34939204324901
 20
-13.63943802000519
 30
0
 10
73.31894134320846
 20
-13.6387786781252
 30
0
 10
73.30311115506329
 20
-13.63843591076691
 30
0
  0
LINE
  5
AF
100
AcDbEntity
  8
0
  6
ByLayer
 62
  256
370
   -1
100
AcDbLine
 10
73.30311115506329
 20
-13.63843591076691
 11
72.68594541139241
 21
-13.63843591076691
  0
SPLINE
  5
B0
100
AcDbEntity
  8
0
  6
ByLayer
 62
  256
370
   -1
100
AcDbSpline
210
0
220
0
230
0
 70
    8
 71
    3
 72
   15
 73
   11
 74
    0
 42
1e-07
 43
1e-07
 40
0
 40
0
 40
0
 40
0
 40
0.1831783370753005
 40
0.349943170874206
 40
0.498953991983177
 40
0.631767383118618
 40
0.74706365285995
 40
0.847220281665911
 40
0.930788356869808
 40
1
 40
1
 40
1
 40
1
 10
72.68594541139241
 20
-13.63843591076691
 30
0
 10
72.67062185010256
 20
-13.6384753353527
 30
0
 10
72.64134777920273
 20
-13.6385506519257
 30
0
 10
72.59962668593576
 20
-13.6400032210473
 30
0
 10
72.56218577779393
 20
-13.6426584614263
 30
0
 10
72.52914420871764
 20
-13.646031933132
 30
0
 10
72.50022158413014
 20
-13.64981117541249
 30
0
 10
72.47586469607985
 20
-13.6555636194679
 30
0
 10
72.45553185855012
 20
-13.6616424466965
 30
0
 10
72.44400124242856
 20
-13.6671938032013
 30
0
 10
72.43877768987342
 20
-13.66970865602
 30
0
  0
SPLINE
  5
B1
100
AcDbEntity
  8
0
  6
ByLayer
 62
  256
370
   -1
100
AcDbSpline
210
0
220
0
230
0
 70
    8
 71
    3
 72
   15
 73
   11
 74
    0
 42
1e-07
 43
1e-07
 40
0
 40
0
 40
0
 40
0
 40
0.09970725759411549
 40
0.201600139411547
 40
0.3073694267101905
 40
0.4212775091130135
 40
0.546481264127085
 40
0.683209701766762
 40
0.8339749875289769
 40
1
 40
1
 40
1
 40
1
 10
72.43877768987342
 20
-13.66970865602
 30
0
 10
72.43138586245564
 20
-13.674175852232
 30
0
 10
72.41644017571338
 20
-13.6832081674401
 30
0
 10
72.39801024266679
 20
-13.7026890507008
 30
0
 10
72.38256441848505
 20
-13.7257838567453
 30
0
 10
72.36894943503098
 20
-13.7524000841012
 30
0
 10
72.35971113675213
 20
-13.7836106828372
 30
0
 10
72.35241497823944
 20
-13.8184958988516
 30
0
 10
72.3484804754526
 20
-13.8575087521303
 30
0
 10
72.34790074338233
 20
-13.8848425065514
 30
0
 10
72.34759691455697
 20
-13.8991677145643
 30
0
  0
LWPOLYLINE
  5
B2
100
AcDbEntity
  8
0
  6
ByLayer
 62
  256
370
   -1
100
AcDbPolyline
 90
    8
 70
    1
 43
0
 10
75.41873121044304
 20
-15.0604038696276
 10
76.17153777689873
 20
-15.0604038696276
 10
77.19223496835444
 20
-13.1749964329188
 10
76.54643393987342
 20
-13.1749964329188
 10
76.37725969145571
 20
-13.50844678893139
 10
75.20509691455698
 20
-13.50844678893139
 10
75.02574960443037
 20
-13.1749964329188
 10
74.38220925632912
 20
-13.1749964329188
  0
SPLINE
  5
B3
100
AcDbEntity
  8
0
  6
ByLayer
 62
  256
370
   -1
100
AcDbSpline
210
0
220
0
230
0
 70
    8
 71
    3
 72
   15
 73
   11
 74
    0
 42
1e-07
 43
1e-07
 40
0
 40
0
 40
0
 40
0
 40
0.1016191130960546
 40
0.2082465541327115
 40
0.3194066171077395
 40
0.438310643588449
 40
0.5649379361221389
 40
0.700362662670452
 40
0.8451630589164491
 40
1
 40
1
 40
1
 40
1
 10
80.09306467563292
 20
-14.90667760380479
 30
0
 10
80.08383659042339
 20
-14.89534448789009
 30
0
 10
80.06492561110487
 20
-14.8721197001025
 30
0
 10
80.04192899484048
 20
-14.8322180471959
 30
0
 10
80.02218703805192
 20
-14.7880135878706
 30
0
 10
80.00604909019475
 20
-14.7392915731207
 30
0
 10
79.9938434160364
 20
-14.6858941773365
 30
0
 10
79.98479620604623
 20
-14.6281192085653
 30
0
 10
79.97962650895597
 20
-14.5657857854378
 30
0
 10
79.97889931320961
 20
-14.52274824883
 30
0
 10
79.9785235363924
 20
-14.500508695577
 30
0
  0
LINE
  5
B4
100
AcDbEntity
  8
0
  6
ByLayer
 62
  256
370
   -1
100
AcDbLine
 10
79.9785235363924
 20
-14.500508695577
 11
79.9785235363924
 21
-14.3806926354504
  0
SPLINE
  5
B5
100
AcDbEntity
  8
0
  6
ByLayer
 62
  256
370
   -1
100
AcDbSpline
210
0
220
0
230
0
 70
    8
 71
    3
 72
   15
 73
   11
 74
    0
 42
1e-07
 43
1e-07
 40
0
 40
0
 40
0
 40
0
 40
0.1568574703703415
 40
0.3042650371206035
 40
0.4414731585341475
 40
0.5699796430042621
 40
0.689346002093729
 40
0.799593181082047
 40
0.9033398243981741
 40
1
 40
1
 40
1
 40
1
 10
79.9785235363924
 20
-14.3806926354504
 30
0
 10
79.97880420925581
 20
-14.3643638894485
 30
0
 10
79.97934864580064
 20
-14.33269012538319
 30
0
 10
79.98171266231002
 20
-14.2867594656791
 30
0
 10
79.98676067591684
 20
-14.2440259361889
 30
0
 10
79.99321873450646
 20
-14.2044216943377
 30
0
 10
80.00244716080287
 20
-14.1682586724562
 30
0
 10
80.01282156508888
 20
-14.13511863194899
 30
0
 10
80.02544401789399
 20
-14.1052359718622
 30
0
 10
80.03598493427977
 20
-14.08720953297851
 30
0
 10
80.04106902689874
 20
-14.0785150246909
 30
0
  0
SPLINE
  5
B6
100
AcDbEntity
  8
0
  6
ByLayer
 62
  256
370
   -1
100
AcDbSpline
210
0
220
0
230
0
 70
    8
 71
    3
 72
   15
 73
   11
 74
    0
 42
1e-07
 43
1e-07
 40
0
 40
0
 40
0
 40
0
 40
0.1085963283794282
 40
0.218778471175935
 40
0.3324320681274855
 40
0.451325878827061
 40
0.576229534736485
 40
0.7081391535916
 40
0.850139909989688
 40
1
 40
1
 40
1
 40
1
 10
80.04106902689874
 20
-14.0785150246909
 30
0
 10
80.04718181251435
 20
-14.06887137663161
 30
0
 10
80.0594966477539
 20
-14.0494432558981
 30
0
 10
80.0836200666549
 20
-14.02406935307909
 30
0
 10
80.1102412586759
 20
-13.9998124944001
 30
0
 10
80.14162462384112
 20
-13.97911461034199
 30
0
 10
80.17587794672772
 20
-13.9595371118342
 30
0
 10
80.21447201036545
 20
-13.9432242635859
 30
0
 10
80.25640725759582
 20
-13.9283422898845
 30
0
 10
80.28615146538665
 20
-13.921015302941
 30
0
 10
80.30142405063292
 20
-13.9172531576023
 30
0
  0
LINE
  5
B7
100
AcDbEntity
  8
0
  6
ByLayer
 62
  256
370
   -1
100
AcDbLine
 10
80.30142405063292
 20
-13.9172531576023
 11
80.30142405063292
 21
-13.91197823671619
  0
SPLINE
  5
B8
100
AcDbEntity
  8
0
  6
ByLayer
 62
  256
370
   -1
100
AcDbSpline
210
0
220
0
230
0
 70
    8
 71
    3
 72
   15
 73
   11
 74
    0
 42
1e-07
 43
1e-07
 40
0
 40
0
 40
0
 40
0
 40
0.150335510035847
 40
0.291825650556467
 40
0.42594810469261
 40
0.552844750284176
 40
0.672078489726027
 40
0.785937573312477
 40
0.895010719505141
 40
1
 40
1
 40
1
 40
1
 10
80.30142405063292
 20
-13.91197823671619
 30
0
 10
80.28920151944058
 20
-13.9095047970568
 30
0
 10
80.26547560055555
 20
-13.9047034488086
 30
0
 10
80.23150489160949
 20
-13.8949891035364
 30
0
 10
80.19967439111858
 20
-13.8848411182407
 30
0
 10
80.17078291159102
 20
-13.8721510507413
 30
0
 10
80.14400274963465
 20
-13.8588576423728
 30
0
 10
80.12038334922387
 20
-13.8430780602277
 30
0
 10
80.09853590967202
 20
-13.8267901105199
 30
0
 10
80.08601727567283
 20
-13.8141744360656
 30
0
 10
80.07987737341773
 20
-13.8079869392479
 30
0
  0
SPLINE
  5
B9
100
AcDbEntity
  8
0
  6
ByLayer
 62
  256
370
   -1
100
AcDbSpline
210
0
220
0
230
0
 70
    8
 71
    3
 72
   15
 73
   11
 74
    0
 42
1e-07
 43
1e-07
 40
0
 40
0
 40
0
 40
0
 40
0.1024884636062544
 40
0.2094494032001335
 40
0.3219020142689565
 40
0.4402848728222375
 40
0.5657919030424831
 40
0.700539165516928
 40
0.84547974073567
 40
1
 40
1
 40
1
 40
1
 10
80.07987737341773
 20
-13.8079869392479
 30
0
 10
80.07235940594478
 20
-13.7993753464616
 30
0
 10
80.05699539574226
 20
-13.7817763611102
 30
0
 10
80.03787988334332
 20
-13.7512635178118
 30
0
 10
80.02172278826485
 20
-13.7172089353081
 30
0
 10
80.00858385679155
 20
-13.6796775651914
 30
0
 10
79.99839832354843
 20
-13.6386817247637
 30
0
 10
79.99151212732714
 20
-13.5940342962867
 30
0
 10
79.98682337996928
 20
-13.5458470568183
 30
0
 10
79.98631926064941
 20
-13.5124778346945
 30
0
 10
79.98605913765823
 20
-13.4952594867162
 30
0
  0
LINE
  5
BA
100
AcDbEntity
  8
0
  6
ByLayer
 62
  256
370
   -1
100
AcDbLine
 10
79.98605913765823
 20
-13.4952594867162
 11
79.98605913765823
 21
-13.1749964329188
  0
LINE
  5
BB
100
AcDbEntity
  8
0
  6
ByLayer
 62
  256
370
   -1
100
AcDbLine
 10
79.98605913765823
 20
-13.1749964329188
 11
80.56441653481014
 21
-13.1749964329188
  0
LINE
  5
BC
100
AcDbEntity
  8
0
  6
ByLayer
 62
  256
370
   -1
100
AcDbLine
 10
80.56441653481014
 20
-13.1749964329188
 11
80.56441653481014
 21
-13.40144125095669
  0
SPLINE
  5
BD
100
AcDbEntity
  8
0
  6
ByLayer
 62
  256
370
   -1
100
AcDbSpline
210
0
220
0
230
0
 70
    8
 71
    3
 72
   23
 73
   19
 74
    0
 42
1e-07
 43
1e-07
 40
0
 40
0
 40
0
 40
0
 40
0.0859652450050048
 40
0.1648608276805365
 40
0.237021390384208
 40
0.304444071171109
 40
0.3648423267900555
 40
0.420449914502861
 40
0.47106444906392
 40
0.5188338135412109
 40
0.565537556284969
 40
0.614231766509167
 40
0.666021216579087
 40
0.721827154200787
 40
0.7834860776719249
 40
0.849522750966126
 40
0.922175034177788
 40
1
 40
1
 40
1
 40
1
 10
80.56441653481014
 20
-13.40144125095669
 30
0
 10
80.5645612615684
 20
-13.41337481736161
 30
0
 10
80.5648388129574
 20
-13.43626055024779
 30
0
 10
80.56692660552368
 20
-13.46912864197869
 30
0
 10
80.57120964753506
 20
-13.4991742302385
 30
0
 10
80.57659262125065
 20
-13.52643509879189
 30
0
 10
80.58382705306229
 20
-13.5508883896086
 30
0
 10
80.59235841263066
 20
-13.5724262856072
 30
0
 10
80.60255878014473
 20
-13.5912974352115
 30
0
 10
80.61483071176131
 20
-13.60736297967439
 30
0
 10
80.62907994314291
 20
-13.6213321455459
 30
0
 10
80.64592358857153
 20
-13.63304985351411
 30
0
 10
80.66534312797083
 20
-13.64286932820949
 30
0
 10
80.68754647752476
 20
-13.6506974052918
 30
0
 10
80.71225137746379
 20
-13.6570346030033
 30
0
 10
80.73973264350589
 20
-13.66151715374041
 30
0
 10
80.76971030693575
 20
-13.6641137049604
 30
0
 10
80.79060481456767
 20
-13.6643246414165
 30
0
 10
80.80141119462026
 20
-13.664433735134
 30
0
  0
LINE
  5
BE
100
AcDbEntity
  8
0
  6
ByLayer
 62
  256
370
   -1
100
AcDbLine
 10
80.80141119462026
 20
-13.66443373513401
 11
81.71020470727848
 21
-13.664433735134
  0
LINE
  5
BF
100
AcDbEntity
  8
0
  6
ByLayer
 62
  256
370
   -1
100
AcDbLine
 10
81.71020470727848
 20
-13.664433735134
 11
81.71020470727848
 21
-13.1749964329188
  0
LINE
  5
C0
100
AcDbEntity
  8
0
  6
ByLayer
 62
  256
370
   -1
100
AcDbLine
 10
81.71020470727848
 20
-13.1749964329188
 11
82.28856210443038
 21
-13.1749964329188
  0
LINE
  5
C1
100
AcDbEntity
  8
0
  6
ByLayer
 62
  256
370
   -1
100
AcDbLine
 10
82.28856210443038
 20
-13.1749964329188
 11
82.28856210443038
 21
-15.0604038696276
  0
LINE
  5
C2
100
AcDbEntity
  8
0
  6
ByLayer
 62
  256
370
   -1
100
AcDbLine
 10
82.28856210443038
 20
-15.0604038696276
 11
80.54369363132912
 21
-15.0604038696276
  0
SPLINE
  5
C3
100
AcDbEntity
  8
0
  6
ByLayer
 62
  256
370
   -1
100
AcDbSpline
210
0
220
0
230
0
 70
    8
 71
    3
 72
   15
 73
   11
 74
    0
 42
1e-07
 43
1e-07
 40
0
 40
0
 40
0
 40
0
 40
0.15518722134773
 40
0.299526625813006
 40
0.433874428176871
 40
0.559291646394538
 40
0.676792662689036
 40
0.788150913591435
 40
0.895200012441863
 40
1
 40
1
 40
1
 40
1
 10
80.54369363132912
 20
-15.0604038696276
 30
0
 10
80.51830530801227
 20
-15.0600326083142
 30
0
 10
80.46930334282402
 20
-15.05931603740369
 30
0
 10
80.39862127602717
 20
-15.0520891842871
 30
0
 10
80.33350596769117
 20
-15.040285668794
 30
0
 10
80.27408936158419
 20
-15.0233075955874
 30
0
 10
80.22006026274718
 20
-15.0020075263473
 30
0
 10
80.17183538033674
 20
-14.9754509989923
 30
0
 10
80.1288208256334
 20
-14.9442682129521
 30
0
 10
80.10489873542735
 20
-14.91911880668469
 30
0
 10
80.09306467563292
 20
-14.90667760380479
 30
0
  0
CIRCLE
  5
C4
100
AcDbEntity
  8
0
  6
ByLayer
 62
  256
370
   -1
100
AcDbCircle
 10
22.5198
 20
85.00880000000001
 40
4.064
  0
CIRCLE
  5
C5
100
AcDbEntity
  8
0
  6
ByLayer
 62
  256
370
   -1
100
AcDbCircle
 10
137.4802
 20
-5.008800000000008
 40
4.064
  0
CIRCLE
  5
C6
100
AcDbEntity
  8
0
  6
ByLayer
 62
  256
370
   -1
100
AcDbCircle
 10
167.9856
 20
46.985
 40
1.524
  0
CIRCLE
  5
C7
100
AcDbEntity
  8
0
  6
ByLayer
 62
  256
370
   -1
100
AcDbCircle
 10
167.9856
 20
60.0025
 40
4.064
  0
CIRCLE
  5
C8
100
AcDbEntity
  8
0
  6
ByLayer
 62
  256
370
   -1
100
AcDbCircle
 10
167.9856
 20
40
 40
4.064
  0
LINE
  5
C9
100
AcDbEntity
  8
fond
  6
ByLayer
 62
  256
370
   -1
100
AcDbLine
 10
0.04999999999999982
 20
66.56687370393743
 11
-14
 21
66.56687370393743
  0
LINE
  5
CA
100
AcDbEntity
  8
fond
  6
ByLayer
 62
  256
370
   -1
100
AcDbLine
 10
-14
 20
66.56687370393743
 11
-14
 21
15
  0
LINE
  5
CB
100
AcDbEntity
  8
fond
  6
ByLayer
 62
  256
370
   -1
100
AcDbLine
 10
-14
 20
15
 11
0.04999999999999982
 21
15
  0
LINE
  5
CC
100
AcDbEntity
  8
fond
  6
ByLayer
 62
  256
370
   -1
100
AcDbLine
 10
173.9
 20
14.8822
 11
173.9
 21
27.8822
  0
LINE
  5
CD
100
AcDbEntity
  8
fond
  6
ByLayer
 62
  256
370
   -1
100
AcDbLine
 10
173.9
 20
14.8822
 11
173.9
 21
7.999999999999999
  0
LINE
  5
CE
100
AcDbEntity
  8
0
  6
ByLayer
 62
  256
370
   -1
100
AcDbLine
 10
159.6
 20
29.8822
 11
168.9
 21
29.8822
  0
ARC
  5
CF
100
AcDbEntity
  8
0
  6
ByLayer
 62
  256
370
   -1
100
AcDbCircle
 10
168.9
 20
24.8822
 40
5
100
AcDbArc
 50
0
 51
90
  0
LINE
  5
D0
100
AcDbEntity
  8
0
  6
ByLayer
 62
  256
370
   -1
100
AcDbLine
 10
166.3733878911924
 20
59.92504060851313
 11
159.6
 21
59.9822
  0
LINE
  5
D1
100
AcDbEntity
  8
0
  6
ByLayer
 62
  256
370
   -1
100
AcDbLine
 10
171.3915605021105
 20
68.47280618976518
 11
171.4154647931815
 21
64.95887540231983
  0
ARC
  5
D2
100
AcDbEntity
  8
0
  6
ByLayer
 62
  256
370
   -1
100
AcDbCircle
 10
166.4155804817018
 20
64.92486258387444
 40
5
100
AcDbArc
 50
269.5165027891097
 51
0.3897611953174789
  0
ARC
  5
D3
100
AcDbEntity
  8
0
  6
ByLayer
 62
  256
370
   -1
100
AcDbCircle
 10
-2.95
 20
69.56687370393743
 40
3
100
AcDbArc
 50
270
 51
0
  0
LINE
  5
D4
100
AcDbEntity
  8
0
  6
ByLayer
 62
  256
370
   -1
100
AcDbLine
 10
-2.950000000000001
 20
66.56687370393743
 11
-11
 21
66.56687370393743
  0
ARC
  5
D5
100
AcDbEntity
  8
0
  6
ByLayer
 62
  256
370
   -1
100
AcDbCircle
 10
-11
 20
63.56687370393743
 40
3
100
AcDbArc
 50
90
 51
180
  0
LINE
  5
D6
100
AcDbEntity
  8
0
  6
ByLayer
 62
  256
370
   -1
100
AcDbLine
 10
-14
 20
63.56687370393743
 11
-14
 21
16
  0
ARC
  5
D7
100
AcDbEntity
  8
0
  6
ByLayer
 62
  256
370
   -1
100
AcDbCircle
 10
-11
 20
16
 40
3
100
AcDbArc
 50
180
 51
270
  0
LINE
  5
D8
100
AcDbEntity
  8
0
  6
ByLayer
 62
  256
370
   -1
100
AcDbLine
 10
2.049999999999997
 20
13
 11
-11
 21
13
  0
ARC
  5
D9
100
AcDbEntity
  8
0
  6
ByLayer
 62
  256
370
   -1
100
AcDbCircle
 10
2.049999999999997
 20
10
 40
3
100
AcDbArc
 50
0
 51
90.00000000000001
  0
LINE
  5
DA
100
AcDbEntity
  8
0
  6
ByLayer
 62
  256
370
   -1
100
AcDbLine
 10
5.049999999999997
 20
10
 11
5.049999999999997
 21
-9
  0
ARC
  5
DB
100
AcDbEntity
  8
0
  6
ByLayer
 62
  256
370
   -1
100
AcDbCircle
 10
8.049999999999997
 20
-9
 40
3
100
AcDbArc
 50
180
 51
270
  0
LINE
  5
DC
100
AcDbEntity
  8
0
  6
ByLayer
 62
  256
370
   -1
100
AcDbLine
 10
8.049999999999997
 20
-12
 11
147
 21
-12
  0
ARC
  5
DD
100
AcDbEntity
  8
0
  6
ByLayer
 62
  256
370
   -1
100
AcDbCircle
 10
147
 20
-9
 40
3
100
AcDbArc
 50
270
 51
0
  0
LINE
  5
DE
100
AcDbEntity
  8
0
  6
ByLayer
 62
  256
370
   -1
100
AcDbLine
 10
0.04999999999999982
 20
69.56687370393743
 11
0.04999999999999982
 21
88.75044326564442
  0
ARC
  5
DF
100
AcDbEntity
  8
0
  6
ByLayer
 62
  256
370
   -1
100
AcDbCircle
 10
3.05
 20
88.75044326564442
 40
3
100
AcDbArc
 50
90.02374462338706
 51
180
  0
LINE
  5
E0
100
AcDbEntity
  8
0
  6
ByLayer
 62
  256
370
   -1
100
AcDbLine
 10
3.048756734462337
 20
91.75044300802621
 11
117.6987567344623
 21
91.79795647673734
  0
LINE
  5
E1
100
AcDbEntity
  8
0
  6
ByLayer
 62
  256
370
   -1
100
AcDbLine
 10
120.7
 20
88.79795673435555
 11
120.7
 21
75.53996716099152
  0
ARC
  5
E2
100
AcDbEntity
  8
0
  6
ByLayer
 62
  256
370
   -1
100
AcDbCircle
 10
117.7
 20
88.79795673435555
 40
3
100
AcDbArc
 50
0
 51
90.02374462338713
  0
CIRCLE
  5
E3
100
AcDbEntity
  8
0
  6
ByLayer
 62
  256
370
   -1
100
AcDbCircle
 10
22.5198
 20
-5.008800000000008
 40
1.740000000000003
  0
CIRCLE
  5
E4
100
AcDbEntity
  8
0
  6
ByLayer
 62
  256
370
   -1
100
AcDbCircle
 10
137.4802
 20
-5.008800000000008
 40
1.740000000000003
  0
CIRCLE
  5
E5
100
AcDbEntity
  8
0
  6
ByLayer
 62
  256
370
   -1
100
AcDbCircle
 10
167.9856
 20
19.9975
 40
1.740000000000003
  0
CIRCLE
  5
E6
100
AcDbEntity
  8
0
  6
ByLayer
 62
  256
370
   -1
100
AcDbCircle
 10
22.5198
 20
85.00880000000001
 40
1.740000000000003
  0
CIRCLE
  5
E7
100
AcDbEntity
  8
0
  6
ByLayer
 62
  256
370
   -1
100
AcDbCircle
 10
-7.985599999999998
 20
60.0025
 40
1.740000000000003
  0
CIRCLE
  5
E8
100
AcDbEntity
  8
0
  6
ByLayer
 62
  256
370
   -1
100
AcDbCircle
 10
-7.985599999999998
 20
40
 40
1.740000000000003
  0
CIRCLE
  5
E9
100
AcDbEntity
  8
0
  6
ByLayer
 62
  256
370
   -1
100
AcDbCircle
 10
-7.985600000000005
 20
19.9975
 40
1.740000000000003
  0
LINE
  5
EA
100
AcDbEntity
  8
0
  6
ByLayer
 62
  256
370
   -1
100
AcDbLine
 10
173.9
 20
8.5
 11
173.9
 21
24.8822
  0
ARC
  5
EB
100
AcDbEntity
  8
0
  6
ByLayer
 62
  256
370
   -1
100
AcDbCircle
 10
168.9
 20
8.5
 40
5
100
AcDbArc
 50
270
 51
0
  0
LINE
  5
EC
100
AcDbEntity
  8
0
  6
ByLayer
 62
  256
370
   -1
100
AcDbLine
 10
168.9
 20
3.5
 11
155
 21
3.5
  0
LINE
  5
ED
100
AcDbEntity
  8
0
  6
ByLayer
 62
  256
370
   -1
100
AcDbLine
 10
150
 20
-1.5
 11
150
 21
-9
  0
ARC
  5
EE
100
AcDbEntity
  8
0
  6
ByLayer
 62
  256
370
   -1
100
AcDbCircle
 10
155
 20
-1.5
 40
5
100
AcDbArc
 50
90
 51
180
  0
ENDSEC
  0
SECTION
  2
OBJECTS
  0
DICTIONARY
  5
C
330
0
100
AcDbDictionary
281
    1
  3
ACAD_GROUP
350
D
  0
DICTIONARY
  5
D
330
C
100
AcDbDictionary
281
    1
  0
ENDSEC
  0
EOF
